<svg width="408" height="392" viewBox="0 0 408 392" fill="none" xmlns="http://www.w3.org/2000/svg">
<ellipse cx="102" cy="98" rx="102" ry="98" fill="#CCF5AC"/>
<path d="M58.733 87H55.9148C55.7481 86.1894 55.4564 85.4773 55.0398 84.8636C54.6307 84.25 54.1307 83.7348 53.5398 83.3182C52.9564 82.8939 52.3087 82.5758 51.5966 82.3636C50.8845 82.1515 50.142 82.0455 49.3693 82.0455C47.9602 82.0455 46.6837 82.4015 45.5398 83.1136C44.4034 83.8258 43.4981 84.875 42.8239 86.2614C42.1572 87.6477 41.8239 89.3485 41.8239 91.3636C41.8239 93.3788 42.1572 95.0795 42.8239 96.4659C43.4981 97.8523 44.4034 98.9015 45.5398 99.6136C46.6837 100.326 47.9602 100.682 49.3693 100.682C50.142 100.682 50.8845 100.576 51.5966 100.364C52.3087 100.152 52.9564 99.8371 53.5398 99.4205C54.1307 98.9962 54.6307 98.4773 55.0398 97.8636C55.4564 97.2424 55.7481 96.5303 55.9148 95.7273H58.733C58.5208 96.9167 58.1345 97.9811 57.5739 98.9205C57.0133 99.8598 56.3163 100.659 55.483 101.318C54.6496 101.97 53.714 102.466 52.6761 102.807C51.6458 103.148 50.5436 103.318 49.3693 103.318C47.3845 103.318 45.6193 102.833 44.0739 101.864C42.5284 100.894 41.3125 99.5152 40.4261 97.7273C39.5398 95.9394 39.0966 93.8182 39.0966 91.3636C39.0966 88.9091 39.5398 86.7879 40.4261 85C41.3125 83.2121 42.5284 81.8333 44.0739 80.8636C45.6193 79.8939 47.3845 79.4091 49.3693 79.4091C50.5436 79.4091 51.6458 79.5795 52.6761 79.9205C53.714 80.2614 54.6496 80.7614 55.483 81.4205C56.3163 82.072 57.0133 82.8674 57.5739 83.8068C58.1345 84.7386 58.5208 85.803 58.733 87ZM82.0142 87H79.196C79.0294 86.1894 78.7377 85.4773 78.321 84.8636C77.9119 84.25 77.4119 83.7348 76.821 83.3182C76.2377 82.8939 75.59 82.5758 74.8778 82.3636C74.1657 82.1515 73.4233 82.0455 72.6506 82.0455C71.2415 82.0455 69.965 82.4015 68.821 83.1136C67.6847 83.8258 66.7794 84.875 66.1051 86.2614C65.4384 87.6477 65.1051 89.3485 65.1051 91.3636C65.1051 93.3788 65.4384 95.0795 66.1051 96.4659C66.7794 97.8523 67.6847 98.9015 68.821 99.6136C69.965 100.326 71.2415 100.682 72.6506 100.682C73.4233 100.682 74.1657 100.576 74.8778 100.364C75.59 100.152 76.2377 99.8371 76.821 99.4205C77.4119 98.9962 77.9119 98.4773 78.321 97.8636C78.7377 97.2424 79.0294 96.5303 79.196 95.7273H82.0142C81.8021 96.9167 81.4157 97.9811 80.8551 98.9205C80.2945 99.8598 79.5975 100.659 78.7642 101.318C77.9309 101.97 76.9953 102.466 75.9574 102.807C74.9271 103.148 73.8248 103.318 72.6506 103.318C70.6657 103.318 68.9006 102.833 67.3551 101.864C65.8097 100.894 64.5938 99.5152 63.7074 97.7273C62.821 95.9394 62.3778 93.8182 62.3778 91.3636C62.3778 88.9091 62.821 86.7879 63.7074 85C64.5938 83.2121 65.8097 81.8333 67.3551 80.8636C68.9006 79.8939 70.6657 79.4091 72.6506 79.4091C73.8248 79.4091 74.9271 79.5795 75.9574 79.9205C76.9953 80.2614 77.9309 80.7614 78.7642 81.4205C79.5975 82.072 80.2945 82.8674 80.8551 83.8068C81.4157 84.7386 81.8021 85.803 82.0142 87ZM86.5682 103V79.7273H100.523V82.2273H89.3864V90.0909H99.4773V92.5909H89.3864V103H86.5682ZM112.213 103.318C110.88 103.318 109.679 103.053 108.611 102.523C107.543 101.992 106.687 101.265 106.043 100.341C105.399 99.4167 105.046 98.3636 104.986 97.1818H107.713C107.819 98.2348 108.296 99.1061 109.145 99.7955C110.001 100.477 111.024 100.818 112.213 100.818C113.168 100.818 114.016 100.595 114.759 100.148C115.509 99.7008 116.096 99.0871 116.52 98.3068C116.952 97.5189 117.168 96.6288 117.168 95.6364C117.168 94.6212 116.944 93.7159 116.497 92.9205C116.058 92.1174 115.452 91.4848 114.679 91.0227C113.906 90.5606 113.024 90.3258 112.031 90.3182C111.319 90.3106 110.588 90.4205 109.838 90.6477C109.088 90.8674 108.471 91.1515 107.986 91.5L105.349 91.1818L106.759 79.7273H118.849V82.2273H109.122L108.304 89.0909H108.44C108.918 88.7121 109.516 88.3977 110.236 88.1477C110.955 87.8977 111.705 87.7727 112.486 87.7727C113.91 87.7727 115.179 88.1136 116.293 88.7955C117.414 89.4697 118.293 90.3939 118.929 91.5682C119.573 92.7424 119.895 94.0833 119.895 95.5909C119.895 97.0758 119.562 98.4015 118.895 99.5682C118.236 100.727 117.327 101.644 116.168 102.318C115.009 102.985 113.69 103.318 112.213 103.318ZM125.773 103H122.818L131.364 79.7273H134.273L142.818 103H139.864L132.909 83.4091H132.727L125.773 103ZM126.864 93.9091H138.773V96.4091H126.864V93.9091ZM164.077 87H161.259C161.092 86.1894 160.8 85.4773 160.384 84.8636C159.974 84.25 159.474 83.7348 158.884 83.3182C158.3 82.8939 157.652 82.5758 156.94 82.3636C156.228 82.1515 155.486 82.0455 154.713 82.0455C153.304 82.0455 152.027 82.4015 150.884 83.1136C149.747 83.8258 148.842 84.875 148.168 86.2614C147.501 87.6477 147.168 89.3485 147.168 91.3636C147.168 93.3788 147.501 95.0795 148.168 96.4659C148.842 97.8523 149.747 98.9015 150.884 99.6136C152.027 100.326 153.304 100.682 154.713 100.682C155.486 100.682 156.228 100.576 156.94 100.364C157.652 100.152 158.3 99.8371 158.884 99.4205C159.474 98.9962 159.974 98.4773 160.384 97.8636C160.8 97.2424 161.092 96.5303 161.259 95.7273H164.077C163.865 96.9167 163.478 97.9811 162.918 98.9205C162.357 99.8598 161.66 100.659 160.827 101.318C159.993 101.97 159.058 102.466 158.02 102.807C156.99 103.148 155.887 103.318 154.713 103.318C152.728 103.318 150.963 102.833 149.418 101.864C147.872 100.894 146.656 99.5152 145.77 97.7273C144.884 95.9394 144.44 93.8182 144.44 91.3636C144.44 88.9091 144.884 86.7879 145.77 85C146.656 83.2121 147.872 81.8333 149.418 80.8636C150.963 79.8939 152.728 79.4091 154.713 79.4091C155.887 79.4091 156.99 79.5795 158.02 79.9205C159.058 80.2614 159.993 80.7614 160.827 81.4205C161.66 82.072 162.357 82.8674 162.918 83.8068C163.478 84.7386 163.865 85.803 164.077 87Z" fill="black"/>
<ellipse cx="306" cy="98" rx="102" ry="98" fill="#7E2E84"/>
<path d="M250.558 103L260.967 82.4091V82.2273H248.967V79.7273H263.876V82.3636L253.513 103H250.558ZM268.521 103V79.7273H282.567V82.2273H271.339V90.0909H281.839V92.5909H271.339V100.5H282.749V103H268.521ZM287.237 103V100.955L294.919 92.5455C295.821 91.5606 296.563 90.7045 297.146 89.9773C297.73 89.2424 298.161 88.553 298.442 87.9091C298.73 87.2576 298.874 86.5758 298.874 85.8636C298.874 85.0455 298.677 84.3371 298.283 83.7386C297.896 83.1402 297.366 82.678 296.692 82.3523C296.018 82.0265 295.26 81.8636 294.419 81.8636C293.525 81.8636 292.745 82.0492 292.078 82.4205C291.419 82.7841 290.908 83.2955 290.544 83.9545C290.188 84.6136 290.01 85.3864 290.01 86.2727H287.328C287.328 84.9091 287.643 83.7121 288.271 82.6818C288.9 81.6515 289.756 80.8485 290.839 80.2727C291.93 79.697 293.154 79.4091 294.51 79.4091C295.874 79.4091 297.082 79.697 298.135 80.2727C299.188 80.8485 300.014 81.625 300.612 82.6023C301.211 83.5795 301.51 84.6667 301.51 85.8636C301.51 86.7197 301.355 87.5568 301.044 88.375C300.741 89.1856 300.211 90.0909 299.453 91.0909C298.703 92.0833 297.661 93.2955 296.328 94.7273L291.101 100.318V100.5H301.919V103H287.237ZM307.021 103V79.7273H321.067V82.2273H309.839V90.0909H320.339V92.5909H309.839V100.5H321.249V103H307.021ZM333.192 103.318C331.631 103.318 330.252 103.042 329.055 102.489C327.866 101.928 326.938 101.159 326.271 100.182C325.605 99.197 325.275 98.0758 325.283 96.8182C325.275 95.8333 325.468 94.9242 325.862 94.0909C326.256 93.25 326.794 92.5492 327.476 91.9886C328.165 91.4205 328.934 91.0606 329.783 90.9091V90.7727C328.669 90.4848 327.783 89.8598 327.124 88.8977C326.464 87.928 326.139 86.8258 326.146 85.5909C326.139 84.4091 326.438 83.3523 327.044 82.4205C327.65 81.4886 328.483 80.7538 329.544 80.2159C330.612 79.678 331.828 79.4091 333.192 79.4091C334.54 79.4091 335.745 79.678 336.805 80.2159C337.866 80.7538 338.699 81.4886 339.305 82.4205C339.919 83.3523 340.23 84.4091 340.237 85.5909C340.23 86.8258 339.893 87.928 339.226 88.8977C338.567 89.8598 337.692 90.4848 336.601 90.7727V90.9091C337.442 91.0606 338.199 91.4205 338.874 91.9886C339.548 92.5492 340.086 93.25 340.487 94.0909C340.889 94.9242 341.093 95.8333 341.101 96.8182C341.093 98.0758 340.752 99.197 340.078 100.182C339.411 101.159 338.483 101.928 337.294 102.489C336.112 103.042 334.745 103.318 333.192 103.318ZM333.192 100.818C334.245 100.818 335.154 100.648 335.919 100.307C336.684 99.9659 337.275 99.4848 337.692 98.8636C338.108 98.2424 338.321 97.5152 338.328 96.6818C338.321 95.803 338.093 95.0265 337.646 94.3523C337.199 93.678 336.589 93.1477 335.817 92.7614C335.052 92.375 334.177 92.1818 333.192 92.1818C332.199 92.1818 331.313 92.375 330.533 92.7614C329.76 93.1477 329.15 93.678 328.703 94.3523C328.264 95.0265 328.048 95.803 328.055 96.6818C328.048 97.5152 328.249 98.2424 328.658 98.8636C329.074 99.4848 329.669 99.9659 330.442 100.307C331.214 100.648 332.131 100.818 333.192 100.818ZM333.192 89.7727C334.025 89.7727 334.764 89.6061 335.408 89.2727C336.059 88.9394 336.571 88.4735 336.942 87.875C337.313 87.2765 337.502 86.5758 337.51 85.7727C337.502 84.9848 337.317 84.2992 336.953 83.7159C336.589 83.125 336.086 82.6705 335.442 82.3523C334.798 82.0265 334.048 81.8636 333.192 81.8636C332.321 81.8636 331.559 82.0265 330.908 82.3523C330.256 82.6705 329.752 83.125 329.396 83.7159C329.04 84.2992 328.866 84.9848 328.874 85.7727C328.866 86.5758 329.044 87.2765 329.408 87.875C329.779 88.4735 330.29 88.9394 330.942 89.2727C331.593 89.6061 332.343 89.7727 333.192 89.7727ZM344.911 98.2273V95.9091L355.138 79.7273H356.82V83.3182H355.683L347.956 95.5455V95.7273H361.729V98.2273H344.911ZM355.865 103V97.5227V96.4432V79.7273H358.547V103H355.865Z" fill="black"/>
<ellipse cx="102" cy="294" rx="102" ry="98" fill="#EF798A"/>
<path d="M45.7244 299V275.727H59.7699V278.227H48.5426V286.091H59.0426V288.591H48.5426V296.5H59.9517V299H45.7244ZM64.8494 299V275.727H78.804V278.227H67.6676V286.091H77.7585V288.591H67.6676V299H64.8494ZM83.9489 299L94.358 278.409V278.227H82.358V275.727H97.267V278.364L86.9034 299H83.9489ZM108.599 275.409C109.554 275.417 110.509 275.598 111.463 275.955C112.418 276.311 113.289 276.902 114.077 277.727C114.865 278.545 115.497 279.663 115.974 281.08C116.452 282.496 116.69 284.273 116.69 286.409C116.69 288.477 116.493 290.314 116.099 291.92C115.713 293.519 115.152 294.867 114.418 295.966C113.69 297.064 112.804 297.898 111.759 298.466C110.721 299.034 109.546 299.318 108.236 299.318C106.933 299.318 105.77 299.061 104.747 298.545C103.732 298.023 102.899 297.299 102.247 296.375C101.603 295.443 101.19 294.364 101.009 293.136H103.781C104.031 294.205 104.527 295.087 105.27 295.784C106.02 296.473 107.009 296.818 108.236 296.818C110.031 296.818 111.448 296.034 112.486 294.466C113.531 292.898 114.054 290.682 114.054 287.818H113.872C113.448 288.455 112.944 289.004 112.361 289.466C111.777 289.928 111.13 290.284 110.418 290.534C109.705 290.784 108.948 290.909 108.145 290.909C106.812 290.909 105.588 290.58 104.474 289.92C103.368 289.254 102.482 288.341 101.815 287.182C101.156 286.015 100.827 284.682 100.827 283.182C100.827 281.758 101.145 280.455 101.781 279.273C102.425 278.083 103.327 277.136 104.486 276.432C105.652 275.727 107.024 275.386 108.599 275.409ZM108.599 277.909C107.645 277.909 106.785 278.148 106.02 278.625C105.262 279.095 104.66 279.731 104.213 280.534C103.774 281.33 103.554 282.212 103.554 283.182C103.554 284.152 103.766 285.034 104.19 285.83C104.622 286.617 105.209 287.246 105.952 287.716C106.702 288.178 107.554 288.409 108.509 288.409C109.228 288.409 109.899 288.269 110.52 287.989C111.141 287.701 111.683 287.311 112.145 286.818C112.615 286.318 112.982 285.754 113.247 285.125C113.512 284.489 113.645 283.826 113.645 283.136C113.645 282.227 113.425 281.375 112.986 280.58C112.554 279.784 111.955 279.14 111.19 278.648C110.433 278.155 109.569 277.909 108.599 277.909ZM128.614 299.318C127.053 299.318 125.674 299.042 124.477 298.489C123.288 297.928 122.36 297.159 121.693 296.182C121.027 295.197 120.697 294.076 120.705 292.818C120.697 291.833 120.89 290.924 121.284 290.091C121.678 289.25 122.216 288.549 122.898 287.989C123.587 287.42 124.356 287.061 125.205 286.909V286.773C124.091 286.485 123.205 285.86 122.545 284.898C121.886 283.928 121.561 282.826 121.568 281.591C121.561 280.409 121.86 279.352 122.466 278.42C123.072 277.489 123.905 276.754 124.966 276.216C126.034 275.678 127.25 275.409 128.614 275.409C129.962 275.409 131.167 275.678 132.227 276.216C133.288 276.754 134.121 277.489 134.727 278.42C135.341 279.352 135.652 280.409 135.659 281.591C135.652 282.826 135.314 283.928 134.648 284.898C133.989 285.86 133.114 286.485 132.023 286.773V286.909C132.864 287.061 133.621 287.42 134.295 287.989C134.97 288.549 135.508 289.25 135.909 290.091C136.311 290.924 136.515 291.833 136.523 292.818C136.515 294.076 136.174 295.197 135.5 296.182C134.833 297.159 133.905 297.928 132.716 298.489C131.534 299.042 130.167 299.318 128.614 299.318ZM128.614 296.818C129.667 296.818 130.576 296.648 131.341 296.307C132.106 295.966 132.697 295.485 133.114 294.864C133.53 294.242 133.742 293.515 133.75 292.682C133.742 291.803 133.515 291.027 133.068 290.352C132.621 289.678 132.011 289.148 131.239 288.761C130.473 288.375 129.598 288.182 128.614 288.182C127.621 288.182 126.735 288.375 125.955 288.761C125.182 289.148 124.572 289.678 124.125 290.352C123.686 291.027 123.47 291.803 123.477 292.682C123.47 293.515 123.67 294.242 124.08 294.864C124.496 295.485 125.091 295.966 125.864 296.307C126.636 296.648 127.553 296.818 128.614 296.818ZM128.614 285.773C129.447 285.773 130.186 285.606 130.83 285.273C131.481 284.939 131.992 284.473 132.364 283.875C132.735 283.277 132.924 282.576 132.932 281.773C132.924 280.985 132.739 280.299 132.375 279.716C132.011 279.125 131.508 278.67 130.864 278.352C130.22 278.027 129.47 277.864 128.614 277.864C127.742 277.864 126.981 278.027 126.33 278.352C125.678 278.67 125.174 279.125 124.818 279.716C124.462 280.299 124.288 280.985 124.295 281.773C124.288 282.576 124.466 283.277 124.83 283.875C125.201 284.473 125.712 284.939 126.364 285.273C127.015 285.606 127.765 285.773 128.614 285.773ZM142.241 299H139.287L147.832 275.727H150.741L159.287 299H156.332L149.378 279.409H149.196L142.241 299ZM143.332 289.909H155.241V292.409H143.332V289.909Z" fill="black"/>
<ellipse cx="306" cy="294" rx="102" ry="98" fill="#D14081"/>
<path d="M259 299H251.818V275.727H259.318C261.576 275.727 263.508 276.193 265.114 277.125C266.72 278.049 267.951 279.379 268.807 281.114C269.663 282.841 270.091 284.909 270.091 287.318C270.091 289.742 269.659 291.83 268.795 293.58C267.932 295.322 266.674 296.663 265.023 297.602C263.371 298.534 261.364 299 259 299ZM254.636 296.5H258.818C260.742 296.5 262.337 296.129 263.602 295.386C264.867 294.644 265.811 293.587 266.432 292.216C267.053 290.845 267.364 289.212 267.364 287.318C267.364 285.439 267.057 283.822 266.443 282.466C265.83 281.102 264.913 280.057 263.693 279.33C262.473 278.595 260.955 278.227 259.136 278.227H254.636V296.5ZM282.591 275.727V299H279.773V278.682H279.636L273.955 282.455V279.591L279.773 275.727H282.591ZM288.739 294.227V291.909L298.966 275.727H300.648V279.318H299.511L291.784 291.545V291.727H305.557V294.227H288.739ZM299.693 299V293.523V292.443V275.727H302.375V299H299.693ZM317.406 299.318C315.694 299.318 314.236 298.852 313.031 297.92C311.827 296.981 310.906 295.621 310.27 293.841C309.634 292.053 309.315 289.894 309.315 287.364C309.315 284.848 309.634 282.701 310.27 280.92C310.914 279.133 311.838 277.769 313.043 276.83C314.255 275.883 315.709 275.409 317.406 275.409C319.103 275.409 320.554 275.883 321.759 276.83C322.971 277.769 323.895 279.133 324.531 280.92C325.175 282.701 325.497 284.848 325.497 287.364C325.497 289.894 325.179 292.053 324.543 293.841C323.906 295.621 322.986 296.981 321.781 297.92C320.577 298.852 319.118 299.318 317.406 299.318ZM317.406 296.818C319.103 296.818 320.421 296 321.361 294.364C322.3 292.727 322.77 290.394 322.77 287.364C322.77 285.348 322.554 283.633 322.122 282.216C321.698 280.799 321.084 279.72 320.281 278.977C319.486 278.235 318.527 277.864 317.406 277.864C315.724 277.864 314.41 278.693 313.463 280.352C312.516 282.004 312.043 284.341 312.043 287.364C312.043 289.379 312.255 291.091 312.679 292.5C313.103 293.909 313.713 294.981 314.509 295.716C315.312 296.451 316.277 296.818 317.406 296.818ZM337.27 299.318C335.709 299.318 334.33 299.042 333.134 298.489C331.944 297.928 331.016 297.159 330.349 296.182C329.683 295.197 329.353 294.076 329.361 292.818C329.353 291.833 329.546 290.924 329.94 290.091C330.334 289.25 330.872 288.549 331.554 287.989C332.243 287.42 333.012 287.061 333.861 286.909V286.773C332.747 286.485 331.861 285.86 331.202 284.898C330.543 283.928 330.217 282.826 330.224 281.591C330.217 280.409 330.516 279.352 331.122 278.42C331.728 277.489 332.562 276.754 333.622 276.216C334.69 275.678 335.906 275.409 337.27 275.409C338.618 275.409 339.823 275.678 340.884 276.216C341.944 276.754 342.777 277.489 343.384 278.42C343.997 279.352 344.308 280.409 344.315 281.591C344.308 282.826 343.971 283.928 343.304 284.898C342.645 285.86 341.77 286.485 340.679 286.773V286.909C341.52 287.061 342.277 287.42 342.952 287.989C343.626 288.549 344.164 289.25 344.565 290.091C344.967 290.924 345.171 291.833 345.179 292.818C345.171 294.076 344.83 295.197 344.156 296.182C343.49 297.159 342.562 297.928 341.372 298.489C340.19 299.042 338.823 299.318 337.27 299.318ZM337.27 296.818C338.323 296.818 339.232 296.648 339.997 296.307C340.762 295.966 341.353 295.485 341.77 294.864C342.187 294.242 342.399 293.515 342.406 292.682C342.399 291.803 342.171 291.027 341.724 290.352C341.277 289.678 340.668 289.148 339.895 288.761C339.13 288.375 338.255 288.182 337.27 288.182C336.277 288.182 335.391 288.375 334.611 288.761C333.838 289.148 333.228 289.678 332.781 290.352C332.342 291.027 332.126 291.803 332.134 292.682C332.126 293.515 332.327 294.242 332.736 294.864C333.152 295.485 333.747 295.966 334.52 296.307C335.293 296.648 336.209 296.818 337.27 296.818ZM337.27 285.773C338.103 285.773 338.842 285.606 339.486 285.273C340.137 284.939 340.649 284.473 341.02 283.875C341.391 283.277 341.58 282.576 341.588 281.773C341.58 280.985 341.395 280.299 341.031 279.716C340.668 279.125 340.164 278.67 339.52 278.352C338.876 278.027 338.126 277.864 337.27 277.864C336.399 277.864 335.637 278.027 334.986 278.352C334.334 278.67 333.83 279.125 333.474 279.716C333.118 280.299 332.944 280.985 332.952 281.773C332.944 282.576 333.122 283.277 333.486 283.875C333.857 284.473 334.368 284.939 335.02 285.273C335.671 285.606 336.421 285.773 337.27 285.773ZM357.716 275.727V299H354.898V278.682H354.761L349.08 282.455V279.591L354.898 275.727H357.716Z" fill="black"/>
</svg>
