<?xml version="1.0" encoding="UTF-8"?>
<svg id="Lag_5" data-name="Lag 5" xmlns="http://www.w3.org/2000/svg" viewBox="0 0 1078 1080">
  <defs>
    <style>
      .cls-1 {
        fill: #8e6e53;
      }

      .cls-2 {
        stroke: #000;
        stroke-miterlimit: 10;
        stroke-width: .25px;
      }

      .cls-3 {
        fill: #433e3f;
      }

      .cls-4 {
        fill: pink;
      }

      .cls-5 {
        fill: #685044;
      }

      .cls-6 {
        fill: #fff;
      }
    </style>
  </defs>
  <path class="cls-1" d="M885,568.5c-166,178.5-145.08,317.5-337,317.5s-149.26-138.31-358-317.5C24,426,370.01,130.95,537.5,143c191.42,13.78,507.53,253.42,347.5,425.5Z"/>
  <path d="M741.11,357.53c-3.89-8.7-9.67-17.14-18.33-21.13-4.42-2.03-9.31-2.78-14.15-3.2-26.61-2.31-56.33,6.59-70,29.54-3.34,5.61-5.64,12.29-4.17,18.66,2.19,9.5,11.67,15.17,20.32,19.66,28.79,14.96,60.39,29.37,92.45,24.44,9.25-13.5.1-54.09-6.12-67.98Z"/>
  <path d="M410.27,429.16c5.23-2.61,10.6-5.43,14.18-10.05,3.7-4.77,5.07-11.01,5.09-17.04.07-21.59-18.11-41.7-39.61-43.81-16.28-1.59-32.61,6.32-43.53,18.5-12.65,14.1-32.94,57.91-14.01,74.01,18.01,15.31,61.49-13.44,77.87-21.6Z"/>
  <path class="cls-2" d="M353.46,337.23c3.21-1.61,6.48-3.18,9.96-4.09,6.37-1.66,13.18-1.01,19.49.89s12.18,5,17.9,8.25c2.99,1.7,6.3,3.51,9.66,2.8,1.61-.34,3.04-1.23,4.4-2.15.87-.59,1.79-1.28,2.08-2.29.4-1.41-.55-2.81-1.48-3.94-6.49-7.9-14.95-14.82-25.02-16.6-4.03-.71-8.16-.57-12.24-.2-4.13.37-8.23.95-12.3,1.76-3.83.76-7.63,1.72-11.28,3.11-8.04,3.07-15.24,8.3-20.69,14.96-1.36,1.66-7.59,8.71-4.6,10.84,1.66,1.19,7.15-4.2,8.74-5.12,5.03-2.91,10.18-5.61,15.37-8.21Z"/>
  <path class="cls-2" d="M685.09,302.29c-4.38-.22-8.8-.37-13.15.3-7.97,1.24-15.36,5.23-21.59,10.35-6.23,5.11-11.42,11.33-16.36,17.65-2.58,3.3-5.48,6.88-9.6,7.72-1.97.4-4,.11-5.97-.24-1.26-.23-2.62-.54-3.42-1.51-1.11-1.35-.69-3.35-.17-5.03,3.64-11.78,9.97-23.43,20.51-30.22,4.22-2.72,8.95-4.55,13.73-6.11,4.83-1.58,9.74-2.91,14.71-3.98,4.68-1.01,9.41-1.79,14.18-2.02,10.51-.5,21.08,1.77,30.34,6.44,2.31,1.16,12.63,5.89,10.25,9.66-1.32,2.1-10.03-1.16-12.26-1.41-7.03-.77-14.11-1.25-21.19-1.61Z"/>
  <path class="cls-2" d="M509.99,578.34c7.78,1.46,15.73,1.94,23.65,1.79,27.93-.54,55.84-9.17,78.46-25.56,6.63-4.8,12.98-10.51,16.24-18.02,3.98-9.18,2.73-19.97-1.26-29.14s-10.48-17-17.11-24.49c-3.03-3.42-6.22-6.88-10.33-8.89-4.15-2.03-8.89-2.42-13.5-2.66-9.5-.49-19.03-.49-28.54-.48-10.76,0-21.57.01-32.23,1.54-6.29.9-12.53,2.33-18.42,4.74-7.78,3.18-14.77,8-21.58,12.93-10.55,7.64-21.16,16.05-27.04,27.67-17.03,33.62,24.29,55.42,51.67,60.57Z"/>
  <rect class="cls-2" x="543" y="571" width="22" height="85"/>
  <path class="cls-2" d="M363.81,687.37c.76-2.64,1.57-5.28,2.9-7.5,2.45-4.07,6.56-6.54,11.17-7.85s9.72-1.5,14.84-1.51c2.67,0,5.6-.07,6.99-2.08.67-.96.89-2.27,1.07-3.57.11-.84.19-1.76-.28-2.67-.65-1.26-2.03-1.92-3.24-2.38-8.41-3.22-17.28-4.83-23.86-1.78-2.63,1.22-4.8,3.14-6.79,5.2-2.02,2.09-3.9,4.34-5.61,6.73-1.62,2.26-3.1,4.66-4.23,7.32-2.49,5.88-3.18,13.04-2.05,20.53.28,1.87,1.23,10,4.17,10.33,1.64.18,1.31-6.35,1.6-7.76.94-4.43,2.09-8.76,3.31-13.03Z"/>
  <path class="cls-2" d="M762.5,643.01c-1.69-2.17-3.42-4.32-5.48-5.88-3.78-2.86-8.53-3.63-13.29-3.12s-9.57,2.23-14.33,4.13c-2.48.99-5.22,2.02-7.26.67-.98-.65-1.68-1.78-2.32-2.92-.42-.73-.83-1.57-.74-2.58.13-1.41,1.17-2.53,2.12-3.41,6.6-6.12,14.24-10.92,21.48-10.54,2.9.15,5.62,1.13,8.24,2.3,2.65,1.18,5.23,2.57,7.72,4.16,2.34,1.49,4.61,3.17,6.65,5.22,4.5,4.53,7.81,10.92,9.55,18.29.43,1.84,2.58,9.74-.03,11.14-1.45.78-3.58-5.41-4.38-6.6-2.53-3.76-5.2-7.35-7.92-10.86Z"/>
  <path class="cls-2" d="M439.99,701.69c24.44,1.67,49.41-6.42,68.33-22.15,15.37-12.78,28.08-31.01,47.54-35.27,15.24-3.33,30.72,2.91,45.41,8.21,32.67,11.77,67.87,19.36,102.03,13.29,11.01-1.96,22.3-5.63,29.98-13.84,3.77-4.03,6.48-8.95,10.17-13.05,3.69-4.1,8.88-7.45,14.33-6.79,1.24,10.43-2.81,20.68-6.77,30.39-9.29,22.73-18.58,45.46-27.87,68.19-5.05,12.36-10.14,24.79-17.05,36.2-12.1,19.98-29.36,36.13-46.4,52.02-7.2,6.71-14.57,13.51-23.69,17.12-8.19,3.25-17.25,3.69-26.06,3.63-38.18-.26-76.28-8.38-111.31-23.72-48.31-21.16-91.61-57.51-113.28-106-3.3-7.39-6.2-15.19-11.58-21.22-3.48-3.9-11.37-12.17-3.2-15.74,6.31-2.76,14.47,6.95,18.73,10.07,14.74,10.8,32.51,17.43,50.68,18.67Z"/>
  <path class="cls-5" d="M187.54,319.15c-8.7,19.56-11.72,40.61-18.6,60.7-21.87,63.83-81.19,114.25-104.85,177.61-8.1,21.7-11.42,46.59,1.9,66.32,25.18,37.31,97.1,39.81,114.45,80.25,4.12,9.61,5.3,21.47,15.37,27.02,11.33,6.25,27.45-.44,33.74-10.64s5.57-22.38,4.78-33.89c-8.1-117.7-6.26-238.83,42.23-349.21,6.24-14.2,13.27-28.28,16.45-43.21,1.95-9.14,5.35-34.24-4.97-40.89-8.75-5.63-30.41,3.09-39.32,6.83-28.21,11.84-50.08,34.18-61.17,59.11Z"/>
  <path class="cls-5" d="M818.88,383.1c18.51,78.04,19.4,167.46,36.12,245.9,4.49,21.06,24.23,41.33,39,57,8.86-10.05,5.15-26.95,11-39,4.91-10.1,12.58-22.59,21.85-28.93,8.15-5.57,21.54-8.73,28.15-16.07,10.82-12.01,14.99-28.48,22.52-42.79,18.36-34.87,14.54-78.33-2.05-114.08-16.59-35.75-45.01-64.95-74.47-91.13-9.8-8.71-13.17-19.3-22-29-7.06-7.76-13.1-14.09-21-21-15.42-13.5-25.84-28.77-40-44-5.71-6.14-67.42-50.56-67-30,.16,7.73,35.88,51.35,39.01,58.82,4.3,10.25,8.1,20.7,11.57,31.25,6.82,20.7,12.26,41.83,17.29,63.03Z"/>
  <circle class="cls-6" cx="670.5" cy="375.5" r="22.5"/>
  <circle class="cls-3" cx="660.86" cy="385.14" r="6.43"/>
  <path class="cls-3" d="M497.72,561.71c2.1.54,4.49-1.07,4.77-3.22.1-.72-.01-1.45-.03-2.18-.06-2.93,1.4-5.68,3.06-8.09s3.6-4.69,4.7-7.41,1.23-6.07-.59-8.37c-2.08-2.62-6.13-3-9.16-1.6s-5.19,4.2-6.82,7.12c-1.55,2.79-2.76,6.02-2.05,9.13.69,3.03,3.01,5.48,3.31,8.62.23,2.36-.3,5.22,2.8,6.01Z"/>
  <path class="cls-3" d="M586.52,555.65c-1.97.5-4.22-1.01-4.48-3.02-.09-.67.01-1.36.03-2.04.06-2.74-1.31-5.31-2.88-7.57s-3.48-5.55-6.18-6.02c-3.94-.68-5.77-7.76-2-11,3.48-2.99,10.32-2.06,12.92.75,2.14,2.3,4.88,3.93,6.41,6.67,1.46,2.61,2.59,5.63,1.92,8.54-.65,2.83-2.82,5.13-3.11,8.07-.22,2.21.28,4.88-2.63,5.62Z"/>
  <path class="cls-4" d="M654.4,690.1c-.18-.22-.33-.46-.48-.7-.04-.07-.09-.14-.13-.21-.15-.26-.28-.53-.38-.81.18.37.15.29-.12-.26-.15-.31-.31-.63-.46-.94-.37-.78-.71-1.58-1-2.4-.09-.23-.16-.47-.23-.71-.02-.04-.04-.08-.07-.13-.17-.3-1.14-1.52-.3-.61-.18-.19-.33-.39-.46-.6-.06-.09-.11-.19-.17-.28-.09-.15-.18-.3-.26-.46-7.19-8.96-23.48-16.43-43.08-18.67-19.99-2.28-37.87,1.5-46.73,8.89-8.54.81-18.54,2.46-29.12,4.93-29.37,6.86-52.01,17.44-50.57,23.64.03.15.1.29.16.43-1.58,55.05,6.77,54.01,18.01,82.79,30.32,77.69,40.52,151,90.5,151s90.5-67.61,90.5-151c0-27.63-10.88-45.11-25.6-93.9Z"/>
  <circle class="cls-6" cx="397.59" cy="397.6" r="20.4"/>
  <circle class="cls-3" cx="406.33" cy="406.34" r="5.83"/>
  <path d="M337.01,401.41c-1.8,3.51-4.2,6.49-6.78,9.32l-26.95,8.55,23.96-17.03-28.71-6.31,29.26-2.77-21.71-19.82,26.73,12.23-8.89-28.02,16.63,23.4c.13,7.05-.24,14-3.55,20.45Z"/>
  <path d="M731.24,363.7c3.53,3.31,7.54,5.76,11.7,7.94l34.66-1.31-34.72-9.72,30.52-19.19-34.93,8.94,16.84-31.88-25.78,25.21-1.36-36.03-9.5,33.91c2.78,8.19,6.08,16.06,12.57,22.14Z"/>
  <path d="M593.33,793.02c.18,1.99.41,4.07.77,6.12.68,3.83,6.45,2.93,5.98-.93-2.72-22.27-7.21-44.32-13.42-65.88-5.17-17.96-13.38-59.17-29.07-69.99-7.55,6.38,17.42,49.66,20.97,60.31,7.59,22.79,12.58,46.45,14.77,70.37Z"/>
</svg>