<?xml version="1.0" encoding="UTF-8"?>
<svg id="Lag_3" data-name="Lag 3" xmlns="http://www.w3.org/2000/svg" viewBox="0 0 356.49 620.21">
  <defs>
    <style>
      .cls-1 {
        fill: #4e5340;
      }
    </style>
  </defs>
  <path class="cls-1" d="M354.95,486.37c-7.89-6.42-20.65-12.48-36.09-18.08-.65-5.78-1.5-11.4-2.36-17.21-3.77-10.3-7.18-21.12-10.34-32.29,10.83-2.03,20.03-5.09,26.79-9.43-7.52-6.16-19.16-10.82-33.08-14.44-.49-1.99-.98-3.99-1.46-6,5.43,2.55,10.33,5.03,14.54,7.44-3.6-8.56-10.15-17.13-18.76-25.51-1.79-7.91-3.54-15.87-5.27-23.84.68.12,1.36.25,2.03.35-.8-.78-1.64-1.6-2.47-2.4-2.47-11.38-4.92-22.76-7.45-34.01-4.79-21.3-8.93-45.12-13.74-66.08-2.01-8.74-6.22-26.5-8.92-34.3,16.46-27.79,18.28-79.3,14.09-110.11-2.14-15.76-2.98-32.21-8.51-47.11-3.81-10.26-12.84-30.88-22-37,2.17,19.38,4,39.43,4,59,0,14,.89,22.91,1,34,.29,27.62,7.54,73.05,8.88,101.91-.27,9.34,1.12,12.53,3.16,23.54.41,2.21.83,4.42,1.25,6.64-14.5-38.57-34.47-90.61-48.53-123.33-5.97-13.88-11.14-26.53-16.75-44.76-8.28-26.94-19.92-49.14-29.27-73.37-5.07,11.3-2.3,40.89-1.73,55.37.81,20.41,5.16,39.66,11,62,12.3,47.03,45.84,111.79,86.95,132.98,3.05,16.07,6.22,32.08,9.51,48.04-22.94-35.14-72.02-87.87-93.46-120.02-8.38-12.57-14.12-23.12-25.12-38.7-16.27-23.02-34.24-40.49-50.67-60.6-3.32,12.42,10.01,39.6,15.61,53.15,7.81,18.88,17.26,36.08,29.77,55.49,26.43,41,78.85,106.97,124.64,114.39,2.37,11.42,4.8,22.81,7.28,34.16-38.87-37.25-98-91.81-126.5-126.89-13-16-23.43-24.94-37-43-21.28-28.31-43.79-50.01-65.04-74.85.33,13.93,14.43,48.77,22.04,64.85,10.73,22.68,24.87,41.97,41,66,32.92,49.05,112.66,109.03,167.51,123,1.3,5.86,2.62,11.72,3.95,17.56-41.48-34.8-114.96-65.33-155.84-77.59-24.81-7.44-44.98-14.5-67.4-17.41-15.89-2.06-49.79-4.35-62.17-.41,26.66,11.88,50.83,25.87,80.56,36.72,18.96,6.92,29.18,13.74,46.2,20.76,35.01,14.45,115.42,39.05,163.85,60.38.61,2.59,1.23,5.17,1.86,7.75-44.21-9.86-106.38-10.81-136.51-14.78-14.98-1.97-28.29-5.41-46.75-10.2-27.29-7.07-52.29-8.8-77.82-13.54,5.49,11.63,33.22,23.78,46.24,30.5,18.15,9.37,35.92,18.64,58.56,23.14,41.07,8.18,115.02,18.45,163.09,11.66,3.13,11.62,6.46,22.99,10.14,33.9.62,1.84,2.45,6.94,4.64,12.76-33.58-11.56-78.05-21-113.1-27.23-15.84-2.81-29.66-4.04-46.82-10.62-26.32-10.09-51.74-13.18-77.18-18.38,5.28,11.72,32.4,27.81,45.3,34.77,17.98,9.7,35.83,18.26,58.14,24.19,52.21,13.89,137.43,41.03,174.56,17.04Z"/>
  <path class="cls-1" d="M318.1,556.54c9.89-4.69,30.43-13.87,36.24-23.23-19.3,2.82-29.25-4.02-48.39.07-10.92,2.33-31.06,7.81-44,8-29,.43-76.5,9.95-105,11,28.45,13.07,84.13,12.83,114,14,20.13.79,36.48-4.77,47.15-9.83Z"/>
  <path class="cls-1" d="M323.45,579.57c-7.02,3.52-19.74,11.19-28.54,12.84-19.73,3.71-50.37,18.44-69.64,22.71,21.9,9.61,59.88,3.05,80.5.81,13.9-1.51,24.02-8.82,30.35-15,5.87-5.73,18.17-17.07,20.36-26.92-12.65,4.96-20.74-.63-33.04,5.55Z"/>
</svg>