<svg width="257" height="191" viewBox="0 0 257 191" fill="none" xmlns="http://www.w3.org/2000/svg">
<path d="M41.1875 135.438C42.2708 135.354 43.2292 135.271 44.0625 135.188C44.8958 135.104 45.6667 135.021 46.375 134.938C47.0833 134.854 47.7708 134.792 48.4375 134.75C49.1042 134.708 49.8125 134.667 50.5625 134.625L52.1875 86.375C52.3125 83.4167 52.375 80.6042 52.375 77.9375C52.4167 75.2708 52.4375 72.7083 52.4375 70.25C52.4375 66.3333 52.375 62.8542 52.25 59.8125C52.1667 56.7292 52.0625 54.1458 51.9375 52.0625L57.0625 50.1875L118.375 123.812C118.5 120.188 118.625 116.292 118.75 112.125C118.917 107.958 119.062 103.812 119.188 99.6875C119.312 95.5208 119.438 91.5 119.562 87.625C119.688 83.75 119.792 80.25 119.875 77.125C119.958 73.9583 120.021 71.3333 120.062 69.25C120.146 67.125 120.188 65.75 120.188 65.125C120.188 63.3333 120.062 61.875 119.812 60.75C119.562 59.625 119.167 58.75 118.625 58.125C118.125 57.4583 117.479 57 116.688 56.75C115.938 56.4583 115.062 56.2292 114.062 56.0625L111.375 55.6875V52.0625C111.958 52.2292 112.75 52.3958 113.75 52.5625C114.583 52.6875 115.646 52.7917 116.938 52.875C118.229 52.9583 119.812 53 121.688 53C123.562 53 125.688 52.9375 128.062 52.8125C130.479 52.6458 133.229 52.3958 136.312 52.0625V55.6875C135.229 55.7708 134.271 55.8542 133.438 55.9375C132.604 56.0208 131.833 56.1042 131.125 56.1875C130.458 56.2292 129.792 56.2708 129.125 56.3125C128.458 56.3542 127.729 56.3958 126.938 56.4375L125.562 96.625C125.521 97.75 125.479 99.25 125.438 101.125C125.396 103 125.333 104.979 125.25 107.062C125.208 109.104 125.167 111.146 125.125 113.188C125.083 115.229 125.062 116.958 125.062 118.375C125.062 120.25 125.062 122.021 125.062 123.688C125.062 125.312 125.062 126.938 125.062 128.562C125.104 130.188 125.146 131.854 125.188 133.562C125.271 135.229 125.354 137.042 125.438 139L120.062 140.812L58.75 68.0625C58.6667 71.6042 58.5625 75.4167 58.4375 79.5C58.3542 83.5417 58.25 87.625 58.125 91.75C58.0417 95.8333 57.9375 99.8125 57.8125 103.688C57.7292 107.521 57.6458 111 57.5625 114.125C57.4792 117.208 57.4167 119.812 57.375 121.938C57.3333 124.021 57.3125 125.354 57.3125 125.938C57.3125 127.771 57.4375 129.25 57.6875 130.375C57.9375 131.458 58.3125 132.333 58.8125 133C59.3125 133.625 59.9375 134.083 60.6875 134.375C61.4792 134.667 62.4167 134.896 63.5 135.062L66.1875 135.438V139C65.5625 138.875 64.75 138.729 63.75 138.562C62.9167 138.479 61.8542 138.396 60.5625 138.312C59.2708 138.188 57.6875 138.125 55.8125 138.125C53.9375 138.125 51.8125 138.188 49.4375 138.312C47.0625 138.438 44.3125 138.667 41.1875 139V135.438Z" fill="#7DA3A6"/>
<path d="M123.438 135.438C124.521 135.354 125.479 135.271 126.312 135.188C127.146 135.104 127.917 135.021 128.625 134.938C129.333 134.854 130.021 134.792 130.688 134.75C131.354 134.708 132.062 134.667 132.812 134.625C133.229 122.417 133.604 111.375 133.938 101.5C134.062 97.2917 134.188 93.1458 134.312 89.0625C134.479 84.9792 134.625 81.2708 134.75 77.9375C134.875 74.6042 134.958 71.8333 135 69.625C135.083 67.375 135.125 66 135.125 65.5C135.125 63.5833 135 62.0417 134.75 60.875C134.5 59.7083 134.125 58.8125 133.625 58.1875C133.125 57.5208 132.479 57.0417 131.688 56.75C130.938 56.4583 130.042 56.2292 129 56.0625L126.312 55.6875V52.0625C127.521 52.2292 128.833 52.3958 130.25 52.5625C131.458 52.6875 132.854 52.7917 134.438 52.875C136.062 52.9583 137.792 53 139.625 53C141.917 53 144.208 52.9167 146.5 52.75C148.833 52.5833 151.208 52.4167 153.625 52.25C156.042 52.0417 158.5 51.8542 161 51.6875C163.542 51.5208 166.188 51.4375 168.938 51.4375C175.312 51.4375 181.146 52.4792 186.438 54.5625C191.729 56.6458 196.25 59.6042 200 63.4375C203.792 67.2708 206.729 71.875 208.812 77.25C210.896 82.625 211.938 88.5833 211.938 95.125C211.938 98.125 211.604 101.312 210.938 104.688C210.312 108.021 209.25 111.354 207.75 114.688C206.292 117.979 204.333 121.146 201.875 124.188C199.458 127.188 196.479 129.854 192.938 132.188C189.396 134.479 185.229 136.312 180.438 137.688C175.646 139.062 170.146 139.75 163.938 139.75C162.021 139.75 160.062 139.667 158.062 139.5C156.104 139.375 154.104 139.208 152.062 139C150.062 138.833 148.021 138.667 145.938 138.5C143.854 138.333 141.75 138.25 139.625 138.25C137.625 138.25 135.271 138.292 132.562 138.375C129.896 138.417 126.854 138.625 123.438 139V135.438ZM160.062 56.0625C158.646 56.0625 157.229 56.0833 155.812 56.125C154.396 56.125 153.042 56.1667 151.75 56.25C150.458 56.2917 149.25 56.3542 148.125 56.4375C147 56.5208 146.042 56.6042 145.25 56.6875C144.792 68.8958 144.396 79.9167 144.062 89.75C143.938 93.9583 143.792 98.1042 143.625 102.188C143.5 106.229 143.375 109.896 143.25 113.188C143.167 116.438 143.083 119.167 143 121.375C142.958 123.542 142.938 124.812 142.938 125.188C142.938 127.188 143.146 128.875 143.562 130.25C143.979 131.583 144.792 132.667 146 133.5C147.208 134.292 148.896 134.854 151.062 135.188C153.271 135.521 156.146 135.688 159.688 135.688C161.812 135.688 164.271 135.521 167.062 135.188C169.896 134.854 172.812 134.208 175.812 133.25C178.854 132.292 181.833 130.938 184.75 129.188C187.667 127.396 190.271 125.042 192.562 122.125C194.854 119.208 196.708 115.667 198.125 111.5C199.542 107.292 200.25 102.292 200.25 96.5C200.25 93.4167 200 90.2917 199.5 87.125C199.042 83.9167 198.229 80.8125 197.062 77.8125C195.896 74.8125 194.312 72 192.312 69.375C190.354 66.7083 187.875 64.3958 184.875 62.4375C181.917 60.4792 178.396 58.9375 174.312 57.8125C170.229 56.6458 165.479 56.0625 160.062 56.0625Z" fill="#7DA3A6"/>
</svg>
