<?xml version="1.0" encoding="UTF-8"?>
<svg xmlns="http://www.w3.org/2000/svg" xmlns:xlink="http://www.w3.org/1999/xlink" viewBox="0 0 1920 1080">
  <defs>
    <style>
      .cls-1 {
        fill: #b9d3d4;
        opacity: .75;
        stroke: #1d1d1b;
        stroke-miterlimit: 10;
      }

      .cls-2 {
        fill: #4e5340;
      }
    </style>
  </defs>
  <g id="Lag_2" data-name="Lag 2">
    <g>
      <path class="cls-2" d="M1342.47,1023.62c-4.15-1.79-10.35-2.83-17.63-3.35-.98-2.39-2.03-4.69-3.1-7.07-2.86-3.95-5.63-8.16-8.34-12.55,4.39-2.18,7.95-4.61,10.31-7.29-3.97-1.72-9.51-2.3-15.9-2.16-.45-.79-.9-1.59-1.35-2.39,2.63.43,5.03.9,7.12,1.42-2.58-3.22-6.42-6.09-11.12-8.63-1.73-3.17-3.44-6.36-5.15-9.56.31-.03.61-.06.91-.09-.44-.24-.9-.48-1.35-.73-2.44-4.57-4.87-9.14-7.32-13.64-4.63-8.53-9.3-18.21-13.9-26.59-1.92-3.5-5.88-10.58-7.98-13.59,3.66-13.88-1.81-36.13-7.34-48.8-2.83-6.48-5.18-13.42-9.36-19.11-2.87-3.93-9.24-11.65-13.9-13.15,3.28,8.03,6.5,16.38,8.87,24.75,1.7,5.99,3.16,9.69,4.56,14.42,3.48,11.78,12.09,30.33,16.17,42.51,1.02,4.03,2,5.22,4.21,9.69.44.9.89,1.79,1.34,2.69-10.89-14.74-25.74-34.57-35.73-46.86-4.24-5.21-7.99-9.99-12.6-17.11-6.81-10.52-14.49-18.6-21.43-27.82-.8,5.45,3.98,17.77,5.98,23.89,2.83,8.63,7.02,16.34,12.23,25.18,10.97,18.62,33.18,42.25,53.33,46.32,3.26,6.5,6.56,12.97,9.9,19.39-14.08-12.25-41.47-28.84-54.54-39.98-5.11-4.36-8.85-8.18-15.44-13.5-9.75-7.87-19.56-13.16-29.03-19.76.09,5.71,9.09,15.72,13.13,20.84,5.63,7.13,11.76,13.34,19.47,20.12,16.28,14.33,46.71,36.18,67.19,33.79,2.4,4.6,4.82,9.17,7.26,13.73-21.15-11.21-53.06-27.37-69.51-38.91-7.5-5.26-13.05-7.82-21.05-13.9-12.54-9.52-24.8-16.07-36.91-24.12,1.83,5.92,12.09,19.11,17.3,25.06,7.34,8.4,15.73,14.93,25.55,23.25,20.04,16.98,61.42,32.95,86.58,32.27,1.27,2.35,2.54,4.69,3.82,7.03-21.97-9.85-57.1-13.98-76.07-14.26-11.51-.17-21-.74-30.94.74-7.05,1.05-21.83,4.18-26.64,7.37,12.84,1.85,24.88,4.89,38.91,5.93,8.95.66,14.15,2.33,22.28,3.27,16.73,1.93,54.1,2.69,77.41,5.93.58,1.03,1.16,2.06,1.74,3.09-20.11,1.15-46.81,8.29-60.18,10.25-6.64.98-12.76,1.12-21.23,1.31-12.53.29-23.43,2.58-34.93,3.66,3.76,4.31,17.09,6.14,23.48,7.43,8.9,1.81,17.62,3.61,27.86,2.79,18.56-1.49,51.43-6.07,71.17-14.82,2.75,4.59,5.56,9.05,8.45,13.27.49.71,1.89,2.67,3.53,4.89-15.77-.87-35.93.5-51.68,2.09-7.12.72-13.18,1.87-21.31,1.14-12.48-1.12-23.73.64-35.24,1.51,3.68,4.37,17.23,7.96,23.6,9.37,8.87,1.96,17.54,3.46,27.8,3.29,24.02-.4,63.76.86,76.73-13.91Z"/>
      <path class="cls-2" d="M1335.22,1058.1c3.66-3.21,11.33-9.63,12.68-14.34-7.91,3.55-13,1.83-20.69,5.9-4.39,2.32-12.34,7.11-17.85,8.76-12.35,3.71-31.51,13.54-43.57,17.45,13.76,2.14,37.54-4.73,50.46-7.85,8.71-2.11,15.02-6.47,18.97-9.93Z"/>
      <path class="cls-2" d="M1340.31,1067.31c-2.57,2.36-7.09,7.18-10.65,8.96-7.99,3.98-19.31,14-27.03,18.17,10.53,1.45,25.98-5.96,34.53-9.43,5.76-2.33,9.2-6.69,11.16-10.1,1.81-3.16,5.7-9.51,5.44-13.99-4.81,3.66-8.94,2.25-13.45,6.39Z"/>
    </g>
    <g>
      <path class="cls-2" d="M74.99,646.95c1.24-4.35,1.49-10.62,1.07-17.91,2.25-1.28,4.4-2.61,6.62-3.97,3.55-3.34,7.38-6.63,11.39-9.87,2.73,4.07,5.58,7.3,8.54,9.3,1.2-4.15,1.07-9.72.11-16.05.73-.55,1.46-1.1,2.2-1.65-.09,2.66-.25,5.1-.5,7.24,2.87-2.97,5.23-7.14,7.15-12.13,2.92-2.12,5.87-4.22,8.82-6.33.07.3.14.6.21.89.18-.47.37-.95.55-1.43,4.22-3,8.44-5.99,12.6-9,7.87-5.68,16.88-11.54,24.6-17.18,3.22-2.35,9.74-7.18,12.46-9.64,14.24,1.86,35.61-6.4,47.47-13.5,6.07-3.63,12.65-6.85,17.76-11.72,3.53-3.35,10.38-10.65,11.27-15.46-7.54,4.28-15.42,8.53-23.41,11.96-5.72,2.45-9.21,4.37-13.72,6.36-11.24,4.95-28.54,15.86-40.1,21.46-3.87,1.52-4.93,2.65-9.07,5.41-.83.55-1.66,1.11-2.49,1.67,13.23-12.68,31-29.94,41.92-41.41,4.63-4.87,8.89-9.2,15.36-14.68,9.56-8.1,16.6-16.74,24.87-24.8-5.51-.1-17.12,6.21-22.93,8.98-8.2,3.9-15.31,9.05-23.42,15.34-17.07,13.25-37.67,38.29-39.14,58.8-6.03,4.06-12.02,8.16-17.97,12.29,10.35-15.53,23.31-44.81,32.7-59.2,3.67-5.62,6.98-9.82,11.42-17.04,6.56-10.68,10.56-21.08,15.9-31.31-5.66.82-14.44,11.02-18.99,15.68-6.35,6.49-11.73,13.37-17.47,21.87-12.13,17.98-29.93,50.94-24.95,70.96-4.25,2.97-8.48,5.95-12.69,8.95,8.43-22.4,20.38-56.12,29.73-73.9,4.27-8.11,6.1-13.94,11.1-22.65,7.85-13.65,12.78-26.65,19.21-39.68-5.63,2.57-17.41,14.43-22.65,20.36-7.39,8.35-12.8,17.51-19.8,28.3-14.29,22.04-24.85,65.12-20.97,89.98-2.17,1.56-4.33,3.12-6.49,4.69,6.97-23.04,6.59-58.42,4.45-77.27-1.3-11.44-1.94-20.92-4.67-30.59-1.94-6.86-6.93-21.11-10.71-25.48-.19,12.97-1.68,25.3-.92,39.35.49,8.96-.51,14.33-.4,22.51.22,16.84,4.23,54.01,3.99,77.53-.95.7-1.9,1.41-2.84,2.12-3.71-19.8-14.19-45.37-17.84-58.38-1.81-6.47-2.74-12.51-4.01-20.89-1.88-12.39-5.55-22.91-8.08-34.18-3.79,4.28-3.91,17.74-4.38,24.24-.66,9.06-1.33,17.94.79,27.98,3.84,18.22,12.58,50.24,23.77,68.7-4.2,3.31-8.27,6.66-12.08,10.07-.65.58-2.41,2.22-4.4,4.13-1.15-15.75-5.07-35.58-8.66-50.99-1.62-6.97-3.54-12.83-3.85-20.99-.48-12.52-3.66-23.45-5.99-34.76-3.87,4.21-5.7,18.11-6.29,24.6-.82,9.05-1.19,17.84.28,27.99,3.46,23.77,7.27,63.35,23.57,74.33Z"/>
      <path class="cls-2" d="M39.87,644.17c3.65,3.22,10.99,10.01,15.84,10.75-4.53-7.39-3.48-12.66-8.49-19.77-2.86-4.05-8.63-11.33-10.97-16.58-5.25-11.78-17.45-29.53-22.87-40.99-.37,13.92,9.47,36.63,14.22,49.04,3.2,8.37,8.33,14.08,12.27,17.55Z"/>
      <path class="cls-2" d="M31.39,650.39c-2.67-2.25-8.03-6.11-10.24-9.42-4.97-7.41-16.35-17.36-21.46-24.49-.09,10.63,9.23,25.01,13.75,33.05,3.05,5.42,7.81,8.27,11.44,9.78,3.37,1.4,10.15,4.44,14.57,3.61-4.24-4.3-3.37-8.58-8.05-12.53Z"/>
    </g>
    <g>
      <path class="cls-2" d="M1265.36,34.55c-.59,4.48.09,10.73,1.57,17.88-2.04,1.59-3.97,3.23-5.96,4.9-3.02,3.83-6.32,7.64-9.81,11.44-3.29-3.63-6.6-6.39-9.82-7.94-.58,4.28.37,9.78,2.25,15.89-.64.65-1.28,1.3-1.93,1.95-.3-2.65-.5-5.08-.58-7.24-2.4,3.36-4.12,7.83-5.28,13.05-2.58,2.52-5.18,5.04-7.8,7.55-.11-.29-.22-.57-.34-.85-.11.49-.22.99-.33,1.5-3.73,3.59-7.47,7.17-11.14,10.75-6.95,6.78-15,13.9-21.81,20.61-2.84,2.8-8.58,8.53-10.9,11.37-14.36.25-34.28,11.57-44.97,20.34-5.47,4.49-11.5,8.64-15.85,14.2-3,3.83-8.7,12.06-8.88,16.95,6.83-5.34,13.99-10.71,21.4-15.27,5.3-3.26,8.47-5.68,12.64-8.31,10.39-6.55,25.89-19.89,36.51-27.12,3.6-2.07,4.48-3.35,8.18-6.69.74-.67,1.48-1.35,2.22-2.02-11.22,14.48-26.26,34.17-35.37,47.13-3.86,5.49-7.44,10.4-13.04,16.78-8.27,9.42-13.96,19-20.95,28.19,5.46-.72,16.02-8.66,21.36-12.26,7.54-5.07,13.81-11.2,20.91-18.62,14.94-15.62,31.63-43.42,30.07-63.92,5.37-4.9,10.69-9.84,15.97-14.8-7.95,16.88-16.47,47.75-23.64,63.36-2.8,6.1-5.46,10.74-8.79,18.53-4.92,11.53-7.34,22.4-11.12,33.31,5.48-1.64,12.66-13.02,16.48-18.3,5.33-7.36,9.63-14.95,14.06-24.21,9.36-19.57,22.11-54.79,14.24-73.85,3.77-3.56,7.52-7.13,11.23-10.72-5.04,23.4-11.91,58.5-18.54,77.47-3.03,8.65-3.98,14.68-7.65,24.03-5.75,14.66-8.72,28.24-13.17,42.07,5.19-3.37,15.1-16.83,19.41-23.47,6.08-9.35,10.09-19.2,15.42-30.91,10.89-23.9,15-68.07,7.51-92.09,1.92-1.86,3.83-3.72,5.73-5.59-3.5,23.82,2.08,58.75,6.97,77.08,2.97,11.13,5,20.41,9.12,29.57,2.92,6.5,9.96,19.86,14.34,23.63-1.72-12.86-2.06-25.27-4.88-39.06-1.8-8.79-1.6-14.25-2.91-22.33-2.69-16.62-12.13-52.8-15.35-76.1.84-.84,1.67-1.67,2.5-2.51,6.58,19.04,20.71,42.79,26.24,55.12,2.75,6.13,4.55,11.97,7.04,20.08,3.68,11.98,8.86,21.85,13.02,32.62,3.12-4.79,1.26-18.12.77-24.62-.68-9.06-1.32-17.94-4.89-27.56-6.48-17.45-19.83-47.84-33.62-64.46,3.67-3.89,7.2-7.81,10.47-11.74.55-.67,2.06-2.55,3.75-4.73,3.45,15.41,10.25,34.44,16.06,49.16,2.63,6.65,5.39,12.17,6.9,20.2,2.32,12.32,7.07,22.66,11.04,33.5,3.21-4.73,2.97-18.75,2.6-25.26-.52-9.07-1.44-17.82-4.4-27.65-6.92-23-16.51-61.59-34.25-70.05Z"/>
      <path class="cls-2" d="M1300.51,32.14c-4.08-2.65-12.35-8.29-17.24-8.3,5.57,6.65,5.3,12.01,11.31,18.3,3.43,3.59,10.2,9.94,13.29,14.79,6.92,10.88,21.6,26.64,28.65,37.18-1.69-13.82-14.76-34.84-21.28-46.42-4.4-7.81-10.31-12.7-14.72-15.56Z"/>
      <path class="cls-2" d="M1307.98,24.74c2.97,1.83,8.84,4.87,11.52,7.81,6,6.6,18.73,14.77,24.83,21.07-1.47-10.53-12.81-23.38-18.46-30.66-3.81-4.91-8.94-7.04-12.75-7.99-3.54-.89-10.7-2.9-14.94-1.43,4.83,3.63,4.6,8,9.8,11.21Z"/>
    </g>
    <g>
      <path class="cls-2" d="M751.62,1074.28c-1.93-4.09-5.89-8.97-11.01-14.17.85-2.44,1.59-4.86,2.36-7.35.46-4.85,1.17-9.85,2.05-14.93,4.73,1.26,9.01,1.8,12.55,1.36-1.84-3.91-5.61-8.02-10.49-12.14.18-.89.37-1.79.56-2.69,1.69,2.06,3.18,4,4.4,5.77.2-4.12-.78-8.82-2.63-13.83.8-3.52,1.63-7.04,2.46-10.57.25.18.5.36.75.53-.17-.47-.35-.95-.53-1.44,1.19-5.04,2.39-10.07,3.54-15.07,2.17-9.46,5.08-19.81,7.17-29.14.87-3.89,2.59-11.82,3-15.47,11.93-7.99,22.55-28.3,26.78-41.45,2.16-6.73,4.99-13.49,5.63-20.52.44-4.85.78-14.85-1.72-19.06-2.85,8.19-5.96,16.58-9.72,24.43-2.69,5.61-4.04,9.36-6.12,13.83-5.19,11.13-10.99,30.74-15.99,42.57-1.9,3.69-1.95,5.24-3.25,10.05-.26.97-.52,1.93-.77,2.9,1.59-18.25,3.56-42.95,4.2-58.77.27-6.71.62-12.78,1.87-21.16,1.85-12.4,1.44-23.53,2.34-35.04-4.2,3.56-8.77,15.96-11.32,21.87-3.59,8.34-5.54,16.9-7.48,26.98-4.09,21.22-3.07,53.63,9.36,70.02-1.86,7.03-3.66,14.06-5.4,21.09-2.46-18.5-12.02-49.06-14.45-66.07-.95-6.65-1.23-11.98-2.65-20.34-2.11-12.35-5.96-22.81-8.7-34.03-3.71,4.34-3.59,17.8-3.94,24.31-.49,9.07,0,17.78,1.29,27.97,2.73,21.52,11.1,58.03,28.04,69.79-1.24,5.03-2.45,10.07-3.64,15.1-8.44-22.4-21.68-55.63-26.38-75.16-2.14-8.91-4.61-14.5-6.59-24.34-3.1-15.44-7.97-28.46-11.72-42.5-2.54,5.65-3.57,22.33-3.6,30.24-.05,11.16,1.92,21.6,3.78,34.34,3.79,25.99,24.26,65.35,43.58,81.47-.6,2.6-1.2,5.2-1.79,7.8-9.96-21.92-33.57-48.26-47.61-61.02-8.52-7.74-15.26-14.45-23.69-19.92-5.98-3.88-19.14-11.3-24.85-12.09,8.41,9.88,15.42,20.13,25.26,30.19,6.28,6.41,9.07,11.11,14.54,17.19,11.27,12.51,38.8,37.81,54.12,55.65-.25,1.16-.5,2.31-.74,3.47-15.84-12.44-40.59-24.75-51.91-32.12-5.63-3.66-10.31-7.6-16.79-13.06-9.59-8.07-19.28-13.56-28.61-20.36-.03,5.72,8.76,15.91,12.69,21.11,5.48,7.24,10.83,14.37,19.05,20.52,14.9,11.16,42.59,29.47,63.17,35.97-.97,5.26-1.82,10.46-2.44,15.54-.1.86-.35,3.25-.59,6.01-11.25-11.08-27.27-23.4-40.13-32.62-5.81-4.17-11.12-7.31-16.74-13.24-8.62-9.1-18.22-15.21-27.43-22.18-.13,5.71,7.66,17.37,11.5,22.64,5.35,7.34,10.86,14.2,18.67,20.86,18.27,15.59,47.24,42.82,66.74,40.33Z"/>
      <path class="cls-2" d="M723.38,1095.35c4.87.01,14.87.28,18.99-2.37-8.28-2.57-10.96-7.22-19.42-9.26-4.82-1.16-13.96-2.83-19.18-5.23-11.71-5.39-32.59-10.69-44.22-15.74,8.9,10.7,31.28,21.29,43.03,27.49,7.92,4.18,15.55,5.09,20.8,5.1Z"/>
    </g>
    <g>
      <path class="cls-2" d="M1891.42,622.5c-4.15-1.79-10.35-2.83-17.63-3.35-.98-2.39-2.03-4.69-3.1-7.07-2.86-3.95-5.63-8.16-8.34-12.55,4.39-2.18,7.95-4.61,10.31-7.29-3.97-1.72-9.51-2.3-15.9-2.16-.45-.79-.9-1.59-1.35-2.39,2.63.43,5.03.9,7.12,1.42-2.58-3.22-6.42-6.09-11.12-8.63-1.73-3.17-3.44-6.36-5.15-9.56.31-.03.61-.06.91-.09-.44-.24-.9-.48-1.35-.73-2.44-4.57-4.87-9.14-7.32-13.64-4.63-8.53-9.3-18.21-13.9-26.59-1.92-3.5-5.88-10.58-7.98-13.59,3.66-13.88-1.81-36.13-7.34-48.8-2.83-6.48-5.18-13.42-9.36-19.11-2.87-3.93-9.24-11.65-13.9-13.15,3.28,8.03,6.5,16.38,8.87,24.75,1.7,5.99,3.16,9.69,4.56,14.42,3.48,11.78,12.09,30.33,16.17,42.51,1.02,4.03,2,5.22,4.21,9.69.44.9.89,1.79,1.34,2.69-10.89-14.74-25.74-34.57-35.73-46.86-4.24-5.21-7.99-9.99-12.6-17.11-6.81-10.52-14.49-18.6-21.43-27.82-.8,5.45,3.98,17.77,5.98,23.89,2.83,8.63,7.02,16.34,12.23,25.18,10.97,18.62,33.18,42.25,53.33,46.32,3.26,6.5,6.56,12.97,9.9,19.39-14.08-12.25-41.47-28.84-54.54-39.98-5.11-4.36-8.85-8.18-15.44-13.5-9.75-7.87-19.56-13.16-29.03-19.76.09,5.71,9.09,15.72,13.13,20.84,5.63,7.13,11.76,13.34,19.47,20.12,16.28,14.33,46.71,36.18,67.19,33.79,2.4,4.6,4.82,9.17,7.26,13.73-21.15-11.21-53.06-27.37-69.51-38.91-7.5-5.26-13.05-7.82-21.05-13.9-12.54-9.52-24.8-16.07-36.91-24.12,1.83,5.92,12.09,19.11,17.3,25.06,7.34,8.4,15.73,14.93,25.55,23.25,20.04,16.98,61.42,32.95,86.58,32.27,1.27,2.35,2.54,4.69,3.82,7.03-21.97-9.85-57.1-13.98-76.07-14.26-11.51-.17-21-.74-30.94.74-7.05,1.05-21.83,4.18-26.64,7.37,12.84,1.85,24.88,4.89,38.91,5.93,8.95.66,14.15,2.33,22.28,3.27,16.73,1.93,54.1,2.69,77.41,5.93.58,1.03,1.16,2.06,1.74,3.09-20.11,1.15-46.81,8.29-60.18,10.25-6.64.98-12.76,1.12-21.23,1.31-12.53.29-23.43,2.58-34.93,3.66,3.76,4.31,17.09,6.14,23.48,7.43,8.9,1.81,17.62,3.61,27.86,2.79,18.56-1.49,51.43-6.07,71.17-14.82,2.75,4.59,5.56,9.05,8.45,13.27.49.71,1.89,2.67,3.53,4.89-15.77-.87-35.93.5-51.68,2.09-7.12.72-13.18,1.87-21.31,1.14-12.48-1.12-23.73.64-35.24,1.51,3.68,4.37,17.23,7.96,23.6,9.37,8.87,1.96,17.54,3.46,27.8,3.29,24.02-.4,63.76.86,76.73-13.91Z"/>
      <path class="cls-2" d="M1884.18,656.99c3.66-3.21,11.33-9.63,12.68-14.34-7.91,3.55-13,1.83-20.69,5.9-4.39,2.32-12.34,7.11-17.85,8.76-12.35,3.71-31.51,13.54-43.57,17.45,13.76,2.14,37.54-4.73,50.46-7.85,8.71-2.11,15.02-6.47,18.97-9.93Z"/>
      <path class="cls-2" d="M1889.27,666.19c-2.57,2.36-7.09,7.18-10.65,8.96-7.99,3.98-19.31,14-27.03,18.17,10.53,1.45,25.98-5.96,34.53-9.43,5.76-2.33,9.2-6.69,11.16-10.1,1.81-3.16,5.7-9.51,5.44-13.99-4.81,3.66-8.94,2.25-13.45,6.39Z"/>
    </g>
    <g>
      <path class="cls-2" d="M810.9,58.31c3.44,2.93,9.05,5.76,15.85,8.41.23,2.57.55,5.08.87,7.67,1.57,4.62,2.97,9.46,4.26,14.46-4.83.79-8.95,2.05-12,3.92,3.28,2.81,8.4,5.01,14.55,6.76.2.89.39,1.78.59,2.68-2.39-1.19-4.54-2.34-6.39-3.46,1.51,3.84,4.33,7.72,8.07,11.53.71,3.53,1.41,7.09,2.1,10.65-.3-.06-.6-.12-.9-.18.35.36.71.73,1.07,1.09.98,5.08,1.95,10.17,2.96,15.19,1.91,9.52,3.5,20.15,5.42,29.51.8,3.91,2.49,11.84,3.61,15.34-7.6,12.18-8.94,35.06-7.4,48.79.79,7.03.99,14.35,3.29,21.02,1.59,4.6,5.39,13.86,9.4,16.67-.76-8.64-1.37-17.57-1.17-26.27.14-6.22-.16-10.19-.09-15.12.16-12.28-2.59-32.55-2.89-45.39.22-4.15-.37-5.58-1.16-10.5-.16-.99-.32-1.97-.49-2.96,6.05,17.29,14.38,40.63,20.3,55.32,2.51,6.23,4.68,11.91,6.98,20.07,3.4,12.06,8.35,22.05,12.25,32.91,2.37-4.97,1.45-18.15,1.34-24.59-.15-9.08-1.88-17.68-4.25-27.67-4.98-21.03-19.22-50.16-37.27-60.01-1.19-7.17-2.43-14.32-3.73-21.45,9.83,15.86,31.1,39.8,40.3,54.31,3.59,5.67,6.04,10.42,10.77,17.46,6.99,10.4,14.8,18.35,21.9,27.46,1.6-5.49-4.04-17.71-6.39-23.79-3.27-8.47-7.3-16.22-12.66-24.97-11.32-18.5-33.94-48.36-54.21-52.13-.93-5.1-1.9-10.19-2.88-15.26,16.89,16.96,42.61,41.82,54.91,57.71,5.61,7.25,10.15,11.33,16,19.5,9.17,12.8,18.95,22.68,28.14,33.94,0-6.19-5.91-21.83-9.13-29.05-4.54-10.19-10.62-18.91-17.54-29.76-14.13-22.14-48.95-49.63-73.18-56.4-.52-2.62-1.04-5.24-1.57-7.85,18.08,15.9,50.42,30.23,68.46,36.1,10.95,3.56,19.84,6.91,29.78,8.44,7.04,1.08,22.09,2.45,27.63.83-11.73-5.56-22.32-12.03-35.43-17.16-8.36-3.27-12.83-6.41-20.32-9.71-15.41-6.78-50.9-18.55-72.2-28.53-.25-1.16-.5-2.31-.75-3.47,19.55,4.84,47.17,5.91,60.52,7.98,6.64,1.03,12.52,2.7,20.67,5.02,12.06,3.43,23.15,4.45,34.45,6.83-2.32-5.22-14.52-10.91-20.24-14.04-7.97-4.35-15.77-8.65-25.79-10.89-18.17-4.06-50.93-9.39-72.37-6.87-1.27-5.2-2.63-10.29-4.15-15.17-.26-.83-1.02-3.11-1.93-5.72,14.81,5.49,34.48,10.14,49.99,13.27,7.01,1.41,13.14,2.1,20.7,5.2,11.59,4.76,22.86,6.39,34.12,8.97-2.22-5.26-14.11-12.7-19.78-15.92-7.89-4.5-15.73-8.48-25.59-11.35-23.06-6.71-60.66-19.66-77.41-9.38Z"/>
      <path class="cls-2" d="M828,27.5c-4.44,1.98-13.67,5.85-16.35,9.95,8.61-1.06,12.96,2.09,21.51.47,4.88-.92,13.89-3.15,19.64-3.1,12.89.11,34.11-3.63,46.78-3.8-12.51-6.1-37.26-6.57-50.52-7.4-8.94-.56-16.27,1.74-21.06,3.88Z"/>
      <path class="cls-2" d="M825.86,17.21c3.15-1.49,8.89-4.77,12.82-5.41,8.81-1.45,22.58-7.68,31.19-9.37-9.63-4.5-26.58-1.98-35.77-1.19-6.19.53-10.77,3.67-13.64,6.35-2.67,2.49-8.25,7.4-9.33,11.75,5.67-2.07,9.21.49,14.74-2.13Z"/>
    </g>
    <g>
      <path class="cls-2" d="M26.36,69.99c4.52-.05,10.61-1.6,17.48-4.08,1.86,1.79,3.75,3.47,5.7,5.21,4.22,2.45,8.46,5.18,12.71,8.1-3.12,3.77-5.4,7.43-6.48,10.84,4.32-.03,9.63-1.75,15.41-4.46.73.54,1.47,1.09,2.21,1.63-2.58.67-4.96,1.21-7.08,1.59,3.66,1.9,8.34,2.97,13.66,3.39,2.86,2.2,5.72,4.42,8.58,6.65-.27.15-.53.3-.79.46.5.04,1.01.08,1.53.12,4.08,3.19,8.15,6.38,12.21,9.51,7.69,5.92,15.88,12.89,23.48,18.69,3.17,2.42,9.66,7.29,12.8,9.19,2.27,14.18,16.29,32.3,26.48,41.65,5.21,4.78,10.17,10.17,16.3,13.69,4.22,2.42,13.17,6.91,18.04,6.4-6.25-6.01-12.58-12.34-18.14-19.03-3.98-4.79-6.81-7.58-10.01-11.34-7.95-9.36-23.34-22.83-32-32.32-2.56-3.27-3.95-3.97-7.77-7.15-.77-.64-1.54-1.28-2.31-1.91,15.92,9.07,37.54,21.18,51.64,28.37,5.98,3.05,11.35,5.9,18.45,10.54,10.49,6.86,20.78,11.14,30.86,16.76-1.48-5.3-10.83-14.64-15.15-19.42-6.08-6.75-13.04-12.09-21.38-18.07-17.57-12.58-47.44-25.19-67.52-20.75-5.61-4.63-11.25-9.2-16.9-13.72,17.83,5.49,49.6,9.57,66.06,14.47,6.44,1.91,11.4,3.89,19.59,6.09,12.1,3.25,23.21,4.11,34.55,6.31-2.4-5.19-14.68-10.7-20.44-13.73-8.03-4.24-16.16-7.43-25.95-10.51-20.69-6.51-57.36-14.16-75.12-3.68-4.06-3.23-8.12-6.43-12.2-9.61,23.88,1.69,59.6,3.54,79.31,7.43,8.99,1.78,15.1,1.87,24.87,4.18,15.32,3.63,29.19,4.65,43.51,7.1-4.07-4.67-18.8-12.57-25.97-15.91-10.12-4.7-20.43-7.28-32.78-10.91-25.2-7.41-69.51-5.25-92.23,5.56-2.11-1.64-4.23-3.26-6.34-4.88,24.07.11,57.87-10.34,75.33-17.77,10.6-4.51,19.5-7.83,27.99-13.2,6.02-3.81,18.26-12.66,21.37-17.53-12.49,3.51-24.73,5.6-37.98,10.34-8.45,3.02-13.88,3.6-21.69,6.03-16.08,5.01-50.56,19.45-73.18,25.92-.95-.71-1.89-1.42-2.84-2.12,17.92-9.2,39.44-26.54,50.87-33.75,5.68-3.58,11.21-6.19,18.88-9.8,11.34-5.34,20.38-11.85,30.46-17.49-5.18-2.42-18.11,1.31-24.48,2.71-8.87,1.95-17.58,3.84-26.6,8.73-16.37,8.88-44.57,26.38-59.07,42.37-4.37-3.08-8.74-6.02-13.1-8.71-.74-.45-2.81-1.68-5.21-3.04,14.77-5.59,32.65-15.01,46.4-22.84,6.21-3.54,11.29-7.05,19.02-9.68,11.87-4.03,21.44-10.2,31.61-15.65-5.14-2.51-18.98-.3-25.37.99-8.9,1.79-17.44,3.94-26.75,8.25-21.8,10.09-58.64,25.03-64.52,43.79Z"/>
      <path class="cls-2" d="M19.02,35.53c-2.05,4.41-6.46,13.39-5.79,18.24,5.79-6.45,11.14-6.94,16.52-13.78,3.07-3.9,8.4-11.5,12.77-15.24C52.32,16.36,65.85-.39,75.3-8.85c-13.44,3.62-32.41,19.53-42.95,27.61-7.11,5.45-11.12,12-13.32,16.76Z"/>
      <path class="cls-2" d="M10.64,29.17c1.4-3.2,3.57-9.44,6.11-12.5,5.69-6.88,11.98-20.62,17.35-27.56C23.88-7.94,12.76,5.09,6.35,11.72,2.02,16.18.64,21.56.24,25.47c-.38,3.63-1.36,11,.69,14.99,2.91-5.29,7.27-5.68,9.72-11.29Z"/>
    </g>
    <g>
      <path class="cls-2" d="M1008.09,946.04c-2.07-.89-5.16-1.41-8.8-1.67-.49-1.19-1.01-2.34-1.55-3.53-1.43-1.97-2.81-4.07-4.16-6.27,2.19-1.09,3.97-2.3,5.15-3.64-1.98-.86-4.75-1.15-7.94-1.08-.23-.4-.45-.79-.68-1.19,1.31.21,2.51.45,3.55.71-1.29-1.61-3.2-3.04-5.55-4.31-.86-1.58-1.72-3.17-2.57-4.77.15-.01.3-.03.45-.05-.22-.12-.45-.24-.67-.36-1.22-2.28-2.43-4.56-3.65-6.81-2.31-4.26-4.64-9.09-6.94-13.27-.96-1.74-2.93-5.28-3.98-6.78,1.83-6.93-.9-18.04-3.66-24.36-1.41-3.23-2.59-6.7-4.67-9.54-1.44-1.96-4.61-5.81-6.94-6.57,1.64,4.01,3.24,8.18,4.43,12.35.85,2.99,1.58,4.84,2.27,7.2,1.73,5.88,6.04,15.14,8.07,21.22.51,2.01,1,2.61,2.1,4.83.22.45.45.89.67,1.34-5.43-7.36-12.85-17.25-17.84-23.39-2.11-2.6-3.99-4.99-6.29-8.54-3.4-5.25-7.23-9.28-10.7-13.89-.4,2.72,1.99,8.87,2.99,11.93,1.41,4.31,3.51,8.16,6.11,12.57,5.48,9.3,16.56,21.09,26.62,23.12,1.63,3.25,3.27,6.47,4.94,9.68-7.03-6.11-20.7-14.39-27.23-19.96-2.55-2.17-4.42-4.08-7.71-6.74-4.87-3.93-9.76-6.57-14.49-9.87.04,2.85,4.54,7.85,6.55,10.4,2.81,3.56,5.87,6.66,9.72,10.04,8.13,7.15,23.32,18.06,33.54,16.87,1.2,2.3,2.41,4.58,3.62,6.85-10.55-5.6-26.49-13.66-34.7-19.42-3.74-2.63-6.51-3.91-10.5-6.94-6.26-4.75-12.38-8.02-18.42-12.04.92,2.95,6.04,9.54,8.64,12.51,3.67,4.19,7.85,7.45,12.75,11.61,10,8.48,30.66,16.45,43.22,16.11.63,1.17,1.27,2.34,1.91,3.51-10.97-4.92-28.5-6.98-37.97-7.12-5.75-.08-10.48-.37-15.44.37-3.52.52-10.89,2.09-13.3,3.68,6.41.92,12.42,2.44,19.42,2.96,4.47.33,7.06,1.16,11.12,1.63,8.35.96,27.01,1.34,38.64,2.96.29.52.58,1.03.87,1.54-10.04.58-23.37,4.14-30.04,5.12-3.32.49-6.37.56-10.6.66-6.25.14-11.7,1.29-17.43,1.82,1.88,2.15,8.53,3.06,11.72,3.71,4.44.9,8.8,1.8,13.9,1.39,9.26-.74,25.67-3.03,35.53-7.4,1.37,2.29,2.77,4.52,4.22,6.62.24.36.94,1.33,1.76,2.44-7.87-.43-17.94.25-25.79,1.04-3.55.36-6.58.93-10.64.57-6.23-.56-11.85.32-17.59.75,1.84,2.18,8.6,3.97,11.78,4.68,4.43.98,8.75,1.73,13.88,1.64,11.99-.2,31.83.43,38.3-6.94Z"/>
      <path class="cls-2" d="M1004.48,963.25c1.83-1.6,5.66-4.81,6.33-7.16-3.95,1.77-6.49.92-10.33,2.95-2.19,1.16-6.16,3.55-8.91,4.37-6.16,1.85-15.73,6.76-21.75,8.71,6.87,1.07,18.74-2.36,25.19-3.92,4.35-1.05,7.5-3.23,9.47-4.96Z"/>
      <path class="cls-2" d="M1007.02,967.85c-1.28,1.18-3.54,3.59-5.31,4.47-3.99,1.99-9.64,6.99-13.49,9.07,5.26.72,12.97-2.98,17.24-4.7,2.88-1.16,4.59-3.34,5.57-5.04.91-1.58,2.84-4.75,2.72-6.98-2.4,1.83-4.46,1.12-6.72,3.19Z"/>
    </g>
    <g>
      <path class="cls-2" d="M1350.12,722.21c-.02-2.26-.79-5.3-2.02-8.73.9-.93,1.74-1.87,2.61-2.84,1.23-2.1,2.59-4.22,4.05-6.34,1.88,1.56,3.71,2.7,5.4,3.24-.01-2.16-.86-4.81-2.22-7.7.27-.37.54-.73.82-1.1.33,1.29.6,2.48.79,3.54.95-1.83,1.49-4.16,1.7-6.82,1.1-1.43,2.21-2.85,3.33-4.28.07.13.15.27.23.4.02-.25.04-.51.06-.76,1.59-2.03,3.19-4.06,4.76-6.09,2.96-3.83,6.44-7.91,9.35-11.71,1.21-1.58,3.65-4.82,4.6-6.38,7.08-1.12,16.14-8.11,20.81-13.18,2.39-2.6,5.08-5.07,6.84-8.12,1.21-2.1,3.46-6.57,3.21-9-3,3.12-6.17,6.27-9.52,9.04-2.39,1.98-3.79,3.4-5.67,4.99-4.68,3.96-11.42,11.63-16.16,15.95-1.63,1.28-1.98,1.97-3.58,3.87-.32.38-.64.77-.96,1.15,4.54-7.94,10.6-18.72,14.2-25.76,1.53-2.98,2.96-5.66,5.28-9.2,3.43-5.23,5.58-10.36,8.39-15.39-2.65.73-7.31,5.4-9.71,7.54-3.37,3.03-6.05,6.5-9.04,10.66-6.3,8.76-12.61,23.66-10.41,33.69-2.31,2.8-4.6,5.61-6.86,8.43,2.76-8.9,4.82-24.75,7.27-32.96.96-3.21,1.95-5.69,3.06-9.77,1.63-6.04,2.07-11.58,3.18-17.24-2.59,1.19-5.35,7.32-6.87,10.19-2.12,4.01-3.72,8.06-5.27,12.94-3.26,10.32-7.11,28.62-1.9,37.5-1.62,2.02-3.22,4.05-4.81,6.08.86-11.92,1.81-29.75,3.77-39.58.89-4.49.95-7.53,2.11-12.41,1.82-7.64,2.35-14.56,3.58-21.71-2.33,2.03-6.29,9.37-7.96,12.95-2.36,5.05-3.65,10.19-5.47,16.35-3.72,12.57-2.68,34.69,2.7,46.04-.82,1.05-1.63,2.11-2.44,3.16.07-12.02-5.12-28.9-8.81-37.62-2.24-5.29-3.89-9.74-6.57-13.98-1.9-3.01-6.31-9.13-8.73-10.68,1.74,6.24,2.78,12.35,5.13,18.97,1.5,4.22,1.78,6.93,2.99,10.83,2.49,8.03,9.67,25.25,12.88,36.55-.36.47-.71.94-1.06,1.42-4.58-8.95-13.22-19.71-16.81-25.42-1.78-2.84-3.08-5.6-4.88-9.43-2.66-5.66-5.9-10.18-8.7-15.22-1.21,2.58.64,9.04,1.34,12.22.97,4.43,1.9,8.78,4.34,13.28,4.42,8.18,13.13,22.27,21.1,29.52-1.54,2.18-3.01,4.36-4.36,6.53-.23.37-.84,1.4-1.52,2.6-2.78-7.38-7.46-16.31-11.36-23.18-1.76-3.1-3.51-5.64-4.81-9.5-2-5.93-5.07-10.71-7.79-15.79-1.26,2.56-.16,9.47.47,12.66.89,4.45,1.95,8.71,4.1,13.36,5.02,10.89,12.45,29.29,21.81,32.24Z"/>
      <path class="cls-2" d="M1332.91,725.85c2.2,1.02,6.68,3.24,9.1,2.9-3.22-2.9-3.46-5.57-6.86-8.26-1.94-1.54-5.73-4.2-7.6-6.39-4.18-4.89-12.53-11.66-16.75-16.38,1.8,6.71,9.72,16.19,13.75,21.46,2.72,3.55,5.98,5.56,8.36,6.66Z"/>
      <path class="cls-2" d="M1329.73,730.02c-1.6-.7-4.71-1.79-6.24-3.06-3.43-2.84-10.28-6-13.74-8.68,1.46,5.1,7.96,10.67,11.26,13.87,2.23,2.16,4.91,2.86,6.86,3.06,1.81.19,5.49.69,7.48-.33-2.64-1.46-2.83-3.63-5.63-4.86Z"/>
    </g>
    <g>
      <path class="cls-2" d="M584.39,335.49c-.02-2.26-.79-5.3-2.02-8.73.9-.93,1.74-1.87,2.61-2.84,1.23-2.1,2.59-4.22,4.05-6.34,1.88,1.56,3.71,2.7,5.4,3.24-.01-2.16-.86-4.81-2.22-7.7.27-.37.54-.73.82-1.1.33,1.29.6,2.48.79,3.54.95-1.83,1.49-4.16,1.7-6.82,1.1-1.43,2.21-2.85,3.33-4.28.07.13.15.27.23.4.02-.25.04-.51.06-.76,1.59-2.03,3.19-4.06,4.76-6.09,2.96-3.83,6.44-7.91,9.35-11.71,1.21-1.58,3.65-4.82,4.6-6.38,7.08-1.12,16.14-8.11,20.81-13.18,2.39-2.6,5.08-5.07,6.84-8.12,1.21-2.1,3.46-6.57,3.21-9-3,3.12-6.17,6.27-9.52,9.04-2.39,1.98-3.79,3.4-5.67,4.99-4.68,3.96-11.42,11.63-16.16,15.95-1.63,1.28-1.98,1.97-3.58,3.87-.32.38-.64.77-.96,1.15,4.54-7.94,10.6-18.72,14.2-25.76,1.53-2.98,2.96-5.66,5.28-9.2,3.43-5.23,5.58-10.36,8.39-15.39-2.65.73-7.31,5.4-9.71,7.54-3.37,3.03-6.05,6.5-9.04,10.66-6.3,8.76-12.61,23.66-10.41,33.69-2.31,2.8-4.6,5.61-6.86,8.43,2.76-8.9,4.82-24.75,7.27-32.96.96-3.21,1.95-5.69,3.06-9.77,1.63-6.04,2.07-11.58,3.18-17.24-2.59,1.19-5.35,7.32-6.87,10.19-2.12,4.01-3.72,8.06-5.27,12.94-3.26,10.32-7.11,28.62-1.9,37.5-1.62,2.02-3.22,4.05-4.81,6.08.86-11.92,1.81-29.75,3.77-39.58.89-4.49.95-7.53,2.11-12.41,1.82-7.64,2.35-14.56,3.58-21.71-2.33,2.03-6.29,9.37-7.96,12.95-2.36,5.05-3.65,10.19-5.47,16.35-3.72,12.57-2.68,34.69,2.7,46.04-.82,1.05-1.63,2.11-2.44,3.16.07-12.02-5.12-28.9-8.81-37.62-2.24-5.29-3.89-9.74-6.57-13.98-1.9-3.01-6.31-9.13-8.73-10.68,1.74,6.24,2.78,12.35,5.13,18.97,1.5,4.22,1.78,6.93,2.99,10.83,2.49,8.03,9.67,25.25,12.88,36.55-.36.47-.71.94-1.06,1.42-4.58-8.95-13.22-19.71-16.81-25.42-1.78-2.84-3.08-5.6-4.88-9.43-2.66-5.66-5.9-10.18-8.7-15.22-1.21,2.58.64,9.04,1.34,12.22.97,4.43,1.9,8.78,4.34,13.28,4.42,8.18,13.13,22.27,21.1,29.52-1.54,2.18-3.01,4.36-4.36,6.53-.23.37-.84,1.4-1.52,2.6-2.78-7.38-7.46-16.31-11.36-23.18-1.76-3.1-3.51-5.64-4.81-9.5-2-5.93-5.07-10.71-7.79-15.79-1.26,2.56-.16,9.47.47,12.66.89,4.45,1.95,8.71,4.1,13.36,5.02,10.89,12.45,29.29,21.81,32.24Z"/>
      <path class="cls-2" d="M567.19,339.13c2.2,1.02,6.68,3.24,9.1,2.9-3.22-2.9-3.46-5.57-6.86-8.26-1.94-1.54-5.73-4.2-7.6-6.39-4.18-4.89-12.53-11.66-16.75-16.38,1.8,6.71,9.72,16.19,13.75,21.46,2.72,3.55,5.98,5.56,8.36,6.66Z"/>
      <path class="cls-2" d="M564.01,343.31c-1.6-.7-4.71-1.79-6.24-3.06-3.43-2.84-10.28-6-13.74-8.68,1.46,5.1,7.96,10.67,11.26,13.87,2.23,2.16,4.91,2.86,6.86,3.06,1.81.19,5.49.69,7.48-.33-2.64-1.46-2.83-3.63-5.63-4.86Z"/>
    </g>
    <g>
      <path class="cls-2" d="M1384.36,336.68c-1.3,1.85-2.44,4.77-3.44,8.27-1.27.23-2.5.51-3.77.79-2.22,1-4.56,1.92-6.99,2.79-.62-2.37-1.44-4.35-2.51-5.78-1.25,1.76-2.1,4.41-2.68,7.55-.43.14-.87.28-1.3.42.48-1.24.95-2.36,1.42-3.33-1.84.93-3.63,2.51-5.36,4.55-1.72.52-3.46,1.03-5.2,1.54.02-.15.03-.3.05-.45-.16.19-.33.39-.49.58-2.48.72-4.96,1.44-7.41,2.18-4.64,1.39-9.85,2.68-14.41,4.07-1.9.58-5.77,1.79-7.45,2.51-6.41-3.21-17.84-2.81-24.59-1.4-3.46.72-7.08,1.16-10.3,2.62-2.21,1-6.64,3.32-7.85,5.45,4.26-.78,8.67-1.5,13-1.81,3.1-.22,5.06-.55,7.51-.75,6.11-.49,16.05-2.81,22.42-3.55,2.07-.08,2.76-.44,5.16-1.07.48-.13.97-.25,1.45-.38-8.31,3.81-19.52,9.04-26.55,12.67-2.98,1.54-5.7,2.88-9.65,4.41-5.84,2.25-10.57,5.18-15.79,7.62,2.58.95,9.09-.13,12.28-.48,4.51-.5,8.7-1.76,13.55-3.4,10.22-3.46,24.03-11.89,28.08-21.32,3.51-.93,7.01-1.88,10.49-2.85-7.42,5.63-18.33,17.31-25.11,22.56-2.65,2.05-4.9,3.49-8.17,6.16-4.84,3.96-8.43,8.21-12.62,12.16,2.8.54,8.61-2.83,11.52-4.28,4.06-2.02,7.72-4.38,11.82-7.46,8.66-6.49,22.45-19.12,23.38-29.37,2.49-.7,4.97-1.42,7.45-2.14-7.64,9.18-18.8,23.13-26.12,29.98-3.34,3.13-5.16,5.57-8.94,8.86-5.94,5.15-10.39,10.47-15.56,15.57,3.08-.29,10.57-3.96,14.01-5.89,4.85-2.73,8.9-6.16,13.97-10.11,10.35-8.05,22.38-26.64,24.62-39,1.28-.38,2.55-.76,3.83-1.15-7.06,9.73-12.67,26.47-14.75,35.71-1.26,5.61-2.51,10.18-2.8,15.19-.21,3.55-.19,11.09.88,13.77,2.22-6.09,4.94-11.66,6.87-18.41,1.24-4.31,2.59-6.67,3.88-10.55,2.65-7.98,6.85-26.16,10.81-37.21.56-.18,1.13-.35,1.69-.53-1.49,9.94-.74,23.72-1.14,30.45-.2,3.35-.76,6.35-1.53,10.51-1.14,6.15-1.13,11.71-1.79,17.44,2.49-1.4,4.75-7.72,6.03-10.71,1.79-4.16,3.57-8.24,4.21-13.32,1.17-9.22,2.29-25.75.04-36.29,2.52-.87,4.99-1.79,7.35-2.77.4-.17,1.5-.65,2.75-1.23-2.04,7.61-3.43,17.61-4.26,25.46-.38,3.55-.43,6.63-1.62,10.53-1.82,5.98-2.11,11.66-2.87,17.37,2.51-1.35,5.65-7.61,6.99-10.57,1.87-4.13,3.48-8.22,4.45-13.25,2.26-11.77,6.94-31.06,1.05-38.91Z"/>
      <path class="cls-2" d="M1400.47,343.75c-1.19-2.12-3.55-6.52-5.71-7.66.93,4.23-.43,6.54.77,10.71.69,2.38,2.21,6.76,2.46,9.62.55,6.41,3.39,16.78,4.07,23.07,2.45-6.5,1.53-18.82,1.32-25.45-.14-4.47-1.62-8-2.91-10.28Z"/>
      <path class="cls-2" d="M1405.49,342.2c.89,1.5,2.78,4.2,3.29,6.12,1.13,4.31,4.87,10.86,6.11,15.06,1.79-5-.26-13.3-1.07-17.83-.55-3.05-2.33-5.18-3.79-6.48-1.36-1.21-4.06-3.76-6.28-4.09,1.3,2.72.18,4.6,1.74,7.23Z"/>
    </g>
    <g>
      <path class="cls-2" d="M460.92,934.74c-.02-2.26-.79-5.3-2.02-8.73.9-.93,1.74-1.87,2.61-2.84,1.23-2.1,2.59-4.22,4.05-6.34,1.88,1.56,3.71,2.7,5.4,3.24-.01-2.16-.86-4.81-2.22-7.7.27-.37.54-.73.82-1.1.33,1.29.6,2.48.79,3.54.95-1.83,1.49-4.16,1.7-6.82,1.1-1.43,2.21-2.85,3.33-4.28.07.13.15.27.23.4.02-.25.04-.51.06-.76,1.59-2.03,3.19-4.06,4.76-6.09,2.96-3.83,6.44-7.91,9.35-11.71,1.21-1.58,3.65-4.82,4.6-6.38,7.08-1.12,16.14-8.11,20.81-13.18,2.39-2.6,5.08-5.07,6.84-8.12,1.21-2.1,3.46-6.57,3.21-9-3,3.12-6.17,6.27-9.52,9.04-2.39,1.98-3.79,3.4-5.67,4.99-4.68,3.96-11.42,11.63-16.16,15.95-1.63,1.28-1.98,1.97-3.58,3.87-.32.38-.64.77-.96,1.15,4.54-7.94,10.6-18.72,14.2-25.76,1.53-2.98,2.96-5.66,5.28-9.2,3.43-5.23,5.58-10.36,8.39-15.39-2.65.73-7.31,5.4-9.71,7.54-3.37,3.03-6.05,6.5-9.04,10.66-6.3,8.76-12.61,23.66-10.41,33.69-2.31,2.8-4.6,5.61-6.86,8.43,2.76-8.9,4.82-24.75,7.27-32.96.96-3.21,1.95-5.69,3.06-9.77,1.63-6.04,2.07-11.58,3.18-17.24-2.59,1.19-5.35,7.32-6.87,10.19-2.12,4.01-3.72,8.06-5.27,12.94-3.26,10.32-7.11,28.62-1.9,37.5-1.62,2.02-3.22,4.05-4.81,6.08.86-11.92,1.81-29.75,3.77-39.58.89-4.49.95-7.53,2.11-12.41,1.82-7.64,2.35-14.56,3.58-21.71-2.33,2.03-6.29,9.37-7.96,12.95-2.36,5.05-3.65,10.19-5.47,16.35-3.72,12.57-2.68,34.69,2.7,46.04-.82,1.05-1.63,2.11-2.44,3.16.07-12.02-5.12-28.9-8.81-37.62-2.24-5.29-3.89-9.74-6.57-13.98-1.9-3.01-6.31-9.13-8.73-10.68,1.74,6.24,2.78,12.35,5.13,18.97,1.5,4.22,1.78,6.93,2.99,10.83,2.49,8.03,9.67,25.25,12.88,36.55-.36.47-.71.94-1.06,1.42-4.58-8.95-13.22-19.71-16.81-25.42-1.78-2.84-3.08-5.6-4.88-9.43-2.66-5.66-5.9-10.18-8.7-15.22-1.21,2.58.64,9.04,1.34,12.22.97,4.43,1.9,8.78,4.34,13.28,4.42,8.18,13.13,22.27,21.1,29.52-1.54,2.18-3.01,4.36-4.36,6.53-.23.37-.84,1.4-1.52,2.6-2.78-7.38-7.46-16.31-11.36-23.18-1.76-3.1-3.51-5.64-4.81-9.5-2-5.93-5.07-10.71-7.79-15.79-1.26,2.56-.16,9.47.47,12.66.89,4.45,1.95,8.71,4.1,13.36,5.02,10.89,12.45,29.29,21.81,32.24Z"/>
      <path class="cls-2" d="M443.71,938.38c2.2,1.02,6.68,3.24,9.1,2.9-3.22-2.9-3.46-5.57-6.86-8.26-1.94-1.54-5.73-4.2-7.6-6.39-4.18-4.89-12.53-11.66-16.75-16.38,1.8,6.71,9.72,16.19,13.75,21.46,2.72,3.55,5.98,5.56,8.36,6.66Z"/>
      <path class="cls-2" d="M440.54,942.56c-1.6-.7-4.71-1.79-6.24-3.06-3.43-2.84-10.28-6-13.74-8.68,1.46,5.1,7.96,10.67,11.26,13.87,2.23,2.16,4.91,2.86,6.86,3.06,1.81.19,5.49.69,7.48-.33-2.64-1.46-2.83-3.63-5.63-4.86Z"/>
    </g>
    <g>
      <path class="cls-2" d="M482.2,554.06c-.91,2.06-1.47,5.15-1.76,8.78-1.2.48-2.35.99-3.55,1.51-1.99,1.41-4.1,2.77-6.31,4.1-1.07-2.2-2.26-3.99-3.58-5.18-.88,1.97-1.2,4.73-1.16,7.93-.4.22-.8.44-1.2.66.23-1.31.47-2.51.74-3.55-1.62,1.27-3.07,3.17-4.37,5.51-1.59.85-3.19,1.69-4.8,2.52-.01-.15-.03-.31-.04-.45-.12.22-.25.44-.37.67-2.29,1.19-4.59,2.38-6.85,3.58-4.28,2.27-9.14,4.55-13.34,6.8-1.75.94-5.31,2.88-6.82,3.91-6.91-1.9-18.04.72-24.4,3.42-3.25,1.38-6.72,2.52-9.59,4.57-1.97,1.42-5.86,4.55-6.64,6.87,4.02-1.6,8.21-3.16,12.4-4.3,3-.82,4.85-1.53,7.22-2.2,5.9-1.68,15.2-5.88,21.3-7.86,2.02-.49,2.62-.97,4.86-2.05.45-.22.9-.44,1.35-.65-7.41,5.36-17.38,12.67-23.57,17.6-2.62,2.09-5.03,3.94-8.6,6.2-5.28,3.35-9.36,7.14-14,10.55,2.72.43,8.89-1.9,11.95-2.87,4.32-1.37,8.19-3.42,12.63-5.98,9.35-5.38,21.25-16.35,23.39-26.39,3.26-1.59,6.5-3.21,9.73-4.84-6.18,6.97-14.6,20.55-20.23,27.02-2.2,2.53-4.13,4.37-6.82,7.64-3.98,4.83-6.67,9.7-10.01,14.39,2.85-.02,7.89-4.46,10.47-6.45,3.59-2.77,6.72-5.8,10.14-9.62,7.23-8.05,18.29-23.13,17.21-33.37,2.31-1.17,4.6-2.36,6.89-3.55-5.7,10.5-13.93,26.35-19.77,34.5-2.67,3.72-3.97,6.47-7.04,10.43-4.82,6.21-8.15,12.3-12.22,18.3,2.96-.89,9.6-5.94,12.6-8.51,4.23-3.62,7.53-7.78,11.73-12.63,8.58-9.92,16.76-30.49,16.54-43.05,1.18-.62,2.36-1.24,3.53-1.87-5.03,10.92-7.27,28.43-7.5,37.9-.14,5.75-.48,10.48.21,15.45.49,3.52,1.98,10.91,3.54,13.33.99-6.4,2.57-12.39,3.15-19.39.37-4.46,1.24-7.05,1.74-11.1,1.05-8.34,1.62-26.99,3.35-38.61.52-.28,1.04-.57,1.55-.85.47,10.04,3.9,23.41,4.81,30.09.45,3.32.49,6.37.55,10.61.08,6.26,1.17,11.71,1.65,17.45,2.17-1.85,3.15-8.5,3.83-11.68.95-4.43,1.89-8.78,1.53-13.89-.65-9.27-2.77-25.7-7.04-35.6,2.3-1.35,4.55-2.73,6.67-4.15.36-.24,1.34-.93,2.46-1.74-.51,7.87.07,17.94.78,25.8.32,3.56.87,6.59.46,10.64-.62,6.22.2,11.85.58,17.6,2.2-1.81,4.06-8.56,4.8-11.73,1.03-4.42,1.81-8.74,1.78-13.86-.08-11.99.75-31.82-6.55-38.37Z"/>
      <path class="cls-2" d="M499.37,557.84c-1.58-1.84-4.75-5.7-7.09-6.4,1.73,3.97.85,6.5,2.84,10.36,1.14,2.2,3.49,6.19,4.28,8.95,1.79,6.18,6.6,15.8,8.49,21.84,1.14-6.86-2.17-18.76-3.66-25.22-1.01-4.36-3.15-7.53-4.86-9.52Z"/>
      <path class="cls-2" d="M503.99,555.35c1.16,1.3,3.55,3.57,4.42,5.36,1.95,4.01,6.89,9.71,8.93,13.58.78-5.25-2.85-13-4.53-17.28-1.14-2.89-3.29-4.63-4.98-5.62-1.57-.92-4.72-2.89-6.95-2.79,1.8,2.42,1.08,4.48,3.12,6.75Z"/>
    </g>
    <g>
      <path class="cls-2" d="M1864.49,14.61c-.59,4.48.09,10.73,1.57,17.88-2.04,1.59-3.97,3.23-5.96,4.9-3.02,3.83-6.32,7.64-9.81,11.44-3.29-3.63-6.6-6.39-9.82-7.94-.58,4.28.37,9.78,2.25,15.89-.64.65-1.28,1.3-1.93,1.95-.3-2.65-.5-5.08-.58-7.24-2.4,3.36-4.12,7.83-5.28,13.05-2.58,2.52-5.18,5.04-7.8,7.55-.11-.29-.22-.57-.34-.85-.11.49-.22.99-.33,1.5-3.73,3.59-7.47,7.17-11.14,10.75-6.95,6.78-15,13.9-21.81,20.61-2.84,2.8-8.58,8.53-10.9,11.37-14.36.25-34.28,11.57-44.97,20.34-5.47,4.49-11.5,8.64-15.85,14.2-3,3.83-8.7,12.06-8.88,16.95,6.83-5.34,13.99-10.71,21.4-15.27,5.3-3.26,8.47-5.68,12.64-8.31,10.39-6.55,25.89-19.89,36.51-27.12,3.6-2.07,4.48-3.35,8.18-6.69.74-.67,1.48-1.35,2.22-2.02-11.22,14.48-26.26,34.17-35.37,47.13-3.86,5.49-7.44,10.4-13.04,16.78-8.27,9.42-13.96,19-20.95,28.19,5.46-.72,16.02-8.66,21.36-12.26,7.54-5.07,13.81-11.2,20.91-18.62,14.94-15.62,31.63-43.42,30.07-63.92,5.37-4.9,10.69-9.84,15.97-14.8-7.95,16.88-16.47,47.75-23.64,63.36-2.8,6.1-5.46,10.74-8.79,18.53-4.92,11.53-7.34,22.4-11.12,33.31,5.48-1.64,12.66-13.02,16.48-18.3,5.33-7.36,9.63-14.95,14.06-24.21,9.36-19.57,22.11-54.79,14.24-73.85,3.77-3.56,7.52-7.13,11.23-10.72-5.04,23.4-11.91,58.5-18.54,77.47-3.03,8.65-3.98,14.68-7.65,24.03-5.75,14.66-8.72,28.24-13.17,42.07,5.19-3.37,15.1-16.83,19.41-23.47,6.08-9.35,10.09-19.2,15.42-30.91,10.89-23.9,15-68.07,7.51-92.09,1.92-1.86,3.83-3.72,5.73-5.59-3.5,23.82,2.08,58.75,6.97,77.08,2.97,11.13,5,20.41,9.12,29.57,2.92,6.5,9.96,19.86,14.34,23.63-1.72-12.86-2.06-25.27-4.88-39.06-1.8-8.79-1.6-14.25-2.91-22.33-2.69-16.62-12.13-52.8-15.35-76.1.84-.84,1.67-1.67,2.5-2.51,6.58,19.04,20.71,42.79,26.24,55.12,2.75,6.13,4.55,11.97,7.04,20.08,3.68,11.98,8.86,21.85,13.02,32.62,3.12-4.79,1.26-18.12.77-24.62-.68-9.06-1.32-17.94-4.89-27.56-6.48-17.45-19.83-47.84-33.62-64.46,3.67-3.89,7.2-7.81,10.47-11.74.55-.67,2.06-2.55,3.75-4.73,3.45,15.41,10.25,34.44,16.06,49.16,2.63,6.65,5.39,12.17,6.9,20.2,2.32,12.32,7.07,22.66,11.04,33.5,3.21-4.73,2.97-18.75,2.6-25.26-.52-9.07-1.44-17.82-4.4-27.65-6.92-23-16.51-61.59-34.25-70.05Z"/>
      <path class="cls-2" d="M1899.64,12.2c-4.08-2.65-12.35-8.29-17.24-8.3,5.57,6.65,5.3,12.01,11.31,18.3,3.43,3.59,10.2,9.94,13.29,14.79,6.92,10.88,21.6,26.64,28.65,37.18-1.69-13.82-14.76-34.84-21.28-46.42-4.4-7.81-10.31-12.7-14.72-15.56Z"/>
      <path class="cls-2" d="M1907.11,4.8c2.97,1.83,8.84,4.87,11.52,7.81,6,6.6,18.73,14.77,24.83,21.07-1.47-10.53-12.81-23.38-18.46-30.66-3.81-4.91-8.94-7.04-12.75-7.99-3.54-.89-10.7-2.9-14.94-1.43,4.83,3.63,4.6,8,9.8,11.21Z"/>
    </g>
    <g>
      <path class="cls-2" d="M117.93,1068.91c-.74-4.46-3.21-10.23-6.72-16.64,1.48-2.12,2.85-4.24,4.27-6.43,1.77-4.54,3.82-9.15,6.05-13.8,4.21,2.51,8.17,4.19,11.71,4.73-.7-4.26-3.21-9.24-6.78-14.54.42-.81.85-1.62,1.28-2.43,1.06,2.45,1.96,4.72,2.66,6.76,1.32-3.91,1.65-8.69,1.25-14.02,1.73-3.16,3.49-6.33,5.25-9.5.19.24.38.48.57.71-.04-.5-.08-1.01-.12-1.53,2.52-4.52,5.05-9.04,7.52-13.53,4.67-8.51,10.29-17.67,14.85-26.07,1.9-3.51,5.72-10.66,7.11-14.06,13.66-4.43,29.41-21.06,37.08-32.57,3.92-5.88,8.48-11.62,11.02-18.21,1.75-4.54,4.8-14.07,3.55-18.81-4.98,7.1-10.26,14.32-16.02,20.85-4.12,4.67-6.44,7.9-9.67,11.63-8.03,9.29-18.97,26.57-27.01,36.59-2.84,3.03-3.31,4.51-5.87,8.78-.51.86-1.02,1.72-1.54,2.58,6.51-17.13,15.16-40.35,20.09-55.39,2.09-6.38,4.09-12.12,7.58-19.85,5.16-11.42,7.81-22.24,11.82-33.07-5.01,2.28-12.8,12.96-16.86,17.95-5.73,7.05-9.94,14.74-14.57,23.91-9.73,19.3-17.59,50.75-10.12,69.91-3.71,6.26-7.36,12.53-10.96,18.81,2.69-18.46,1.83-50.48,4.13-67.5.9-6.65,2.09-11.86,3-20.29,1.35-12.46.49-23.57.93-35.11-4.76,3.17-8.31,16.15-10.43,22.31-2.95,8.59-4.86,17.11-6.39,27.26-3.25,21.44-5.17,58.86,7.92,74.8-2.57,4.5-5.11,9.01-7.62,13.53-2-23.85-5.67-59.43-4.86-79.51.37-9.16-.48-15.21.31-25.22,1.23-15.7.11-29.55.33-44.09-3.98,4.74-9.53,20.51-11.72,28.11-3.09,10.72-4.05,21.31-5.74,34.06-3.45,26.04,5.5,69.49,19.68,90.28-1.29,2.34-2.57,4.68-3.85,7.02-3.6-23.8-19.12-55.59-29.14-71.7-6.08-9.78-10.73-18.06-17.35-25.63-4.69-5.36-15.32-16.1-20.61-18.42,5.39,11.8,9.34,23.57,16.06,35.94,4.29,7.88,5.69,13.16,9.3,20.51,7.42,15.11,27,46.96,36.87,68.32-.56,1.04-1.11,2.09-1.66,3.13-11.84-16.29-32.29-34.89-41.17-45.07-4.41-5.06-7.84-10.13-12.59-17.15-7.02-10.38-14.85-18.31-21.96-27.4-1.59,5.49,4.08,17.7,6.45,23.77,3.3,8.46,6.5,16.78,12.72,24.94,11.29,14.81,32.92,39.98,50.95,51.85-2.37,4.79-4.61,9.57-6.59,14.29-.34.8-1.23,3.04-2.21,5.62-7.8-13.73-19.85-29.96-29.7-42.34-4.45-5.6-8.7-10.07-12.49-17.31-5.81-11.11-13.38-19.61-20.33-28.83-1.69,5.46,2.62,18.8,4.88,24.92,3.14,8.52,6.58,16.62,12.27,25.16,13.32,19.99,33.76,54.1,53.19,57.02Z"/>
      <path class="cls-2" d="M85.01,1081.46c4.68,1.34,14.23,4.32,18.92,2.91-7.26-4.73-8.57-9.94-16.15-14.21-4.32-2.43-12.65-6.53-17.02-10.27-9.8-8.38-28.43-19.18-38.24-27.21,5.64,12.73,24.28,29.02,33.89,38.19,6.48,6.18,13.57,9.14,18.61,10.59Z"/>
      <path class="cls-2" d="M80.02,1090.72c-3.38-.89-9.87-2.08-13.29-4.11-7.67-4.56-22.22-8.66-29.9-12.91,4.48,9.64,19.07,18.63,26.6,23.95,5.08,3.58,10.6,4.12,14.53,3.92,3.64-.18,11.08-.35,14.71-2.99-5.68-2.07-6.73-6.31-12.65-7.86Z"/>
    </g>
    <g>
      <path class="cls-2" d="M1841.18,1017.9c-3.51-2.85-9.18-5.55-16.05-8.04-.29-2.57-.67-5.07-1.05-7.65-1.68-4.58-3.19-9.39-4.6-14.35,4.81-.9,8.9-2.26,11.91-4.19-3.34-2.74-8.52-4.81-14.71-6.42-.22-.89-.44-1.77-.65-2.67,2.41,1.13,4.59,2.24,6.46,3.31-1.6-3.81-4.51-7.61-8.34-11.34-.8-3.52-1.57-7.06-2.34-10.6.3.06.6.11.9.16-.36-.35-.73-.71-1.1-1.07-1.1-5.06-2.19-10.12-3.31-15.12-2.13-9.47-3.97-20.06-6.11-29.38-.89-3.89-2.77-11.78-3.96-15.25,7.32-12.35,8.13-35.26,6.26-48.95-.95-7.01-1.32-14.32-3.78-20.94-1.69-4.56-5.71-13.73-9.78-16.45.97,8.62,1.78,17.53,1.78,26.23,0,6.22.39,10.19.44,15.12.13,12.28,3.35,32.48,3.95,45.31-.12,4.15.5,5.57,1.41,10.47.18.98.37,1.97.55,2.95-6.45-17.15-15.32-40.28-21.58-54.83-2.65-6.17-4.95-11.8-7.45-19.9-3.68-11.98-8.86-21.85-13.01-32.62-2.25,5.02-1.02,18.18-.77,24.62.36,9.08,2.29,17.63,4.89,27.56,5.47,20.91,20.38,49.7,38.66,59.12,1.36,7.14,2.77,14.26,4.23,21.36-10.2-15.62-32.02-39.07-41.55-53.36-3.73-5.59-6.28-10.28-11.17-17.2-7.23-10.24-15.22-18-22.53-26.94-1.48,5.52,4.45,17.61,6.94,23.63,3.47,8.39,7.67,16.04,13.24,24.67,11.75,18.23,35.06,47.56,55.41,50.86,1.05,5.08,2.13,10.14,3.24,15.19-17.28-16.56-43.57-40.82-56.24-56.42-5.78-7.11-10.41-11.09-16.45-19.12-9.46-12.59-19.47-22.24-28.92-33.28.15,6.19,6.42,21.68,9.8,28.83,4.77,10.08,11.06,18.66,18.23,29.34,14.64,21.81,50.09,48.47,74.47,54.69.58,2.61,1.16,5.21,1.75,7.81-18.44-15.47-51.11-29.04-69.28-34.49-11.03-3.31-20-6.45-29.96-7.74-7.07-.92-22.14-1.93-27.64-.18,11.85,5.28,22.6,11.5,35.82,16.33,8.43,3.08,12.97,6.11,20.54,9.23,15.57,6.42,51.31,17.36,72.84,26.84.27,1.15.55,2.3.83,3.45-19.66-4.38-47.3-4.81-60.69-6.57-6.66-.88-12.58-2.41-20.79-4.53-12.13-3.14-23.25-3.91-34.6-6.02,2.44,5.17,14.77,10.57,20.56,13.56,8.07,4.17,15.97,8.29,26.04,10.29,18.26,3.64,51.14,8.2,72.51,5.18,1.39,5.16,2.87,10.22,4.51,15.07.28.82,1.09,3.09,2.06,5.67-14.93-5.14-34.7-9.34-50.28-12.1-7.04-1.25-13.19-1.8-20.81-4.72-11.7-4.49-23-5.86-34.32-8.17,2.35,5.21,14.41,12.36,20.14,15.46,7.99,4.31,15.93,8.12,25.85,10.76,23.21,6.17,61.1,18.24,77.61,7.58Z"/>
      <path class="cls-2" d="M1824.8,1049.09c4.4-2.09,13.53-6.17,16.11-10.33-8.58,1.26-13-1.79-21.51.03-4.85,1.04-13.81,3.47-19.56,3.56-12.89.19-34.01,4.42-46.68,4.89,12.65,5.81,37.4,5.7,50.68,6.22,8.95.35,16.22-2.12,20.96-4.37Z"/>
      <path class="cls-2" d="M1827.18,1059.34c-3.12,1.57-8.78,4.97-12.69,5.71-8.77,1.65-22.4,8.2-30.96,10.1,9.74,4.27,26.62,1.36,35.79.36,6.18-.67,10.68-3.92,13.49-6.67,2.61-2.55,8.08-7.59,9.05-11.97-5.62,2.21-9.22-.28-14.69,2.47Z"/>
    </g>
    <g>
      <path class="cls-2" d="M1533.09,1006.03c-.02-2.26-.79-5.3-2.02-8.73.9-.93,1.74-1.87,2.61-2.84,1.23-2.1,2.59-4.22,4.05-6.34,1.88,1.56,3.71,2.7,5.4,3.24-.01-2.16-.86-4.81-2.22-7.7.27-.37.54-.73.82-1.1.33,1.29.6,2.48.79,3.54.95-1.83,1.49-4.16,1.7-6.82,1.1-1.43,2.21-2.85,3.33-4.28.07.13.15.27.23.4.02-.25.04-.51.06-.76,1.59-2.03,3.19-4.06,4.76-6.09,2.96-3.83,6.44-7.91,9.35-11.71,1.21-1.58,3.65-4.82,4.6-6.38,7.08-1.12,16.14-8.11,20.81-13.18,2.39-2.6,5.08-5.07,6.84-8.12,1.21-2.1,3.46-6.57,3.21-9-3,3.12-6.17,6.27-9.52,9.04-2.39,1.98-3.79,3.4-5.67,4.99-4.68,3.96-11.42,11.63-16.16,15.95-1.63,1.28-1.98,1.97-3.58,3.87-.32.38-.64.77-.96,1.15,4.54-7.94,10.6-18.72,14.2-25.76,1.53-2.98,2.96-5.66,5.28-9.2,3.43-5.23,5.58-10.36,8.39-15.39-2.65.73-7.31,5.4-9.71,7.54-3.37,3.03-6.05,6.5-9.04,10.66-6.3,8.76-12.61,23.66-10.41,33.69-2.31,2.8-4.6,5.61-6.86,8.43,2.76-8.9,4.82-24.75,7.27-32.96.96-3.21,1.95-5.69,3.06-9.77,1.63-6.04,2.07-11.58,3.18-17.24-2.59,1.19-5.35,7.32-6.87,10.19-2.12,4.01-3.72,8.06-5.27,12.94-3.26,10.32-7.11,28.62-1.9,37.5-1.62,2.02-3.22,4.05-4.81,6.08.86-11.92,1.81-29.75,3.77-39.58.89-4.49.95-7.53,2.11-12.41,1.82-7.64,2.35-14.56,3.58-21.71-2.33,2.03-6.29,9.37-7.96,12.95-2.36,5.05-3.65,10.19-5.47,16.35-3.72,12.57-2.68,34.69,2.7,46.04-.82,1.05-1.63,2.11-2.44,3.16.07-12.02-5.12-28.9-8.81-37.62-2.24-5.29-3.89-9.74-6.57-13.98-1.9-3.01-6.31-9.13-8.73-10.68,1.74,6.24,2.78,12.35,5.13,18.97,1.5,4.22,1.78,6.93,2.99,10.83,2.49,8.03,9.67,25.25,12.88,36.55-.36.47-.71.94-1.06,1.42-4.58-8.95-13.22-19.71-16.81-25.42-1.78-2.84-3.08-5.6-4.88-9.43-2.66-5.66-5.9-10.18-8.7-15.22-1.21,2.58.64,9.04,1.34,12.22.97,4.43,1.9,8.78,4.34,13.28,4.42,8.18,13.13,22.27,21.1,29.52-1.54,2.18-3.01,4.36-4.36,6.53-.23.37-.84,1.4-1.52,2.6-2.78-7.38-7.46-16.31-11.36-23.18-1.76-3.1-3.51-5.64-4.81-9.5-2-5.93-5.07-10.71-7.79-15.79-1.26,2.56-.16,9.47.47,12.66.89,4.45,1.95,8.71,4.1,13.36,5.02,10.89,12.45,29.29,21.81,32.24Z"/>
      <path class="cls-2" d="M1515.88,1009.67c2.2,1.02,6.68,3.24,9.1,2.9-3.22-2.9-3.46-5.57-6.86-8.26-1.94-1.54-5.73-4.2-7.6-6.39-4.18-4.89-12.53-11.66-16.75-16.38,1.8,6.71,9.72,16.19,13.75,21.46,2.72,3.55,5.98,5.56,8.36,6.66Z"/>
      <path class="cls-2" d="M1512.7,1013.85c-1.6-.7-4.71-1.79-6.24-3.06-3.43-2.84-10.28-6-13.74-8.68,1.46,5.1,7.96,10.67,11.26,13.87,2.23,2.16,4.91,2.86,6.86,3.06,1.81.19,5.49.69,7.48-.33-2.64-1.46-2.83-3.63-5.63-4.86Z"/>
    </g>
    <g>
      <path class="cls-2" d="M1638.09,383.03c-.02-2.26-.79-5.3-2.02-8.73.9-.93,1.74-1.87,2.61-2.84,1.23-2.1,2.59-4.22,4.05-6.34,1.88,1.56,3.71,2.7,5.4,3.24-.01-2.16-.86-4.81-2.22-7.7.27-.37.54-.73.82-1.1.33,1.29.6,2.48.79,3.54.95-1.83,1.49-4.16,1.7-6.82,1.1-1.43,2.21-2.85,3.33-4.28.07.13.15.27.23.4.02-.25.04-.51.06-.76,1.59-2.03,3.19-4.06,4.76-6.09,2.96-3.83,6.44-7.91,9.35-11.71,1.21-1.58,3.65-4.82,4.6-6.38,7.08-1.12,16.14-8.11,20.81-13.18,2.39-2.6,5.08-5.07,6.84-8.12,1.21-2.1,3.46-6.57,3.21-9-3,3.12-6.17,6.27-9.52,9.04-2.39,1.98-3.79,3.4-5.67,4.99-4.68,3.96-11.42,11.63-16.16,15.95-1.63,1.28-1.98,1.97-3.58,3.87-.32.38-.64.77-.96,1.15,4.54-7.94,10.6-18.72,14.2-25.76,1.53-2.98,2.96-5.66,5.28-9.2,3.43-5.23,5.58-10.36,8.39-15.39-2.65.73-7.31,5.4-9.71,7.54-3.37,3.03-6.05,6.5-9.04,10.66-6.3,8.76-12.61,23.66-10.41,33.69-2.31,2.8-4.6,5.61-6.86,8.43,2.76-8.9,4.82-24.75,7.27-32.96.96-3.21,1.95-5.69,3.06-9.77,1.63-6.04,2.07-11.58,3.18-17.24-2.59,1.19-5.35,7.32-6.87,10.19-2.12,4.01-3.72,8.06-5.27,12.94-3.26,10.32-7.11,28.62-1.9,37.5-1.62,2.02-3.22,4.05-4.81,6.08.86-11.92,1.81-29.75,3.77-39.58.89-4.49.95-7.53,2.11-12.41,1.82-7.64,2.35-14.56,3.58-21.71-2.33,2.03-6.29,9.37-7.96,12.95-2.36,5.05-3.65,10.19-5.47,16.35-3.72,12.57-2.68,34.69,2.7,46.04-.82,1.05-1.63,2.11-2.44,3.16.07-12.02-5.12-28.9-8.81-37.62-2.24-5.29-3.89-9.74-6.57-13.98-1.9-3.01-6.31-9.13-8.73-10.68,1.74,6.24,2.78,12.35,5.13,18.97,1.5,4.22,1.78,6.93,2.99,10.83,2.49,8.03,9.67,25.25,12.88,36.55-.36.47-.71.94-1.06,1.42-4.58-8.95-13.22-19.71-16.81-25.42-1.78-2.84-3.08-5.6-4.88-9.43-2.66-5.66-5.9-10.18-8.7-15.22-1.21,2.58.64,9.04,1.34,12.22.97,4.43,1.9,8.78,4.34,13.28,4.42,8.18,13.13,22.27,21.1,29.52-1.54,2.18-3.01,4.36-4.36,6.53-.23.37-.84,1.4-1.52,2.6-2.78-7.38-7.46-16.31-11.36-23.18-1.76-3.1-3.51-5.64-4.81-9.5-2-5.93-5.07-10.71-7.79-15.79-1.26,2.56-.16,9.47.47,12.66.89,4.45,1.95,8.71,4.1,13.36,5.02,10.89,12.45,29.29,21.81,32.24Z"/>
      <path class="cls-2" d="M1620.88,386.67c2.2,1.02,6.68,3.24,9.1,2.9-3.22-2.9-3.46-5.57-6.86-8.26-1.94-1.54-5.73-4.2-7.6-6.39-4.18-4.89-12.53-11.66-16.75-16.38,1.8,6.71,9.72,16.19,13.75,21.46,2.72,3.55,5.98,5.56,8.36,6.66Z"/>
      <path class="cls-2" d="M1617.7,390.85c-1.6-.7-4.71-1.79-6.24-3.06-3.43-2.84-10.28-6-13.74-8.68,1.46,5.1,7.96,10.67,11.26,13.87,2.23,2.16,4.91,2.86,6.86,3.06,1.81.19,5.49.69,7.48-.33-2.64-1.46-2.83-3.63-5.63-4.86Z"/>
    </g>
    <g>
      <path class="cls-2" d="M554.24,5.34c-.91,2.06-1.47,5.15-1.76,8.78-1.2.48-2.35.99-3.55,1.51-1.99,1.41-4.1,2.77-6.31,4.1-1.07-2.2-2.26-3.99-3.58-5.18-.88,1.97-1.2,4.73-1.16,7.93-.4.22-.8.44-1.2.66.23-1.31.47-2.51.74-3.55-1.62,1.27-3.07,3.17-4.37,5.51-1.59.85-3.19,1.69-4.8,2.52-.01-.15-.03-.31-.04-.45-.12.22-.25.44-.37.67-2.29,1.19-4.59,2.38-6.85,3.58-4.28,2.27-9.14,4.55-13.34,6.8-1.75.94-5.31,2.88-6.82,3.91-6.91-1.9-18.04.72-24.4,3.42-3.25,1.38-6.72,2.52-9.59,4.57-1.97,1.42-5.86,4.55-6.64,6.87,4.02-1.6,8.21-3.16,12.4-4.3,3-.82,4.85-1.53,7.22-2.2,5.9-1.68,15.2-5.88,21.3-7.86,2.02-.49,2.62-.97,4.86-2.05.45-.22.9-.44,1.35-.65-7.41,5.36-17.38,12.67-23.57,17.6-2.62,2.09-5.03,3.94-8.6,6.2-5.28,3.35-9.36,7.14-14,10.55,2.72.43,8.89-1.9,11.95-2.87,4.32-1.37,8.19-3.42,12.63-5.98,9.35-5.38,21.25-16.35,23.39-26.39,3.26-1.59,6.5-3.21,9.73-4.84-6.18,6.97-14.6,20.55-20.23,27.02-2.2,2.53-4.13,4.37-6.82,7.64-3.98,4.83-6.67,9.7-10.01,14.39,2.85-.02,7.89-4.46,10.47-6.45,3.59-2.77,6.72-5.8,10.14-9.62,7.23-8.05,18.29-23.13,17.21-33.37,2.31-1.17,4.6-2.36,6.89-3.55-5.7,10.5-13.93,26.35-19.77,34.5-2.67,3.72-3.97,6.47-7.04,10.43-4.82,6.21-8.15,12.3-12.22,18.3,2.96-.89,9.6-5.94,12.6-8.51,4.23-3.62,7.53-7.78,11.73-12.63,8.58-9.92,16.76-30.49,16.54-43.05,1.18-.62,2.36-1.24,3.53-1.87-5.03,10.92-7.27,28.43-7.5,37.9-.14,5.75-.48,10.48.21,15.45.49,3.52,1.98,10.91,3.54,13.33.99-6.4,2.57-12.39,3.15-19.39.37-4.46,1.24-7.05,1.74-11.1,1.05-8.34,1.62-26.99,3.35-38.61.52-.28,1.04-.57,1.55-.85.47,10.04,3.9,23.41,4.81,30.09.45,3.32.49,6.37.55,10.61.08,6.26,1.17,11.71,1.65,17.45,2.17-1.85,3.15-8.5,3.83-11.68.95-4.43,1.89-8.78,1.53-13.89-.65-9.27-2.77-25.7-7.04-35.6,2.3-1.35,4.55-2.73,6.67-4.15.36-.24,1.34-.93,2.46-1.74-.51,7.87.07,17.94.78,25.8.32,3.56.87,6.59.46,10.64-.62,6.22.2,11.85.58,17.6,2.2-1.81,4.06-8.56,4.8-11.73,1.03-4.42,1.81-8.74,1.78-13.86-.08-11.99.75-31.82-6.55-38.37Z"/>
      <path class="cls-2" d="M571.41,9.13c-1.58-1.84-4.75-5.7-7.09-6.4,1.73,3.97.85,6.5,2.84,10.36,1.14,2.2,3.49,6.19,4.28,8.95,1.79,6.18,6.6,15.8,8.49,21.84,1.14-6.86-2.17-18.76-3.66-25.22-1.01-4.36-3.15-7.53-4.86-9.52Z"/>
      <path class="cls-2" d="M576.03,6.63c1.16,1.3,3.55,3.57,4.42,5.36,1.95,4.01,6.89,9.71,8.93,13.58.78-5.25-2.85-13-4.53-17.28-1.14-2.89-3.29-4.63-4.98-5.62-1.57-.92-4.72-2.89-6.95-2.79,1.8,2.42,1.08,4.48,3.12,6.75Z"/>
    </g>
    <g>
      <path class="cls-2" d="M276.9,248.09c.19,2.25,1.17,5.22,2.65,8.56-.83.99-1.59,1.99-2.39,3.02-1.07,2.19-2.28,4.39-3.58,6.62-1.99-1.42-3.89-2.42-5.63-2.84.17,2.15,1.21,4.73,2.77,7.51-.24.39-.49.77-.74,1.16-.43-1.26-.78-2.43-1.04-3.47-.82,1.89-1.18,4.26-1.2,6.92-.99,1.5-2,3.01-3.01,4.51-.08-.13-.17-.26-.25-.38,0,.25,0,.51,0,.77-1.44,2.14-2.89,4.29-4.3,6.42-2.67,4.04-5.85,8.36-8.47,12.35-1.09,1.66-3.29,5.07-4.12,6.7-6.98,1.64-15.51,9.26-19.79,14.66-2.19,2.76-4.7,5.43-6.23,8.6-1.06,2.19-2.97,6.8-2.54,9.21,2.77-3.33,5.7-6.7,8.83-9.71,2.24-2.15,3.53-3.66,5.29-5.38,4.38-4.29,10.54-12.43,14.95-17.08,1.54-1.39,1.83-2.11,3.28-4.12.29-.41.58-.81.87-1.22-3.95,8.25-9.21,19.44-12.29,26.72-1.31,3.09-2.54,5.86-4.59,9.56-3.04,5.47-4.81,10.74-7.25,15.96,2.59-.92,6.9-5.92,9.13-8.23,3.14-3.27,5.56-6.92,8.24-11.29,5.64-9.2,10.86-24.52,7.93-34.36,2.1-2.96,4.18-5.93,6.23-8.9-2.1,9.07-3,25.03-4.85,33.41-.72,3.27-1.53,5.81-2.34,9.97-1.19,6.14-1.22,11.7-1.91,17.43,2.5-1.38,4.8-7.69,6.11-10.67,1.82-4.15,3.12-8.31,4.31-13.29,2.5-10.53,5.01-29.06-.84-37.53,1.47-2.13,2.91-4.27,4.35-6.41,0,11.95.36,29.8-.88,39.75-.56,4.54-.39,7.58-1.2,12.53-1.26,7.76-1.28,14.7-1.99,21.92,2.18-2.19,5.59-9.81,7-13.49,1.98-5.2,2.9-10.43,4.27-16.71,2.79-12.81.14-34.79-6.05-45.72.74-1.11,1.47-2.22,2.21-3.33.8,11.99,7.21,28.45,11.53,36.87,2.62,5.12,4.59,9.43,7.57,13.47,2.11,2.86,6.96,8.64,9.49,10.02-2.19-6.09-3.67-12.11-6.5-18.54-1.81-4.1-2.28-6.78-3.78-10.59-3.07-7.83-11.48-24.48-15.51-35.51.32-.5.64-.99.96-1.49,5.22,8.59,14.62,18.69,18.61,24.13,1.99,2.7,3.48,5.36,5.55,9.05,3.06,5.46,6.63,9.73,9.79,14.54,1.02-2.66-1.3-8.97-2.22-12.09-1.29-4.35-2.54-8.61-5.29-12.93-5-7.83-14.72-21.25-23.2-27.9,1.38-2.29,2.69-4.57,3.87-6.83.2-.38.74-1.46,1.33-2.7,3.31,7.15,8.63,15.72,13.02,22.29,1.98,2.97,3.91,5.37,5.49,9.13,2.43,5.76,5.84,10.31,8.92,15.18,1.07-2.65-.53-9.46-1.39-12.6-1.21-4.37-2.58-8.54-5.06-13.03-5.8-10.49-14.55-28.31-24.1-30.57Z"/>
      <path class="cls-2" d="M293.79,243.21c-2.27-.86-6.9-2.74-9.29-2.23,3.42,2.66,3.85,5.3,7.45,7.74,2.05,1.39,6.02,3.77,8.04,5.82,4.53,4.58,13.35,10.72,17.9,15.12-2.28-6.56-10.87-15.44-15.28-20.4-2.97-3.34-6.37-5.11-8.82-6.04Z"/>
      <path class="cls-2" d="M296.66,238.81c1.64.58,4.83,1.44,6.44,2.6,3.63,2.59,10.69,5.23,14.34,7.66-1.83-4.98-8.71-10.06-12.24-13.01-2.38-1.99-5.1-2.49-7.07-2.55-1.82-.06-5.52-.29-7.44.88,2.74,1.26,3.09,3.42,5.97,4.44Z"/>
    </g>
    <g>
      <path class="cls-2" d="M1610.39-2.19c-1.3,1.85-2.44,4.77-3.44,8.27-1.27.23-2.5.51-3.77.79-2.22,1-4.56,1.92-6.99,2.79-.62-2.37-1.44-4.35-2.51-5.78-1.25,1.76-2.1,4.41-2.68,7.55-.43.14-.87.28-1.3.42.48-1.24.95-2.36,1.42-3.33-1.84.93-3.63,2.51-5.36,4.55-1.72.52-3.46,1.03-5.2,1.54.02-.15.03-.3.05-.45-.16.19-.33.39-.49.58-2.48.72-4.96,1.44-7.41,2.18-4.64,1.39-9.85,2.68-14.41,4.07-1.9.58-5.77,1.79-7.45,2.51-6.41-3.21-17.84-2.81-24.59-1.4-3.46.72-7.08,1.16-10.3,2.62-2.21,1-6.64,3.32-7.85,5.45,4.26-.78,8.67-1.5,13-1.81,3.1-.22,5.06-.55,7.51-.75,6.11-.49,16.05-2.81,22.42-3.55,2.07-.08,2.76-.44,5.16-1.07.48-.13.97-.25,1.45-.38-8.31,3.81-19.52,9.04-26.55,12.67-2.98,1.54-5.7,2.88-9.65,4.41-5.84,2.25-10.57,5.18-15.79,7.62,2.58.95,9.09-.13,12.28-.48,4.51-.5,8.7-1.76,13.55-3.4,10.22-3.46,24.03-11.89,28.08-21.32,3.51-.93,7.01-1.88,10.49-2.85-7.42,5.63-18.33,17.31-25.11,22.56-2.65,2.05-4.9,3.49-8.17,6.16-4.84,3.96-8.43,8.21-12.62,12.16,2.8.54,8.61-2.83,11.52-4.28,4.06-2.02,7.72-4.38,11.82-7.46,8.66-6.49,22.45-19.12,23.38-29.37,2.49-.7,4.97-1.42,7.45-2.14-7.64,9.18-18.8,23.13-26.12,29.98-3.34,3.13-5.16,5.57-8.94,8.86-5.94,5.15-10.39,10.47-15.56,15.57,3.08-.29,10.57-3.96,14.01-5.89,4.85-2.73,8.9-6.16,13.97-10.11,10.35-8.05,22.38-26.64,24.62-39,1.28-.38,2.55-.76,3.83-1.15-7.06,9.73-12.67,26.47-14.75,35.71-1.26,5.61-2.51,10.18-2.8,15.19-.21,3.55-.19,11.09.88,13.77,2.22-6.09,4.94-11.66,6.87-18.41,1.24-4.31,2.59-6.67,3.88-10.55,2.65-7.98,6.85-26.16,10.81-37.21.56-.18,1.13-.35,1.69-.53-1.49,9.94-.74,23.72-1.14,30.45-.2,3.35-.76,6.35-1.53,10.51-1.14,6.15-1.13,11.71-1.79,17.44,2.49-1.4,4.75-7.72,6.03-10.71,1.79-4.16,3.57-8.24,4.21-13.32,1.17-9.22,2.29-25.75.04-36.29,2.52-.87,4.99-1.79,7.35-2.77.4-.17,1.5-.65,2.75-1.23-2.04,7.61-3.43,17.61-4.26,25.46-.38,3.55-.43,6.63-1.62,10.53-1.82,5.98-2.11,11.66-2.87,17.37,2.51-1.35,5.65-7.61,6.99-10.57,1.87-4.13,3.48-8.22,4.45-13.25,2.26-11.77,6.94-31.06,1.05-38.91Z"/>
      <path class="cls-2" d="M1626.5,4.87c-1.19-2.12-3.55-6.52-5.71-7.66.93,4.23-.43,6.54.77,10.71.69,2.38,2.21,6.76,2.46,9.62.55,6.41,3.39,16.78,4.07,23.07,2.45-6.5,1.53-18.82,1.32-25.45-.14-4.47-1.62-8-2.91-10.28Z"/>
      <path class="cls-2" d="M1631.52,3.33c.89,1.5,2.78,4.2,3.29,6.12,1.13,4.31,4.87,10.86,6.11,15.06,1.79-5-.26-13.3-1.07-17.83-.55-3.05-2.33-5.18-3.79-6.48-1.36-1.21-4.06-3.76-6.28-4.09,1.3,2.72.18,4.6,1.74,7.23Z"/>
    </g>
  </g>
  <g id="Lag_1" data-name="Lag 1">
    <rect class="cls-1" x="-.19" y=".48" width="1920.69" height="1079.02"/>
  </g>
  <g id="Lag_3" data-name="Lag 3">
    <image width="163" height="195" transform="translate(749 267) scale(2.59 2.56)" xlink:href="../logo 2.png"/>
  </g>
</svg>