<svg width="574" height="870" viewBox="0 0 574 870" fill="none" xmlns="http://www.w3.org/2000/svg">
<ellipse cx="143.5" cy="145" rx="143.5" ry="145" fill="#D1BE9C"/>
<path d="M81.5974 145H71.8054V112.648H81.4054C86.1734 112.648 90.0774 114.136 93.1174 117.112C96.1894 120.056 97.7254 123.88 97.7254 128.584C97.7254 133.256 96.3014 137.16 93.4534 140.296C90.6374 143.432 86.6854 145 81.5974 145ZM81.3574 116.104H75.7414V141.592H81.5494C85.5494 141.592 88.5734 140.36 90.6214 137.896C92.6694 135.4 93.6934 132.296 93.6934 128.584C93.6934 125.064 92.5414 122.104 90.2374 119.704C87.9654 117.304 85.0054 116.104 81.3574 116.104ZM111.7 145H107.956V117.736L100.708 122.2V118.12L108.148 113.608H111.7V145ZM130.863 145H119.055V112.648H128.799C132.127 112.648 134.783 113.416 136.767 114.952C138.783 116.488 139.791 118.552 139.791 121.144C139.791 123 139.263 124.616 138.207 125.992C137.183 127.336 135.855 128.184 134.223 128.536C136.015 128.824 137.535 129.64 138.783 130.984C140.063 132.296 140.703 134.088 140.703 136.36C140.703 138.952 139.839 141.048 138.111 142.648C136.415 144.216 133.999 145 130.863 145ZM128.799 115.96H122.943V127H128.127C130.719 127 132.639 126.456 133.887 125.368C135.135 124.28 135.759 122.872 135.759 121.144C135.759 119.64 135.167 118.408 133.983 117.448C132.831 116.456 131.103 115.96 128.799 115.96ZM129.567 130.312H122.943V141.688H130.287C132.335 141.688 133.903 141.224 134.991 140.296C136.111 139.336 136.671 137.944 136.671 136.12C136.671 134.296 136.047 132.872 134.799 131.848C133.583 130.824 131.839 130.312 129.567 130.312ZM164.525 145H146.477V112.648H164.285V116.056H150.365V127.144H162.653V130.552H150.365V141.592H164.525V145ZM178.924 130.408C181.548 130.408 183.66 129.384 185.26 127.336V127.096C185.26 124.056 184.716 121.576 183.628 119.656C182.572 117.704 180.86 116.728 178.492 116.728C176.668 116.728 175.212 117.336 174.124 118.552C173.036 119.768 172.492 121.432 172.492 123.544C172.492 125.752 173.068 127.448 174.22 128.632C175.372 129.816 176.94 130.408 178.924 130.408ZM189.004 127.096C189.004 132.792 187.852 137.272 185.548 140.536C183.276 143.768 179.868 145.384 175.324 145.384C173.468 145.384 171.66 145.08 169.9 144.472V140.728C171.564 141.464 173.324 141.832 175.18 141.832C180.972 141.832 184.268 138.2 185.068 130.936C183.468 132.824 181.1 133.768 177.964 133.768C175.404 133.768 173.196 132.84 171.34 130.984C169.484 129.096 168.556 126.616 168.556 123.544C168.556 120.568 169.436 118.104 171.196 116.152C172.956 114.2 175.356 113.224 178.396 113.224C181.916 113.224 184.556 114.536 186.316 117.16C188.108 119.784 189.004 123.096 189.004 127.096ZM217.896 143.368C215.912 144.712 213.192 145.384 209.736 145.384C204.872 145.384 200.92 143.896 197.88 140.92C194.84 137.912 193.32 133.832 193.32 128.68C193.32 123.816 194.856 119.864 197.928 116.824C201.032 113.752 204.92 112.216 209.592 112.216C212.952 112.216 215.688 112.792 217.8 113.944V117.928C216.392 117.192 215.128 116.664 214.008 116.344C212.888 116.024 211.416 115.864 209.592 115.864C206.104 115.864 203.192 117.048 200.856 119.416C198.552 121.784 197.4 124.872 197.4 128.68C197.4 132.648 198.552 135.816 200.856 138.184C203.16 140.552 206.216 141.736 210.024 141.736C213.096 141.736 215.72 140.92 217.896 139.288V143.368Z" fill="black"/>
<ellipse cx="430.5" cy="145" rx="143.5" ry="145" fill="#7D4F50"/>
<path d="M362.4 145H358.368L371.376 116.92H354.912V113.608H375.408V116.92L362.4 145ZM389.48 145H379.688V112.648H389.288C394.056 112.648 397.96 114.136 401 117.112C404.072 120.056 405.608 123.88 405.608 128.584C405.608 133.256 404.184 137.16 401.336 140.296C398.52 143.432 394.568 145 389.48 145ZM389.24 116.104H383.624V141.592H389.432C393.432 141.592 396.456 140.36 398.504 137.896C400.552 135.4 401.576 132.296 401.576 128.584C401.576 125.064 400.424 122.104 398.12 119.704C395.848 117.304 392.888 116.104 389.24 116.104ZM413.583 134.056H424.095V115.864L413.583 134.056ZM427.839 145H424.095V137.368H409.743V134.056L421.695 113.608H427.839V134.056H432.495V137.368H427.839V145ZM453.424 130.936H441.232V145H437.344V112.648H455.104V116.056H441.232V127.528H453.424V130.936ZM479.405 135.208C479.405 138.312 478.381 140.792 476.333 142.648C474.317 144.472 471.549 145.384 468.029 145.384C464.861 145.384 462.173 144.84 459.965 143.752V140.008C462.013 141.224 464.493 141.832 467.405 141.832C472.781 141.832 475.469 139.576 475.469 135.064C475.469 133.24 474.845 131.832 473.597 130.84C472.349 129.816 470.733 129.304 468.749 129.304C466.413 129.304 463.997 129.864 461.501 130.984V113.608H477.245V116.92H465.245V126.328C466.685 126.008 467.933 125.848 468.989 125.848C472.189 125.848 474.717 126.696 476.573 128.392C478.461 130.088 479.405 132.36 479.405 135.208ZM505.603 129.208C505.603 134.104 504.643 138.024 502.723 140.968C500.803 143.912 498.067 145.384 494.515 145.384C491.219 145.384 488.579 143.912 486.595 140.968C484.611 138.024 483.619 134.104 483.619 129.208C483.619 124.28 484.611 120.392 486.595 117.544C488.611 114.664 491.251 113.224 494.515 113.224C497.907 113.224 500.595 114.664 502.579 117.544C504.595 120.392 505.603 124.28 505.603 129.208ZM489.571 120.088C488.195 122.232 487.507 125.272 487.507 129.208C487.507 133.144 488.179 136.232 489.523 138.472C490.867 140.68 492.531 141.784 494.515 141.784C496.723 141.784 498.467 140.696 499.747 138.52C501.059 136.344 501.715 133.24 501.715 129.208C501.715 125.208 501.027 122.152 499.651 120.04C498.307 117.896 496.595 116.824 494.515 116.824C492.595 116.824 490.947 117.912 489.571 120.088Z" fill="black"/>
<ellipse cx="143.5" cy="435" rx="143.5" ry="145" fill="#CC8B86"/>
<path d="M89.9269 433.368C87.9429 434.712 85.2229 435.384 81.7669 435.384C76.9029 435.384 72.9509 433.896 69.9109 430.92C66.8709 427.912 65.3509 423.832 65.3509 418.68C65.3509 413.816 66.8869 409.864 69.9589 406.824C73.0629 403.752 76.9509 402.216 81.6229 402.216C84.9829 402.216 87.7189 402.792 89.8309 403.944V407.928C88.4229 407.192 87.1589 406.664 86.0389 406.344C84.9189 406.024 83.4469 405.864 81.6229 405.864C78.1349 405.864 75.2229 407.048 72.8869 409.416C70.5829 411.784 69.4309 414.872 69.4309 418.68C69.4309 422.648 70.5829 425.816 72.8869 428.184C75.1909 430.552 78.2469 431.736 82.0549 431.736C85.1269 431.736 87.7509 430.92 89.9269 429.288V433.368ZM118.802 433.368C116.818 434.712 114.098 435.384 110.642 435.384C105.778 435.384 101.826 433.896 98.7859 430.92C95.7459 427.912 94.2259 423.832 94.2259 418.68C94.2259 413.816 95.7619 409.864 98.8339 406.824C101.938 403.752 105.826 402.216 110.498 402.216C113.858 402.216 116.594 402.792 118.706 403.944V407.928C117.298 407.192 116.034 406.664 114.914 406.344C113.794 406.024 112.322 405.864 110.498 405.864C107.01 405.864 104.098 407.048 101.762 409.416C99.4579 411.784 98.3059 414.872 98.3059 418.68C98.3059 422.648 99.4579 425.816 101.762 428.184C104.066 430.552 107.122 431.736 110.93 431.736C114.002 431.736 116.626 430.92 118.802 429.288V433.368ZM144.077 426.84C144.077 429.432 143.069 431.512 141.053 433.08C139.037 434.616 136.509 435.384 133.469 435.384C130.557 435.384 128.125 434.632 126.173 433.128C124.221 431.624 123.245 429.608 123.245 427.08C123.245 425.192 123.741 423.592 124.733 422.28C125.757 420.936 127.149 419.96 128.909 419.352C125.485 418.04 123.773 415.624 123.773 412.104C123.773 409.32 124.733 407.16 126.653 405.624C128.573 404.056 130.845 403.272 133.469 403.272C136.189 403.272 138.509 404.04 140.429 405.576C142.349 407.08 143.309 409.272 143.309 412.152C143.309 413.784 142.861 415.224 141.965 416.472C141.069 417.688 139.837 418.616 138.269 419.256C142.141 420.44 144.077 422.968 144.077 426.84ZM127.085 426.888C127.085 428.36 127.645 429.592 128.765 430.584C129.885 431.544 131.469 432.024 133.517 432.024C135.661 432.024 137.309 431.496 138.461 430.44C139.613 429.384 140.189 428.072 140.189 426.504C140.189 424.968 139.629 423.672 138.509 422.616C137.389 421.56 135.725 421.048 133.517 421.08C131.373 421.112 129.757 421.688 128.669 422.808C127.613 423.896 127.085 425.256 127.085 426.888ZM127.613 412.056C127.613 413.88 128.173 415.256 129.293 416.184C130.445 417.112 131.901 417.576 133.661 417.576C135.357 417.576 136.749 417.096 137.837 416.136C138.925 415.144 139.469 413.768 139.469 412.008C139.469 410.472 138.957 409.192 137.933 408.168C136.909 407.144 135.421 406.632 133.469 406.632C131.677 406.632 130.253 407.16 129.197 408.216C128.141 409.272 127.613 410.552 127.613 412.056ZM162.035 435H150.227V402.648H159.971C163.299 402.648 165.955 403.416 167.939 404.952C169.955 406.488 170.963 408.552 170.963 411.144C170.963 413 170.435 414.616 169.379 415.992C168.355 417.336 167.027 418.184 165.395 418.536C167.187 418.824 168.707 419.64 169.955 420.984C171.235 422.296 171.875 424.088 171.875 426.36C171.875 428.952 171.011 431.048 169.283 432.648C167.587 434.216 165.171 435 162.035 435ZM159.971 405.96H154.115V417H159.299C161.891 417 163.811 416.456 165.059 415.368C166.307 414.28 166.931 412.872 166.931 411.144C166.931 409.64 166.339 408.408 165.155 407.448C164.003 406.456 162.275 405.96 159.971 405.96ZM160.739 420.312H154.115V431.688H161.459C163.507 431.688 165.075 431.224 166.163 430.296C167.283 429.336 167.843 427.944 167.843 426.12C167.843 424.296 167.219 422.872 165.971 421.848C164.755 420.824 163.011 420.312 160.739 420.312ZM197.233 426.84C197.233 429.432 196.225 431.512 194.209 433.08C192.193 434.616 189.665 435.384 186.625 435.384C183.713 435.384 181.281 434.632 179.329 433.128C177.377 431.624 176.401 429.608 176.401 427.08C176.401 425.192 176.897 423.592 177.889 422.28C178.913 420.936 180.305 419.96 182.065 419.352C178.641 418.04 176.929 415.624 176.929 412.104C176.929 409.32 177.889 407.16 179.809 405.624C181.729 404.056 184.001 403.272 186.625 403.272C189.345 403.272 191.665 404.04 193.585 405.576C195.505 407.08 196.465 409.272 196.465 412.152C196.465 413.784 196.017 415.224 195.121 416.472C194.225 417.688 192.993 418.616 191.425 419.256C195.297 420.44 197.233 422.968 197.233 426.84ZM180.241 426.888C180.241 428.36 180.801 429.592 181.921 430.584C183.041 431.544 184.625 432.024 186.673 432.024C188.817 432.024 190.465 431.496 191.617 430.44C192.769 429.384 193.345 428.072 193.345 426.504C193.345 424.968 192.785 423.672 191.665 422.616C190.545 421.56 188.881 421.048 186.673 421.08C184.529 421.112 182.913 421.688 181.825 422.808C180.769 423.896 180.241 425.256 180.241 426.888ZM180.769 412.056C180.769 413.88 181.329 415.256 182.449 416.184C183.601 417.112 185.057 417.576 186.817 417.576C188.513 417.576 189.905 417.096 190.993 416.136C192.081 415.144 192.625 413.768 192.625 412.008C192.625 410.472 192.113 409.192 191.089 408.168C190.065 407.144 188.577 406.632 186.625 406.632C184.833 406.632 183.409 407.16 182.353 408.216C181.297 409.272 180.769 410.552 180.769 412.056ZM223.208 424.776C223.208 427.976 222.296 430.568 220.472 432.552C218.68 434.536 216.296 435.528 213.32 435.528C209.736 435.528 206.984 434.168 205.064 431.448C203.144 428.728 202.184 425.176 202.184 420.792C202.184 415.576 203.464 411.256 206.023 407.832C208.584 404.408 212.104 402.696 216.584 402.696C218.024 402.696 219.496 402.936 221 403.416V407.112C219.624 406.504 218.168 406.2 216.632 406.2C213.624 406.2 211.224 407.336 209.432 409.608C207.64 411.848 206.536 414.68 206.12 418.104C208.232 415.896 210.84 414.792 213.944 414.792C216.824 414.792 219.08 415.704 220.712 417.528C222.376 419.352 223.208 421.768 223.208 424.776ZM213.32 432.024C215.144 432.024 216.584 431.352 217.64 430.008C218.728 428.664 219.272 426.904 219.272 424.728C219.272 422.744 218.728 421.16 217.64 419.976C216.584 418.792 215.192 418.2 213.464 418.2C210.584 418.2 208.088 419.368 205.976 421.704C206.104 425.096 206.84 427.672 208.184 429.432C209.528 431.16 211.24 432.024 213.32 432.024Z" fill="black"/>
<ellipse cx="430.5" cy="435" rx="143.5" ry="145" fill="#E7D8C9"/>
<path d="M374.627 435H356.579V402.648H374.387V406.056H360.467V417.144H372.755V420.552H360.467V431.592H374.627V435ZM384.994 435H380.962L393.97 406.92H377.506V403.608H398.002V406.92L384.994 435ZM412.074 435H402.282V402.648H411.882C416.65 402.648 420.554 404.136 423.594 407.112C426.666 410.056 428.202 413.88 428.202 418.584C428.202 423.256 426.778 427.16 423.93 430.296C421.114 433.432 417.162 435 412.074 435ZM411.834 406.104H406.218V431.592H412.026C416.026 431.592 419.05 430.36 421.098 427.896C423.146 425.4 424.17 422.296 424.17 418.584C424.17 415.064 423.018 412.104 420.714 409.704C418.442 407.304 415.482 406.104 411.834 406.104ZM453.6 426.84C453.6 429.432 452.592 431.512 450.576 433.08C448.56 434.616 446.032 435.384 442.992 435.384C440.08 435.384 437.648 434.632 435.696 433.128C433.744 431.624 432.768 429.608 432.768 427.08C432.768 425.192 433.264 423.592 434.256 422.28C435.28 420.936 436.672 419.96 438.432 419.352C435.008 418.04 433.296 415.624 433.296 412.104C433.296 409.32 434.256 407.16 436.176 405.624C438.096 404.056 440.368 403.272 442.992 403.272C445.712 403.272 448.032 404.04 449.952 405.576C451.872 407.08 452.832 409.272 452.832 412.152C452.832 413.784 452.384 415.224 451.488 416.472C450.592 417.688 449.36 418.616 447.792 419.256C451.664 420.44 453.6 422.968 453.6 426.84ZM436.608 426.888C436.608 428.36 437.168 429.592 438.288 430.584C439.408 431.544 440.992 432.024 443.04 432.024C445.184 432.024 446.832 431.496 447.984 430.44C449.136 429.384 449.712 428.072 449.712 426.504C449.712 424.968 449.152 423.672 448.032 422.616C446.912 421.56 445.248 421.048 443.04 421.08C440.896 421.112 439.28 421.688 438.192 422.808C437.136 423.896 436.608 425.256 436.608 426.888ZM437.136 412.056C437.136 413.88 437.696 415.256 438.816 416.184C439.968 417.112 441.424 417.576 443.184 417.576C444.88 417.576 446.272 417.096 447.36 416.136C448.448 415.144 448.992 413.768 448.992 412.008C448.992 410.472 448.48 409.192 447.456 408.168C446.432 407.144 444.944 406.632 442.992 406.632C441.2 406.632 439.776 407.16 438.72 408.216C437.664 409.272 437.136 410.552 437.136 412.056ZM482.935 433.368C480.951 434.712 478.231 435.384 474.775 435.384C469.911 435.384 465.959 433.896 462.919 430.92C459.879 427.912 458.359 423.832 458.359 418.68C458.359 413.816 459.895 409.864 462.967 406.824C466.071 403.752 469.959 402.216 474.631 402.216C477.991 402.216 480.727 402.792 482.839 403.944V407.928C481.431 407.192 480.167 406.664 479.047 406.344C477.927 406.024 476.455 405.864 474.631 405.864C471.143 405.864 468.231 407.048 465.895 409.416C463.591 411.784 462.439 414.872 462.439 418.68C462.439 422.648 463.591 425.816 465.895 428.184C468.199 430.552 471.255 431.736 475.063 431.736C478.135 431.736 480.759 430.92 482.935 429.288V433.368ZM497.026 420.408C499.65 420.408 501.762 419.384 503.362 417.336V417.096C503.362 414.056 502.818 411.576 501.73 409.656C500.674 407.704 498.962 406.728 496.594 406.728C494.77 406.728 493.314 407.336 492.226 408.552C491.138 409.768 490.594 411.432 490.594 413.544C490.594 415.752 491.17 417.448 492.322 418.632C493.474 419.816 495.042 420.408 497.026 420.408ZM507.106 417.096C507.106 422.792 505.954 427.272 503.65 430.536C501.378 433.768 497.97 435.384 493.426 435.384C491.57 435.384 489.762 435.08 488.002 434.472V430.728C489.666 431.464 491.426 431.832 493.282 431.832C499.074 431.832 502.37 428.2 503.17 420.936C501.57 422.824 499.202 423.768 496.066 423.768C493.506 423.768 491.298 422.84 489.442 420.984C487.586 419.096 486.658 416.616 486.658 413.544C486.658 410.568 487.538 408.104 489.298 406.152C491.058 404.2 493.458 403.224 496.498 403.224C500.018 403.224 502.658 404.536 504.418 407.16C506.21 409.784 507.106 413.096 507.106 417.096Z" fill="black"/>
<ellipse cx="143.5" cy="725" rx="143.5" ry="145" fill="#B1967D"/>
<path d="M86.6134 725H74.8054V692.648H84.5494C87.8774 692.648 90.5334 693.416 92.5174 694.952C94.5334 696.488 95.5414 698.552 95.5414 701.144C95.5414 703 95.0134 704.616 93.9574 705.992C92.9334 707.336 91.6054 708.184 89.9734 708.536C91.7654 708.824 93.2854 709.64 94.5334 710.984C95.8134 712.296 96.4534 714.088 96.4534 716.36C96.4534 718.952 95.5894 721.048 93.8614 722.648C92.1654 724.216 89.7494 725 86.6134 725ZM84.5494 695.96H78.6934V707H83.8774C86.4694 707 88.3894 706.456 89.6374 705.368C90.8854 704.28 91.5094 702.872 91.5094 701.144C91.5094 699.64 90.9174 698.408 89.7334 697.448C88.5814 696.456 86.8534 695.96 84.5494 695.96ZM85.3174 710.312H78.6934V721.688H86.0374C88.0854 721.688 89.6534 721.224 90.7414 720.296C91.8614 719.336 92.4214 717.944 92.4214 716.12C92.4214 714.296 91.7974 712.872 90.5494 711.848C89.3334 710.824 87.5894 710.312 85.3174 710.312ZM110.387 725H106.643V697.736L99.3953 702.2V698.12L106.835 693.608H110.387V725ZM126.143 710.408C128.767 710.408 130.879 709.384 132.479 707.336V707.096C132.479 704.056 131.935 701.576 130.847 699.656C129.791 697.704 128.079 696.728 125.711 696.728C123.887 696.728 122.431 697.336 121.343 698.552C120.255 699.768 119.711 701.432 119.711 703.544C119.711 705.752 120.287 707.448 121.439 708.632C122.591 709.816 124.159 710.408 126.143 710.408ZM136.223 707.096C136.223 712.792 135.071 717.272 132.767 720.536C130.495 723.768 127.087 725.384 122.543 725.384C120.687 725.384 118.879 725.08 117.119 724.472V720.728C118.783 721.464 120.543 721.832 122.399 721.832C128.191 721.832 131.487 718.2 132.287 710.936C130.687 712.824 128.319 713.768 125.183 713.768C122.623 713.768 120.415 712.84 118.559 710.984C116.703 709.096 115.775 706.616 115.775 703.544C115.775 700.568 116.655 698.104 118.415 696.152C120.175 694.2 122.575 693.224 125.615 693.224C129.135 693.224 131.775 694.536 133.535 697.16C135.327 699.784 136.223 703.096 136.223 707.096ZM161.754 714.776C161.754 717.976 160.842 720.568 159.018 722.552C157.226 724.536 154.842 725.528 151.866 725.528C148.282 725.528 145.53 724.168 143.61 721.448C141.69 718.728 140.73 715.176 140.73 710.792C140.73 705.576 142.01 701.256 144.57 697.832C147.13 694.408 150.65 692.696 155.13 692.696C156.57 692.696 158.042 692.936 159.546 693.416V697.112C158.17 696.504 156.714 696.2 155.178 696.2C152.17 696.2 149.77 697.336 147.978 699.608C146.186 701.848 145.082 704.68 144.666 708.104C146.778 705.896 149.386 704.792 152.49 704.792C155.37 704.792 157.626 705.704 159.258 707.528C160.922 709.352 161.754 711.768 161.754 714.776ZM151.866 722.024C153.69 722.024 155.13 721.352 156.186 720.008C157.274 718.664 157.818 716.904 157.818 714.728C157.818 712.744 157.274 711.16 156.186 709.976C155.13 708.792 153.738 708.2 152.01 708.2C149.13 708.2 146.634 709.368 144.522 711.704C144.65 715.096 145.386 717.672 146.73 719.432C148.074 721.16 149.786 722.024 151.866 722.024ZM171.564 725H167.532L180.54 696.92H164.076V693.608H184.572V696.92L171.564 725ZM198.644 725H188.852V692.648H198.452C203.22 692.648 207.124 694.136 210.164 697.112C213.236 700.056 214.772 703.88 214.772 708.584C214.772 713.256 213.348 717.16 210.5 720.296C207.684 723.432 203.732 725 198.644 725ZM198.404 696.104H192.788V721.592H198.596C202.596 721.592 205.62 720.36 207.668 717.896C209.716 715.4 210.74 712.296 210.74 708.584C210.74 705.064 209.588 702.104 207.284 699.704C205.012 697.304 202.052 696.104 198.404 696.104Z" fill="black"/>
<ellipse cx="430.5" cy="725" rx="143.5" ry="145" fill="#E6BEAE"/>
<path d="M374.767 725H356.719V692.648H374.527V696.056H360.607V707.144H372.895V710.552H360.607V721.592H374.767V725ZM400.59 714.776C400.59 717.976 399.678 720.568 397.854 722.552C396.062 724.536 393.678 725.528 390.702 725.528C387.118 725.528 384.366 724.168 382.446 721.448C380.526 718.728 379.566 715.176 379.566 710.792C379.566 705.576 380.846 701.256 383.406 697.832C385.966 694.408 389.486 692.696 393.966 692.696C395.406 692.696 396.878 692.936 398.382 693.416V697.112C397.006 696.504 395.55 696.2 394.014 696.2C391.006 696.2 388.606 697.336 386.814 699.608C385.022 701.848 383.918 704.68 383.502 708.104C385.614 705.896 388.222 704.792 391.326 704.792C394.206 704.792 396.462 705.704 398.094 707.528C399.758 709.352 400.59 711.768 400.59 714.776ZM390.702 722.024C392.526 722.024 393.966 721.352 395.022 720.008C396.11 718.664 396.654 716.904 396.654 714.728C396.654 712.744 396.11 711.16 395.022 709.976C393.966 708.792 392.574 708.2 390.846 708.2C387.966 708.2 385.47 709.368 383.358 711.704C383.486 715.096 384.222 717.672 385.566 719.432C386.91 721.16 388.622 722.024 390.702 722.024ZM417.84 725H406.032V692.648H415.776C419.104 692.648 421.76 693.416 423.744 694.952C425.76 696.488 426.768 698.552 426.768 701.144C426.768 703 426.24 704.616 425.184 705.992C424.16 707.336 422.832 708.184 421.2 708.536C422.992 708.824 424.512 709.64 425.76 710.984C427.04 712.296 427.68 714.088 427.68 716.36C427.68 718.952 426.816 721.048 425.088 722.648C423.392 724.216 420.976 725 417.84 725ZM415.776 695.96H409.92V707H415.104C417.696 707 419.616 706.456 420.864 705.368C422.112 704.28 422.736 702.872 422.736 701.144C422.736 699.64 422.144 698.408 420.96 697.448C419.808 696.456 418.08 695.96 415.776 695.96ZM416.544 710.312H409.92V721.688H417.264C419.312 721.688 420.88 721.224 421.968 720.296C423.088 719.336 423.648 717.944 423.648 716.12C423.648 714.296 423.024 712.872 421.776 711.848C420.56 710.824 418.816 710.312 416.544 710.312ZM451.502 725H433.454V692.648H451.262V696.056H437.342V707.144H449.63V710.552H437.342V721.592H451.502V725ZM464.269 711.368L463.645 713.192H475.117L474.493 711.32L469.453 695.768C469.069 697.144 467.341 702.344 464.269 711.368ZM459.661 725H455.485L466.765 692.648H472.141L483.229 725H479.053L476.221 716.504H462.541L459.661 725ZM506.674 725H488.626V692.648H506.434V696.056H492.514V707.144H504.802V710.552H492.514V721.592H506.674V725Z" fill="black"/>
</svg>
