<?xml version="1.0" encoding="UTF-8"?>
<svg id="Lag_5" data-name="Lag 5" xmlns="http://www.w3.org/2000/svg" viewBox="0 0 1863 551">
  <defs>
    <style>
      .cls-1 {
        fill: #6d6d6d;
      }

      .cls-2 {
        fill: gray;
      }

      .cls-3 {
        fill: #696969;
      }

      .cls-4 {
        fill: #515151;
      }

      .cls-5 {
        fill: #deb887;
      }

      .cls-6 {
        fill: silver;
      }

      .cls-7 {
        fill: #282828;
      }

      .cls-8 {
        fill: #5e5e5e;
      }

      .cls-9 {
        fill: #1a1a1a;
      }

      .cls-10 {
        fill: #999;
      }
    </style>
  </defs>
  <path d="M1863.73,307.81v-4.51h-10.82l-44.49-18.54V111.02c0-4.4-3.6-8-8-8s-8,3.6-8,8v167.08l-93-38.75V82.02c0-4.4-3.6-8-8-8s-8,3.6-8,8v157h-729v43h744v-3l58.29,24.28H378.02c.16-3.4-.99-6.85-3.48-9.54l-25.08-27.07h6.96v-37h-41.25L122.06,21.3h150c.1.12.19.24.3.35l185.29,199.95c4.93,5.32,13.24,5.64,18.56.71s5.64-13.24.71-18.56L291.62,3.8c-4.22-4.55-10.9-5.43-16.08-2.5H98.73c-5.1,0-9.33,3.87-9.92,8.82l-.18.17c-5.32,4.93-5.64,13.24-.71,18.56l186.12,200.85h-45.58c-3.52-.5-7.2-.23-10.8.97l-136.43,45.26v-13.12h-36v81h18.5v1.5h1800v-30.84l2.36-5.67-2.36-.98ZM116.21,303.3l110.35-36.61h56.63l-15.34,36.36.59.25H116.21ZM297.72,303.3l13.93-33.03,30.61,33.03h-44.54Z"/>
  <rect x="1006.77" y="179.03" width="754.79" height="5.06" transform="translate(-1.65 350.05) rotate(-14.41)"/>
  <rect x="951.79" y="150.21" width="804" height="4" transform="translate(4.7 341.58) rotate(-14.41)"/>
  <rect x="984.23" y="97.72" width="662" height="5.69" transform="translate(3.47 239.21) rotate(-10.41)"/>
  <rect x="997.74" y="128.22" width="678.31" height="5.18" transform="translate(-1.64 243.62) rotate(-10.41)"/>
  <ellipse class="cls-6" cx="1757.3" cy="74.26" rx="21" ry="34.5" transform="translate(868.52 1592.06) rotate(-62.07)"/>
  <ellipse class="cls-6" cx="1654.92" cy="50.43" rx="19.36" ry="28.72" transform="translate(1039.94 1587.67) rotate(-69.94)"/>
  <ellipse class="cls-6" cx="1791.52" cy="100.53" rx="8.68" ry="17.3" transform="translate(863.5 1636.25) rotate(-62.07)"/>
  <ellipse class="cls-6" cx="1689.09" cy="70.59" rx="8.68" ry="17.3" transform="translate(835.51 1529.84) rotate(-62.07)"/>
  <rect class="cls-9" x="41" y="470" width="28" height="17"/>
  <rect class="cls-1" x="1828" y="511" width="20" height="12"/>
  <rect class="cls-2" x="1831" y="511" width="20" height="12"/>
  <rect class="cls-9" x="1820.5" y="336.5" width="38" height="107" rx="13.18" ry="13.18"/>
  <rect class="cls-9" x="1820.5" y="436.5" width="38" height="76"/>
  <ellipse class="cls-9" cx="1840" cy="531.5" rx="23" ry="10.5"/>
  <rect class="cls-1" x="1668.86" y="414.85" width="12.65" height="6.03"/>
  <rect class="cls-2" x="1670.76" y="414.85" width="12.65" height="6.03"/>
  <rect class="cls-9" x="1663.66" y="332.22" width="27.34" height="53.73" rx="9.54" ry="9.54"/>
  <rect class="cls-9" x="1664.66" y="377.44" width="25.34" height="38.16"/>
  <ellipse class="cls-9" cx="1677" cy="425.14" rx="16" ry="5.27"/>
  <circle class="cls-6" cx="1837.75" cy="355.75" r="3.25"/>
  <circle class="cls-6" cx="1838.25" cy="369.57" r="3.25"/>
  <circle class="cls-6" cx="1677.25" cy="348.57" r="3.25"/>
  <rect class="cls-1" x="73.85" y="493.22" width="20" height="12"/>
  <rect class="cls-2" x="76.85" y="493.22" width="20" height="12"/>
  <rect class="cls-9" x="66.35" y="318.72" width="38" height="107" rx="13.18" ry="13.18"/>
  <rect class="cls-9" x="66.35" y="418.72" width="38" height="76"/>
  <ellipse class="cls-9" cx="85.85" cy="513.72" rx="23" ry="10.5"/>
  <circle class="cls-6" cx="84.1" cy="351.79" r="3.25"/>
  <circle cx="24.5" cy="484.5" r="24.5"/>
  <ellipse class="cls-6" cx="20.5" cy="486.95" rx="7.5" ry="8.05"/>
  <polygon class="cls-10" points="19.87 494.77 19.21 488.6 13.03 487.94 19.21 487.27 19.87 481.1 20.53 487.27 26.71 487.94 20.53 488.6 19.87 494.77"/>
  <rect x="202" y="212" width="29" height="43"/>
  <path class="cls-5" d="M242.09,212.69l-3.95-12.63-150.14,46.98v-.04H11v14h77c.29,0,.56-.2.74-.5l.05.15,153.3-47.97Z"/>
  <rect class="cls-1" x="249.74" y="401.48" width="12.65" height="6.03"/>
  <rect class="cls-2" x="251.64" y="401.48" width="12.65" height="6.03"/>
  <rect class="cls-9" x="244.54" y="318.86" width="27.34" height="53.73" rx="9.54" ry="9.54"/>
  <rect class="cls-9" x="245.54" y="364.08" width="25.34" height="38.16"/>
  <ellipse class="cls-9" cx="257.88" cy="411.78" rx="16" ry="5.27"/>
  <circle class="cls-6" cx="258.13" cy="335.21" r="3.25"/>
  <rect class="cls-8" x="956" y="193" width="90" height="55" rx="12" ry="12"/>
  <polygon class="cls-3" points="298.63 249.41 365.19 217.68 431.88 186.02 439.07 221.1 446.03 256.23 372.28 252.87 298.63 249.41"/>
  <rect class="cls-4" x="289" y="248" width="686" height="37" rx="12" ry="12"/>
  <rect class="cls-3" x="427" y="186" width="548" height="62" rx="4.53" ry="4.53"/>
  <path class="cls-4" d="M909.33,90.32c-7.48-1.88-16.4-1.28-22.77,3.08-3.94,2.69-6.57,7.24-6.93,12-.43,5.66,2.14,11.06,3.46,16.58,1.4,5.83,1.43,11.88,1.45,17.88.02,4.71.02,9.5-1.27,14.04-1,3.5-2.37,6.59-3.41,10.08-1.07,3.62-1.73,7.57-2,11.33-.44,6.04-.88,12.07-1.32,18.11,8.44,2.28,17.14,4.13,25.86,3.48,7.88-.58,18.98.58,26.86,0-.57-15.8-.39-35.32-.87-52.85-.22-8.26.07-16.3.94-24.51.43-4.03.88-8.05,1.34-12.08.23-1.98,2.42-11.34,1.18-12.8s-8.28-2.17-10.4-2.6c-4.02-.81-8.16-.74-12.13-1.73Z"/>
  <path class="cls-1" d="M913.48,93.18c-7.48-1.87-16.4-1.27-22.77,3.06-3.94,2.68-6.57,7.21-6.93,11.95-.43,5.64,2.14,11.01,3.46,16.51,1.4,5.8,1.43,11.84,1.45,17.81.02,4.7.02,9.46-1.27,13.98-1,3.49-2.37,6.57-3.41,10.04-1.07,3.6-1.73,7.54-2,11.29-.44,6.01-.88,12.03-1.32,18.04,8.44,2.27,17.14,4.11,25.86,3.47,7.88-.58,18.98.58,26.86,0-.57-15.74-.39-35.18-.87-52.64-.22-8.22.07-16.23.94-24.42.43-4.01.88-8.02,1.34-12.03.23-1.97,2.42-11.3,1.18-12.75s-8.28-2.16-10.4-2.59c-4.02-.81-8.16-.73-12.13-1.73Z"/>
  <path d="M856.68,178.3c.5,10.32,8.81,18.96,18.33,22.98s20.14,4.33,30.47,4.57c22.74.53,46.02.93,67.58-6.34,19.28-6.5,36.69-18.99,56.86-21.66-1.26-10.35-2.52-20.69-3.78-31.04-27.3,7.98-54.66,15.96-82.61,21.19-20.21,3.77-41.33,6.05-61.14.53-6.92-1.93-7.18-8.89-14.43-7.78-6.92,1.06-11.58,11.52-11.29,17.55Z"/>
  <path class="cls-7" d="M936.32,173.73c7.35.27,14.58-1.68,21.68-3.62,25.03-6.82,50.07-13.64,75.1-20.46-3.14-4.76-8.68-7.52-14.29-8.55-5.61-1.03-11.37-.53-17.06-.02-17.66,1.56-35.31,3.13-52.97,4.68-6.12.54-14.08-.79-16.85,4.58-.84,1.62,3.5,23.39,4.37,23.39Z"/>
  <path class="cls-4" d="M889.77,113.5c-7.48-1.88-16.4-1.28-22.77,3.08-3.94,2.69-6.57,7.24-6.93,12-.43,5.66,2.14,11.06,3.46,16.58,1.4,5.83,1.43,11.88,1.45,17.88.02,4.71.02,9.5-1.27,14.04-1,3.5-2.37,6.59-3.41,10.08-1.07,3.62-1.73,7.57-2,11.33-.44,6.04-.88,12.07-1.32,18.11,8.44,2.28,17.14,4.13,25.86,3.48,7.88-.58,18.98.58,26.86,0-.57-15.8-.39-35.32-.87-52.85-.22-8.26.07-16.3.94-24.51.43-4.03.88-8.05,1.34-12.08.23-1.98,2.42-11.34,1.18-12.8s-8.28-2.17-10.4-2.6c-4.02-.81-8.16-.74-12.13-1.73Z"/>
  <path class="cls-1" d="M893.92,116.35c-7.48-1.87-16.4-1.27-22.77,3.06-3.94,2.68-6.57,7.21-6.93,11.95-.43,5.64,2.14,11.01,3.46,16.51,1.4,5.8,1.43,11.84,1.45,17.81.02,4.7.02,9.46-1.27,13.98-1,3.49-2.37,6.57-3.41,10.04-1.07,3.6-1.73,7.54-2,11.29-.44,6.01-.88,12.03-1.32,18.04,8.44,2.27,17.14,4.11,25.86,3.47,7.88-.58,18.98.58,26.86,0-.57-15.74-.39-35.18-.87-52.64-.22-8.22.07-16.23.94-24.42.43-4.01.88-8.02,1.34-12.03.23-1.97,2.42-11.3,1.18-12.75s-8.28-2.16-10.4-2.59c-4.02-.81-8.16-.73-12.13-1.73Z"/>
  <path d="M844.86,213.43c.5,10.32,8.81,18.96,18.33,22.98s20.14,4.33,30.47,4.57c22.74.53,46.02.93,67.58-6.34,19.28-6.5,36.69-18.99,56.86-21.66-1.26-10.35-2.52-20.69-3.78-31.04-27.3,7.98-54.66,15.96-82.61,21.19-20.21,3.77-41.33,6.05-61.14.53-6.92-1.93-7.18-8.89-14.43-7.78-6.92,1.06-11.58,11.52-11.29,17.55Z"/>
  <path class="cls-5" d="M12,245c18.8,4.8,42.08,7.54,60.88,12.35,2.96.76,6.04,1.52,9.05.99,3.37-.59,6.22-2.74,9.04-4.69,15.45-10.72,39.61-13.68,56.03-18.65,32.82-9.93,67.14-17.21,92-36-19.54-5.28-34.78-7.96-53.93-1.9-18.93,5.99-37.9,11.86-56.94,17.49-18.62,5.51-37.32,10.78-56.13,15.61-9.4,2.41-18.32,6.32-28.01,6.79-9.93.48-28.72,8.6-32,8Z"/>
</svg>