<?xml version="1.0" encoding="UTF-8"?>
<svg id="Lag_1" xmlns="http://www.w3.org/2000/svg" version="1.1" viewBox="0 0 1920 1080">
  <!-- Generator: Adobe Illustrator 29.0.0, SVG Export Plug-In . SVG Version: 2.1.0 Build 186)  -->
  <defs>
    <style>
      .st0, .st1, .st2, .st3 {
        fill: none;
      }

      .st4 {
        fill: #e0e0e0;
      }

      .st5 {
        fill: #7c7c7c;
      }

      .st6 {
        fill: #595959;
      }

      .st7 {
        fill: #474747;
      }

      .st8 {
        fill: #dda8b7;
      }

      .st9 {
        stroke-width: .2px;
      }

      .st9, .st10, .st1, .st2, .st3 {
        stroke-miterlimit: 10;
      }

      .st9, .st11 {
        fill: #46b7ab;
      }

      .st9, .st2 {
        stroke: #000;
      }

      .st10 {
        fill: #e9f8ff;
      }

      .st10, .st3 {
        stroke: #5c83bc;
      }

      .st12 {
        fill: #db799a;
      }

      .st13 {
        fill: #b6dddd;
      }

      .st14 {
        fill: #020202;
      }

      .st15 {
        fill: #4c92cc;
      }

      .st1 {
        stroke: #efba95;
        stroke-width: 4px;
      }

      .st16 {
        fill: #fff;
      }

      .st17 {
        fill: #f9f9f9;
      }

      .st18 {
        fill: #bcbcbc;
      }

      .st19 {
        fill: #1d80c3;
      }

      .st20 {
        fill: #f9c0c0;
      }

      .st21 {
        fill: #ede6b4;
      }

      .st22 {
        fill: #edbf9f;
      }

      .st23 {
        fill: #87b9e1;
      }

      .st24 {
        fill: #3a91c1;
      }

      .st25 {
        fill: #f2d0b6;
      }

      .st26 {
        fill: #999;
      }

      .st27 {
        fill: #e8e8e8;
      }

      .st28 {
        fill: #c6a381;
      }
    </style>
  </defs>
  <g id="Lag_11" data-name="Lag_1">
    <g>
      <rect class="st10" x="1.8" y="4" width="1919.2" height="1079"/>
      <line class="st3" x1="1.8" y1="1029" x2="1921" y2="1029"/>
      <line class="st3" x1="1.8" y1="975.1" x2="1921" y2="975.1"/>
      <line class="st3" x1="1.8" y1="921.1" x2="1921" y2="921.1"/>
      <line class="st3" x1="1.8" y1="867.2" x2="1921" y2="867.2"/>
      <line class="st3" x1="1.8" y1="813.2" x2="1921" y2="813.2"/>
      <line class="st3" x1="1.8" y1="759.3" x2="1921" y2="759.3"/>
      <line class="st3" x1="1.8" y1="705.3" x2="1921" y2="705.3"/>
      <line class="st3" x1="1.8" y1="651.4" x2="1921" y2="651.4"/>
      <line class="st3" x1="1.8" y1="597.4" x2="1921" y2="597.4"/>
      <line class="st3" x1="1.8" y1="543.5" x2="1921" y2="543.5"/>
      <line class="st3" x1="1.8" y1="489.5" x2="1921" y2="489.5"/>
      <line class="st3" x1="1.8" y1="435.6" x2="1921" y2="435.6"/>
      <line class="st3" x1="1.8" y1="381.6" x2="1921" y2="381.6"/>
      <line class="st3" x1="1.8" y1="327.7" x2="1921" y2="327.7"/>
      <line class="st3" x1="1.8" y1="273.7" x2="1921" y2="273.7"/>
      <line class="st3" x1="1.8" y1="219.8" x2="1921" y2="219.8"/>
      <line class="st3" x1="1.8" y1="165.8" x2="1921" y2="165.8"/>
      <line class="st3" x1="1.8" y1="111.9" x2="1921" y2="111.9"/>
      <line class="st3" x1="1.8" y1="57.9" x2="1921" y2="57.9"/>
      <line class="st3" x1="1820" y1="4" x2="1820" y2="1083"/>
      <line class="st3" x1="1719" y1="4" x2="1719" y2="1083"/>
      <line class="st3" x1="1618" y1="4" x2="1618" y2="1083"/>
      <line class="st3" x1="1517" y1="4" x2="1517" y2="1083"/>
      <line class="st3" x1="1415.9" y1="4" x2="1415.9" y2="1083"/>
      <line class="st3" x1="1314.9" y1="4" x2="1314.9" y2="1083"/>
      <line class="st3" x1="1213.9" y1="4" x2="1213.9" y2="1083"/>
      <line class="st3" x1="1112.9" y1="4" x2="1112.9" y2="1083"/>
      <line class="st3" x1="1011.9" y1="4" x2="1011.9" y2="1083"/>
      <line class="st3" x1="910.9" y1="4" x2="910.9" y2="1083"/>
      <line class="st3" x1="809.9" y1="4" x2="809.9" y2="1083"/>
      <line class="st3" x1="708.9" y1="4" x2="708.9" y2="1083"/>
      <line class="st3" x1="607.9" y1="4" x2="607.9" y2="1083"/>
      <line class="st3" x1="506.9" y1="4" x2="506.9" y2="1083"/>
      <line class="st3" x1="405.9" y1="4" x2="405.9" y2="1083"/>
      <line class="st3" x1="304.9" y1="4" x2="304.9" y2="1083"/>
      <line class="st3" x1="203.8" y1="4" x2="203.8" y2="1083"/>
      <line class="st3" x1="102.8" y1="4" x2="102.8" y2="1083"/>
    </g>
    <path class="st12" d="M1121.6,1091.4c-87.2-7.7-174.7-8.5-264.1,0-14.2-33.1-42-99.1-37.6-134.8,3.7-30.3,31.2-75.8,65.8-78.8,2.8,28.7-.9,57.3,15.6,83.3,24.8,39,79,48.3,124.8,40.6,23.9-4,40.4-9.2,60.1-23.3,6.2-4.4,16.2-10.6,19.1-17.6,8.1-19.7,6.2-51.1,2.4-78.3,49.1,11,48.8,26.2,64.5,56.6,8.8,17-23.6,107.8-50.4,152.4h0Z"/>
    <path class="st25" d="M887.5,898.3c5.9,10.3,14.5,18.8,24,25.9,28.5,21.2,65.9,28.9,101.1,24.3,35.2-4.7,68.3-21.1,95.7-43.6,3.3-2.7,6.5-5.6,8.4-9.4,2.3-4.7,2-10.2,1.6-15.4-1.4-20.2-3.7-40.4-6.7-60.4-79.9,18.7-152.3,8.8-232,.3-7.3,23.2-4.5,56.8,8,78.4h0Z"/>
    <g>
      <path class="st8" d="M882,881.8c-9.5-19.2-1.1-43.8-3.3-64-45.8,17-65.3,92.1-61.8,136.3,2.4,29.9,15.5,59,40.7,81.5,46.5-21.6,113.8-51.9,140.5-85.7-22.8-3.8-45.9-10-65.7-22-19.8-12-40.3-25.4-50.5-46.1h0Z"/>
      <path class="st8" d="M1111.9,819.2c-2.2,20.2,9.5,52.5,0,71.7-10.2,20.7-25.2,28.8-45,40.7-19.7,12-48.9,14.5-71.7,18.3,23.8,30.4,83.4,68.1,134.3,90.6,18-13.1,33.8-41.1,47.8-80.1,17.5-48.6-1.8-128.3-65.6-141.2h0Z"/>
    </g>
    <path class="st16" d="M826.7,923.2c3.2-26.1,40.3-75.2,51.8-102-4.8-1.9-9.3-4.3-13.9-6.7-3.8-2-7.6-4-11.2-6.3-35,12.2-118.1,40.6-140.6,50.6-90.8,40.7-176.9,98.5-231.8,183.1,126.2-4.8,257.3-11.9,383.6-7.7-16.7-37-42.8-71.6-37.9-111h0Z"/>
    <path class="st27" d="M701.6,904.8c22.5-.8,44.9-2.3,67.2-4.3-32.5,16.7-65,33.5-97.5,50.2,58.6,1,131,9,191.4,3.2-12.3-18.6-31.1-46.2-21.7-64.9,8-15.8,32.2-44,41-69,.2-.7-24.6-7.8-28-8-8.3-.7-22.5,4-29.7,6.1-20,5.8-46.1,13-61.3,20.3-34,16.3-50.2,40.5-61.4,66.5h0Z"/>
    <path class="st16" d="M1378.9,927.4c-66.8-41.5-156.1-88.2-216.4-112.4-2.9-1.2-7.3-3.5-12.7-6.6-5.8,4.2-14.1,6-20.6,7.9-5.6,1.7-11.3,3.9-17,5.7,2.9,3.2,6.1,6.5,9.5,10.1,5.9,6.2,22.3,25.4,28.2,36.3,7.4,13.6,19.4,28.8,18.3,52-2,40.4-9.6,83.6-36.5,113.8,123,7.1,249.9,4.6,380.7,1.4-32.6-48.6-83.7-77.3-133.5-108.2h0Z"/>
    <path class="st27" d="M1284.6,907.8c-22.5-.9-44.9-2.4-67.2-4.6,32.5,17.8,65.7,37.9,98.2,55.7-59.8-3.8-124.3,3.8-184.1,0,20.4-20,37.7-56.9,25.4-77.9-12.4-21.1-28.6-42.4-51-62-.7-.7,40.5-10.7,43.9-11,8.3-.8,9.5,3.6,16.9,5.6,19.3,5.3,32.6,14.8,48.7,23.7,32.9,18.2,58,43,69.2,70.6h0Z"/>
    <path class="st23" d="M722,759c39.6,33,90.2,67.2,141,76.2,56.3,9.9,115.8,2.4,173,2.8,72.3.6,170.3-20.3,208-82,30.7-50.2,57.9-100.1,75.7-169.6-82.7,4-131.5,2.8-210.7-21.1-34.5-10.4-89.3-25.5-125-21.1-24.9,3.1-55.5-5.5-77.3,7-36.2,20.8-91.7,29.6-130.7,26.7-31.1-2.3-96.8-24.7-123.6-14-55.9,22.2,30.3,162.3,69.7,195.1Z"/>
    <path class="st25" d="M1379.4,680c47-42.4,90.8-92.1,98.4-157.6,1.6-13.6,2.8-26.4-7.8-35.1-5.6-4.6-9.8-6.6-16.5-9.3-24.3-9.8-58-7.7-79,17.2-6.8,8.1-11.1,18-15.3,27.8-11,25.5-34.8,74-31,84.3,3.2,8.7,54.6,69.6,51.2,72.8h0Z"/>
    <path class="st25" d="M592,655.7c-19.5-14.7-39-29.4-57.6-45.2-12.7-10.8-25.2-22.4-32.6-37.3-7.7-15.3-9.4-32.9-11-50-.8-9.1-1.6-18.6,2-26.9,2.8-6.6,8.2-11.8,14.1-15.8,25.6-17.1,61.4-11.3,86.5,6.6,7.9,5.6,15.2,12.5,19.7,21.1,4.4,8.4,6,17.9,9.2,26.8,3.5,9.9,9.1,19,13.5,28.5,10.8,23.5,25.2,74.5,15.7,100-11.5,30.8-33.9,11.2-59.4-7.9h0Z"/>
    <path class="st16" d="M620.8,533.8c11.9,30.9,21.4,62.7,28.1,95.1,3.3,1.5,6.7,2.9,10,4.3,15.5-29.8,5-61-7.8-90.3-16.8-38.4-33.9-59.1-62.4-61.1,14.8,14.8,24.5,32.3,32,51.9h0Z"/>
    <path class="st16" d="M1362.8,485.1c-9.1,7.4-14.7,18.1-19.9,28.6-15.8,31.8-29.8,64.4-42,97.7,9.7-.8,19.9,2.2,30.7,8.3,2.3-58.7,24.5-102.3,60.3-139.9-10.2-4.3-20.3-1.9-29.1,5.3h0Z"/>
    <path class="st16" d="M676.2,634.8c1.8.2-1.7-.6,0,0h0Z"/>
    <path class="st25" d="M1010.7,191.8c-110.3-11.6-225.1,28.1-304.6,105.4-17.5,17-33.8,35.1-49.6,53.8,2.3,17.7-7.7,44.6-20.4,66.3-3,62.9,4.2,124.7,25.2,183.1,32.8,8,66.3,16.1,100,13.5,37.3-2.8,72.3-18.4,108.2-29,70.4-20.7,146.3-22.1,217.4-3.9,62.5,16,124.5,47,188.3,37.1,4.9-.8,10.1-1.9,13.7-5.3,4-3.8,26.3-14.9,27.8-20.2,17.3-59.9,22.9-132,14.1-179.8-24.8-134.5-198.4-208.2-320.2-221h0Z"/>
    <path class="st16" d="M1325.3,598.3c-7.8-4.4-60.2,5.9-69.1,4.7-47.7-6.6-96.2-9.3-142.3-23-50.1-15-99.7-17.5-153.9-13.8-57.5,4-190.7,52.2-238.9,42-22-4.6-40.6-7.8-56.2-9.8,1.4,11.2-8.4,21.1-8.4,32.2,4.1.6,13.9,2.4,18.3,2.8-1.7-.6,1.8.2,0,0,59.6,19.3,135.5,2.4,194.5-14.6,33.4-9.6,67.4-14,101.9-17.8,56-6.1,110.7,6.8,164.4,26.7,42.5,15.8,99.5,9,130.7,12.6,59.2,6.8,105.7-16.1,59-42.2h0Z"/>
    <path class="st21" d="M600.3,481.7c-16.9-6.5-41.7-2.5-57.6-11.2-23.8-13-33.8-44.5-41.8-70.4s-8.7-53.6-8-80.8c.6-24.8,2.5-50.1,11.9-73,14.3-34.8,37.5-100.7,73-113,35.6-12.2,83,28.5,119.1,39.2,36.7,10.9,75.1,39.2,72.6,77.4-35.3,22.7-65.5,44.8-96.2,81.5-10.4,12.5-6.7,43.4-11.2,59-5,17.3-23,34.1-24.7,52.1-2,21.4,5.9,68.8,6.4,89.8-13.5-6.7-28.4-44.8-43.5-50.6h0Z"/>
    <path class="st21" d="M1303.6,359.8c1.9,16.8-3.3,34.8,3.6,50.4,3.6,8.2,10.3,14.7,15.2,22.2,18.1,27.2,12.4,63.1,6,95.2,3.8-19.5,22.7-32.4,41.6-38.6,18.8-6.2,39.2-8.1,57-16.7,41.2-19.9,58.5-70.2,59.8-116,1.5-51.1-.1-101.9-26.6-145.8-5-8.2-22.4-17.1-30.1-22.9-19.1-14.5-46.2-11.2-69-3.9-35.4,11.3-100.2,41.1-116,78.2-16.3,38,53.3,53.1,58.5,97.9h0Z"/>
    <path class="st28" d="M1145.6,357.7c-22.8-4.6-48.3-5.8-68.2,9.5-7.1,5.5-13.6,15.7-10.1,24.2,4.3,10.6,17.9,7.5,27.9,4.2,36.3-12,81.2-10.3,112.8,11,13,8.8,25.1,19.1,38.4,27.3,15.9,9.8,28.3,19.6,46.7,19.5,10.9,0-8.1-27.3-8.9-28.4-9-12.3-29.4-22.1-41.7-29.6-30.2-18.3-62.9-31.2-96.8-37.9h0Z"/>
    <path class="st28" d="M828.9,355.8c22.9-4.3,48.4-5.2,68,10.4,7,5.6,13.4,15.8,9.8,24.4-4.5,10.5-18,7.3-28,3.9-36.1-12.5-81.1-11.3-112.9,9.7-13.1,8.6-25.3,18.8-38.7,26.9-16,9.6-28.6,19.3-46.9,19-10.9-.2,8.5-27.2,9.3-28.3,9.2-12.2,29.7-21.8,42.1-29.1,30.4-17.9,63.3-30.4,97.3-36.8h0Z"/>
    <path class="st20" d="M648.1,161.3c45.9,22.9,86.9,55,141.9,59,137.8,9.9,322,21.3,445.4-19.7,115.7-38.4,232.5-110.7,318.9-196.7-79.1-10-152.2-2.4-233.2-8.4-118.2-8.8-249.6,8.4-368.1,5.6-97.1-2.3-262,2.4-344.2,2.8-81.8.4-82.5,6.7-154.5-2.8,61.5,47.4,116.5,121.5,193.9,160.2h0Z"/>
    <path class="st20" d="M1325.3,981c-46.1-14.4-87.3-34.9-142.3-36.7-137.8-4.7-322-9.6-444.9,18.8-115.3,26.7-234.7,68-320.4,125.5,60-3.8,152.2-8.1,240.2-7,118.2,1.4,245.7,8.1,364.1,8.4,97,.2,261.8-5.1,344-6.5,81.7-1.4,82.4-5.5,154.5-.2-61.9-30.2-117.5-78-195.2-102.2h0Z"/>
    <path class="st11" d="M1291.7,621.1c5-42,12.8-62.4,39.3-67.7,21.2-4.3,42,12.5,48.2,34.6,11.9-8.4,25.4-14.7,38.7-20.2,38.7-15.8,77.1-31.6,118.1-37.2,15.7-2.1,38.9,10.7,46.4,25.9,4.3,8.8,2,16.6-3.5,23.1,11.3-1,23.6,1.4,34.4,4.7,11.9,3.6,22.8,14.2,23.6,26.7.3,4.4-.7,8.6-2.6,12.4,35.4-6.4,63.4,27.6,37,69.6-.2.3-.3.5-.5.8,1.3.1,2.7.3,4,.7,26.4,7.4,42.4,41.7,46.7,69.2,4.2,27.3-.6,59.2-4.6,86.6-.1.4-.2.9-.2,1.4h0c-.8,4.9-3.1,13.8-4.4,19.7,0,0,0,.1,0,.2-.4.8-.6,1.8-.6,2.7,0,.2,0,.3,0,.5-.3,17,3.3,36.7,5.8,40,15.7,20.9,30.4,33.6,40.7,53.6,4.4,8.6,10.9,17.6,14.4,26.5,3.2,8,2.7,17,2.1,25.6-2.3,32.2-5.6,64.3-9.9,96.3-81.8-8.1-164.2-10.8-246.4-8.1-.4-38.6-1.4-78.9-20.1-112.6-10.8-19.4-23.2-40.2-42.7-50.8-42.7-23.2-78.4-61.4-102.6-108.8-1.1-2.1-2.4-4.1-3.8-5.9-2-2.7-4.2-5.4-6.9-7.3-42-58.3-58.7-134.5-50.6-202.2h0Z"/>
    <path class="st9" d="M1354.1,606.9c10.8-23.5,39.6-33,63.9-42.1,38.7-14.6,77.1-29.2,118.1-34.3,15.7-2,38.9,9.9,46.4,23.9,8.4,16-8.6,28.1-25.1,35.3-26.7,11.6-55.7,8.1-83.1,18.1-30.5,11.1-74.7,27.2-98.3,50.8-26.6,26.6-41.9-7.8-21.9-51.7h0Z"/>
    <path class="st9" d="M1354.4,722.7c.9-7.9,13-22.3,17.4-29,46.4-69.7,122.4-101.9,205.1-115.2,12.3-2,26,.7,37.9,4.2,11.9,3.5,22.8,14.1,23.6,26.5.8,13.4-10.1,25.1-22.5,30.2-12.4,5.1-39.1,4.7-51.7,9.3-44.9,16.4-82.1,32.5-113.8,64.6-7.1,7.2-99,34.6-96,9.3h0Z"/>
    <path class="st9" d="M1570.1,733.4c-5.2.5-10.7.9-15.3,3.5-5.8,3.3-9.1,9.5-13.1,14.9-18.1,24.2-50.6,31.4-80.3,36.8-7,1.3-16.3,1.5-19.2-5-1.7-3.9-.2-8.3,1.4-12.3,6.5-16.1,13.5-32,21.2-47.6,7.1-14.5,14.9-29.1,26.8-40.1,13.4-12.4,30.9-19.2,48-25.8,27.2-10.5,54.6-12.5,76.8-27.3,44.4-29.6,84.8,15.4,56.1,58.7-18,27.2-73.8,41.4-102.3,44.2h0Z"/>
    <path class="st9" d="M1528.7,811.4c25.6,3.3,51.5-.3,68.2-20.1,6.6-7.8,16.9-14.4,15.4-24.5,1.6,10.8,37.2-6.2,40.7-9.4-11.5,22.2,60.1,86.3,58.8,111.9,12.6-23.3,14.3-82.6,9.8-111-3.7-23.5-22-58.3-45-64.6-12.1-3.4-26,6.3-38.2,9.4-16.6,4.3-29.5,11.6-46.1,15.9-10.9,2.8-25.3,2.9-30.9,12.6-8.5,14.6-16.6,27.7-23.9,40.7-7,12.7-14.4,25.6-8.9,39h0Z"/>
    <path class="st11" d="M673.3,602.8c-5-42-12.8-62.4-39.3-67.7-21.2-4.3-42,12.5-48.2,34.6-11.9-8.4-25.4-14.7-38.7-20.2-38.7-15.8-77.1-31.6-118.1-37.2-15.7-2.1-39,10.7-46.4,25.9-4.3,8.8-2,16.6,3.5,23.1-11.4-1-23.6,1.4-34.4,4.7-11.9,3.6-22.9,14.2-23.6,26.7-.3,4.4.7,8.6,2.6,12.4-35.4-6.4-63.4,27.6-37,69.6.2.3.4.5.5.8-1.4.1-2.7.3-4,.7-26.4,7.4-42.4,41.7-46.7,69.2-4.2,27.3.6,59.2,4.6,86.6.1.4.2.9.2,1.4h0c.8,4.9,3.1,13.8,4.4,19.7,0,0,0,.1.1.2.4.8.6,1.8.6,2.7,0,.2,0,.3,0,.5.3,17-3.3,36.7-5.8,40-15.7,20.9-30.4,33.6-40.7,53.6-4.4,8.6-10.9,17.6-14.4,26.5-3.2,8-2.7,17-2.1,25.6,2.3,32.2,5.6,64.3,9.9,96.3,81.8-8.1,164.2-10.8,246.4-8.1.5-38.6,1.4-78.9,20.1-112.6,10.8-19.4,23.2-40.2,42.7-50.8,42.7-23.2,78.4-61.4,102.6-108.8,1.1-2.1,2.4-4.1,3.8-5.9,2-2.7,4.2-5.4,6.9-7.3,42-58.3,58.7-134.5,50.6-202.2h0Z"/>
    <path class="st9" d="M610.9,588.7c-10.8-23.5-39.6-33-63.9-42.1-38.7-14.6-77.1-29.2-118.1-34.3-15.7-2-39,9.9-46.4,23.9-8.4,16,8.6,28.1,25.1,35.3,26.7,11.6,55.7,8.1,83.1,18.1,30.5,11.1,74.7,27.2,98.3,50.8,26.6,26.6,41.9-7.8,21.9-51.7h0Z"/>
    <path class="st9" d="M610.6,704.4c-.9-7.9-13-22.3-17.4-29-46.4-69.7-122.4-101.9-205.1-115.2-12.3-2-26,.7-37.9,4.2-11.9,3.5-22.9,14.1-23.6,26.5-.8,13.4,10.1,25.1,22.5,30.2,12.4,5.1,39.1,4.7,51.7,9.3,44.9,16.4,82.1,32.5,113.8,64.6,7.1,7.2,99,34.6,96,9.3h0Z"/>
    <path class="st9" d="M394.9,715.1c5.2.5,10.7.9,15.3,3.5,5.8,3.3,9.1,9.5,13.1,14.9,18,24.2,50.6,31.4,80.3,36.8,7,1.3,16.3,1.5,19.2-5,1.7-3.9.2-8.3-1.4-12.3-6.5-16.1-13.5-32-21.1-47.6-7.1-14.5-14.9-29.1-26.8-40.1-13.4-12.4-30.9-19.2-48-25.8-27.2-10.5-54.5-12.5-76.8-27.3-44.4-29.6-84.8,15.4-56.1,58.7,18,27.2,73.8,41.4,102.3,44.2h0Z"/>
    <path class="st9" d="M436.4,793.1c-25.6,3.3-51.5-.3-68.2-20.1-6.6-7.8-16.9-14.4-15.5-24.5-1.6,10.8-37.2-6.2-40.7-9.4,11.5,22.2-60.1,86.3-58.8,111.9-12.6-23.3-14.3-82.6-9.8-111,3.7-23.5,22-58.3,45-64.6,12.1-3.4,26,6.3,38.2,9.4,16.6,4.3,29.5,11.6,46.1,15.9,10.9,2.8,25.3,2.9,30.9,12.6,8.5,14.6,16.6,27.7,23.9,40.7,7,12.7,14.4,25.6,8.9,39h0Z"/>
    <path class="st11" d="M236.6,816.5h.9c-.3,0-.6,0-.9,0Z"/>
    <path class="st17" d="M1673.9,1059.1c-10.8-4.5-21.1-9.4-32.8-9.7-36.5-1.1-49-39.3-77.3-31.5-24.4,6.7-47,42-45.3,66.4,57.5-8.6,124.5,8.4,179.1-1.9-3.7-9.4-13.9-19.1-23.7-23.2h0Z"/>
    <path class="st17" d="M1389.6,1080.2c9,5.2,19.7,6.2,30.1,6.6,35.4,1.5,71-1.8,105.3-10.9,15.5-4.1,31.2-9.7,42.5-21.4s16.4-30.9,8.1-45c-6.5-11-24-23-36.5-23.7-16-.9-32.1,2.2-46.8-15.1-15.8-18.6-47-30.8-85.8-5.2-26,17.2-50.5,95.1-16.9,114.7h0Z"/>
    <path class="st17" d="M1272,1051.2c13.9,9.5,31.8,10.9,48.7,11.7,13.9.7,28.3.9,41-4.7,20.8-9.2,32.3-32.7,32.5-55.1.2-22.5-8.9-44-19.8-63.7-6.5-11.7-15.7-24.2-29.2-25.3-10.9-.9-24.6,2.8-35.1,5.7-36.3,9.8-92,94.5-38,131.4h0Z"/>
    <path class="st17" d="M1211.8,1027.9c37.3-7.7,66.2-45.2,64.2-83.5-.2-4.7-1-9.5-3.8-13.2-2.9-3.8-8-5-12.1-7.4-34-20.2-73.4-27.5-115.7-21.9-4.2.6-8.9,0-12.4,2.5-2.7,1.9-4.4,4.8-5.8,7.8-28.1,58.7,19.7,129.2,85.4,115.7h0Z"/>
    <path class="st17" d="M992,980.2c7.9,17.5,22.8,32.6,41.5,36.9,22,5.1,45.4-5.7,60.8-22.1,15.5-16.5,24.5-37.8,32.3-59,1.8-4.9,3.6-9.9,3.2-15.1-1-14.3-17.1-22.1-30.9-26-20.8-5.9-42.2-9.7-63.8-11.5-13.3-1.1-27.5-1.2-38.8,5.7-25.4,15.4-14.1,69.8-4.3,91.1h0Z"/>
    <path class="st17" d="M908.1,997.8c16.1,9.9,35.8,20.2,52.8,11.8,13.1-6.4,19.1-21.7,22.3-35.9,5.1-22.5,6.2-46,3.2-68.8-.6-4.8-1.7-10-5.3-13.2-2.9-2.5-6.8-3.3-10.6-3.9-31.5-5.1-64.1-3.7-95,4.1-12.3,3.1-25.7,8.4-30.4,20.2-13,32.2,40.7,71.9,63.1,85.8h0Z"/>
    <path class="st17" d="M713.5,990.6c12,16.8,30.8,27.9,50.7,34.1,19.5,6.2,42.1,7.7,59.7-2.6,26-15.3,31.6-49.1,34.3-78.7.8-9.1,1.5-18.8-3-26.8-7.2-12.7-24.1-15.8-38.9-17.5-21.2-2.4-42.8-4.8-63.6-.5-44.6,9.3-66.7,53.3-39.2,91.9h0Z"/>
    <path class="st17" d="M584,1018.3c3.5,8.5,10.6,15.2,18.2,20.5,19,13.3,42.5,20,65.7,18.8,9.8-.5,19.7-2.5,28.3-7.3,25.3-14,32.4-49.4,21.1-75.9s-36.3-44.9-62.6-56.9c-9.4-4.3-20.5-7.9-29.7-3.1-4.1,2.1-7.2,5.7-10,9.3-16.9,21.4-42.7,66.5-31.1,94.7h0Z"/>
    <path class="st17" d="M601.9,1016.4c-4.8-21.7-19.1-41.4-39-51.3-13.3-6.6-28.3-8.7-43.1-9.3-25.4-1.1-34.6,15-55.8,29.1-12.1,8.1-39.2,6.4-48.7,17.4-2.9,3.3-5.8,6.7-7.6,10.8-6.7,15,4.4,32.1,17.2,42.4,22.7,18.2,52,26.7,81,29,54.6,4.2,111.7,3,96.1-68h0Z"/>
    <path class="st0" d="M679.1,958.3v1.2"/>
    <path class="st16" d="M716.9,991.9c11.4,16.3,29.4,27.1,48.3,33.2,18.6,6,40.1,7.5,56.8-2.6,24.7-14.8,30.1-47.8,32.7-76.5.8-8.8,1.5-18.3-2.8-26-6.9-12.4-23-15.4-37-17-20.2-2.4-40.8-4.7-60.6-.5-42.5,9-63.5,51.8-37.4,89.3h0Z"/>
    <path class="st16" d="M910,993c15.1,9.3,33.7,18.9,49.6,11.1,12.3-6,17.9-20.3,21-33.7,4.8-21.1,5.8-43.1,3-64.6-.6-4.5-1.6-9.4-5-12.4-2.7-2.4-6.4-3.1-9.9-3.7-29.6-4.8-60.2-3.5-89.3,3.9-11.5,2.9-24.1,7.9-28.6,18.9-12.2,30.2,38.3,67.5,59.3,80.5h0Z"/>
    <path class="st0" d="M1075.2,1088v-1.2"/>
    <path class="st16" d="M997.8,975.3c7.4,16.3,21.3,30.5,38.8,34.5,20.6,4.8,42.4-5.3,56.8-20.7,14.4-15.4,22.8-35.4,30.2-55.2,1.7-4.5,3.3-9.3,3-14.1-1-13.4-15.9-20.7-28.9-24.3-19.4-5.5-39.4-9.1-59.6-10.8-12.4-1-25.6-1.1-36.3,5.3-23.8,14.4-13.1,65.2-4,85.2h0Z"/>
    <path class="st16" d="M1211.3,1024c35.6-7.2,63.2-42.8,61.4-79.1-.2-4.4-.9-9-3.6-12.5-2.8-3.6-7.6-4.7-11.5-7-32.5-19.2-70.1-26-110.5-20.7-4.1.5-8.5,0-11.8,2.3-2.6,1.8-4.2,4.6-5.5,7.4-26.8,55.6,18.8,122.5,81.7,109.7h0Z"/>
    <path class="st16" d="M585.3,1017.4c3.4,8.2,10.2,14.6,17.5,19.8,18.2,12.8,40.8,19.3,63.1,18.1,9.4-.5,18.9-2.4,27.2-7,24.3-13.5,31.1-47.7,20.3-73.3-10.8-25.6-34.8-43.3-60.1-54.9-9-4.1-19.7-7.6-28.5-3-3.9,2.1-6.9,5.5-9.6,9-16.3,20.7-41,64.2-29.8,91.3h0Z"/>
    <path class="st16" d="M1275,1048.3c13.2,9.2,30.3,10.5,46.3,11.3,13.2.7,26.9.8,39-4.6,19.8-8.9,30.7-31.5,31-53.2s-8.4-42.5-18.9-61.5c-6.2-11.3-14.9-23.4-27.8-24.5-10.4-.9-23.4,2.8-33.4,5.5-34.5,9.5-87.6,91.2-36.2,126.8h0Z"/>
    <path class="st16" d="M595.6,1016.5c-4.6-20.9-18.4-40-37.6-49.5-12.8-6.3-27.3-8.4-41.6-9-24.5-1.1-33.4,14.5-53.8,28.1-11.7,7.8-37.8,6.2-47,16.8-2.8,3.2-5.6,6.5-7.3,10.4-6.5,14.5,4.2,31,16.6,41,21.9,17.6,50.1,25.8,78.1,28,52.6,4.1,107.7,2.9,92.6-65.7h0Z"/>
    <path class="st17" d="M459.7,1025.9c-19.1-11.6-41.8-14.9-63.8-14.5-8.2.1-16.5.8-24.1,4.2-12.9,5.7-21.8,18.5-33.8,26-10.8,6.8-23.6,9.1-35.1,14.7-11.4,5.6-22.2,16.6-21.5,30,38.4.4,76.8.9,115.1,1.3,28.9.3,78.3,10.5,102.6-3.7-9.9-22.8-17.2-44.4-39.5-58h0Z"/>
    <path class="st16" d="M456.3,1029.7c-18.4-10.5-40.2-13.5-61.3-13.2-7.9.1-15.9.7-23.1,3.8-12.4,5.2-21,16.7-32.5,23.6-10.4,6.2-22.8,8.2-33.7,13.3-11,5.1-21.4,15.1-20.7,27.2,36.9.4,73.8.8,110.7,1.2,27.8.3,75.3,9.5,98.7-3.3-9.6-20.7-16.6-40.3-38-52.5h0Z"/>
    <path class="st16" d="M1392.6,1076.8c8.7,4.9,18.9,5.8,28.9,6.2,33.9,1.4,68.1-1.7,101.1-10.2,14.8-3.8,30-9.1,40.8-19.9,10.8-10.9,15.8-28.8,7.8-41.9-6.2-10.2-23.1-21.4-35-22.1-15.3-.9-30.8,2.1-45-14-15.2-17.4-45.1-28.7-82.3-4.9-25,16-48.4,88.7-16.2,106.9h0Z"/>
    <path class="st16" d="M1666.8,1058.8c-10.2-4.4-19.9-9.2-31-9.5-34.5-1-46.2-38.6-73.1-30.9-23.1,6.6-44.4,41.2-42.8,65.1,54.3-8.5,117.6,8.3,169.2-1.9-3.5-9.2-13.1-18.8-22.4-22.8h0Z"/>
    <path class="st17" d="M1665.3,57.4c-10.5,10.1-10.7,16.9-35.1,26.7-7,2.8-35.4,40.4-81.5,29.5-56-13.2-106.4-61.6-75.8-109.2,61.7,5.4,139.4-11.2,200.8,3.4-4.1,16.7,1.1,40.5-8.4,49.6h0Z"/>
    <path class="st17" d="M1358.7,72.7c6.5-7.9,13.9-13.2,22.4-16.9,29-12.7,60.2-19.9,92.8-20.2,14.7-.1,30.3,1.4,44.6,11.3s29.1,29.2,34.4,47c4.3,14.5-9.5,42.9-19.7,50.6-12.1,9.1-30,9.4-39.3,23.9-14.5,22.5-26.3,35.3-72.5,30.1-41.2-4.7-95.6-85.6-62.7-125.7Z"/>
    <path class="st17" d="M1414.5,199.5c-2.7,16.5-14.2,29.2-25.3,40.8-9.2,9.6-19.1,19.1-32,22.9-21.2,6.3-46.3-4.6-62.9-22-16.6-17.4-26-40.2-32.7-62.8-4-13.4-6.8-29.2,1.8-38.8,6.9-7.8,19.2-13.7,28.6-18.3,32.4-15.9,133.1,14.2,122.5,78.2h0Z"/>
    <path class="st17" d="M1205.9,155.7c32.4,11.6,76.2,39.4,74.7,82.9-.2,5-.9,10.2-3.6,14.1-2.8,4.1-7.6,5.3-11.5,7.9-32.4,21.6-69.9,29.4-110.2,23.4-4-.6-8.4,0-11.8-2.6-2.6-2-4.6-5-5.5-8.4-24.3-86.6-21.5-149.3,67.9-117.4h0Z"/>
    <path class="st17" d="M994.7,204.3c8.6-19.2,24.7-35.9,45-40.6,23.8-5.6,49.1,6.3,65.9,24.4,16.8,18.1,26.5,41.7,35,65,1.9,5.4,3.9,10.9,3.5,16.6-1.1,15.8-18.5,24.3-33.5,28.6-22.6,6.5-45.7,10.7-69.1,12.7-14.4,1.2-29.7,1.3-42.1-6.2-27.5-16.9-15.2-76.9-4.7-100.4h0Z"/>
    <path class="st17" d="M898.4,181.9c17.2-10.9,38.3-22.1,56.5-13,14,7.1,20.4,23.8,23.9,39.4,5.5,24.7,6.6,50.4,3.4,75.6-.7,5.3-1.8,11-5.7,14.5-3.1,2.8-7.3,3.6-11.3,4.3-33.7,5.6-68.5,4-101.6-4.5-13.1-3.4-27.5-9.3-32.5-22.1-13.9-35.3,43.6-78.9,67.5-94.1h0Z"/>
    <path class="st17" d="M718.8,170.4c16.1-15.8,37.4-23.6,58.2-25.8,20.5-2.1,42.6,1.5,56.7,17.2,20.8,23.1,16.8,62.1,11.3,95.5-1.7,10.3-3.7,21.2-10.3,29-10.4,12.4-27.6,11.8-42.2,10.1-21-2.4-42.5-4.9-61.3-14.7-40.3-21-49.4-75.1-12.4-111.4h0Z"/>
    <path class="st17" d="M651.3,255.1c-8.4,3.5-17.8,3.3-26.6,1.8-22-3.7-42.2-15.1-56.4-31.8-6-7.1-11.1-15.2-13.3-24.3-6.5-26.8,14.4-56.1,40.8-66.8,26.4-10.7,71.5-10.4,97.2-.8,9.2,3.4,21.3,10.2,23.9,19.7,1.1,4.2-.7,20.9-1.4,25.3-3.9,24.4-36.3,65.3-64.2,76.9Z"/>
    <path class="st17" d="M618.7,126.7c-4.9,25.9-19.7,49.5-40.2,61.3-13.7,7.9-29.2,10.4-44.5,11.1-26.2,1.3-35.7-18-57.5-34.8-12.5-9.6-40.4-7.7-50.2-20.8-3-4-6-8.1-7.9-12.9-6.9-17.9,4.5-38.4,17.7-50.7,23.4-21.8,53.6-32,83.5-34.7,56.2-5.1,115.1-3.6,99,81.3h0Z"/>
    <path class="st0" d="M695.1,226.6v-1.3"/>
    <path class="st16" d="M722.4,169.8c15.5-15.4,35.8-23.1,55.7-25.3,19.6-2.2,40.6,1.3,54,16.4,19.7,22.4,15.8,60.2,10.3,92.7-1.7,10-3.7,20.6-9.9,28.2-10,12.1-26.3,11.5-40.3,10-20-2.2-40.5-4.6-58.5-14-38.4-20.2-46.8-72.7-11.3-108.1h0Z"/>
    <path class="st16" d="M900.4,187.2c16.1-10.2,36-20.8,53-12.2,13.2,6.6,19.2,22.3,22.4,37,5.1,23.2,6.2,47.3,3.2,70.9-.6,5-1.7,10.3-5.4,13.6-2.9,2.6-6.8,3.4-10.6,4-31.7,5.2-64.4,3.8-95.5-4.3-12.3-3.2-25.8-8.7-30.6-20.8-13.1-33.1,40.9-74.1,63.4-88.3h0Z"/>
    <path class="st16" d="M996.9,206.2c8.3-18.6,23.8-34.7,43.2-39.3,22.9-5.4,47.2,6.1,63.3,23.6,16.1,17.6,25.4,40.4,33.6,62.9,1.9,5.2,3.7,10.6,3.3,16.1-1.1,15.3-17.8,23.5-32.2,27.7-21.7,6.2-43.9,10.4-66.3,12.3-13.8,1.2-28.5,1.3-40.4-6-26.5-16.4-14.6-74.4-4.5-97.2h0Z"/>
    <path class="st16" d="M1410.2,199.2c-2.5,15.8-13.4,27.9-24,39-8.7,9.1-18.2,18.2-30.5,21.8-20.2,5.9-44.4-4.7-60.4-21.5s-25.2-38.7-31.7-60.4c-3.9-12.9-6.7-28,1.5-37.2,6.6-7.4,18.3-13.1,27.3-17.4,31-15,127.6,14.4,117.9,75.8h0Z"/>
    <path class="st16" d="M612.2,126.6c-4.7,25-19,47.8-38.8,59.2-13.2,7.6-28.2,10-42.9,10.8-25.2,1.3-34.4-17.3-55.4-33.6-12.1-9.3-39-7.4-48.4-20.1-2.9-3.9-5.8-7.8-7.6-12.4-6.7-17.3,4.3-37.1,17.1-49,22.6-21,51.7-30.9,80.5-33.5,54.2-4.9,111-3.4,95.5,78.6h0Z"/>
    <path class="st17" d="M476.3,103.6c-22,1.8-39.8,16-60.7,15.6-7.8-.2-15.7-.9-22.9-4.4-12.3-6.1-20.8-19.8-32.2-27.9-10.3-7.3-21.9-11.1-33.4-15.7-18.8-7.6-22.2-56.5-10.5-68.6,36.6-.5,63.2,1.9,99.8,1.4,27.5-.4,69.6-13.8,92.7,1.4,14.6,42.9,3.4,95.3-32.7,98.3h0Z"/>
    <path class="st16" d="M475.8,100c-21.4,1.8-38.7,15.6-59.1,15.2-7.6-.2-15.3-.8-22.3-4.3-12-6-20.2-19.3-31.4-27.2-10-7.1-21.3-10.8-32.5-15.4-18.2-7.4-21.6-55.2-10.2-67,35.6-.5,61.5,1.8,97.1,1.4,26.8-.3,67.7-13.5,90.2,1.4,14.2,42,3.4,93.1-31.9,96h0Z"/>
    <path class="st16" d="M651.5,254.1c-8.2,3.4-17.3,3-25.8,1.5-21.3-3.8-41-15-55-31.3-5.9-6.9-10.9-14.8-13.1-23.7-6.5-26.1,13.5-54.3,39-64.5,25.5-10.1,69.2-9.5,94.3,0,9,3.4,20.8,10,23.3,19.3,1.1,4.1-.5,20.2-1.2,24.5-3.6,23.7-34.7,63.1-61.6,74.1h0Z"/>
    <path class="st16" d="M1667.4,58c-10.5,10.1-10.7,16.9-35.1,26.7-7,2.8-35.4,40.4-81.5,29.5-56-13.2-106.4-61.6-75.8-109.2,61.7,5.4,139.4-11.2,200.8,3.4-4.1,16.7,1.1,40.5-8.4,49.6h0Z"/>
    <path class="st16" d="M1362.2,71.2c6.3-7.9,13.5-13,21.8-16.7,28.3-12.4,58.8-19.4,90.6-19.4,14.3,0,29.6,1.6,43.7,11.5s28.6,29.3,34,47.1c4.3,14.4-8.9,42.7-18.8,50.2-11.8,9-29.2,9.1-38.3,23.5-14,22.3-25.4,35-70.7,29.4-40.4-5-94.1-86-62.2-125.7h0Z"/>
    <path class="st22" d="M812.6,444.9c-36-1.3-71.6,20.4-88.4,53.8-4,8-7.1,17-6.5,26.1,1,15,12.2,27.8,25.2,34,13,6.2,27.8,7,42,6.7,28.5-.5,56.8-4.5,84.3-12,6.4-1.7,12.9-3.8,17.7-8.6,44.8-45.4-38.7-98.6-74.4-99.9h0Z"/>
    <path class="st16" d="M1205.9,157c31.1,11.4,73,38.9,71.6,82-.2,4.9-.9,10.1-3.4,14-2.7,4-7.3,5.3-11,7.8-31,21.4-66.9,29-105.5,23.1-3.9-.6-8.1,0-11.3-2.6-2.4-2-4.4-5-5.3-8.2-23.3-85.6-20.6-147.6,65-116.1h0Z"/>
    <path class="st22" d="M1169.3,441.1c35.9-2.4,72.1,19,89.7,53,4.2,8.2,7.5,17.3,7.1,26.7-.7,15.5-11.5,29-24.4,35.8-12.9,6.8-27.6,8-41.8,8.1-28.5.3-56.9-3-84.6-10-6.4-1.6-13-3.6-17.9-8.4-45.8-45.5,36.3-102.8,72-105.1h0Z"/>
    <path class="st16" d="M815.1,453.8c-36-1.1-71.7,19.6-88.6,51.4-4.1,7.6-7.2,16.1-6.6,24.7,1,14.2,12.1,26.2,25.1,32s27.7,6.5,42,6.2c28.5-.6,56.8-4.5,84.4-11.8,6.4-1.7,13-3.7,17.7-8.2,45-43.2-38.2-93.2-73.9-94.3h0Z"/>
    <ellipse class="st15" cx="835.7" cy="525.9" rx="35.8" ry="33"/>
    <ellipse class="st14" cx="837.1" cy="533.6" rx="21.8" ry="21.1"/>
    <ellipse class="st16" cx="823" cy="520.3" rx="10.5" ry="7.7"/>
    <ellipse class="st16" cx="845.5" cy="537.9" rx="4.9" ry="4.2"/>
    <path class="st16" d="M1167.4,449.9c35.9-2.1,72.2,17.6,90,48.9,4.3,7.5,7.6,15.9,7.3,24.5-.6,14.2-11.3,26.6-24.2,32.7-12.8,6.2-27.5,7.2-41.8,7.3-28.5.2-56.9-3-84.7-9.4-6.4-1.5-13.1-3.3-17.9-7.7-46.1-41.9,35.6-94.2,71.2-96.3h0Z"/>
    <ellipse class="st15" cx="1163" cy="521.7" rx="35.8" ry="33"/>
    <ellipse class="st14" cx="1161.6" cy="529.4" rx="21.8" ry="21.1"/>
    <ellipse class="st16" cx="1175.7" cy="516.1" rx="10.5" ry="7.7"/>
    <ellipse class="st16" cx="1153.2" cy="536.5" rx="4.9" ry="4.2"/>
  </g>
  <g id="Lag_2">
    <path class="st4" d="M335.1,23.9c17.9-1,25.9,27.2,43.8,28,9.2.4,19.3-6.7,26.8-1.3,3.9-15.9-8.4-32.6-24-37.4s-32.9.1-46.7,8.9"/>
    <path class="st4" d="M449.1,105.4c17.7-.8,27,29.6,44.6,30.2,9.1.3,22.9-3.1,30.2,1.4,3.9-13.5-16.2-24.5-31.7-28.6-15.4-4.1-29.6-10.5-43.2-3.1"/>
    <path class="st4" d="M1575.2,14.7c4.8,14.2-3.7,26.8-5.8,40.3,24.5-11.5,31,12.1,36-1.4,3.4-9.2,15.2-28,34.6-28.8-27.4.9-49.2-6.2-64.8-10.1"/>
    <path class="st4" d="M1524.2,1005.2c-2.2,5.8-3.8,11.6-2.8,17.8.3,1.9-2.2,3.3-4.1,2.8-20.3-4.9-39.4-17.8-51.9-35.3-.7-1,.3-2.3,1.4-2,10.1,2.8,18.8,7.3,29.1,9.6,7.9,1.8,17.3,1.4,25.3,2.9,2,.4,3.7,2.3,3,4.2h0Z"/>
    <path class="st0" d="M1645.1,1004.5l-.6.6"/>
    <path class="st4" d="M1513.1,103.4c-9.3,8.1-18.7,16.2-28,24.2-2.7,2.3-5.4,4.7-8.8,5.9-6,2.1-12.5,0-18.8-.9-6.3-.9-14,.3-16.7,6,2.5-14.9,15.7-26.3,30-31.1,13.5-4.6,28-4.5,42.3-4.1Z"/>
    <path class="st4" d="M1582.7,1050.8c-.1,12.4,8.1,23.8,19.8,27.9,11.7,4.1,28.2,5.4,40.3,2.9,2.8-.6,5.2-.9,7.2-2.9,4-3.9-1.6-13.4-7-14.7s-10.6,2-16.1,3.2c-6.1,1.2-17.4-3.3-23-4.3-9-1.6-12.2-2.5-18.7-10.1"/>
    <path class="st4" d="M502.7,986.2c-14.6,19.9-36.6,34.3-61.2,40.5,5-6.2,5.4-14.4,0-20.4,19.2-10,40.2-14.5,59.9-18.3"/>
    <path class="st4" d="M385.8,1048.5c-10,13.4-29.7,19.5-46.1,15.8-7.6-1.7-19.5-2-18.7,5.8.3,3.3,1.5,5.6,4.3,7.2,24.5,14.3,56.2-.3,60.2-28.8-.9-.5,1.1.5.2,0h0Z"/>
    <path class="st26" d="M321,1068.1c5.7-.5,11.5-.5,17.2.7,5.4,1.2,11.6,4.3,15.1,7.7,10.2-3.4,19.6-9.6,26.6-17.8,2.3-2.7,4.3-6,5.1-9.4-.4,3.7-2.5,6.9-4.6,9.8-6.8,8.6-16.6,14.7-27.1,17.8-8.6-8.2-21.3-8.6-32.3-8.7h0Z"/>
    <path class="st26" d="M499.6,989.5c-5.3,8.1-12.8,14.5-20.6,20.1-10,7.3-21.5,12.7-33.7,15h0c13.2-3.8,26-9.3,36.9-17.6,6.4-5.1,12.2-11.4,17.4-17.4h0Z"/>
    <path class="st26" d="M444.6,1007.2c3.8-1.7,8.1-2.4,12.3-2.5,7-.5,14.2,0,20.5,3.2h0c-6.7-1.8-13.5-3.3-20.5-3-4.1.4-8.4,1.5-12.3,2.2h0Z"/>
    <path class="st26" d="M1467.2,988.1c5.2,6.3,11,12.3,17.4,17.5,10.9,8.3,23.8,13.8,36.9,17.6h0c-13.6-2.4-26.2-8.9-37.1-17.4-6.5-4.9-13-10.8-17.2-17.7h0Z"/>
    <path class="st26" d="M1519.2,1004.4c-4.1-.9-8.2-1.8-12.3-2.3-6.9-.3-13.8,1.2-20.5,3h0c6.3-3.2,13.6-3.8,20.5-3.3,4.1.1,8.7.7,12.2,2.5h0Z"/>
    <path class="st26" d="M1650.5,1073c-11.2,0-23.7.6-32.3,8.7-10.5-3-20.3-9.2-27.1-17.8-2.1-2.8-4.4-6.3-4.6-9.8.6,3.6,2.8,6.6,5.1,9.4,7,8.2,16.4,14.4,26.7,17.8,3.6-3.3,9.8-6.4,15.1-7.7,5.6-1.2,11.7-1.4,17.2-.6h0Z"/>
    <path class="st26" d="M1569.3,55c-1.2-23.3,29.5-29.5,47.6-30.4,6.9-.3,13.9,0,20.8.8-6.8-.1-13.9-.5-20.8,0-13.5.9-28.4,2.4-39,11.6-5.6,4.6-8.4,11-8.6,18h0Z"/>
    <path class="st2" d="M1532.2,56h-.3"/>
    <path class="st26" d="M1592.9,30.4c2.4,2.2,4.2,4.9,5.6,7.7,1.6,2.7,3.3,5.7,3.8,8.8.3,2.1,0,4.8-2,5.9h0c3.1-3,.6-8.4-.6-11.7-1.5-4-4.9-7.1-6.8-10.7h0Z"/>
    <path class="st26" d="M406.6,51.4c-7-21.8-27.3-34.1-49.7-33.5-7.1.2-14.2,1.7-20.8,4.7,6.1-3.5,13.6-5.2,20.8-5.5,21.1-.6,44.9,12.8,49.7,34.2h0Z"/>
    <path class="st26" d="M382.5,23.9c-1.8,2.3-3.9,4.3-5.8,6.6-2.9,3.9-3.8,9-1.4,13.4h0c-3.3-3.7-2.4-8.6.5-12.3,1.9-2.8,3.9-5.9,6.8-7.6h0Z"/>
    <path class="st26" d="M523.3,136.4c-2.6-6.6-8.5-10.9-14.1-14.8-11.5-7.8-25.1-12-38.6-15-6.8-1.4-13.9-2.3-20.7-2,3.5-.6,7-.5,10.5-.3,10.5.8,20.7,3.7,30.4,7.6,11.2,4.8,28.8,11.9,32.6,24.4h0Z"/>
    <path class="st26" d="M495.8,114.9c-2.1,1.8-4.5,3.3-6,5.7-1.6,3.2-1.4,6.9.4,10h0c-2.9-2.5-2.9-7.1-.6-10.1,1.5-2.4,3.5-4.8,6.2-5.5h0Z"/>
    <path class="st26" d="M1440.5,137.8c3.8-9.7,12.3-16.6,21.3-21.4,9-5,18.7-8.6,28.8-10.4,6.7-1.2,13.8-1.8,20.4-1.2-6.8,0-13.6.8-20.3,2-19.7,3.5-40.7,12.7-50.3,31.1h0Z"/>
    <path class="st26" d="M1466.5,114.7c2.8,2.3,5.1,5.3,8.3,7.2,1.7,1.2,7.8,4,7.2,6.3-.2.5-.7.8-1.1,1h0c2-1.6-.6-2.8-1.8-3.7-2.3-1.5-4.5-3.3-6.6-5-2.2-1.5-4.7-3.5-5.9-5.8h0Z"/>
    <path class="st18" d="M1350.9,223.9c-.2-9.7,11.5-12.1,18.9-13.9,5.9-1.6,12.3-4,15.7-9.4,1.1-1.8,1.2-4.1,1-6,.7,2,.5,4.3-.5,6.3-3.2,5.7-10,8.3-16.1,9.5-4.2.7-8.3,1.9-11.9,4-3.8,2-6.8,5.2-7.2,9.5h0Z"/>
    <path class="st18" d="M1187.2,254.6c1.5-12.1,20.1-12.2,29.5-13.1,5.7-.4,11.4-1.4,16.8-3.4,5.2-1.9,11-5.7,10.1-11.9,1.7,6.3-4.6,10.8-9.8,12.6-5.4,2.1-11.3,2.9-17,3-5.7,0-11.5.8-17,2.4-5.3,1.5-11.4,4.4-12.5,10.2h0Z"/>
    <path class="st18" d="M609.4,217c-.6-8.6-11.7-12.3-18.9-13.5-6.1-1.2-12.9-3.7-16.1-9.5-1-1.9-1.3-4.5-.4-6.3-.5,2.1,0,4.2.9,6,3.4,5.3,9.8,7.8,15.7,9.4,7.3,1.8,19.5,4.4,18.9,13.9h0Z"/>
    <path class="st18" d="M780,263.4c-.6-6.7-7.3-10.1-13-12.2-6-2.2-12.3-3.3-18.6-3.8-6.3-.5-12.7-1.8-18.6-4.5-5.6-2.4-12.2-7.7-10-14.6-1.4,6.9,4.7,11.3,10.3,13.9,5.8,2.5,12,4,18.3,4.8,10,1.4,31.2,3.2,31.6,16.3h0Z"/>
    <path class="st18" d="M853.6,262.4c10,3.7,20.3,6.9,30.8,9.3,17.5,3.5,35.6,3.8,53.3,2.4h0c-17.8,2.8-35.9,1.5-53.4-2.1-10.4-2-21.2-4.9-30.7-9.5h0Z"/>
    <path class="st18" d="M1103.9,259.5c-9.7,4.5-20.2,7.5-30.7,9.5-17.5,3.6-35.7,5-53.4,2.2h0c17.8,1.4,35.8,1,53.3-2.5,10.4-2.3,20.9-5.8,30.8-9.2h0Z"/>
    <path class="st18" d="M1090.5,920.5c-10-3.7-20.3-6.9-30.8-9.3-17.5-3.5-35.6-3.8-53.3-2.4h0c17.7-2.8,35.9-1.5,53.4,2.1,10.4,2,21.2,4.9,30.7,9.5h0Z"/>
    <path class="st18" d="M869.6,919.3c9.7-4.5,20.2-7.5,30.7-9.5,17.5-3.6,35.7-5,53.4-2.2h0c-17.8-1.3-35.8-1-53.3,2.5-10.4,2.3-20.9,5.8-30.8,9.2h0Z"/>
    <path class="st18" d="M788.9,910.7c-2.5,13.1-23,12.2-33.3,12.5-6.3,0-12.7.8-18.7,2.6-5.9,1.8-12.5,5.6-11.9,12.5-1.4-7,5.8-11.5,11.6-13.3,6.1-2,12.6-2.5,19-2.3,6.3.3,12.8,0,18.9-1.6,6-1.3,12.8-4.1,14.4-10.5h0Z"/>
    <path class="st18" d="M1168.1,920.6c1.8,6.5,8.9,8.8,14.8,9.8,6.2,1.2,12.7,1.2,19,.6,6.3-.6,12.8-.3,19.1,1.3,5.9,1.4,13.4,5.6,12.3,12.7.3-7-6.5-10.4-12.5-11.9-6.1-1.5-12.5-2-18.8-1.6-10.1.2-31.2,2-33.8-10.8h0Z"/>
    <path class="st18" d="M1317.4,937.6c1.4,4.7,6.7,6.1,11,6.8,4.6.8,9.2.8,13.9.3,2.3-.3,4.7-.4,7-.2,4.7.2,9.6,1,13.4,3.8,1.9,1.3,3.3,4.1,2.6,6.2,0-1.2-.2-2.3-.7-3.3-3.9-6.1-15.7-6.2-22.3-6-7.2.1-23.1,1.9-24.9-7.5h0Z"/>
    <path class="st18" d="M648.9,941.1c-2.3,9.5-17.5,7.5-25,7.5-6.6-.2-18.5,0-22.3,6-.5,1-.8,2.2-.7,3.3h0c-.5-2.4.8-4.8,2.7-6.2,3.9-2.8,8.8-3.5,13.4-3.8,2.3-.1,4.7,0,7,.2,4.6.5,9.3.5,13.9-.3,4.4-.7,9.6-2.2,11.1-6.8h0Z"/>
    <path class="st19" d="M736.9,669.9c33.2,13.5,72.7,10.5,103.8-7,23.2-13.5,48.6-25.7,75.9-27,9-.4,18.1.4,26.9,2.6v.2c-8.9-1.7-17.9-2.2-26.8-1.4-27,2.2-51.8,13.9-75.2,27-31.4,17.2-72.1,20.1-104.6,5.6h0Z"/>
    <path class="st19" d="M1216.6,671c-28.1,8.3-59,7.3-86.4-3-26.9-10.7-55.7-19.1-84.9-15.5v-.2c29.1-5.8,58.8,2.8,85.5,14.2,27,10.7,58.1,11.5,85.8,4.5h0Z"/>
    <path class="st19" d="M1208.2,779c-35.2,0-69.9,9.3-101.3,24.9-4,2-8.3,3.6-12.7,4.5-8.7,2-17.6,2.4-26.5,2.7-17.3.4-35.4,0-52.3,3.8-4.3.9-8.5,2.1-12.7,3.5v-.3c3.9-1.8,8.1-3.3,12.3-4.5,16.8-4.8,35.2-5.1,52.6-5.5,8.7-.2,17.5-.4,26-2.1,4.2-.8,8.3-2.2,12.2-4.1,31.6-14.9,67.8-24.6,102.3-22.7h0Z"/>
    <path class="st19" d="M753.8,777.3c62.3-14.3,116.9,39.5,179.2,33.8,8.7-.8,17.3-2.9,25.3-6.6v.2c-5.8,3-12.1,5.3-18.6,6.7-65,12.7-121.2-47.7-185.9-34.1h0Z"/>
    <path class="st24" d="M1244,756.5c.5-5.9,21.9-31.2,22-39.5-2.2,5.8-102.6,20.3-182.7,22.2-73,1.7-164.9,2.6-242.3-2.9-82.7-5.8-149-18.3-160.7-21.6,65.7,11.7,136.3,30.2,204.7,37.4,13.6,1.5,30.8.7,44,1.4,83.8,4.6,231-1.7,314.8,2.9h0Z"/>
    <path class="st5" d="M901.7,888.7c-8.5-23.4-17-46.8-25.6-70.2-1.9-5.3-4.6-15.7-7.9-20.3-4.2-6-10.4-7.6-16.5-11.9-30.6-21.6-114.6-104.2-101.9-60.8,38,21.2,86.3,52.9,112.4,83.1,20.3,23.5,26.6,54.6,39.4,80.2h0Z"/>
    <rect class="st5" x="1106.5" y="716.6" width="96.5" height="8.6" transform="translate(-197.9 567.1) rotate(-25.5)"/>
    <path class="st11" d="M1762.8,818.5h.9c-.3,0-.6,0-.9,0Z"/>
    <path class="st7" d="M1692.1,440.5c9.6-5.8,25.4-14,35.7-9.7,5.5,2.3,15.4,15.5,15.8,25.9-76.5,29.1-147.7,76.6-221.1,113.4-83.4,41.8-184,88.7-271.3,121.3-14.6,5.5-12.9-3-24.5-14.4,4.7-14.2,61.7-28.1,108-50.4,40.1-19.3,80.3-36,119-58.6,81.8-47.7,164.3-83,238.4-127.6h0Z"/>
    <path class="st6" d="M1229.6,672.7c-8.6,3.8-16.8,8.7-25.4,12.5-4.8,2.1-8.9,5.2-13,8.5-3.8,3-5.4,4.5.9,13.6,4,5.8,11.5,3.4,17.9.5,11.4-5.3,23.9-9.5,35.4-14.8-4.5-5.7-10.1-12.4-14.6-18"/>
    <ellipse class="st5" cx="1035.9" cy="731" rx="35.3" ry="79.9" transform="translate(77.2 1560.6) rotate(-76.1)"/>
    <ellipse class="st13" cx="1036.4" cy="730.8" rx="31.8" ry="72" transform="translate(77.8 1560.9) rotate(-76.1)"/>
    <circle class="st16" cx="1091.3" cy="737.5" r="5.8"/>
    <circle class="st16" cx="1099.3" cy="745.4" r="2.2"/>
    <path class="st7" d="M346.1,404c-8.5-7.3-22.7-18.1-33.6-15.5-5.8,1.4-17.8,12.7-19.9,22.9,70.6,41.4,132.8,100.2,199.1,148.6,75.3,55.1,166.6,118.1,247.3,164.9,13.5,7.8,13.3-.8,26.5-10.1-2.2-14.8-56.2-38-98.1-67.7-36.3-25.7-73.1-48.9-107.5-77.6-72.7-60.7-148.2-109.2-213.8-165.5h0Z"/>
    <path d="M738.2,486.5c-.5-.2-.9-.4-1.2-.7l-22.6-10.3,21.2,13.7-26.1-5.1,22.7,7.9c.7-.2,1.4-.4,2-.8,1.8-1.1,2.9-3,4.3-4.5,0,0,0,0,.1-.1-.1,0-.2,0-.4-.1h0Z"/>
    <path d="M745.5,480.1c-.4-.2-.8-.5-1.1-.8l-21.3-12.7,19.5,16-25.4-8,21.7,10.4c.7,0,1.4-.2,2.1-.5,1.9-.9,3.2-2.7,4.8-4,0,0,0,0,.2-.1-.1,0-.2-.1-.3-.2h0Z"/>
    <path d="M753.3,473.2c-.4-.2-.8-.5-1.1-.9l-20.3-14.4,18.2,17.5-24.7-10,20.8,12c.7,0,1.4-.1,2.1-.4,1.9-.7,3.4-2.4,5.1-3.6,0,0,.1,0,.2-.1-.1,0-.2-.1-.3-.2h0Z"/>
    <path d="M761.6,468.2c-.4-.3-.7-.6-.9-1.1l-18-17.1,15.5,19.9-23-13.4,18.9,14.9c.7,0,1.4.1,2.2,0,2-.4,3.7-1.9,5.5-2.8,0,0,.1,0,.2,0,0,0-.2-.1-.3-.2h0Z"/>
    <path d="M770.2,463.1c-.3-.3-.6-.7-.8-1.1l-16.8-18.4,14.1,21-22-15,17.7,16.2c.7.1,1.4.2,2.2.1,2-.3,3.9-1.6,5.7-2.4,0,0,.1,0,.2,0,0,0-.2-.2-.3-.3h0Z"/>
    <path d="M778.3,460.3c-.3-.4-.5-.8-.7-1.2l-13.9-20.6,10.9,22.8-19.6-18.1,15.2,18.6c.7.2,1.4.4,2.1.4,2.1,0,4.1-1,6-1.5,0,0,.1,0,.2,0,0-.1-.2-.2-.2-.3h0Z"/>
    <path d="M794.1,450.6l-2.6-18.6-.6,24.2-9.7-23,5.9,23.9-15.5-20.5,12.1,22.2-20.5-17,16.2,17.8c.7.2,1.4.3,2.1.3,2.1-.1,4-1.3,5.9-1.9,2.3-.8,4.7-1,7-.9-.3-2.1-.2-4.3-.2-6.5h0Z"/>
    <path d="M812.8,448.5l1.2-18.7-5.5,23.6-4.9-24.5.9,24.5-11-23.3,7.3,24.2-16.6-20.8,12.2,20.7c.6.3,1.3.6,2,.7,2,.3,4.2-.4,6.2-.6,2.5-.2,4.8,0,7.1.5.1-2.2.6-4.3,1.1-6.4h0Z"/>
    <path d="M830.2,450.9l4.5-18.2-9.6,22.3-.5-24.9-3.4,24.3-6.8-24.9,2.9,25.1-12.7-23.4,8.4,22.5c.6.4,1.2.8,1.9,1.1,2,.7,4.2.3,6.2.5,2.5.2,4.7.8,6.9,1.8.5-2.1,1.4-4.1,2.2-6.1h0Z"/>
    <path d="M846.1,455.4l7-17.4-12.6,20.7,3-24.8-6.8,23.6-3.2-25.5-.6,25.2-9.3-25,5.2,23.5c.5.5,1,1,1.7,1.3,1.8,1,4.1.9,6,1.3,2.4.5,4.5,1.5,6.6,2.7.8-2,1.9-3.9,3-5.7h0Z"/>
    <path d="M861.6,463.6l10.8-15.3-17,17.3,8.7-23.4-12,21.4,2.8-25.6-6.4,24.4-3.3-26.4-.4,24c.4.6.8,1.2,1.4,1.7,1.6,1.4,3.8,1.8,5.6,2.7,2.2,1.1,4.1,2.5,5.8,4.2,1.2-1.8,2.8-3.3,4.2-4.9h0Z"/>
    <path d="M1245.8,481.6c.4-.2.9-.4,1.2-.7l22.6-10.3-21.2,13.7,26.1-5.1-22.7,7.9c-.7-.2-1.4-.4-2-.8-1.8-1.1-2.9-3-4.3-4.5,0,0,0,0-.1-.1.1,0,.2,0,.4-.1h0Z"/>
    <path d="M1238.5,475.2c.4-.2.8-.5,1.1-.8l21.3-12.7-19.5,16,25.4-8-21.7,10.4c-.7,0-1.4-.2-2.1-.5-1.9-.9-3.2-2.7-4.8-4,0,0,0,0-.2-.1.1,0,.2-.1.3-.2h0Z"/>
    <path d="M1230.7,468.3c.4-.2.8-.5,1.1-.9l20.3-14.4-18.2,17.5,24.7-10-20.8,12c-.7,0-1.4-.1-2.1-.4-1.9-.7-3.4-2.4-5.1-3.6,0,0-.1,0-.2-.1.1,0,.2-.1.3-.2h0Z"/>
    <path d="M1222.4,463.3c.4-.3.7-.6.9-1.1l18.1-17.1-15.6,19.9,23-13.4-18.9,14.9c-.7,0-1.4.1-2.2,0-2-.4-3.7-1.9-5.5-2.8,0,0-.1,0-.2,0,0,0,.2-.1.3-.2h0Z"/>
    <path d="M1213.8,458.2c.3-.3.6-.7.8-1.1l16.8-18.4-14.1,21,22-15-17.7,16.2c-.7.1-1.4.2-2.2.1-2.1-.3-3.9-1.6-5.7-2.4,0,0-.1,0-.2,0,0,0,.2-.2.3-.3h0Z"/>
    <path d="M1205.7,455.4c.3-.4.5-.8.7-1.2l13.9-20.6-10.9,22.8,19.6-18.1-15.2,18.6c-.7.2-1.4.4-2.1.4-2.1,0-4.1-1-6-1.5,0,0-.1,0-.2,0,0-.1.2-.2.2-.3h0Z"/>
    <path d="M1189.9,445.7l2.6-18.6.6,24.2,9.7-23-5.9,23.9,15.5-20.5-12.1,22.2,20.5-17-16.2,17.8c-.7.2-1.4.3-2.1.3-2.1-.1-4-1.3-5.9-1.9-2.3-.8-4.7-1-7-.9.3-2.1.2-4.3.2-6.5h0Z"/>
    <path d="M1171.2,443.6l-1.2-18.7,5.5,23.6,4.9-24.5-.9,24.5,11-23.3-7.3,24.2,16.6-20.8-12.2,20.7c-.6.3-1.3.6-2,.7-2,.3-4.2-.4-6.2-.6-2.4-.2-4.8,0-7.1.5-.1-2.2-.6-4.3-1.1-6.4h0Z"/>
    <path d="M1153.8,446l-4.5-18.2,9.6,22.3.4-24.9,3.4,24.3,6.8-24.9-2.9,25.1,12.7-23.4-8.4,22.5c-.6.4-1.2.8-1.9,1.1-1.9.7-4.2.3-6.2.5-2.5.2-4.7.8-6.9,1.8-.5-2.1-1.4-4.1-2.2-6.1h0Z"/>
    <path d="M1137.9,450.5l-7-17.4,12.6,20.7-3-24.8,6.8,23.6,3.2-25.5.6,25.2,9.3-25-5.2,23.5c-.5.5-1.1,1-1.7,1.3-1.8,1-4.1.9-6,1.3-2.4.5-4.5,1.5-6.6,2.7-.8-2-1.9-3.9-3-5.7h0Z"/>
    <path d="M1122.4,458.7l-10.8-15.3,17,17.3-8.7-23.4,12.1,21.4-2.8-25.6,6.4,24.4,3.3-26.4.4,24c-.4.6-.8,1.2-1.4,1.7-1.6,1.4-3.8,1.8-5.6,2.7-2.2,1.1-4.1,2.5-5.8,4.2-1.2-1.8-2.8-3.3-4.2-4.9h0Z"/>
    <path class="st1" d="M1372,556.6c-3.1-11.3,13.2-18.1,17-29.2,1.3-3.7,1.1-7.8,2.1-11.6,2.4-9.1,11.7-15.1,21-16.5,7.3-1.1,14.1-.7,21.2.5,2.5.5,4.2,2.9,3.7,5.4-1.4,7.1,4.4,16.6,3.9,24.4-.7,10.6-11.2,17.3-20.6,22.2"/>
    <path class="st1" d="M589.1,546c3.1-10.9-13-17.5-16.8-28.2-1.3-3.6-1-7.6-2-11.3-2.4-8.8-11.6-14.6-20.8-16-7-1.1-14.2,0-21.2,1.4-2.8.6-4.7,3.4-4.2,6.2,1.1,6.5-3.5,14.6-3,21.8.7,10.2,11.1,16.8,20.4,21.5"/>
  </g>
</svg>