<?xml version="1.0" encoding="UTF-8"?>
<svg id="Lag_1" data-name="Lag 1" xmlns="http://www.w3.org/2000/svg" viewBox="0 0 380 249">
  <defs>
    <style>
      .cls-1, .cls-2 {
        fill: none;
      }

      .cls-3, .cls-4 {
        stroke-width: .1px;
      }

      .cls-3, .cls-4, .cls-2 {
        stroke: #000;
        stroke-miterlimit: 10;
      }

      .cls-3, .cls-5 {
        fill: #fff;
      }

      .cls-4 {
        fill: #ffe9df;
      }

      .cls-6 {
        fill: #ff99d1;
      }

      .cls-7 {
        fill: #f492cf;
      }

      .cls-8 {
        fill: #7a90bf;
      }

      .cls-9, .cls-10 {
        isolation: isolate;
      }

      .cls-11 {
        fill: #ff3b4b;
      }

      .cls-12 {
        fill: #ff0;
      }

      .cls-13 {
        fill: #b5cdff;
      }

      .cls-14, .cls-10 {
        mix-blend-mode: lighten;
      }

      .cls-15 {
        fill: #b3b3b3;
      }

      .cls-2 {
        stroke-width: 9px;
      }

      .cls-16 {
        fill: #a3c0ff;
      }

      .cls-10 {
        fill: #d6eeff;
      }

      .cls-17 {
        fill: #dae6ff;
      }

      .cls-18 {
        fill: #5779bf;
      }

      .cls-19 {
        fill: #d2fdff;
      }
    </style>
  </defs>
  <g class="cls-9">
    <g id="Lag_1-2" data-name="Lag 1">
      <g>
        <path class="cls-16" d="M99.1,17.51l-.35,3.08-24.46,207.17H24.55L.08,20.59c-.27-.76-.41-1.53-.41-2.32,0-.24,0-.51.05-.76,0-.14.03-.29.07-.43C1.14,9.71,15,3.55,33.83,1.32c4.91-.59,10.14-.9,15.58-.9.68,0,1.36,0,2.04.02.46,0,.91,0,1.36.02,11.77.28,22.43,2.03,30.54,4.76,8.95,3,14.81,7.18,15.67,11.85.04.14.05.29.07.43h0Z"/>
        <g>
          <path class="cls-8" d="M76.79,239.13c.04.2.04.43,0,.61-.05.41-.23.68-.47.68H21.44c-.26,0-.46-.38-.47-.84-.03-.18-.01-.38.05-.58l3.27-10.28c.19-.61.54-.96.9-.96h48.84c.2,0,.39.23.46.58l2.3,10.79h0Z"/>
          <path class="cls-17" d="M76.79,239.74c-.05.41-.23.68-.47.68H21.44c-.26,0-.46-.38-.47-.84,2.27-2.41,13.87-4.23,27.84-4.23s26.09,1.9,27.98,4.38h0Z"/>
          <line class="cls-1" x1="21.02" y1="239" x2="76.78" y2="239.14"/>
        </g>
        <path class="cls-17" d="M83.36,5.23l-11.46,222.53h-19.08V.47c11.77.28,22.43,2.03,30.54,4.76Z"/>
        <path class="cls-18" d="M51.46.44v227.31h-11.07L33.84,1.32c4.91-.59,10.14-.9,15.58-.9.68,0,1.36,0,2.04.02Z"/>
        <g>
          <path class="cls-10" d="M27.26,29.29c-1.42,4.11-3.41,7.37-5,8.49-.39.28-.76.42-1.1.42-.38-.07-.74-.37-1.07-.85-.49-.7-.91-1.79-1.24-3.16-.32,1.37-.75,2.47-1.24,3.17-.33.48-.69.77-1.07.85-.33,0-.7-.14-1.1-.42-1.6-1.12-3.58-4.38-5-8.49-1.51-4.36-1.94-8.36-1.21-10.08.54-1.92,2.31-3.33,4.41-3.33,1.33,0,2.53.57,3.37,1.48h0c.08.12.18.24.28.34.4.39.95.63,1.55.63.65,0,1.23-.28,1.64-.72h.01c.03-.05.07-.09.1-.13h0c.84-.98,2.09-1.6,3.48-1.6,2.1,0,3.86,1.41,4.41,3.33.73,1.73.3,5.72-1.21,10.08h-.01Z"/>
          <g class="cls-14">
            <path class="cls-12" d="M27.21,18.83c-1.14.01-1.88.75-1.89,1.89.01-1.14-.7-1.86-1.85-1.85,1.14-.01,1.88-.75,1.89-1.89-.01,1.14.71,1.86,1.85,1.85Z"/>
            <path class="cls-2" d="M27.21,18.83c-1.14.01-1.88.75-1.89,1.89.01-1.14-.7-1.86-1.85-1.85,1.14-.01,1.88-.75,1.89-1.89-.01,1.14.71,1.86,1.85,1.85Z"/>
          </g>
          <g class="cls-14">
            <path class="cls-5" d="M28.21,21.5c-.75,0-1.24.49-1.25,1.25,0-.75-.46-1.23-1.22-1.22.75,0,1.24-.49,1.25-1.25,0,.75.46,1.23,1.22,1.22Z"/>
            <path class="cls-2" d="M28.21,21.5c-.75,0-1.24.49-1.25,1.25,0-.75-.46-1.23-1.22-1.22.75,0,1.24-.49,1.25-1.25,0,.75.46,1.23,1.22,1.22Z"/>
          </g>
        </g>
      </g>
    </g>
  </g>
  <polygon class="cls-4" points="205.84 62.61 200.92 62.61 198.12 3.45 203.03 3.45 205.84 62.61"/>
  <path class="cls-11" d="M250.76,73.37l-4.08,56.08-1.75,24-5.66,77.82c-.25,3.49-2.8,6.18-5.87,6.18h-61.56c-3,0-5.48-2.63-5.71-6.04l-5.23-77.96-1.61-24-3.76-56.08h95.23,0Z"/>
  <path class="cls-3" d="M259.88,70.12c0,1.55-.64,2.96-1.66,3.98-1.02,1.03-2.42,1.66-3.97,1.66h-101.74c-3.09,0-5.63-2.54-5.63-5.64,0-1.55.64-2.96,1.66-3.98,1.02-1.02,2.42-1.65,3.97-1.65h4.02l2.92-5.72h87.16l2.92,5.72h4.72c3.09,0,5.63,2.53,5.63,5.63Z"/>
  <polygon class="cls-6" points="246.68 129.45 244.93 153.45 160.9 153.45 159.29 129.45 246.68 129.45"/>
  <polygon class="cls-7" points="246.88 131.18 245.14 155.18 161.52 155.18 159.92 131.18 246.88 131.18"/>
  <g>
    <path class="cls-13" d="M363.95,10.84v48.61c0,.83-.17,1.65-.49,2.41l-17.33,41.01c-.44,1.05-.67,2.18-.67,3.32v141.62c0,.89.72,1.61,1.61,1.61h7.04c.89,0,1.61-.72,1.61-1.61V106.19c0-1.14.23-2.27.67-3.32l17.33-41.01c.32-.76.49-1.58.49-2.41V10.84c0-.78-.64-1.42-1.42-1.42h-7.42c-.79,0-1.42.64-1.42,1.42Z"/>
    <path class="cls-16" d="M370.12,10.84v48.61c0,.83-.17,1.65-.49,2.41l-17.33,41.01c-.44,1.05-.67,2.18-.67,3.32v141.62c0,.89.72,1.61,1.61,1.61h7.04c.89,0,1.61-.72,1.61-1.61V106.19c0-1.14.23-2.27.67-3.32l17.33-41.01c.32-.76.49-1.58.49-2.41V10.84c0-.78-.64-1.42-1.42-1.42h-7.42c-.79,0-1.42.64-1.42,1.42Z"/>
  </g>
  <path class="cls-19" d="M363.95,12.25v4.23l-17.64.77h-15.62c-.56-2.2-1.23-4.14-2-5.78h17.63l17.64.77h0Z"/>
  <path class="cls-19" d="M363.95,18.3v4.23l-17.64.77h-14.46c-.28-2.06-.64-4-1.09-5.78h15.56l17.64.77h0Z"/>
  <path class="cls-15" d="M363.95,24.35v4.23l-17.64.77h-13.93c-.09-2-.26-3.94-.5-5.78h14.43l17.64.77h0Z"/>
  <path class="cls-15" d="M363.95,30.4v4.23l-17.64.77h-13.9c.03-.9.05-1.81.05-2.74,0-1.03-.02-2.04-.06-3.04h13.92l17.64.77h0Z"/>
  <path class="cls-15" d="M363.95,37.01v4.23l-17.78.77h-14.31c.25-1.83.42-3.77.51-5.77h13.8s17.78.77,17.78.77Z"/>
  <path class="cls-15" d="M363.95,49.89v4.23l-17.78.77h-17.78v-.42c.77-1.5,1.45-3.31,2.03-5.36h15.76l17.78.77h-.01Z"/>
  <path class="cls-15" d="M364.08,43.29v4.24l-17.78.77h-15.66c.47-1.77.85-3.71,1.14-5.77h14.51l17.78.77h0Z"/>
</svg>