<?xml version="1.0" encoding="UTF-8"?>
<svg xmlns="http://www.w3.org/2000/svg" viewBox="0 0 1920 1080">
  <defs>
    <style>
      .cls-1, .cls-2, .cls-3, .cls-4 {
        fill: none;
      }

      .cls-5 {
        fill: #edebeb;
      }

      .cls-6, .cls-7 {
        stroke-width: .1px;
      }

      .cls-6, .cls-7, .cls-8, .cls-9, .cls-2, .cls-3, .cls-4 {
        stroke-miterlimit: 10;
      }

      .cls-6, .cls-7, .cls-9, .cls-2 {
        stroke: #000;
      }

      .cls-6, .cls-10, .cls-11, .cls-12 {
        fill: #fff;
      }

      .cls-13 {
        fill: #fdcaff;
      }

      .cls-7 {
        fill: #ffe9df;
      }

      .cls-14 {
        fill: #d6e8ed;
      }

      .cls-15 {
        fill: #777;
      }

      .cls-16 {
        fill: #6278ba;
      }

      .cls-17 {
        fill: #dda8b7;
      }

      .cls-18 {
        fill: #d5e2e1;
      }

      .cls-19 {
        fill: #edb4ba;
      }

      .cls-10, .cls-20, .cls-21 {
        mix-blend-mode: lighten;
      }

      .cls-22 {
        fill: #002935;
      }

      .cls-23 {
        fill: #ff99d1;
      }

      .cls-24 {
        fill: #fffdfd;
      }

      .cls-8 {
        fill: #e9f8ff;
      }

      .cls-8, .cls-3 {
        stroke: #5c83bc;
      }

      .cls-9 {
        fill: #a67c52;
        stroke-width: .25px;
      }

      .cls-25 {
        fill: #f492cf;
      }

      .cls-26 {
        fill: #4cccc2;
      }

      .cls-27 {
        fill: #ca782c;
      }

      .cls-28 {
        fill: #f1f2f6;
      }

      .cls-29 {
        fill: #bf061d;
      }

      .cls-30 {
        fill: #7a90bf;
      }

      .cls-31 {
        isolation: isolate;
      }

      .cls-32 {
        fill: #c89f73;
      }

      .cls-33 {
        fill: #c4c4c4;
      }

      .cls-34 {
        fill: #efcbb4;
      }

      .cls-35 {
        fill: #88cbe5;
      }

      .cls-36 {
        fill: #c6c6c6;
      }

      .cls-37 {
        fill: #fdb7ff;
      }

      .cls-38 {
        fill: #ff3b4b;
      }

      .cls-39 {
        fill: #d7d9d3;
      }

      .cls-40 {
        letter-spacing: 0em;
      }

      .cls-41 {
        letter-spacing: 0em;
      }

      .cls-42 {
        fill: #515151;
      }

      .cls-12 {
        font-family: MyriadConceptRoman-Regular, 'Myriad Variable Concept';
        font-size: 30px;
        font-variation-settings: 'wght' 400, 'wdth' 100;
      }

      .cls-43 {
        fill: #5e99ae;
      }

      .cls-44 {
        letter-spacing: 0em;
      }

      .cls-45 {
        fill: #ff0;
      }

      .cls-46 {
        letter-spacing: 0em;
      }

      .cls-47 {
        fill: #8d6033;
      }

      .cls-48 {
        fill: #eae0a4;
      }

      .cls-49 {
        fill: #fdaeff;
      }

      .cls-50 {
        fill: #fff0d9;
      }

      .cls-20 {
        fill: #d6eeff;
      }

      .cls-51 {
        fill: #b5cdff;
      }

      .cls-52 {
        fill: #fffffd;
      }

      .cls-53 {
        fill: #cec2b8;
      }

      .cls-54 {
        fill: #e8e9ea;
      }

      .cls-55 {
        fill: #b14d2b;
      }

      .cls-56 {
        fill: #f3ceaf;
      }

      .cls-57 {
        fill: #c97e41;
      }

      .cls-58 {
        fill: #b3b3b3;
      }

      .cls-59 {
        fill: #a3c0ff;
      }

      .cls-60 {
        letter-spacing: -.06em;
      }

      .cls-61 {
        font-family: Modak, Modak;
        font-size: 72px;
      }

      .cls-61, .cls-62 {
        fill: #497c89;
      }

      .cls-63 {
        letter-spacing: -.05em;
      }

      .cls-64 {
        fill: #dae6ff;
      }

      .cls-65 {
        fill: #ede6b4;
      }

      .cls-66 {
        fill: #fcfcfc;
      }

      .cls-67 {
        letter-spacing: -.01em;
      }

      .cls-68 {
        letter-spacing: -.01em;
      }

      .cls-69 {
        fill: #2f596d;
      }

      .cls-70 {
        letter-spacing: -.04em;
      }

      .cls-71 {
        letter-spacing: -.04em;
      }

      .cls-72 {
        letter-spacing: -.03em;
      }

      .cls-73 {
        letter-spacing: 0em;
      }

      .cls-74 {
        letter-spacing: 0em;
      }

      .cls-75 {
        letter-spacing: 0em;
      }

      .cls-76 {
        letter-spacing: 0em;
      }

      .cls-77 {
        letter-spacing: 0em;
      }

      .cls-78 {
        letter-spacing: -.01em;
      }

      .cls-79 {
        letter-spacing: -.01em;
      }

      .cls-80 {
        letter-spacing: -.01em;
      }

      .cls-81 {
        letter-spacing: -.01em;
      }

      .cls-82 {
        fill: #673a94;
      }

      .cls-83 {
        letter-spacing: 0em;
      }

      .cls-84 {
        letter-spacing: 0em;
      }

      .cls-85 {
        letter-spacing: 0em;
      }

      .cls-86 {
        letter-spacing: 0em;
      }

      .cls-87 {
        letter-spacing: 0em;
      }

      .cls-88 {
        letter-spacing: 0em;
      }

      .cls-89 {
        fill: #e3f7ff;
      }

      .cls-90 {
        fill: #f2d0b6;
      }

      .cls-91 {
        fill: #bbbebf;
      }

      .cls-92 {
        letter-spacing: .02em;
      }

      .cls-93 {
        letter-spacing: .02em;
      }

      .cls-94 {
        fill: #5779bf;
      }

      .cls-95 {
        letter-spacing: .02em;
      }

      .cls-96 {
        fill: #ce9db6;
      }

      .cls-97 {
        letter-spacing: .02em;
      }

      .cls-98 {
        letter-spacing: .02em;
      }

      .cls-99 {
        letter-spacing: 0em;
      }

      .cls-100 {
        letter-spacing: 0em;
      }

      .cls-101 {
        letter-spacing: 0em;
      }

      .cls-4 {
        stroke: #777;
      }

      .cls-102 {
        fill: #d2fdff;
      }

      .cls-103 {
        letter-spacing: 0em;
      }

      .cls-104 {
        letter-spacing: 0em;
      }

      .cls-105 {
        fill: #7f6f62;
      }
    </style>
  </defs>
  <g class="cls-31">
    <g id="Lag_1" data-name="Lag 1">
      <g>
        <path class="cls-8" d="M772.3,1097.03c6.65-.56,13.31-.92,19.99-1.04,36.94-.66,73.52,5.23,109.93,10.68,18.22,2.73,36.46,5.33,54.83,6.88,19.49,1.64,39.07,1.73,58.62,1.87,80,.57,159.96-2.68,239.96-2.67,78.77.02,157.4,5.21,236.03,9.3,78.71,4.09,157.86,7.44,236.61,2.52,63.7-3.97,127.46-11.44,191.23-8.86v-328.23H-.5v302.82c36.18.12,72.28,2.77,108.41,4.42,31.89,1.45,63.9,2.08,95.73-.72,19.7-1.73,42.6-9.2,61.88-2.03.29.11.56.23.84.34.8-1.03,2.05-1.74,3.76-1.74,28.52.02,57.05,1.14,85.21,5.98l164.83,1.25c26.24-1.29,52.52-1.72,78.79-1.88,26.55-.15,53.07.31,79.57-1.73,12.95-.99,26.06-1.86,38.93-3.63,8.66-1.19,17.13-3.4,25.88-4.03,11.71-.84,21.64,2.55,28.98,10.48Z"/>
        <polyline class="cls-3" points="1919.5 1076.65 1818.45 1076.65 1717.39 1076.65 1616.34 1076.65 1515.29 1076.65 1414.24 1076.65 1313.18 1076.65 1212.13 1076.65 1111.08 1076.65 1010.03 1076.65 908.97 1076.65 807.92 1076.65 706.87 1076.65 605.82 1076.65 504.76 1076.65 403.71 1076.65 302.66 1076.65 201.61 1076.65 100.55 1076.65 -.5 1076.65"/>
        <polyline class="cls-3" points="1919.5 1004.36 1818.45 1004.36 1717.39 1004.36 1616.34 1004.36 1515.29 1004.36 1414.24 1004.36 1313.18 1004.36 1212.13 1004.36 1111.08 1004.36 1010.03 1004.36 908.97 1004.36 807.92 1004.36 706.87 1004.36 605.82 1004.36 504.76 1004.36 403.71 1004.36 302.66 1004.36 201.61 1004.36 100.55 1004.36 -.5 1004.36"/>
        <polyline class="cls-3" points="1919.5 932.07 1818.45 932.07 1717.39 932.07 1616.34 932.07 1515.29 932.07 1414.24 932.07 1313.18 932.07 1212.13 932.07 1111.08 932.07 1010.03 932.07 908.97 932.07 807.92 932.07 706.87 932.07 605.82 932.07 504.76 932.07 403.71 932.07 302.66 932.07 201.61 932.07 100.55 932.07 -.5 932.07"/>
        <polyline class="cls-3" points="1919.5 859.79 1818.45 859.79 1717.39 859.79 1616.34 859.79 1515.29 859.79 1414.24 859.79 1313.18 859.79 1212.13 859.79 1111.08 859.79 1010.03 859.79 908.97 859.79 807.92 859.79 706.87 859.79 605.82 859.79 504.76 859.79 403.71 859.79 302.66 859.79 201.61 859.79 100.55 859.79 -.5 859.79"/>
        <path class="cls-3" d="M1818.45,1107.91c-.45-106.91-.45-212.91,0-320.41"/>
        <path class="cls-3" d="M1717.39,1116.63c-.39-109.63-.39-218.63,0-329.13"/>
        <path class="cls-3" d="M1616.34,1118.72c-.34-109.72-.34-220.72,0-331.22"/>
        <path class="cls-3" d="M1515.29,1114.54c-.29-108.54-.29-217.54,0-327.04"/>
        <path class="cls-3" d="M1414.24,1107.91c-.24-106.91-.24-212.91,0-320.41"/>
        <path class="cls-3" d="M1313.18,1103.78c-.18-104.78-.18-210.78,0-316.28"/>
        <path class="cls-3" d="M1212.13,1103.78c-.13-104.78-.13-210.78,0-316.28"/>
        <path class="cls-3" d="M1111.08,1105.84c-.08-105.84-.08-211.84,0-318.34"/>
        <path class="cls-3" d="M1010.03,1105.84c-.03-105.84-.03-211.84,0-318.34"/>
        <path class="cls-3" d="M908.97,1097.18c.03-103.18.03-206.18,0-309.68"/>
        <path class="cls-3" d="M807.92,1086.54c.08-99.54.08-198.54,0-299.04"/>
        <path class="cls-3" d="M706.87,1085.56c.13-98.56.13-198.56,0-298.06"/>
        <path class="cls-3" d="M605.82,1090.82c.18-100.82.18-201.82,0-303.32"/>
        <path class="cls-3" d="M504.76,1093.45c.24-102.45.24-203.45,0-305.95"/>
        <path class="cls-3" d="M403.71,1097.5c.29-103.5.29-206.5,0-310"/>
        <path class="cls-3" d="M302.66,1085.56c.34-98.56.34-198.56,0-298.06"/>
        <path class="cls-3" d="M201.61,1090.82c.39-100.82.39-201.82,0-303.32"/>
        <path class="cls-3" d="M100.55,1090.82c.45-100.82.45-201.82,0-303.32"/>
      </g>
      <rect class="cls-89" x="-.5" y="-.5" width="1920" height="788"/>
    </g>
    <g id="Lag_3" data-name="Lag 3">
      <rect class="cls-43" x="1563.15" y="670.51" width="76.9" height="69.84" rx="15" ry="15" transform="translate(30.5 1476.41) rotate(-49.91)"/>
      <rect class="cls-62" x="1554.45" y="671.03" width="76.9" height="63.94" rx="15" ry="15" transform="translate(3172.92 -28.5) rotate(131.34)"/>
      <path class="cls-69" d="M1632.13,737.91l-95.3-12.16c.12.44.19.91.2,1.43.05,13.14-6.36,25.16-6.49,38.22,0,.17-.01.33-.03.48l18.45,2.35-67.92,84.15c-4.15,5.14-3.33,12.73,1.8,16.87l12.55,10.13-127.1.12c-.97,0-1.91.1-2.84.28-3.25-.11-6.55.78-9.39,2.78l-25.93,18.24c-.22.13-.45.25-.66.39l-47.81,31.38c-1.05.37-2.06.89-3.01,1.58l-50.58,36.69-89.08.08c-6.6,0-12,5.41-11.99,12.01v7c.01,6.6,5.42,11.99,12.02,11.99l94-.09c1.78,0,3.47-.41,4.99-1.11,1.54-.35,3.03-1,4.38-1.98l48.11-34.9,28.73-18.86c1.87-.44,3.7-1.22,5.36-2.39l45.62-32.09,143.22-.13c1.13,0,2.23-.13,3.29-.37,4.05-.23,7.99-2.08,10.73-5.46l10.67-13.22c1.64-.88,3.15-2.05,4.42-3.54l94.29-110.32c2.57-3.01,3.76-6.73,3.68-10.42l2-15.7c.84-6.55-3.84-12.59-10.38-13.42Z"/>
      <rect class="cls-43" x="1174" y="706" width="84" height="73" rx="15" ry="15"/>
      <rect class="cls-62" x="1183" y="707" width="84" height="73" rx="15" ry="15"/>
      <rect class="cls-43" x="1189" y="846.6" width="122.58" height="32.4" rx="16" ry="16"/>
      <path class="cls-18" d="M1184.14,977.74c-2.07-3.39-4.84-6.05-7.95-7.92-.04-.62-.09-1.25-.15-1.9l.49-.16-.82-2.53c-1.32-9.22-4.96-20.21-10.75-31.29-12.84-24.53-31.38-40.15-41.43-34.9-10.04,5.26-7.78,29.4,5.05,53.93,2.69,5.14,5.63,9.88,8.69,14.13h-.03s3.95,12.15,3.95,12.15l.07-.02,2.37,7.29c.12.37.33.68.59.93l.77,1.52c.41.8,1.05,1.39,1.79,1.75.51,2.72,1.52,5.43,3.07,7.97,6.34,10.37,19.15,14.08,28.61,8.3,9.47-5.78,12-18.88,5.67-29.25Z"/>
      <path class="cls-33" d="M1144.87,992.12c-2.02-6.41,6.86-12.54,16.27-15.11,8.43-2.3,17.28-1.76,19.08,3.99,3.83,12.16-.99,24.51-10.75,27.58-9.76,3.07-20.78-4.3-24.6-16.46Z"/>
      <path class="cls-18" d="M1236.8,977.18c-2.07-3.39-4.84-6.05-7.95-7.92-.04-.62-.09-1.25-.15-1.9l.49-.16-.82-2.53c-1.32-9.22-4.96-20.21-10.75-31.29-12.84-24.53-31.38-40.15-41.43-34.9-10.04,5.26-7.78,29.4,5.05,53.93,2.69,5.14,5.63,9.88,8.69,14.13h-.03s3.95,12.15,3.95,12.15l.07-.02,2.37,7.29c.38,1.18,1.64,1.82,2.81,1.46.24,3.63,1.35,7.31,3.42,10.71,6.34,10.37,19.15,14.08,28.61,8.3,9.47-5.78,12-18.88,5.67-29.25Z"/>
      <path class="cls-33" d="M1197.15,989.96c-1.12-6.74,9.49-11.77,20.07-13.14,9.48-1.23,18.95.47,19.95,6.51,2.12,12.78-5.12,24.62-16.18,26.45-11.05,1.83-21.73-7.04-23.85-19.82Z"/>
      <path class="cls-57" d="M1347,844h-32.27c-4.18-2.86-8.26-5.83-12.21-9l-86.64,58.12c-5.75,3.86-6.53,10.8-1.72,15.42l15.3,14.7c4.81,4.62,13.45,5.24,19.2,1.38l88.88-59.62h9.47v-21Z"/>
      <path class="cls-22" d="M1390,832h-95c-3.31,0-6,2.69-6,6s2.69,6,6,6h34v17h27v-17h34c3.31,0,6-2.69,6-6s-2.69-6-6-6Z"/>
      <path class="cls-27" d="M1503.28,862.05l-37.6-21.71c-.81-.47-1.75-.5-2.57-.19-.79-.17-1.62-.26-2.46-.26h-119.47c-3.59,0-6.81,1.6-9.02,4.12l-90.63,75.72c-5.06,4.23-5.75,11.84-1.52,16.9l13.46,16.12c4.23,5.06,11.84,5.75,16.9,1.51l83.03-69.37h107.23c6.6,0,12-5.4,12-12v-5.43l6.17,3.56c-.53,1.22-.83,2.56-.83,3.98,0,5.52,4.48,10,10,10,4.49,0,8.28-2.95,9.55-7.02l6.83-11.83c.83-1.43.34-3.27-1.1-4.1Z"/>
      <rect class="cls-43" x="1286.2" y="823.2" width="112.8" height="17" rx="8.5" ry="8.5"/>
      <path class="cls-55" d="M1468,858h-119.47c-3.59,0-6.81,1.43-9.02,3.66l-90.63,67.32c-5.06,3.76-5.75,10.52-1.52,15.03l13.46,14.33c4.23,4.5,11.84,5.11,16.9,1.35l83.03-61.68h107.23c6.6,0,12-4.8,12-10.67v-18.67c0-5.87-5.4-10.67-12-10.67Z"/>
      <path class="cls-62" d="M1540.09,943.15v-.42l98.74-113.41c6.44-7.39,5.3-18.31-2.53-24.38h0c-7.83-6.07-19.4-5-25.84,2.39l-82.58,94.85c-3.49,4-8.69,6.33-14.18,6.33h-141.51v1.22l-.81-1.07-130.36,88.04c-3.12,2.1-6.85,3.24-10.68,3.24h-96.98c-10.14,0-18.36,7.76-18.36,17.32v10.42c0,9.57,8.22,17.32,18.36,17.32h127.35c10.14,0,18.36-7.76,18.36-17.32v-5.16c0-5.59,2.86-10.83,7.67-14.09l91.87-62.05c3.12-2.1,6.85-3.24,10.68-3.24h150.8Z"/>
      <rect class="cls-35" x="1128" y="1071" width="492" height="7" rx="3.5" ry="3.5"/>
      <path class="cls-22" d="M1502,1037h-30v-82h-141.26c-30.23,0-54.74,24.51-54.74,54.74v27.26h-33c-6.6,0-12,5.4-12,12v11c0,6.6,5.4,12,12,12h259c6.6,0,12-5.4,12-12v-11c0-6.6-5.4-12-12-12Z"/>
      <path class="cls-22" d="M1474,955c0-2.21-14.77-4-33-4s-29,2-33,4c-1.98.99,14.77,4,33,4s33-1.79,33-4Z"/>
      <path class="cls-22" d="M1480,939v18h-30v-5.04c.33.03.66.04,1,.04,7.73,0,14-5.6,14-12.5,0-.17,0-.34-.02-.5h15.02Z"/>
      <path class="cls-43" d="M1539.08,952.35v-.44l99.52-121.12c6.49-7.89,5.34-19.55-2.55-26.04h0c-7.89-6.49-19.55-5.34-26.04,2.55l-83.23,101.3c-3.51,4.28-8.76,6.76-14.29,6.76h-142.62v1.31l-.81-1.14-131.39,94.03c-3.14,2.25-6.9,3.46-10.77,3.46h-97.74c-10.22,0-18.5,8.28-18.5,18.5v11.12c0,10.22,8.28,18.5,18.5,18.5h128.35c10.22,0,18.5-8.28,18.5-18.5v-5.51c0-5.97,2.88-11.57,7.73-15.04l92.59-66.26c3.14-2.25,6.9-3.46,10.77-3.46h151.98Z"/>
      <path class="cls-33" d="M1211.05,937.95c-13.68-24.22-31.91-39.82-40.71-34.85-8.8,4.97-4.84,28.63,8.84,52.85,2.22,3.93,4.56,7.63,6.96,11.05h36.81c-2.08-8.67-6.12-18.81-11.91-29.05Z"/>
      <line class="cls-1" x1="1187.26" y1="968.56" x2="1223" y2="969"/>
      <path class="cls-33" d="M1159.8,937.95c-14.02-24.22-32.69-39.82-41.71-34.85-9.01,4.97-4.96,28.63,9.06,52.85,2.27,3.93,4.67,7.63,7.13,11.05h37.71c-2.13-8.67-6.27-18.81-12.2-29.05Z"/>
      <rect class="cls-22" x="1201" y="779" width="26" height="69"/>
      <path class="cls-22" d="M1532.5,832h-100c-3.59,0-6.5,2.91-6.5,6.5s2.91,6.5,6.5,6.5h32.5v117h16.83c6.17,0,11.17-5,11.17-11.17v-105.83h39.5c3.59,0,6.5-2.91,6.5-6.5s-2.91-6.5-6.5-6.5Z"/>
      <rect class="cls-43" x="1419" y="823" width="125" height="17" rx="8.5" ry="8.5"/>
    </g>
    <g id="Lag_4" data-name="Lag 4">
      <path class="cls-22" d="M1396.31,837.96v.04c-.02,3.29-2.69,5.96-6,5.96h-34v4.04h-27v-4.04h-34c-2.13,0-4.01-1.12-5.07-2.8-.59-.92-.93-2.02-.93-3.2,0-3.31,2.69-6,6-6h95c3.32,0,6,2.69,6,6Z"/>
      <path class="cls-28" d="M1403.61,755.1l-2.25-21.88-4.7.48-1.09-20.74-101.55,5.32-20.9-32.11c-1.39-4.26-3.38-8.91-5.9-13.63-7.79-14.55-17.91-24.48-23.29-23.12-5.72-.16-13.1,4.7-18.39,12.68-1.06,1.6-1.95,3.23-2.71,4.85-1.82,2.74-2.98,5.9-3.28,9.28-2.47,7.33.97,19.39,9.32,30.29,4.11,5.37,8.81,9.66,13.44,12.58l51.13,42.74c1.65,1.38,3.57,2.18,5.55,2.45,1.07.45,2.25.7,3.48.7h9c1.33,0,2.6-.3,3.74-.82l88.4-9.08Z"/>
      <rect class="cls-22" x="1329" y="843" width="28" height="5"/>
      <rect class="cls-43" x="1286.51" y="823.16" width="112.8" height="17" rx="8.5" ry="8.5"/>
      <g>
        <ellipse cx="1547" cy="632" rx="6" ry="4" transform="translate(366.7 1815.01) rotate(-67.29)"/>
        <ellipse cx="1515.89" cy="627.74" rx="6" ry="4" transform="translate(351.53 1783.69) rotate(-67.29)"/>
        <path class="cls-47" d="M1511.01,617.79s-.54-.31-.53-.71c.03-2.59,3.75-4.63,8.31-4.57,4.56.06,8.73,1.74,8.19,4.79-.07.39-.49.46-.49.46-1.25-.7-3.37-2.28-7.21-2.33s-5.9.72-8.25,2.36Z"/>
        <path class="cls-47" d="M1544.33,619.97s-.6-.46-.51-.84c.6-2.52,5.65-3.46,11.28-2.12,5.63,1.35,10.43,4.16,9.1,6.99-.17.36-.71.31-.71.31-1.4-1.04-3.68-3.18-8.43-4.31s-7.46-.96-10.73-.03Z"/>
        <path class="cls-34" d="M1526.28,646.48s-.04.4-.27.51c-1.54.69-3.77-.93-4.99-3.63-1.22-2.7-1.38-5.62.58-6.15.25-.07.41.16.41.16-.07.93-.42,2.61.61,4.89,1.03,2.28,2.05,3.28,3.67,4.21Z"/>
        <path class="cls-96" d="M1536.67,664.15c-.01.13-.02.23-.03.32,0,0,0-.01,0-.02.16-1.31.27-2.63.65-3.9.04-.14.11-.26.16-.39-9.3-4.77-19.72-7.32-30.17-7.38l-.05-.26c-3.84,8.46,1.59,19.75,10.59,22.04,7.51,1.91,15.81-2.89,18.75-9.92.03-.17.05-.33.1-.5Z"/>
        <path class="cls-11" d="M1537.13,663.15c-.01.14-.02.25-.03.35,0,0,0,0,0,0,.16-1.33.28-2.66.67-3.95.06-.2.15-.37.23-.56-5.8-2.35-10.93-4.3-17.78-5.87-2.23-.51-5.58-.62-8.78-1.09-1.51-.22-3.45-.23-4.39.02-.29.08-.95,3.4-.84,3.61.4.73,3.2.3,3.97.43.05,0,.1,0,.15,0,.57-.01,1.15,0,1.72.08.12.02.24.03.36.05.41.02.82.08,1.22.16.16,0,.33,0,.52.01,8.45.28,17.02,2.94,22.92,7.07.02-.11.03-.22.06-.32Z"/>
        <path class="cls-19" d="M1533.32,670.21c-7.98-1.82-16.23-3.3-24.32-2.21,5.7,9.07,17.24,9.87,24,2"/>
        <path class="cls-11" d="M1514,673c2.91,3.67,11.14,4,16,0-4.77-2.35-11.24-2.71-16.15-.66"/>
      </g>
    </g>
    <g id="Lag_5" data-name="Lag 5">
      <path class="cls-48" d="M1252.22,583.47c5.01.27,15.2,3.65,17.78,14.53,1.8,7.58,1.96,16.17,2.19,23.92.06,1.88.1,3.82-.63,5.57-.84,2.01-5.04,2.9-6.56,4.51-5.75,6.09-10.06,16.49-14,14,2.64-20.97,3.45-42.14,2.44-63.24"/>
      <path class="cls-90" d="M1292.87,559.89c-4.08,5.73-10.64,11.04-14.85,15.07-.24-6.24-1.97-12.26-7.34-14.76-6.24-2.9-14.18,1.75-16.2,8.32-2.03,6.57.82,13.9,5.58,18.86,2.41,2.51,5.58,4.6,8.93,5.14.85,11.98,6.38,22.82,16.02,29.35,3.56-8.81,8.44-17.07,12-25.88,14.95,10.08,35.75-7.07,50,1,5.17,2.93,13.15,7.05,18.21,1.87,2.05-2.1,2.32-6.83,2.79-9.87,1.4-9.09.61-16.12,3-24-26.8,2.19-51.82.47-78.13-5.11Z"/>
      <path class="cls-54" d="M1347.32,702.45c-3.21-11.28-13.33-18.23-22.62-15.53-6.32,1.84-10.61,7.68-11.71,14.77-4.41-3.76-9.98-5.37-15.28-3.83-9.11,2.65-14.01,13.6-11.17,24.66h-13.53v-26.31c0-10.06-8.06-18.22-18-18.22h-30.57c-3,0-5.43,2.46-5.43,5.5v163.5h54c28.72,0,52-23.28,52-52v-68.43c3.56,1.77,7.5,2.31,11.3,1.2,9.29-2.7,14.22-14.04,11.01-25.32Z"/>
      <rect class="cls-54" x="1376" y="670" width="26" height="70" transform="translate(905.34 -775.68) rotate(45)"/>
      <circle class="cls-54" cx="1352.5" cy="753.5" r="17.5"/>
      <path class="cls-28" d="M1403.37,755.1l-2.25-21.88-4.7.48-1.09-20.74-101.55,5.32-20.9-32.11c-1.39-4.26-3.38-8.91-5.9-13.63-7.79-14.55-17.91-24.48-23.29-23.12-5.72-.16-13.1,4.7-18.39,12.68-1.06,1.6-1.95,3.23-2.71,4.85-1.82,2.74-2.98,5.9-3.28,9.28-2.47,7.33.97,19.39,9.32,30.29,4.11,5.37,8.81,9.66,13.44,12.58l51.13,42.74c1.65,1.38,3.57,2.18,5.55,2.45,1.07.45,2.25.7,3.48.7h9c1.33,0,2.6-.3,3.74-.82l88.4-9.08Z"/>
      <ellipse class="cls-54" cx="1399" cy="734" rx="6" ry="21.59" transform="translate(-126.98 324.93) rotate(-12.68)"/>
      <path class="cls-90" d="M1308,627.77v34.23h-11.29c-13.65,0-24.71-11.06-24.71-24.71v-36.29h1.32c-.21.97-.32,1.96-.32,2.97,0,11.96,15.13,21.89,35,23.81Z"/>
      <polygon class="cls-36" points="1309.35 695.78 1313.72 683.08 1329.82 669.9 1342 691 1309.35 695.78"/>
      <path class="cls-36" d="M1308.42,696.8l-12.06-22.91c-.34-.66-1.27-.69-1.67-.07l-13.81,21.77c-.4.63.03,1.45.77,1.48l25.87,1.14c.74.03,1.24-.75.89-1.41Z"/>
      <path class="cls-66" d="M1271.06,629c-9.47,5.79-19.94,15.42-16.33,25.84,1.26,3.62,4.07,6.46,6.64,9.33,8.6,9.59,15.31,20.84,19.65,32.93.28.78,1.26,1.03,1.87.47l16.82-15.28c.57-.52.8-.16,1.13.54l3.06,6.07,4.58,8.27c-1.8-13.16-12.05-23.34-21.14-33.1s-18.06-21.79-16.35-34.97"/>
      <path class="cls-66" d="M1309.59,695.47c2.3-5.93,6.15-11.29,11.11-15.45,7.64,3.69,14.67,8.29,22.3,11.99-8.77-19.41-20.86-40.79-35-57-.42,8.22-.63,19.48,0,28,.84,11.24,1.72,22.75,1,34"/>
      <path class="cls-54" d="M1254.56,645.17c-3.52,1.35-7.04,2.71-10.56,4.06,4.32.15,8.53,2.73,11,6.77-1.02-3.12-.55-6.73,0-10,.07-.4.91-1.61,1-2"/>
      <path class="cls-54" d="M1264,667c3.2,5.44,5.8,13.56,9,19,3.47,5.89,7.53,11.11,11,17-3-12.36-9.25-24.1-18.1-34"/>
      <path class="cls-54" d="M1334.86,715.69c4.64-.05,9.26-.02,13.84.09,3.39.08-2.8-21.53-6.72-23.72-4.45-2.49-16.83,3.03-21.52,3.84-1.47.25-3.46.5-6.46,1.11-7.57,1.53-18.04,1.02-25,0-5.74-.84-13.26-.47-9-1,.56,3.47,4.48,8.88,7,12,2.69,3.34,5.01,6.42,7.08,10.13,13.34-1.52,27.16-2.31,40.79-2.44Z"/>
      <path class="cls-54" d="M1333,694c-6.59.29-16.68-.88-23,1-1.35.4.32,2.53-1,3,7.89-.52,19.62-.17,27-3"/>
      <path class="cls-17" d="M1280.73,655c7.53,5.42,17.09,7.96,26.32,7,2.87,11.94,3.65,24.38,2.3,36.58-6.09-16.31-16.27-31.09-29.36-42.62"/>
      <ellipse class="cls-36" cx="1413.87" cy="680.64" rx="1.48" ry="13.09" transform="translate(-71.19 1187.49) rotate(-44.55)"/>
      <g>
        <path class="cls-29" d="M1248.07,963.38c-.57-2.85-.02-5.78.04-8.69.32-15.03-11.93-26.91-23.4-36.72-.3-.25-.73-.23-1.01.05,0,0,0,0-.01.01-.33.33,8.57,7.36,8.31,6.97-.3-.46-19.13-21.04-25.44-25.24-6.28-4.18-14.81-5.83-21.5-2.74-.55.25-.58,1.03-.05,1.32,9.94,5.59,18.41,13.33,24.99,22.65,2.13,3.03,7.59,9.62,3.78,3.64-.14.06-.28.13-.42.18,5.35,7.7,10.65,21.18,13.65,32.18.01.04,0,.95,0,1,1.89,9.86,6.47,13.61,7.91,17.63,2.42,6.77,7.69,13.99,5.31,20.27-.25.67.45,1.29,1.07.93,9.91-5.92,18.23-14.5,23.85-24.58.34-.62.52-4.53-.12-4.25-6.11,2.72-15.58,2.16-16.93-4.62Z"/>
        <line class="cls-82" x1="1228" y1="962" x2="1231.82" y2="969.46"/>
      </g>
      <path class="cls-50" d="M1267.51,964.22c-3.11,7.16-13.63,7.75-18.44,1.98-4.62-5.52-4.31-14.4-.82-21.01,6.42,6.35,12.85,12.68,19.26,19.03Z"/>
      <path class="cls-29" d="M1178.96,954.3c-7.01-10.48-11.89-29.76-15.7-45.33-2.94-11.98-17.2-19.5-34.44-12.04,25.4,12.13,39.22,41.32,46.96,68.28.04.41.12.89.24,1.4.27,1.16.67,2.08.94,2.28.02.04.03.07.05.11,1.28,2.55,4.58,5.46,5,6,7,9,5,12,5.63,20,2.76-1.56,5.51-3.12,8.27-4.68,1.27-13.58-9.41-24.75-16.94-36.02Z"/>
      <path class="cls-56" d="M1402.15,792.95c-2.8-2.69-6.66-4.07-10.64-4.9-1.76-.46-3.51-.04-4.91,1.08l-.26.17c-.81.56-1.83.92-2.84,1.12-7.51,1.66-15.05,3.21-22.61,4.66-10.7,2.04-21.43,3.87-32.2,5.48-.08,0-.15.02-.22.03h0c-5.96.99-11.92,2-17.87,3,0,.04,0,.08,0,.11-5.56.59-11.13,1.18-16.7,1.76,0,.03,0,.06,0,.09-8.88-.1-19.46-.18-26.5,5-6.53,4.81-8.99,15.87-4.81,22.31.78,1.2,1.77.99,2.06-.41.5-2.44.75-4.98.75-7.9,0-1.73.3-3.34.58-4.84-.72,6.56-.96,16.51,1.42,17.84,1.01.56,1.87-1.85,2-3v-9l.76-3.81c.16-.79.47-1.53.91-2.2l1.33-.99c-4,8-2,10-2,17,0,3.18,2.33,5.7,4,3-.33-4.45-.89-8.34,0-12,.99-4.06,0-4,3-8-1.91,7.45-1.91,10.37-1,18,.15,1.25,1.8,2.4,3,2,1.32-.44,1.82-.77,2-1,0,0-.09-.55,0-2,.13-2.24-.68-3.78-1-6-.61-4.23,2.84-8.52,7.13-11.18-3.3,3.07-11.28,13.1-1.75,12.3,2.03-.17,4.56-4.95,7.05-6.79.2-.15.42-.33.65-.53,8.33-.01,17.03.32,24.92.2,7.25-.12,14-1,21.56-.24l-.19-.14c11.86.66,23.95.01,35.76-.24,10.23-.42,21.85-2.15,28.11-11.53,3.85-5.55,3.48-13.85-1.48-18.46Z"/>
      <path class="cls-15" d="M1404,770s0-.07,0-.11c-.06-.02-.13-.03-.19-.05.06.04.13.09.19.16Z"/>
      <path class="cls-53" d="M1587,747c-.81-2.57-3.11-9.07-5-11-5.95-6.07-19.59-10.25-28-9-17.39,2.59-61.58,19.51-60.67,1.95.59-11.37-35.66-5.72-44.14,7.04l-.3-.14-40.39,35.85,20.12,19.93-8.36,12.06h0c31.33,21.71,74.34,13.92,96.05-17.42l6.47-9.33-.81-.56c14.71,4.27,28.41,10.37,33.02,23.63,19.01-8.47,38.26-33.15,32-53Z"/>
      <path class="cls-105" d="M1563.64,726.1c-3.35-4.09-6.69-8.17-10.04-12.26-1.51-1.85-22.16,5.02-40.69,12.34l-8.69-4.07c-.8-4.02-1.11-7.17-.35-8.19l-.74-.76c-9.47,6-16.5,15.73-19.22,26.6,1.58-1.43,6.19-3.81,12.32-6.58l-16.5,20.13c-.57.7-.25,1.75.61,2.01l8.01,2.39c.54.16,1.11-.05,1.42-.53,5.15-8.01,11-15.59,17.46-22.65,1.53,5.82,2.95,11.17,3.04,13.39,19.28-2.47,37.88-10.07,53.37-21.82Z"/>
      <path class="cls-105" d="M1553.74,795.86c-1.55-3.83-4.88-6.63-8.26-9.01-8.38-5.89-17.92-10.13-27.9-12.43-.05.05-.11.1-.16.15-.03.04-.06.07-.08.11h0c-3.12,4.31-6.24,8.6-9.36,12.9,15.56,4.25,27.36,19.59,27.47,35.72,5.27-2.95,10.67-5.99,14.55-10.62,3.89-4.62,6.01-11.23,3.73-16.83Z"/>
      <path class="cls-105" d="M1404,769.89s0,.07,0,.11c-.06-.06-.13-.12-.19-.16-.15-.04-.29-.08-.44-.12-.12,0-.24.04-.36.09,0,.06,0,.12,0,.18,0-.06,0-.12,0-.18-.64.29-1.29,1.12-1.93,1.17-6.84,3.88-12.4,9.98-15.64,17.14,10.81-1.07,21.74,7.11,23.76,17.78,8.75,1.65,18.21-4.89,19.75-13.67-4.3-10.74-13.84-19.17-24.94-22.36Z"/>
      <path class="cls-90" d="M1525.96,796.24c-2.5-2.69-5.94-4.07-9.5-4.9-1.57-.46-3.13-.04-4.38,1.08l-.23.17c-.72.56-1.63.92-2.54,1.12-6.7,1.66-13.43,3.21-20.17,4.66-9.54,2.04-19.12,3.87-28.73,5.48-.07,0-.13.02-.2.03h0c-5.31.99-10.63,2-15.94,3,0,.04,0,.08,0,.11-4.96.59-9.93,1.18-14.9,1.76,0,.03,0,.06,0,.09-7.92-.1-17.36-.18-23.64,5-5.83,4.81-8.02,15.87-4.29,22.31.69,1.2,1.58.99,1.83-.41.45-2.44.67-4.98.67-7.9,0-1.73.27-3.34.51-4.84-.64,6.56-.85,16.51,1.27,17.84.9.56,1.66-1.85,1.78-3v-9l.68-3.81c.14-.79.42-1.53.81-2.2l1.18-.99c-3.57,8-1.78,10-1.78,17,0,3.18,2.08,5.7,3.57,3-.29-4.45-.8-8.34,0-12,.88-4.06,0-4,2.68-8-1.7,7.45-1.71,10.37-.89,18,.13,1.25,1.61,2.4,2.68,2,1.18-.44,1.63-.77,1.78-1,0,0-.08-.55,0-2,.12-2.24-.6-3.78-.89-6-.55-4.23,2.53-8.52,6.36-11.18-2.95,3.07-10.06,13.1-1.56,12.3,1.81-.17,4.06-4.95,6.29-6.79.18-.15.38-.33.58-.53,7.43-.01,15.19.32,22.24.2,6.47-.12,12.49-1,19.23-.24l-.17-.14c10.58.66,21.37.01,31.9-.24,9.13-.42,26.21,4.15,31.79-5.22,3.44-5.55-3.61-20.15-8.04-24.76Z"/>
      <g>
        <path class="cls-90" d="M1599.63,658.47c-6.82.41-13.4,4.8-17.29,10.69-5.64-3.72-2.86-12.63-.51-19.4,3.91-11.28,4.12-23.8.59-35.21-3.34-10.8-14.38-16.91-25.68-16.93s-21.96,4.86-32.2,9.64c.5-4.14,1.24-8.23,1.74-12.37-8.08.38-13.42,8.36-17.01,15.61-5.81,11.76-10.63,24.01-14.39,36.58-3.73,12.48-6.39,26.03-2.21,38.37,3.08,9.11,9.99,15.2,18.33,18.46-2.85,2.77-6.77,5.37-7.99,9.07-1.29,3.9-.55,8.93,3,11,3.34,1.95,9.09,1.08,12.76-.16,9.68-3.28,19.36-6.56,29.04-9.85,1.52-.36,3.04-.71,4.56-1.07,1.91-3.02,4-6.03,5.93-9.04.27-.08.55-.16.82-.24,6.09-1.93,12.09-4.67,16.63-9.17,2.18-2.16,3.94-4.72,5.25-7.49,0,0,.01.02.02.02,2.37,2.52,7.58,1.51,10.77.16,5.97-2.54,11.18-6.93,13.88-12.83,3.24-7.08-.2-13.67-6.02-15.86ZM1530.46,706.84c4.55.04,9.14-.02,13.68-.41-4.54.52-9.12.65-13.68.41Z"/>
        <path class="cls-90" d="M1599.01,658.24c.21.07.41.15.62.23.12,0,.25-.02.37-.03l-.99-.2Z"/>
      </g>
      <path class="cls-47" d="M1616.97,670.05c-9.16,22.85-35.15,34.42-58.82,38.96-1.2.15-3.36.85-3.25-.35.08-.89,1.44-2.78,2.33-3.68.91-.79,1.73-1.23,2.83-1.77,2.5-1.14,4.93-1.78,7.11-3.66,4.86-4.01,8.62-9.69,14.67-12.37,4.57-2.38,9.13-1.55,13.8-2.59,5.25-2.5,11.1-11.45,10.19-17.8-.85-7.29-7.74-9.17-13.74-6.31-2.79,1.27-5.07,3.21-7.18,5.4-1.31,1.31-2.53,3.19-3.76,1.73-2.47-3.59-2.6-7.84-1.78-12.22.83-4.56,2.9-9.56,4.08-14.1,2.91-12.4-3.82-30.51-12.05-39.79-1.01-1.2-2.53-1.64-4.1-1.68-14.54-.79-27.6,1.86-41.31,6.72-.8.18-1.08-.19-1.17-1.32-.21-2.12-.54-6.31-.75-8.02-.07-.34-.15-.65-.42-.8-8.45,1.08-16.77,10.1-18.29,18.22-.07.31-.12.58-.17.8-.1.48-.16.62-.18.37.19-11.04,7.03-24.05,15.66-31.06,1.25-.92,1.37-1.61-.15-2.16-2.55-1.1-5.46-2.38-7.26-4.57-.25-.78.61-.87,1.36-1.07,22.4-4.05,45.66-3.38,67.8,1.96,3.1.76,6.48,1.84,8.6,4.36,1.45,1.71.81,4,3.74,3.63,33.4,1.67,32.94,60.56,22.27,83l-.07.17Z"/>
      <g>
        <ellipse cx="1544.44" cy="643.24" rx="6" ry="4" transform="translate(354.76 1819.55) rotate(-67.29)"/>
        <ellipse cx="1513.33" cy="638.98" rx="6" ry="4" transform="translate(339.59 1788.23) rotate(-67.29)"/>
        <path class="cls-47" d="M1508.45,629.03s-.54-.31-.53-.71c.03-2.59,3.75-4.63,8.31-4.57,4.56.06,8.73,1.74,8.19,4.79-.07.39-.49.46-.49.46-1.25-.7-3.37-2.28-7.21-2.33s-5.9.72-8.25,2.36Z"/>
        <path class="cls-47" d="M1541.77,631.21s-.6-.46-.51-.84c.6-2.52,5.65-3.46,11.28-2.12s10.43,4.16,9.1,6.99c-.17.36-.71.31-.71.31-1.4-1.04-3.68-3.18-8.43-4.31-4.75-1.14-7.46-.96-10.73-.03Z"/>
        <path class="cls-34" d="M1523.73,657.72s-.04.4-.27.51c-1.54.69-3.77-.93-4.99-3.63-1.22-2.7-1.38-5.62.58-6.15.25-.07.41.16.41.16-.07.93-.42,2.61.61,4.89,1.03,2.28,2.05,3.28,3.67,4.21Z"/>
        <path class="cls-96" d="M1534.11,675.39c-.01.13-.02.23-.03.32,0,0,0-.01,0-.02.16-1.31.27-2.63.65-3.9.04-.14.11-.26.16-.39-9.3-4.77-19.72-7.32-30.17-7.38l-.05-.26c-3.84,8.46,1.59,19.75,10.59,22.04,7.51,1.91,15.81-2.89,18.75-9.92.03-.17.05-.33.1-.5Z"/>
        <path class="cls-11" d="M1534.57,674.39c-.01.14-.02.25-.03.35,0,0,0,0,0,0,.16-1.33.28-2.66.67-3.95.06-.2.15-.37.23-.56-5.8-2.35-10.93-4.3-17.78-5.87-2.23-.51-5.58-.62-8.78-1.09-1.51-.22-3.45-.23-4.39.02-.29.08-.95,3.4-.84,3.61.4.73,3.2.3,3.97.43.05,0,.1,0,.15,0,.57-.01,1.15,0,1.72.08.12.02.24.03.36.05.41.02.82.08,1.22.16.16,0,.33,0,.52.01,8.45.28,17.02,2.94,22.92,7.07.02-.11.03-.22.06-.32Z"/>
        <path class="cls-19" d="M1530.77,681.45c-7.98-1.82-16.23-3.3-24.32-2.21,5.7,9.07,17.24,9.87,24,2"/>
        <path class="cls-11" d="M1511.44,684.24c2.91,3.67,11.14,4,16,0-4.77-2.35-11.24-2.71-16.15-.66"/>
      </g>
      <path class="cls-32" d="M1349.69,575.55s-.57-.33-.56-.72c.1-2.59,4.16-4.52,9.07-4.33,4.91.19,9.36,1.99,8.7,5.03-.08.39-.54.45-.54.45-1.33-.74-3.57-2.37-7.71-2.54-4.14-.16-6.37.55-8.95,2.12Z"/>
      <path class="cls-32" d="M1310.95,579.64s-.63-.31-.7-.82c-.47-3.31,3.04-6.54,7.84-7.22,4.8-.68,9.51.77,9.54,4.76,0,.51-.43.67-.43.67-1.45-.69-3.99-2.35-8.04-1.77-4.05.57-6.06,1.9-8.22,4.38Z"/>
      <circle cx="1319.5" cy="584.5" r="4.5"/>
      <circle cx="1353.5" cy="584.5" r="4.5"/>
      <path class="cls-11" d="M1278.01,575.14c-1.58,10.42,8.79,18.35,17.87,23.72.45-1.68.9-3.37,1.35-5.05-8.05-2.97-14.73-9.49-17.88-17.47"/>
      <path class="cls-11" d="M1267.93,593.05c3.88,7.05,6.77,14.74,11.64,21.15,4.42,5.81,6.38,8.71,7.44,1.8-6.28-7.35-9.78-14.61-12.75-23.81-1.85-.01-3.7-.03-5.55-.04"/>
      <path class="cls-26" d="M1309,638c-10.3-.42-15.97-13.03-25-18,4.86-10.43,10.11-19.93,13-26,12,10,28,1,41,0,8.97-.69,19,12,27,2,1.12,14.2-7.6,33.46-20.89,38.55-12.33,4.72-24.09,10.72-35.11,3.45Z"/>
      <path class="cls-65" d="M1308.58,563.12c24.04,4.27,49.59,3.23,68.42-1.12,6.15-17.77,1.39-29.71-8-46-9.98-17.3-38.63-21.26-62-21-18.25.2-32.66,6.31-44.64,21.17-12.79,15.86-14.61,37.28-8.36,55.83,1.61-6.54,8.03-13.14,14.42-11.01,4.81,1.6,8.31,9.53,9.58,14.01,8.34-8.21,19.29-13.89,30.58-11.88Z"/>
      <path class="cls-17" d="M1249,560c-7.34,9.89-2.09,21.89,9,26-1.12-4.85-2.94-5.13-4-10-.99-4.55-1.18-13.69-3-18"/>
      <path class="cls-65" d="M1220,606c-.73,16.6,5,34,11.43,48.58,6.44-2.82,14.04-4.13,19.57-7.58,4.54-16.31,6.3-28.4,3-45-.82-4.12,2.06-16.12-1-19-5.77-5.45-7.65-12.09-7-18-14.27,6.51-25.34,26.04-26,41Z"/>
    </g>
    <g id="Lag_6" data-name="Lag 6">
      <path class="cls-5" d="M1449.9,722c1.7-9.4,3.97-18.56,6.78-27.33-5.36-2.42-11.61,4.55-11.68,13.03-1.02,5.75-50.15,35.6,5.43,12.72"/>
      <path class="cls-42" d="M1472.67,684.06c-13.9,4.92-25.94,11.47-35.17,20.55-.64.63-1.7.48-2.13-.31-1.16-2.14-.98-1.8-2.15-3.95-.47-.87-.18-1.97.67-2.47,11.8-6.87,24.14-12.79,36.86-17.67,1.16-.45,2.47.09,3.01,1.23h0c.49,1.03-.03,2.25-1.1,2.63Z"/>
      <path class="cls-91" d="M1499.32,675.03c5.25,1.34,4.59,1.2,15.91,4.37,1.54.19-1.45-1.76-16-5.39-.1.09.19.92.08,1.01Z"/>
      <path class="cls-42" d="M1499.3,673.93c-19.41-9.33-32.39-12.03-53.77-14.63-.65-.08-.85.88-.22,1.07,20.39,6.1,33.21,9.34,53.85,14.55"/>
      <ellipse class="cls-91" cx="1520.5" cy="676" rx="7.5" ry="7" transform="translate(-113.66 989.73) rotate(-34.84)"/>
      <ellipse class="cls-14" cx="1520.01" cy="675.75" rx="7.2" ry="6.72" transform="translate(-113.6 989.41) rotate(-34.84)"/>
      <path class="cls-39" d="M1474,682c2.21-2.94,5.81-2.38,8-5,1.74-2.09,2.04-7.42,4.02-9.32,1.57-1.5,4.06-1.42,5.48.23l5.86,6.8c-4.69-7.23-8.37-14.14-11.36-9.7-.67.99-1.98,3.15-2,4-.17,7.03-5.13,8.69-11,12,.2.64.8.36,1,1Z"/>
      <path class="cls-24" d="M1432.27,697.84l26.7-10.46c2.47-.97,2.66-4.42.29-5.61-3.03-1.52-7.6-1.4-11.15-.48-21.94,5.67-44.07,19.77-49.3,41.82-1.83,7.71-.04,17.86,7.53,20.2,7.86,2.43,14.24-5.04,18.2-12.84.88-1.72,3.93-8.65,5.45-7.46,2.4,1.87,5.72,6.84,7.72,9.14,2.68,3.09,3.97-.88,2.43-4.87-2.19-5.66-7.77-9.4-12.66-13,2.56,3.27,7.3,4.34,9.57,7.82,8.64,13.26,10.03,6.16,3.67-4.84-2.32-4.01-6.31-6.8-9.51-10.15,3.39,1.93,11.21,3.31,13.68,12.12,2.02,7.22,5.38,7.16,4.13-4.05-.87-7.77-9.05-13.16-16.39-15.91"/>
      <path class="cls-52" d="M1411,659c-2.21,1.4-5.18,7.98-5,11,.19,3.19.07.78,1.87,3.42,4.35,6.38,9.28,14.87,16.74,12.66,3.13-.93,6.5-.38,9.68-1.14,8.01-1.93,22.7-11.01,30.71-12.94l-.67.29c.25-.04.51-.07.78-.08,2.21-1.07,4-2.5,4.9-5.21-8.55-5.82-21.05,8.19-30,3-8.75-5.08-7.41-12.44,1-14,6.07-1.12,13.42-2.11,19.83,1.79,4.11,2.5,8.05,7.62,12.36,5.46-10.68-25.9-40.98-17.67-62.19-4.25Z"/>
    </g>
    <g id="Lag_7" data-name="Lag 7">
      <g>
        <path class="cls-59" d="M1674.96,521.04l-.41.89-27.81,59.57-15.18-4.79,12.88-64.27c0-.25.03-.5.1-.73.02-.07.05-.15.09-.22.02-.04.04-.08.06-.12,1.14-2.07,5.97-2.58,11.93-1.43,1.55.3,3.18.71,4.84,1.23.21.07.42.13.62.2.14.04.28.09.41.14,3.57,1.22,6.64,2.77,8.85,4.36,2.44,1.76,3.81,3.57,3.62,5.05,0,.05-.01.09-.02.14Z"/>
        <g>
          <path class="cls-30" d="M1646.39,585.13c0,.06-.03.13-.06.18-.06.12-.14.18-.21.16l-16.74-5.28c-.08-.02-.1-.16-.06-.3,0-.06.03-.11.07-.17l2.01-2.76c.12-.16.26-.24.37-.2l14.9,4.7c.06.02.1.11.08.22l-.36,3.45Z"/>
          <path class="cls-64" d="M1646.33,585.32c-.06.12-.14.18-.21.16l-16.74-5.28c-.08-.02-.1-.16-.06-.3.93-.5,4.65.07,8.91,1.41s7.77,3.08,8.11,4Z"/>
          <line class="cls-1" x1="1629.39" y1="579.73" x2="1646.39" y2="585.14"/>
        </g>
        <path class="cls-64" d="M1671.37,515.86l-25.35,65.41-5.82-1.84,22.32-67.93c3.57,1.22,6.64,2.77,8.85,4.36Z"/>
        <path class="cls-94" d="M1662.1,511.36l-22.32,67.94-3.38-1.06,20.24-68.31c1.55.3,3.18.71,4.84,1.23.21.07.42.13.62.2Z"/>
        <g>
          <path class="cls-20" d="M1651.89,517.65c-.84,1.09-1.76,1.87-2.36,2.05-.15.04-.27.05-.38.02-.11-.06-.19-.18-.24-.36-.08-.26-.1-.62-.07-1.06-.23.38-.47.67-.69.83-.15.11-.29.16-.41.15-.1-.03-.2-.11-.29-.23-.38-.49-.66-1.65-.69-3.02-.03-1.45.23-2.68.62-3.13.35-.52,1.03-.77,1.67-.57.41.13.72.41.88.77,0,0,0,0,0,0,.01.04.03.09.05.13.08.16.23.28.41.34.2.06.4.04.57-.06,0,0,0,0,0,0,0,0,0,0,0,0,.01,0,.03-.02.04-.03,0,0,0,0,0,0,.35-.21.79-.28,1.22-.14.64.2,1.04.79,1.02,1.42.05.59-.47,1.74-1.36,2.9Z"/>
          <g class="cls-21">
            <path class="cls-45" d="M1652.9,514.52c-.35-.11-.65.04-.76.38.12-.34-.03-.62-.38-.73.35.11.65-.04.76-.38-.12.34.03.62.38.73Z"/>
            <path class="cls-2" d="M1652.9,514.52c-.35-.11-.65.04-.76.38.12-.34-.03-.62-.38-.73.35.11.65-.04.76-.38-.12.34.03.62.38.73Z"/>
          </g>
          <g class="cls-21">
            <path class="cls-11" d="M1652.94,515.41c-.23-.07-.43.03-.5.25.08-.22-.02-.41-.25-.48.23.07.43-.03.5-.25-.08.22.02.41.25.48Z"/>
            <path class="cls-2" d="M1652.94,515.41c-.23-.07-.43.03-.5.25.08-.22-.02-.41-.25-.48.23.07.43-.03.5-.25-.08.22.02.41.25.48Z"/>
          </g>
        </g>
      </g>
      <g>
        <g>
          <path class="cls-51" d="M1177.86,490.21l6.23,19.59c.11.33.14.69.11,1.03l-1.86,18.7c-.05.48,0,.96.15,1.42l18.15,57.07c.11.36.5.56.87.45l2.89-.88c.37-.11.57-.49.46-.85l-18.15-57.07c-.15-.46-.2-.94-.15-1.42l1.86-18.7c.03-.35,0-.7-.11-1.03l-6.23-19.59c-.1-.32-.44-.49-.77-.39l-3.05.93c-.32.1-.5.43-.4.75Z"/>
          <path class="cls-59" d="M1180.39,489.44l6.23,19.59c.11.33.14.69.11,1.03l-1.86,18.7c-.05.48,0,.96.15,1.42l18.15,57.07c.11.36.5.56.87.45l2.89-.88c.37-.11.57-.49.46-.85l-18.15-57.07c-.15-.46-.2-.94-.15-1.42l1.86-18.7c.03-.35,0-.7-.11-1.03l-6.23-19.59c-.1-.32-.44-.49-.77-.39l-3.05.93c-.32.1-.5.43-.4.75Z"/>
        </g>
        <path class="cls-102" d="M1178.04,490.78l.54,1.71-7.15,2.52-6.42,1.96c-.51-.81-1.04-1.51-1.56-2.07l7.24-2.21,7.34-1.9Z"/>
        <path class="cls-102" d="M1178.81,493.22l.54,1.71-7.15,2.52-5.94,1.81c-.38-.79-.78-1.53-1.19-2.19l6.39-1.95,7.34-1.9Z"/>
        <path class="cls-58" d="M1179.59,495.65l.54,1.71-7.15,2.52-5.72,1.75c-.29-.8-.61-1.55-.95-2.27l5.93-1.81,7.34-1.9Z"/>
        <path class="cls-58" d="M1180.36,498.09l.54,1.71-7.15,2.52-5.71,1.74c-.1-.37-.21-.74-.33-1.11-.13-.41-.27-.82-.41-1.22l5.72-1.75,7.34-1.9Z"/>
        <path class="cls-58" d="M1181.21,500.75l.54,1.71-7.21,2.54-5.88,1.8c-.13-.77-.31-1.57-.53-2.39l5.67-1.73,7.4-1.92Z"/>
        <path class="cls-58" d="M1182.86,505.95l.54,1.71-7.21,2.54-7.31,2.23-.05-.17c.13-.7.17-1.52.15-2.41l6.47-1.98,7.4-1.92Z"/>
        <path class="cls-58" d="M1182.07,503.27l.54,1.71-7.21,2.54-6.43,1.96c-.04-.77-.13-1.6-.27-2.47l5.96-1.82,7.4-1.92Z"/>
      </g>
      <g>
        <polygon class="cls-9" points="1463.87 571.38 1462.16 572.01 1439.29 513.23 1441 512.59 1463.87 571.38"/>
        <g>
          <path class="cls-13" d="M1441.82,518.25c-.33.12-.67.23-1.01.33-7.58,2.18-15.53-2.06-17.76-9.49-2.23-7.43,2.11-15.21,9.68-17.4.34-.1.69-.19,1.03-.26-6.95,2.56-10.8,9.98-8.67,17.07,2.13,7.09,9.47,11.28,16.73,9.75Z"/>
          <path class="cls-37" d="M1451.04,499.9c2.81,7.23-.89,15.33-8.27,18.09-.34.13-.67.24-1.01.34-7.11,2.08-14.77-1.53-17.45-8.44-2.69-6.9.57-14.6,7.29-17.68.32-.15.65-.28.98-.41,7.38-2.76,15.65.87,18.46,8.1Z"/>
        </g>
        <path class="cls-49" d="M1450.74,502.89l-25.31,9.45c-1.02.38-2.17-.12-2.55-1.12h0c-.39-1,.13-2.12,1.14-2.5l25.31-9.45c1.02-.38,2.17.12,2.55,1.12h0c.39,1-.13,2.12-1.14,2.5Z"/>
      </g>
      <g>
        <polygon class="cls-7" points="1305.86 407.23 1303.92 406.78 1308.31 383.55 1310.26 384 1305.86 407.23"/>
        <path class="cls-38" d="M1322.66,415.5l-6.84,21.4-2.93,9.16-9.49,29.7c-.42,1.33-1.68,2.14-2.9,1.86l-24.4-5.61c-1.19-.27-1.93-1.52-1.7-2.87l5.18-30.74,1.6-9.46,3.73-22.12,37.74,8.68Z"/>
        <path class="cls-6" d="M1326.58,415.07c-.14.6-.53,1.09-1.03,1.39-.5.31-1.11.42-1.73.28l-40.32-9.28c-1.22-.28-1.99-1.5-1.71-2.7.14-.6.53-1.09,1.03-1.39s1.11-.42,1.73-.28l1.59.37,1.69-1.95,34.54,7.95.62,2.49,1.87.43c1.22.28,2,1.5,1.71,2.7Z"/>
        <polygon class="cls-23" points="1315.83 436.9 1312.9 446.06 1279.6 438.4 1281.2 428.93 1315.83 436.9"/>
        <polygon class="cls-25" points="1315.75 437.59 1312.82 446.75 1279.68 439.13 1281.28 429.66 1315.75 437.59"/>
      </g>
      <g>
        <polygon class="cls-7" points="1707.23 396.29 1705.48 397.25 1692.7 377.23 1694.44 376.27 1707.23 396.29"/>
        <path class="cls-38" d="M1725.32,391.26l9.73,20.3,4.16,8.69,13.5,28.17c.61,1.26.24,2.7-.85,3.3l-21.85,12.02c-1.06.59-2.47.16-3.23-.99l-17.39-26.09-5.35-8.03-12.51-18.77,33.8-18.59Z"/>
        <path class="cls-6" d="M1727.91,388.35c.31.54.36,1.15.2,1.71-.16.56-.53,1.05-1.08,1.35l-36.11,19.86c-1.1.6-2.5.22-3.12-.86-.31-.54-.36-1.15-.2-1.71s.53-1.05,1.08-1.35l1.43-.78-.1-2.56,30.94-17.02,2.18,1.42,1.68-.92c1.1-.6,2.5-.22,3.12.86Z"/>
        <polygon class="cls-23" points="1735.05 411.56 1739.21 420.25 1709.38 436.65 1704.03 428.62 1735.05 411.56"/>
        <polygon class="cls-25" points="1735.46 412.12 1739.63 420.81 1709.95 437.13 1704.59 429.1 1735.46 412.12"/>
      </g>
      <g>
        <g>
          <path class="cls-51" d="M1562.54,409.58l-8.55,18.73c-.15.32-.36.61-.62.85l-14.02,12.82c-.36.33-.65.72-.85,1.16l-24.91,54.57c-.16.34,0,.75.35.9l2.77,1.21c.35.15.76,0,.92-.34l24.91-54.57c.2-.44.49-.83.85-1.16l14.02-12.82c.26-.24.47-.53.62-.85l8.55-18.73c.14-.3,0-.66-.31-.79l-2.92-1.28c-.31-.14-.67,0-.81.3Z"/>
          <path class="cls-59" d="M1564.96,410.64l-8.55,18.73c-.15.32-.36.61-.62.85l-14.02,12.82c-.36.33-.65.72-.85,1.16l-24.91,54.57c-.16.34,0,.75.35.9l2.77,1.21c.35.15.76,0,.92-.34l24.91-54.57c.2-.44.49-.83.85-1.16l14.02-12.82c.26-.24.47-.53.62-.85l8.55-18.73c.14-.3,0-.66-.31-.79l-2.92-1.28c-.31-.14-.67,0-.81.3Z"/>
        </g>
        <path class="cls-102" d="M1562.3,410.12l-.74,1.63-7.06-2.74-6.14-2.69c.17-.94.24-1.81.23-2.57l6.92,3.03,6.79,3.33Z"/>
        <path class="cls-102" d="M1561.23,412.45l-.74,1.63-7.06-2.74-5.68-2.49c.25-.84.45-1.65.59-2.41l6.11,2.68,6.79,3.33Z"/>
        <path class="cls-58" d="M1560.17,414.78l-.74,1.63-7.06-2.74-5.47-2.4c.32-.79.59-1.56.82-2.31l5.67,2.48,6.79,3.33Z"/>
        <path class="cls-58" d="M1559.1,417.11l-.74,1.63-7.06-2.74-5.46-2.39c.17-.34.34-.69.5-1.05.18-.4.35-.79.51-1.18l5.47,2.4,6.79,3.33Z"/>
        <path class="cls-58" d="M1557.94,419.66l-.74,1.63-7.12-2.76-5.62-2.46c.42-.66.83-1.38,1.22-2.14l5.42,2.38,6.85,3.36Z"/>
        <path class="cls-58" d="M1555.68,424.62l-.74,1.63-7.12-2.76-6.99-3.06.07-.16c.57-.45,1.15-1.03,1.74-1.72l6.19,2.71,6.85,3.36Z"/>
        <path class="cls-58" d="M1556.89,422.1l-.75,1.63-7.12-2.76-6.15-2.69c.49-.6.99-1.28,1.46-2.03l5.7,2.5,6.85,3.35Z"/>
      </g>
      <g>
        <path class="cls-59" d="M1402.05,360.05l.2.95,13,64.25-15.17,4.81-27.92-59.52c-.16-.2-.28-.42-.35-.65-.02-.07-.05-.15-.06-.23-.01-.04-.02-.09-.02-.14-.32-2.33,3.3-5.51,8.82-8,1.44-.65,3-1.25,4.66-1.78.21-.07.42-.13.63-.19.14-.04.28-.08.42-.12,3.62-1.06,7.04-1.56,9.78-1.53,3.03.03,5.23.71,5.95,2.02.03.04.05.08.06.12Z"/>
        <g>
          <path class="cls-30" d="M1417.13,428.41c.03.06.05.12.06.18.02.13,0,.23-.08.25l-16.73,5.31c-.08.02-.18-.07-.23-.2-.03-.05-.04-.11-.04-.18l-.02-3.39c0-.2.07-.34.18-.37l14.89-4.72c.06-.02.14.03.2.13l1.77,3Z"/>
          <path class="cls-64" d="M1417.19,428.59c.02.13,0,.23-.08.25l-16.73,5.31c-.08.02-.18-.07-.23-.2.46-.94,3.81-2.6,8.07-3.96,4.36-1.38,8.14-1.96,8.96-1.4Z"/>
          <line class="cls-1" x1="1400.11" y1="433.77" x2="1417.13" y2="428.41"/>
        </g>
        <path class="cls-64" d="M1396.04,357.9l18.48,67.58-5.82,1.85-22.44-67.9c3.62-1.06,7.04-1.56,9.78-1.53Z"/>
        <path class="cls-94" d="M1385.84,359.56l22.45,67.9-3.37,1.07-24.36-67.01c1.44-.65,3-1.25,4.66-1.78.21-.07.42-.13.63-.19Z"/>
        <g>
          <path class="cls-20" d="M1381.31,370.52c-.03,1.37-.31,2.53-.69,3.02-.09.12-.19.2-.29.23-.12.01-.26-.04-.41-.15-.22-.16-.46-.45-.69-.82.04.44.02.81-.06,1.07-.05.17-.13.3-.24.36-.1.03-.23.03-.38-.02-.6-.18-1.52-.96-2.36-2.05-.89-1.16-1.42-2.31-1.36-2.89-.02-.63.38-1.22,1.01-1.42.41-.13.83-.07,1.17.12,0,0,0,0,0,0,.04.03.08.05.12.07.16.08.35.1.54.04.2-.06.35-.2.43-.37,0,0,0,0,0,0,0,0,0,0,0,0,0-.01.01-.03.02-.04,0,0,0,0,0,0,.16-.37.48-.68.9-.81.64-.2,1.32.05,1.67.57.39.44.66,1.68.63,3.13Z"/>
          <g class="cls-21">
            <path class="cls-45" d="M1380.26,367.4c-.35.11-.5.41-.39.75-.11-.34-.4-.49-.75-.37.35-.11.5-.41.39-.75.11.34.4.49.75.37Z"/>
            <path class="cls-2" d="M1380.26,367.4c-.35.11-.5.41-.39.75-.11-.34-.4-.49-.75-.37.35-.11.5-.41.39-.75.11.34.4.49.75.37Z"/>
          </g>
          <g class="cls-21">
            <path class="cls-11" d="M1380.83,368.1c-.23.08-.33.27-.26.49-.07-.23-.26-.32-.49-.25.23-.08.33-.27.26-.49.07.23.26.32.49.25Z"/>
            <path class="cls-2" d="M1380.83,368.1c-.23.08-.33.27-.26.49-.07-.23-.26-.32-.49-.25.23-.08.33-.27.26-.49.07.23.26.32.49.25Z"/>
          </g>
        </g>
      </g>
      <g>
        <polygon class="cls-9" points="1616.48 399.12 1614.67 398.84 1624.53 336.68 1626.34 336.95 1616.48 399.12"/>
        <g>
          <path class="cls-13" d="M1624.19,342.27c-.35-.05-.7-.12-1.05-.2-7.69-1.78-12.45-9.33-10.63-16.86,1.82-7.53,9.52-12.19,17.21-10.41.35.08.69.17,1.03.28-7.33-1.15-14.43,3.43-16.17,10.62s2.52,14.4,9.6,16.58Z"/>
          <path class="cls-37" d="M1641.48,330.81c-1.21,7.65-8.52,12.88-16.33,11.7-.35-.05-.7-.12-1.05-.2-7.23-1.64-12.05-8.5-10.89-15.8s7.87-12.4,15.27-11.82c.35.03.7.07,1.06.12,7.81,1.19,13.15,8.35,11.94,16Z"/>
        </g>
        <path class="cls-49" d="M1639.71,333.25l-26.77-4.07c-1.08-.16-1.82-1.16-1.65-2.21h0c.17-1.05,1.18-1.78,2.26-1.62l26.77,4.07c1.08.16,1.82,1.16,1.65,2.21h0c-.17,1.05-1.18,1.78-2.26,1.62Z"/>
      </g>
      <g>
        <polygon class="cls-9" points="1211.93 439.82 1210.36 440.72 1177.81 386.49 1179.38 385.58 1211.93 439.82"/>
        <g>
          <path class="cls-13" d="M1181.16,391.03c-.31.18-.62.34-.94.49-7.1,3.39-15.66.5-19.13-6.46s-.51-15.35,6.59-18.74c.32-.15.65-.29.97-.42-6.41,3.66-8.95,11.6-5.65,18.24,3.3,6.64,11.26,9.58,18.15,6.88Z"/>
          <path class="cls-37" d="M1187.13,371.44c4,6.67,1.73,15.26-5.08,19.18-.31.18-.62.34-.94.5-6.66,3.22-14.82.9-18.64-5.47s-1.92-14.49,4.18-18.62c.29-.2.59-.38.9-.56,6.81-3.92,15.58-1.7,19.58,4.98Z"/>
        </g>
        <path class="cls-49" d="M1187.34,374.43l-23.35,13.45c-.94.54-2.16.23-2.71-.69h0c-.55-.92-.24-2.11.7-2.65l23.35-13.45c.94-.54,2.16-.23,2.71.69h0c.55.92.24,2.11-.7,2.65Z"/>
      </g>
      <g>
        <g>
          <path class="cls-51" d="M1310.45,288.01l-7.2,15.73c-.12.27-.2.55-.22.84l-1.33,15.35c-.03.39-.14.79-.31,1.15l-20.97,45.83c-.13.29-.44.43-.68.33l-1.93-.85c-.24-.11-.33-.43-.2-.72l20.97-45.83c.17-.37.27-.76.31-1.15l1.33-15.35c.02-.29.1-.57.22-.84l7.2-15.73c.12-.25.38-.38.6-.29l2.03.89c.22.09.3.38.18.63Z"/>
          <path class="cls-59" d="M1308.77,287.27l-7.2,15.73c-.12.27-.2.55-.22.84l-1.33,15.35c-.03.39-.14.79-.31,1.15l-20.97,45.83c-.13.29-.44.43-.68.33l-1.93-.85c-.24-.11-.33-.43-.2-.72l20.97-45.83c.17-.37.27-.76.31-1.15l1.33-15.35c.02-.29.1-.57.22-.84l7.2-15.73c.12-.25.38-.38.6-.29l2.03.89c.22.09.3.38.18.63Z"/>
        </g>
        <path class="cls-102" d="M1310.25,288.46l-.63,1.37,4.71,2.37,4.27,1.88c.48-.64.95-1.19,1.4-1.63l-4.82-2.12-4.94-1.87Z"/>
        <path class="cls-102" d="M1309.35,290.42l-.63,1.37,4.71,2.37,3.96,1.74c.38-.63.77-1.22,1.15-1.74l-4.26-1.87-4.94-1.87Z"/>
        <path class="cls-58" d="M1308.45,292.38l-.63,1.37,4.71,2.37,3.81,1.67c.32-.64.65-1.24.99-1.81l-3.95-1.73-4.94-1.87Z"/>
        <path class="cls-58" d="M1307.56,294.34l-.63,1.37,4.71,2.37,3.8,1.67c.12-.3.26-.59.39-.89.15-.33.31-.66.47-.98l-3.81-1.67-4.94-1.87Z"/>
        <path class="cls-58" d="M1306.58,296.48l-.63,1.37,4.75,2.38,3.92,1.72c.2-.62.44-1.27.71-1.93l-3.78-1.66-4.98-1.89Z"/>
        <path class="cls-58" d="M1304.67,300.65l-.63,1.37,4.75,2.39,4.87,2.14.06-.14c.01-.58.09-1.25.24-1.98l-4.31-1.89-4.98-1.89Z"/>
        <path class="cls-58" d="M1305.62,298.5l-.63,1.37,4.75,2.38,4.28,1.88c.13-.63.32-1.3.54-2.01l-3.97-1.74-4.98-1.89Z"/>
      </g>
      <g>
        <polygon class="cls-7" points="1468.12 296.05 1466.82 296.54 1459.24 279.56 1460.53 279.07 1468.12 296.05"/>
        <path class="cls-38" d="M1481.19,294.68l5.41,16.77,2.32,7.18,7.51,23.27c.34,1.04-.02,2.08-.83,2.39l-16.21,6.17c-.79.3-1.75-.22-2.2-1.19l-10.4-22.22-3.2-6.84-7.48-15.98,25.07-9.54Z"/>
        <path class="cls-6" d="M1483.22,292.82c.18.45.17.93.02,1.33-.15.4-.45.73-.85.88l-26.79,10.2c-.81.31-1.78-.18-2.14-1.08-.18-.45-.17-.93-.02-1.33s.45-.72.85-.88l1.06-.4.11-1.96,22.95-8.74,1.43,1.38,1.24-.47c.81-.31,1.78.17,2.13,1.08Z"/>
        <polygon class="cls-23" points="1486.61 311.45 1488.92 318.63 1466.8 327.05 1463.6 320.21 1486.61 311.45"/>
        <polygon class="cls-25" points="1486.86 311.94 1489.18 319.12 1467.16 327.5 1463.96 320.66 1486.86 311.94"/>
      </g>
      <g>
        <path class="cls-59" d="M1596.34,234.85l-.35.78-23.91,52.57-12.23-3.86,11.88-56.37c0-.22.03-.43.1-.64.02-.06.05-.13.08-.2.02-.04.03-.07.05-.11.97-1.83,4.91-2.38,9.73-1.5,1.26.23,2.57.55,3.91.97.17.05.34.11.5.16.11.04.22.07.33.11,2.87.99,5.34,2.27,7.1,3.62,1.94,1.48,3.02,3.04,2.83,4.33,0,.04-.01.08-.02.12Z"/>
        <g>
          <path class="cls-30" d="M1571.7,291.39c0,.06-.03.12-.05.16-.05.1-.12.16-.17.14l-13.5-4.26c-.06-.02-.08-.14-.04-.26,0-.05.03-.1.06-.15l1.69-2.45c.1-.15.22-.21.3-.18l12.01,3.79s.08.09.06.19l-.37,3.01Z"/>
          <path class="cls-64" d="M1571.65,291.55c-.05.1-.12.16-.17.14l-13.5-4.26c-.06-.02-.08-.14-.04-.26.77-.46,3.78-.04,7.21,1.05,3.51,1.11,6.25,2.52,6.5,3.32Z"/>
          <line class="cls-1" x1="1558" y1="287.03" x2="1571.7" y2="291.39"/>
        </g>
        <path class="cls-64" d="M1593.53,230.4l-22.04,57.62-4.69-1.48,19.64-59.76c2.87.99,5.34,2.27,7.1,3.62Z"/>
        <path class="cls-94" d="M1586.1,226.67l-19.64,59.77-2.72-.86,17.95-60.05c1.26.23,2.57.55,3.91.97.17.05.34.11.5.16Z"/>
        <g>
          <path class="cls-20" d="M1577.65,232.37c-.71.97-1.47,1.67-1.96,1.84-.12.04-.22.05-.31.02-.09-.05-.15-.15-.19-.31-.06-.22-.07-.54-.03-.93-.2.34-.4.59-.58.74-.12.1-.24.15-.34.14-.08-.02-.16-.09-.23-.19-.3-.42-.5-1.43-.5-2.62,0-1.26.24-2.35.57-2.74.3-.46.86-.7,1.37-.53.33.1.57.35.7.65,0,0,0,0,0,0,0,.04.02.08.04.11.06.13.18.24.33.29.16.05.33.02.47-.06,0,0,0,0,0,0,0,0,0,0,0,0,.01,0,.02-.02.03-.02,0,0,0,0,0,0,.29-.19.65-.26.99-.15.52.16.83.67.8,1.22.03.51-.42,1.53-1.17,2.56Z"/>
          <g class="cls-21">
            <path class="cls-45" d="M1578.54,229.62c-.28-.08-.53.05-.63.35.1-.3-.01-.54-.29-.63.28.09.53-.05.63-.35-.1.3.01.54.29.63Z"/>
            <path class="cls-2" d="M1578.54,229.62c-.28-.08-.53.05-.63.35.1-.3-.01-.54-.29-.63.28.09.53-.05.63-.35-.1.3.01.54.29.63Z"/>
          </g>
          <g class="cls-21">
            <path class="cls-11" d="M1578.56,230.4c-.19-.06-.35.03-.41.23.07-.2,0-.36-.19-.41.19.06.35-.03.41-.23-.07.2,0,.36.19.41Z"/>
            <path class="cls-2" d="M1578.56,230.4c-.19-.06-.35.03-.41.23.07-.2,0-.36-.19-.41.19.06.35-.03.41-.23-.07.2,0,.36.19.41Z"/>
          </g>
        </g>
      </g>
      <g>
        <polygon class="cls-9" points="1387.04 296.08 1385.87 296.62 1370.13 246.29 1371.31 245.74 1387.04 296.08"/>
        <g>
          <path class="cls-13" d="M1371.87,250.59c-.23.11-.46.2-.7.28-5.22,1.87-10.69-1.77-12.22-8.12s1.45-13.03,6.66-14.9c.24-.09.47-.16.71-.22-4.78,2.19-7.43,8.54-5.97,14.61,1.46,6.07,6.52,9.66,11.51,8.34Z"/>
          <path class="cls-37" d="M1378.22,234.88c1.94,6.19-.61,13.12-5.69,15.49-.23.11-.46.2-.69.29-4.89,1.78-10.16-1.31-12.01-7.23-1.85-5.91.39-12.5,5.02-15.14.22-.13.44-.24.68-.35,5.08-2.36,10.77.75,12.7,6.94Z"/>
        </g>
        <path class="cls-49" d="M1378.01,237.44l-17.42,8.09c-.7.33-1.49-.11-1.76-.96h0c-.27-.85.09-1.82.79-2.14l17.42-8.09c.7-.33,1.49.11,1.76.96h0c.27.85-.09,1.82-.79,2.14Z"/>
      </g>
      <g>
        <line class="cls-4" x1="1647.65" y1="480.86" x2="1647.65" y2="505.67"/>
        <line class="cls-4" x1="1653.78" y1="472.85" x2="1653.78" y2="497.66"/>
        <line class="cls-4" x1="1659.49" y1="480.86" x2="1659.49" y2="505.67"/>
      </g>
      <g>
        <line class="cls-4" x1="1689.19" y1="351.41" x2="1689.19" y2="376.22"/>
        <line class="cls-4" x1="1695.31" y1="343.41" x2="1695.31" y2="368.22"/>
        <line class="cls-4" x1="1701.03" y1="351.41" x2="1701.03" y2="376.22"/>
      </g>
      <g>
        <line class="cls-4" x1="1619.45" y1="287.27" x2="1619.45" y2="312.08"/>
        <line class="cls-4" x1="1625.57" y1="279.27" x2="1625.57" y2="304.08"/>
        <line class="cls-4" x1="1631.29" y1="287.27" x2="1631.29" y2="312.08"/>
      </g>
      <g>
        <line class="cls-4" x1="1570.43" y1="198.43" x2="1570.43" y2="223.24"/>
        <line class="cls-4" x1="1576.56" y1="190.43" x2="1576.56" y2="215.24"/>
        <line class="cls-4" x1="1582.28" y1="198.43" x2="1582.28" y2="223.24"/>
      </g>
      <g>
        <line class="cls-4" x1="1544.45" y1="379.99" x2="1544.45" y2="404.8"/>
        <line class="cls-4" x1="1550.57" y1="371.99" x2="1550.57" y2="396.8"/>
        <line class="cls-4" x1="1556.29" y1="379.99" x2="1556.29" y2="404.8"/>
      </g>
      <g>
        <line class="cls-4" x1="1432.59" y1="463.31" x2="1432.59" y2="488.12"/>
        <line class="cls-4" x1="1438.72" y1="455.31" x2="1438.72" y2="480.12"/>
        <line class="cls-4" x1="1444.44" y1="463.31" x2="1444.44" y2="488.12"/>
      </g>
      <g>
        <line class="cls-4" x1="1475.85" y1="265.04" x2="1475.85" y2="289.85"/>
        <line class="cls-4" x1="1481.97" y1="257.03" x2="1481.97" y2="281.84"/>
        <line class="cls-4" x1="1487.69" y1="265.04" x2="1487.69" y2="289.85"/>
      </g>
      <g>
        <line class="cls-4" x1="1362.29" y1="201.81" x2="1362.29" y2="226.62"/>
        <line class="cls-4" x1="1368.42" y1="193.81" x2="1368.42" y2="218.62"/>
        <line class="cls-4" x1="1374.14" y1="201.81" x2="1374.14" y2="226.62"/>
      </g>
      <g>
        <line class="cls-4" x1="1394.97" y1="330.66" x2="1394.97" y2="355.47"/>
        <line class="cls-4" x1="1401.09" y1="322.66" x2="1401.09" y2="347.47"/>
        <line class="cls-4" x1="1406.81" y1="330.66" x2="1406.81" y2="355.47"/>
      </g>
      <g>
        <line class="cls-4" x1="1298.57" y1="254.63" x2="1298.57" y2="279.44"/>
        <line class="cls-4" x1="1304.7" y1="246.63" x2="1304.7" y2="271.44"/>
        <line class="cls-4" x1="1310.41" y1="254.63" x2="1310.41" y2="279.44"/>
      </g>
      <g>
        <line class="cls-4" x1="1319.03" y1="380.76" x2="1319.03" y2="405.57"/>
        <line class="cls-4" x1="1325.16" y1="372.75" x2="1325.16" y2="397.56"/>
        <line class="cls-4" x1="1330.87" y1="380.76" x2="1330.87" y2="405.57"/>
      </g>
      <g>
        <line class="cls-4" x1="1168.23" y1="337.3" x2="1168.23" y2="362.11"/>
        <line class="cls-4" x1="1174.36" y1="329.3" x2="1174.36" y2="354.11"/>
        <line class="cls-4" x1="1180.08" y1="337.3" x2="1180.08" y2="362.11"/>
      </g>
      <g>
        <line class="cls-4" x1="1174.77" y1="462.95" x2="1174.77" y2="487.76"/>
        <line class="cls-4" x1="1180.89" y1="454.95" x2="1180.89" y2="479.76"/>
        <line class="cls-4" x1="1186.61" y1="462.95" x2="1186.61" y2="487.76"/>
      </g>
    </g>
    <g id="Lag_8" data-name="Lag 8">
      <g>
        <g>
          <path class="cls-35" d="M1589.27,144.93c.08,1.32-1.18,3.76-3.84,7.27-2.79,3.68-5.02,5.45-6.64,5.2-1.95-.31-5.97-3.72-12.09-10.42-6.84-7.49-11.17-11.93-12.81-12.99-.2,6.21-.31,9.32-.51,15.53-.01.34.17.94.54,1.8.37.86.58,1.49.63,1.88.25,2.26-.36,3.7-1.82,4.33-.67.32-1.76.46-3.27.42-2.89-.07-5.7-.61-8.43-1.64-3.06-1.15-4.59-2.45-4.56-3.89.4-21.13.8-42.26,1.2-63.4.02-1.1.49-2.27,1.42-3.52.93-1.25,1.95-1.98,3.08-2.18.21-.03.52-.02.94.03,2.02.25,4.87,1.24,8.54,2.95,3.67,1.72,5.66,3.02,5.98,3.9.12.41-.32,2.42-1.25,6.02-1.05,4.08-1.59,7.27-1.66,9.47-.02.73-.01,1.38.04,1.95,7.34-8.2,11.07-12.16,18.63-19.79,1.1-1.11,2.45-1.51,4.04-1.21,1.73.32,4.29,1.58,7.55,3.78,3.68,2.49,5.54,4.67,5.47,6.36-.02.47-2.99,3.05-8.76,7.85-7.24,6.01-12.93,11.67-17.01,16.75,6.43,6.92,12.89,13.83,19.36,20.72.44.47,1.51.88,3.13,1.3,1.36.35,2.07.91,2.11,1.53Z"/>
          <path class="cls-35" d="M1641.47,159.32c-.15.65-.6,1.21-1.38,1.62-.78.41-1.62.52-2.53.33-8.05-1.66-12.48-3.24-13.26-4.83-.11-.21-.16-.42-.14-.62.02-.25.2-.51.52-.78.33-.27.53-.51.62-.73.09-.22.33-.42.46-.6.2-.26.29-1.26.35-2.61-.84.36-2.19,1.44-3.91,3.24-1.85,1.95-3.44,3.39-4.76,4.14-2.24,1.34-4.7,1.91-7.39,1.71-1.58-.12-3.08-.72-4.51-1.82-.69-.52-1.89-1.62-3.62-3.32-2.95-3.05-4.57-4.74-4.81-5.03-1.29-1.58-1.89-3.03-1.8-4.35.03-.42.12-.84.29-1.25,1.58-4.52,5.82-8.57,12.78-11.85,5.05-2.38,12.17-4.6,21.38-6.45.16-1.59-.29-2.7-1.32-3.31-.65-.4-3.07-.22-7.25.64-4.18.85-7.12,1.72-8.81,2.53-.58.34-1.54.89-2.76,1.36-1.09.41-2.24.39-3.17.07-.72-.25-2.24-1.37-4.54-3.4-2.3-2.02-3.54-3.35-3.71-3.95-.44-1.49.21-2.52,1.96-3.08.07-.04,1.73.02,4.14-.39,2.4-.41,5.18-1.37,7.78-2.03,5.45-1.11,10.06-1.41,13.72-.94,1.56.2,3.3,1.1,5.13,2.68,1.65,1.42,3.32,2.86,5,4.27,1.68,1.41,3.51,2.77,5.19,4.11,2,1.6,2.94,3.21,2.8,4.47-1.22,11.01-1.83,16.52-3.05,27.53.52,1.34.71,2.23.61,2.65ZM1627.8,135.85c-3.37.51-6.42,1.6-8.82,3.32-1.87,1.33-3.78,2.97-5.61,4.22-1.38.95-2.92,2.19-4.28,3.79-1.37,1.61-2.08,2.83-2.14,3.66-.03.41.15.64.55.67,1.39.12,4.67-1.96,9.92-6.03,5.25-4.07,8.74-7.22,10.39-9.63Z"/>
          <path class="cls-35" d="M1692.99,131.53c.16.76-.35,1.32-1.38,1.49-.8.13-1.66.23-2.45.39-4.88,3.41-11.48,8.12-19.68,14.51-1,7.33-1.49,11.12-1.45,11.36.03.24.2.86.5,1.86.3,1,.41,1.78.33,2.33-.12.87-.78,1.39-1.92,1.58-.75.13-1.75.13-3-.02-2.49-.31-5.21-1.06-8.11-2.19-3.65-1.41-5.45-2.83-5.27-4.31.05-.43.4-1.09,1.04-1.98.64-.89,1-1.64,1.08-2.25,1.14-9.41,2.29-18.82,3.43-28.24-.42-2.79-.62-4.25-.61-4.34.18-1.48,1.24-2.23,3.18-2.24.83.01,1.82.13,2.97.36,2.37.46,4.82,1.23,7.35,2.28,2.53,1.05,3.99,1.93,4.38,2.62.11.21.14.45.11.73-.03.23-.66,1.24-1.87,3.04-.18,1.33-.27,1.99-.45,3.32,1.88-1.68,3.74-3.42,5.56-5.01,2.36-2.06,4.19-3.01,5.21-2.93,1.5.12,3.69,1.21,6.52,3.21s4.33,3.46,4.53,4.42Z"/>
          <path class="cls-35" d="M1712.72,169.38c-.02,1.55-1.01,2.36-2.97,2.43-.34-.01-.8-.06-1.38-.16-2.35-.38-5.21-1.16-8.56-2.34-3.61-1.27-5.69-2.34-6.21-3.23-.27-.4.13-1.03,1.22-1.89.7-.56,1.19-1.71,1.48-3.45,1.82-10.98,2.73-16.47,4.54-27.45-.53-1.83-.75-3.04-.66-3.61.09-.57,1.39-.57,3.87,0,2.02.46,4.76,1.52,8.21,3.15,3.45,1.63,5.49,2.83,6.11,3.59.17.22.23.45.19.7-.06.34-.56.87-1.5,1.62-.94.75-1.45,1.36-1.53,1.82-1.85,10.17-2.77,15.26-4.62,25.43-.08.42.2,1.01.84,1.77.64.76.96,1.29.97,1.6ZM1721.04,125.97c.05.1.06.28,0,.53-.17.92-.69,2.05-1.57,3.36-.96,1.43-1.77,2.17-2.4,2.18-.69.01-3.5-1.14-8.43-3.46-4.93-2.31-7.53-3.75-7.79-4.31-.17-.27-.21-.62-.14-1.06.19-1.18.87-2.32,2.03-3.39,1.32-1.22,2.7-1.74,4.07-1.56,1.58.21,4.24,1.29,7.93,3.2,3.69,1.91,5.78,3.41,6.29,4.51Z"/>
          <path class="cls-35" d="M1774.25,149.31c.37.5.51.94.42,1.31-.09.37-.58.7-1.47,1-.89.3-1.35.53-1.39.68-2.54,10.33-3.81,15.5-6.36,25.83-.05.22.06.66.35,1.3.29.65.4,1.1.33,1.36-.16.66-1.29.93-3.38.81-1.08-.07-3.47-.78-7.17-2.12-4.02-1.45-6.17-2.53-6.42-3.22-.21-.56.04-1.24.75-1.96.86-.87,1.36-1.49,1.45-1.87.09-.38.1-.9.05-1.56-1.42,1.71-3.19,3.17-5.28,4.31-2.52,1.37-4.9,1.85-7.05,1.45-2.22-.42-4.99-1.4-8.33-2.97-3.34-1.57-5.2-2.8-5.57-3.67-1.36-9.91,3.71-22.63,2.93-29.65-.08-.7-.5-1.76-.35-2.54.25-1.28,1.18-1.95,2.81-2.01.49,0,1.34.15,2.55.46,2.28.58,4.94,1.5,8,2.74,3.05,1.24,4.86,2.17,5.44,2.78.28.33.39.63.34.9-.09.43-.74,1-1.95,1.71-1.21.71-1.85,1.29-1.95,1.73-3.37,15.55-4.92,23.52-4.42,23.75.87.38,3.57-1.01,8.12-4,4.55-2.99,7.07-5.37,7.51-7.33.98-4.31,1.47-6.47,2.45-10.79-.75-.73-1.04-1.46-.88-2.2.34-1.5,1.7-2.22,4.09-2.12.28,0,.69.07,1.23.22,1.8.51,4.38,1.49,7.72,2.95,3.34,1.46,5.15,2.37,5.41,2.72Z"/>
          <path class="cls-35" d="M1811.04,186.11c-.55,1.8-2.18,2.93-4.88,3.43-2.7.5-6.2.27-10.47-.72-1.03-.24-2.15-.6-3.33-1.06-2.12-.83-3.24-1.27-3.36-1.34-1.13-.41-2.27-.83-3.43-1.27-1.16-.44-2.11-.94-2.85-1.53-1.24-1.04-2.37-2.35-3.41-3.91-.84-1.26-1.65-2.54-2.43-3.83-.77-1.3-1.13-2.06-1.08-2.27.13-.51.88-.73,2.26-.66.35,0,.94.12,1.79.33,1.96.49,4.4,1.22,7.31,2.21,2.91.99,4.47,1.59,4.69,1.82s.3,1.32.24,3.26c-.05,1.69.4,2.65,1.38,2.89,1.49.37,2.55-.5,3.15-2.62.77-2.7-.11-4.76-2.66-6.18-5.84-3.23-9.59-5.74-11.23-7.51-2.02-2.18-2.63-4.86-1.82-8,.53-2.06,2.03-3.72,4.49-4.94,2.46-1.22,5.1-1.57,7.91-1.08,1.23.23,4.89,2.1,10.95,5.58.56.29,2.27,1.03,5.08,2.23,1.98.85,3.33,1.67,4.03,2.44,1.02,1.16,1.42,2.67,1.07,4.31-.26,1.21-.91,2.67-1.02,3.69-.1,1.02.14,1.98.08,2.18-.28.92-1.33,1.19-3.13.8-.94-.2-2.69-.9-5.23-2.12-2.79-1.34-4.51-2.42-5.14-3.19-.16-.19.02-1.54.51-4.02.46-2.34.32-3.64-.4-3.86-.99-.3-2.1.09-3.33,1.19-1.23,1.1-2.05,2.38-2.46,3.84-.51,1.84-.08,3.22,1.29,4.12,2.95,1.83,5.87,3.64,8.76,5.45,2.89,1.81,4.81,3.37,5.76,4.66,1.24,1.71,1.55,3.6.9,5.69Z"/>
        </g>
        <g>
          <path class="cls-16" d="M1112.17,150.49c-.09,1.64-.15,2.95-.18,3.93-.03.97-.03,1.72.01,2.22.04.51.11.91.2,1.22.15.52.4.94.73,1.25.33.31.81.37,1.42.2.45-10.22.99-20.45,1.63-30.66,1.74-2.51,4.46-4.19,8.15-5.05,2-.47,4.02-.56,6.05-.28,2.04.28,3.97.98,5.78,2.08,1.81,1.1,3.42,2.63,4.84,4.58,1.41,1.95,2.49,4.35,3.25,7.2.63,2.38.92,4.8.88,7.25-.04,2.46-.35,4.91-.93,7.35-.57,2.45-1.39,4.82-2.43,7.14-1.05,2.31-2.25,4.49-3.62,6.52-1.08-.44-2.05-.72-2.89-.84-.84-.12-1.63-.07-2.37.13-.58.16-1.02.51-1.33,1.06-.31.55-.33,1.32-.05,2.32.66,0,1.32.03,1.98.07.67.05,1.38.17,2.14.38.76.2,1.61.55,2.55,1.03.94.48,1.98,1.14,3.14,1.97,6.8,4.89,10.17,7.31,16.83,12.14,1.35,6.92,1.24,12.49-.32,16.73-1.56,4.25-4.61,7.11-9.19,8.57-1.57.5-3.15.71-4.75.61-1.6-.09-3.23-.58-4.91-1.45-1.67-.87-3.37-2.18-5.1-3.92-1.73-1.74-3.47-4.01-5.22-6.82-3.47-5.5-5.22-8.26-8.74-13.79-.09.03-.14.04-.24.07-.6.18-.95.51-1.06.97-.11.46-.09.91.03,1.35.2.7,1.19,2.48,2.96,5.33,1.77,2.85,4.35,6.78,7.71,11.78.58,2.01.87,3.01,1.44,5.02-.39.99-.92,1.99-1.58,3.03-.66,1.03-1.47,2.02-2.42,2.97-.95.95-2.06,1.83-3.31,2.65-1.26.82-2.68,1.5-4.26,2.06-1.71.6-3.43.91-5.18.94-1.75.03-3.39-.28-4.92-.94-1.54-.66-2.92-1.7-4.16-3.13-1.24-1.43-2.21-3.28-2.9-5.54l-21.13-68.68c.94-2.29,2.52-4.35,4.75-6.2,2.23-1.84,4.94-3.18,8.12-4.01,1.89-.49,3.76-.71,5.61-.67,1.85.04,3.58.44,5.2,1.17,1.62.74,3.06,1.87,4.33,3.39,1.27,1.52,2.27,3.54,2.99,6.06.34,1.17.51,1.76.84,2.94-.18,2.57-.3,4.68-.39,6.33Z"/>
          <path class="cls-16" d="M1143.89,114.57c.61-.62,1.37-1.26,2.28-1.92.91-.66,1.98-1.28,3.2-1.86,1.23-.58,2.58-1.02,4.06-1.32,2.42-.49,4.58-.56,6.48-.23,1.9.33,3.55.98,4.95,1.95,1.4.97,2.56,2.24,3.49,3.8.93,1.56,1.64,3.36,2.14,5.4,3.58,14.61,7.15,29.22,10.73,43.83.7,2.87,1.55,5.27,2.52,7.21.98,1.94,2.26,3.27,3.85,4.01.11.32.23.72.34,1.2.12.48.2.84.26,1.09,1.45,6.01,1.4,10.83-.15,14.5-1.55,3.67-4.33,6.09-8.39,7.26-1.83.53-3.68.69-5.56.47-1.88-.22-3.69-.97-5.43-2.28-1.74-1.31-3.37-3.22-4.88-5.74-1.51-2.52-2.81-5.82-3.88-9.89-5.78-22.02-11.55-44.03-17.33-66.05.27-.33.71-.8,1.32-1.42Z"/>
          <path class="cls-16" d="M1180.23,134.37c.53-.68,1.08-1.25,1.66-1.72.58-.47,1.19-1.03,1.83-1.68-.72-.28-1.5-.73-2.34-1.34-.84-.61-1.66-1.38-2.45-2.33-.8-.94-1.54-2.06-2.21-3.36-.68-1.3-1.22-2.79-1.63-4.49-.64-2.65-.85-5.14-.62-7.45.23-2.31.82-4.37,1.76-6.16.94-1.79,2.19-3.27,3.75-4.44,1.55-1.17,3.35-1.93,5.38-2.27,2.06-.35,4.07-.22,6.02.39,1.94.61,3.73,1.58,5.36,2.91,1.63,1.33,3.04,3,4.23,5.01,1.19,2,2.06,4.24,2.61,6.71.47,2.11.61,4.11.43,6.02-.18,1.91-.59,3.66-1.23,5.26-.64,1.6-1.49,3-2.56,4.21-1.07,1.21-2.25,2.13-3.54,2.77.14.61.37,1.13.69,1.56.32.43.74.59,1.27.48,1.64-.33,3.16-1.48,4.57-3.45.12.06.31.17.59.33.28.16.58.35.9.59.33.23.63.46.92.68.29.22.48.38.57.49,2.15,9.63,3.22,14.45,5.37,24.08.62,2.8,1.4,5.15,2.32,7.04.92,1.9,2.17,3.22,3.74,3.96.1.32.21.71.31,1.17.1.47.18.82.23,1.06.68,3.07.93,5.8.76,8.18-.17,2.38-.69,4.44-1.56,6.18-.87,1.74-2.04,3.16-3.52,4.27-1.48,1.11-3.18,1.92-5.11,2.43-1.49.39-3.13.48-4.92.26-1.79-.22-3.54-.93-5.27-2.14-1.73-1.2-3.35-3-4.88-5.39-1.52-2.39-2.76-5.55-3.71-9.48-3.23-13.45-6.47-26.89-9.7-40.34Z"/>
          <path class="cls-16" d="M1248.04,175.55c-1.02,2.12-2.53,3.98-4.52,5.6-1.98,1.61-4.38,2.76-7.2,3.42-1.41.33-2.89.42-4.46.24-1.56-.17-3.05-.65-4.45-1.43-1.4-.78-2.66-1.88-3.76-3.29-1.1-1.41-1.89-3.21-2.37-5.39-5.15-23.54-10.3-47.08-15.45-70.62,1.31-1.34,3.02-2.56,5.14-3.66,2.12-1.1,4.38-1.82,6.78-2.17,1.76-.26,3.52-.29,5.28-.09,1.76.2,3.39.67,4.88,1.41,1.49.75,2.78,1.8,3.87,3.17,1.09,1.37,1.84,3.1,2.26,5.19.5,2.51.75,3.76,1.26,6.27.59,2.96.92,5.76.99,8.4.07,2.64,0,5.1-.22,7.39-.14.47-.38,1.05-.72,1.72-.34.67-.67,1.37-.98,2.08-.31.71-.57,1.4-.78,2.05-.21.65-.27,1.18-.19,1.58.15.71.66,1.24,1.54,1.57,1.03-1.75,1.88-3.5,2.56-5.26.68-1.76,1.23-3.62,1.66-5.58.42-1.96.73-4.07.92-6.31.19-2.24.3-4.72.35-7.44.42-.14.94-.33,1.56-.57.62-.23,1.26-.47,1.92-.71.66-.24,1.28-.45,1.88-.64.6-.19,1.1-.31,1.5-.37,2.5-.36,4.83-.34,6.97.06,2.14.4,4.04,1.17,5.68,2.31,1.64,1.14,3.02,2.63,4.14,4.47,1.11,1.84,1.9,4.02,2.36,6.56.43,2.39.48,4.61.15,6.68-.33,2.07-.95,3.98-1.85,5.74-.9,1.76-2.03,3.34-3.37,4.75-1.34,1.41-2.82,2.64-4.43,3.69.99.47,1.95.85,2.87,1.15.92.3,1.85.55,2.79.74.94.2,1.92.34,2.96.44,1.03.1,2.19.16,3.45.18,1.22,1.74,2.21,3.55,3,5.43.79,1.88,1.35,3.77,1.69,5.65.39,2.15.47,4.24.27,6.27-.21,2.03-.74,3.88-1.6,5.55-.86,1.67-2.05,3.09-3.58,4.27-1.53,1.18-3.41,2.01-5.64,2.48-2.2.47-4.31.36-6.32-.32-2.02-.69-3.9-1.88-5.65-3.6-1.75-1.71-3.35-3.92-4.78-6.62-1.43-2.7-2.66-5.82-3.67-9.36-.82.68-1.23,1.03-2.05,1.71.27,1.35.67,2.73,1.19,4.15.52,1.42,1.11,2.79,1.76,4.12.65,1.33,1.36,2.59,2.13,3.78.77,1.19,1.54,2.24,2.31,3.14Z"/>
        </g>
        <g>
          <path class="cls-43" d="M1369.98,134.88c-.81,1.87-1.84,3.94-3.1,6.24-1.25,2.29-2.7,4.6-4.34,6.92-1.64,2.33-3.4,4.61-5.3,6.86-1.9,2.25-3.89,4.31-5.97,6.18-2.09,1.87-4.23,3.44-6.41,4.68-2.19,1.25-4.38,2.04-6.59,2.38-2.72.41-4.94-.06-6.66-1.44-1.72-1.37-2.79-3.56-3.21-6.55-.46-3.29-.09-6.87,1.16-10.72,1.24-3.85,3.02-7.45,5.35-10.8,2.32-3.35,5-6.18,8.04-8.48,3.03-2.31,6.07-3.58,9.1-3.85,1.68-.15,3.04.12,4.07.8,1.03.68,1.63,1.74,1.8,3.18.2,1.73-.47,3.49-2.01,5.28-1.54,1.8-3.48,3.5-5.8,5.12-2.32,1.62-4.84,3.13-7.55,4.53-2.71,1.4-6.35,2.4-7.22,3.31-.66.68-.89,3.32-1.1,5.24-.21,1.92-.18,3.81.07,5.66.12.89.32,1.75.6,2.58.28.83.65,1.57,1.1,2.22.45.65,1.02,1.15,1.7,1.51.68.35,1.47.46,2.38.33,2.15-.31,4.56-1.47,7.26-3.45,2.7-1.97,5.39-4.46,8.1-7.44,2.7-2.98,5.25-6.27,7.65-9.87,2.4-3.6,4.42-7.22,6.04-10.89.34.19.52.28.86.47ZM1353.07,130.62c-.12-1.02-.47-1.75-1.03-2.22-.56-.46-1.22-.66-1.96-.59-1.41.13-2.87.87-4.36,2.24-1.49,1.37-2.92,3.03-4.29,5.01-1.37,1.97-2.57,4.07-3.59,6.29-1.02,2.22-1.75,4.19-2.19,5.9,1.41-.48,3.16-1.28,5.23-2.38,2.07-1.11,4.04-2.4,5.91-3.86,1.87-1.47,3.44-3.09,4.71-4.87,1.27-1.78,1.79-3.61,1.56-5.5Z"/>
          <path class="cls-43" d="M1398.84,87.44c-4.73,8.16-9.32,16.42-13.78,24.72-3.82,7.1-7.03,13.3-9.66,18.51-2.63,5.2-4.74,9.55-6.37,13-1.63,3.45-2.88,6.29-3.76,8.49-.88,2.21-1.46,3.95-1.75,5.23-.29,1.28-.38,2.35-.28,3.21.21,1.8,1.03,2.61,2.46,2.43,1.63-.2,3.45-1.17,5.48-2.9,2.03-1.72,4.17-3.98,6.43-6.76,2.27-2.78,4.56-5.96,6.88-9.53,2.32-3.57,4.57-7.32,6.77-11.25.46.14.69.21,1.14.34-2.08,3.71-4.28,7.34-6.61,10.9-2.32,3.56-4.57,6.72-6.74,9.44-2.87,3.59-5.39,6.29-7.54,8.06-2.15,1.77-4.16,2.79-6.05,3.03-2.02.26-3.52-.06-4.52-.96-1-.9-1.6-2.18-1.8-3.84-.18-1.52-.12-3.12.18-4.81.3-1.69.91-3.73,1.83-6.14.92-2.4,2.18-5.32,3.77-8.74,1.6-3.42,3.59-7.59,6.01-12.47,2.42-4.88,5.3-10.64,8.69-17.21,3.38-6.56,7.33-14.17,11.92-22.69,2.92-.04,4.37-.05,7.29-.07Z"/>
          <path class="cls-43" d="M1421.94,87.49c-5.56,8.97-10.27,16.97-14.23,23.81-3.96,6.85-7.27,12.83-10,17.85-2.73,5.02-4.92,9.23-6.61,12.56-1.69,3.33-2.99,6.08-3.92,8.21-.92,2.14-1.54,3.83-1.84,5.07-.31,1.24-.42,2.28-.33,3.12.17,1.76.98,2.56,2.42,2.41,1.63-.17,3.47-1.09,5.53-2.74,2.06-1.64,4.24-3.81,6.56-6.48,2.32-2.67,4.67-5.73,7.05-9.17,2.38-3.43,4.71-7.05,6.97-10.84.45.14.68.21,1.14.35-2.15,3.57-4.42,7.08-6.81,10.5-2.39,3.43-4.69,6.47-6.92,9.08-2.94,3.45-5.5,6.04-7.69,7.74-2.18,1.7-4.22,2.66-6.11,2.86-2.02.22-3.52-.11-4.5-1-.98-.89-1.56-2.15-1.72-3.77-.15-1.48-.06-3.05.27-4.68.33-1.64.98-3.62,1.95-5.95.97-2.33,2.28-5.15,3.94-8.45,1.66-3.3,3.73-7.33,6.24-12.05,2.51-4.72,5.5-10.28,9-16.61,3.5-6.33,7.59-13.66,12.33-21.87,2.91.02,4.37.03,7.28.06Z"/>
          <path class="cls-43" d="M1447.92,130.66c-.92,1.65-2.08,3.48-3.48,5.49-1.4,2.01-2.98,4.03-4.76,6.05-1.78,2.02-3.69,4.01-5.72,5.95-2.03,1.94-4.15,3.71-6.35,5.31-2.2,1.59-4.44,2.91-6.7,3.93-2.26,1.02-4.5,1.64-6.73,1.83-2.75.23-4.93-.31-6.55-1.65-1.63-1.34-2.56-3.39-2.79-6.14-.25-3.02.35-6.27,1.83-9.71,1.48-3.44,3.49-6.63,6.01-9.56,2.53-2.93,5.38-5.35,8.55-7.29,3.17-1.93,6.28-2.92,9.32-2.99,1.68-.04,3.02.28,4.01.95.98.67,1.52,1.67,1.59,2.99.09,1.58-.69,3.14-2.34,4.69-1.65,1.55-3.69,2.99-6.11,4.33-2.42,1.34-5.03,2.58-7.82,3.71-2.79,1.13-6.46,1.8-7.41,2.63-.67.58-1.1,2.98-1.43,4.71-.33,1.74-.42,3.46-.29,5.16.07.82.21,1.62.44,2.39.23.77.55,1.47.96,2.08.41.62.94,1.1,1.6,1.46.65.36,1.44.5,2.36.42,2.16-.18,4.64-1.11,7.46-2.76,2.82-1.66,5.67-3.78,8.55-6.34,2.88-2.57,5.63-5.42,8.25-8.56,2.62-3.14,4.86-6.31,6.7-9.55.33.19.5.28.83.47ZM1431.32,125.85c-.06-.93-.35-1.62-.89-2.07-.53-.45-1.17-.67-1.91-.65-1.42.04-2.91.63-4.49,1.79-1.57,1.16-3.11,2.6-4.6,4.32-1.49,1.72-2.82,3.56-3.97,5.53-1.16,1.96-2.01,3.72-2.56,5.26,1.44-.36,3.23-1,5.37-1.89,2.14-.9,4.19-1.96,6.14-3.2,1.96-1.23,3.62-2.62,5-4.18,1.38-1.55,2.01-3.18,1.91-4.91Z"/>
          <path class="cls-43" d="M1456.91,122.28c-4.83,7.16-7.2,10.82-11.88,18.26.08.08.13.11.21.19.87-1.15,1.98-2.48,3.34-3.98,1.36-1.51,2.85-3.04,4.49-4.59,1.63-1.55,3.36-3.08,5.18-4.58,1.82-1.5,3.61-2.82,5.39-3.97.31-.64.66-1.15,1.05-1.53.39-.38,1.19-.57,2.41-.56.74,0,1.4.02,1.98.06.57.04,1.17.09,1.78.16-1.11,1.07-2.18,2.38-3.2,3.93-1.02,1.56-1.49,3.26-1.43,5.11.05,1.46.48,2.61,1.28,3.42.8.82,1.76,1.22,2.9,1.21,1-.01,1.98-.21,2.93-.59.95-.39,1.86-.86,2.71-1.43.85-.57,1.67-1.16,2.46-1.79.79-.62,1.47-1.18,2.07-1.68.25.15.37.23.61.38-.66.62-1.41,1.29-2.26,2.01-.85.72-1.77,1.4-2.75,2.03-.98.63-2.04,1.16-3.16,1.58-1.12.42-2.28.64-3.48.65-2.13.03-3.87-.57-5.22-1.79-1.35-1.23-2.07-2.96-2.16-5.2-.06-1.53.25-2.91.94-4.13-.08-.08-.13-.11-.21-.19-2.69,1.8-5.61,4.18-8.75,7.18-3.14,3-6.44,6.59-9.86,10.8-1.25,1.5-2.52,3.46-3.8,5.9-1.28,2.44-2.37,4.96-3.27,7.54-2.56.17-3.83.25-6.39.43,3.17-5.98,6.39-11.83,9.66-17.56,3.27-5.73,6.69-11.47,10.26-17.22,2.47-.02,3.7-.03,6.17-.04Z"/>
        </g>
      </g>
      <rect class="cls-62" x="103" y="109.66" width="602.35" height="860.34" rx="12" ry="12"/>
    </g>
    <g id="Lag_9" data-name="Lag 9">
      <rect class="cls-43" x="126.86" y="131.59" width="553.64" height="812.49" rx="12" ry="12"/>
    </g>
    <g id="Tekst_om_spilelt" data-name="Tekst om spilelt">
      <text class="cls-12" transform="translate(140.77 172.2)"><tspan class="cls-100" x="0" y="0">G</tspan><tspan x="19.53" y="0">r</tspan><tspan class="cls-70" x="45.81" y="0"> </tspan><tspan class="cls-60" x="50.94" y="0">T</tspan><tspan x="63.93" y="0">andlgen</tspan><tspan class="cls-70" x="190.68" y="0"> </tspan><tspan class="cls-72" x="195.81" y="0">T</tspan><tspan x="209.88" y="0">ilf</tspan><tspan class="cls-83" x="232.74" y="0">r</tspan><tspan x="242.25" y="0">eds!</tspan><tspan class="cls-98" x="0" y="74">K</tspan><tspan x="16.74" y="74">an du holde munden </tspan><tspan class="cls-81" x="285.69" y="74">r</tspan><tspan x="295.2" y="74">en </tspan><tspan class="cls-40" x="333.24" y="74">o</tspan><tspan x="349.73" y="74">g g</tspan><tspan class="cls-83" x="406.1" y="74">r</tspan><tspan x="415.61" y="74">e </tspan><tspan x="0" y="111">tandlgen tilf</tspan><tspan class="cls-83" x="175.83" y="111">r</tspan><tspan x="185.34" y="111">eds? I det</tspan><tspan class="cls-73" x="303.12" y="111">t</tspan><tspan x="312.87" y="111">e spil s</tspan><tspan class="cls-95" x="395.54" y="111">k</tspan><tspan x="410.15" y="111">al du </tspan><tspan x="0" y="148">hu</tspan><tspan class="cls-92" x="33.18" y="148">r</tspan><tspan x="43.71" y="148">tigt </tspan><tspan class="cls-83" x="93.72" y="148">r</tspan><tspan x="103.23" y="148">eage</tspan><tspan class="cls-83" x="164.52" y="148">r</tspan><tspan class="cls-79" x="174.03" y="148">e</tspan><tspan x="188.7" y="148">, mens ting falder ned f</tspan><tspan class="cls-76" x="475.07" y="148">r</tspan><tspan x="484.73" y="148">a </tspan><tspan class="cls-74" x="0" y="185">t</tspan><tspan x="9.75" y="185">op</tspan><tspan class="cls-41" x="43.29" y="185">p</tspan><tspan x="60.39" y="185">en af s</tspan><tspan class="cls-95" x="139.89" y="185">k</tspan><tspan x="154.5" y="185"></tspan><tspan class="cls-101" x="177.69" y="185">r</tspan><tspan x="187.62" y="185">men.</tspan><tspan class="cls-44" x="0" y="259">D</tspan><tspan x="20.07" y="259">u har 20 se</tspan><tspan class="cls-101" x="154.29" y="259">k</tspan><tspan x="168.48" y="259">under til </tspan><tspan class="cls-77" x="280.16" y="259">a</tspan><tspan x="294.5" y="259">t </tspan><tspan class="cls-74" x="310.79" y="259">g</tspan><tspan class="cls-101" x="327.38" y="259">r</tspan><tspan x="337.31" y="259">i</tspan><tspan class="cls-41" x="344.33" y="259">b</tspan><tspan x="361.43" y="259">e 10 </tspan><tspan x="0" y="296">tand</tspan><tspan class="cls-40" x="57.96" y="296">b</tspan><tspan x="75.06" y="296">rs</tspan><tspan class="cls-73" x="113.22" y="296">t</tspan><tspan x="122.97" y="296">er </tspan><tspan class="cls-40" x="154.17" y="296">o</tspan><tspan x="170.67" y="296">g undg de s</tspan><tspan class="cls-40" x="331.67" y="296">o</tspan><tspan x="348.17" y="296">d</tspan><tspan class="cls-85" x="365.09" y="296">a</tspan><tspan class="cls-77" x="379.31" y="296">v</tspan><tspan x="393.62" y="296">an</tspan><tspan class="cls-83" x="424.73" y="296">d</tspan><tspan x="441.35" y="296">, der </tspan><tspan x="0" y="333">t</tspan><tspan class="cls-88" x="9.93" y="333">r</tspan><tspan x="19.68" y="333">uer med </tspan><tspan class="cls-77" x="130.74" y="333">a</tspan><tspan x="145.08" y="333">t </tspan><tspan class="cls-73" x="161.37" y="333">g</tspan><tspan x="177.96" y="333">i</tspan><tspan class="cls-83" x="184.98" y="333">v</tspan><tspan x="199.11" y="333">e dig huller i tnde</tspan><tspan class="cls-101" x="441.2" y="333">r</tspan><tspan x="451.13" y="333">ne! </tspan><tspan class="cls-104" x="0" y="370">H</tspan><tspan class="cls-83" x="19.86" y="370">v</tspan><tspan x="33.99" y="370">er tand</tspan><tspan class="cls-40" x="123.15" y="370">b</tspan><tspan x="140.25" y="370">rs</tspan><tspan class="cls-73" x="178.41" y="370">t</tspan><tspan class="cls-80" x="188.16" y="370">e</tspan><tspan x="202.83" y="370">, du </tspan><tspan class="cls-73" x="255.21" y="370">g</tspan><tspan class="cls-101" x="271.8" y="370">r</tspan><tspan x="281.72" y="370">i</tspan><tspan class="cls-40" x="288.74" y="370">b</tspan><tspan x="305.84" y="370">e</tspan><tspan class="cls-63" x="320.87" y="370">r</tspan><tspan x="329.09" y="370">, </tspan><tspan class="cls-73" x="341.66" y="370">g</tspan><tspan x="358.25" y="370">i</tspan><tspan class="cls-83" x="365.27" y="370">v</tspan><tspan x="379.4" y="370">er dig 1 </tspan><tspan class="cls-40" x="0" y="407">p</tspan><tspan x="17.1" y="407">oi</tspan><tspan class="cls-77" x="40.59" y="407">n</tspan><tspan class="cls-87" x="57.12" y="407">t</tspan><tspan x="66.96" y="407">, men </tspan><tspan class="cls-77" x="142.59" y="407">v</tspan><tspan x="156.9" y="407">r </tspan><tspan class="cls-68" x="196.26" y="407">f</tspan><tspan x="204.63" y="407">orsigtig  </tspan><tspan class="cls-76" x="328.01" y="407">r</tspan><tspan x="337.68" y="407">ammer du en </tspan><tspan x="0" y="444">s</tspan><tspan class="cls-40" x="11.88" y="444">o</tspan><tspan x="28.38" y="444">d</tspan><tspan class="cls-85" x="45.3" y="444">a</tspan><tspan class="cls-77" x="59.52" y="444">v</tspan><tspan x="73.83" y="444">an</tspan><tspan class="cls-83" x="104.94" y="444">d</tspan><tspan x="121.56" y="444">, mis</tspan><tspan class="cls-74" x="178.05" y="444">t</tspan><tspan x="187.8" y="444">er du et af dine t</tspan><tspan class="cls-81" x="391.61" y="444">r</tspan><tspan x="401.12" y="444">e li</tspan><tspan class="cls-71" x="436.61" y="444">v</tspan><tspan x="449.87" y="444">.</tspan><tspan class="cls-44" x="0" y="518">S</tspan><tspan x="14.88" y="518">dan spiller du:</tspan><tspan class="cls-46" x="0" y="555">G</tspan><tspan class="cls-101" x="19.44" y="555">r</tspan><tspan x="29.37" y="555">ib tand</tspan><tspan class="cls-40" x="117.78" y="555">b</tspan><tspan x="134.88" y="555">rs</tspan><tspan class="cls-74" x="173.04" y="555">t</tspan><tspan x="182.79" y="555">e</tspan><tspan class="cls-101" x="197.82" y="555">r</tspan><tspan x="207.75" y="555">ne </tspan><tspan class="cls-68" x="245.79" y="555">f</tspan><tspan x="254.16" y="555">or </tspan><tspan class="cls-77" x="286.8" y="555">a</tspan><tspan x="301.14" y="555">t samle </tspan><tspan class="cls-40" x="397.25" y="555">p</tspan><tspan x="414.35" y="555">oi</tspan><tspan class="cls-77" x="437.84" y="555">n</tspan><tspan x="454.37" y="555">t </tspan><tspan class="cls-40" x="470.66" y="555">o</tspan><tspan x="487.16" y="555">g </tspan><tspan x="0" y="592">g</tspan><tspan class="cls-83" x="33.24" y="592">r</tspan><tspan x="42.75" y="592">e tandlgen tilf</tspan><tspan class="cls-83" x="239.97" y="592">r</tspan><tspan x="249.48" y="592">ed</tspan><tspan class="cls-78" x="281.43" y="592">s</tspan><tspan x="292.98" y="592">.</tspan><tspan class="cls-86" x="0" y="629">U</tspan><tspan x="19.38" y="629">ndg s</tspan><tspan class="cls-40" x="102.42" y="629">o</tspan><tspan x="118.92" y="629">d</tspan><tspan class="cls-85" x="135.84" y="629">a</tspan><tspan class="cls-77" x="150.06" y="629">v</tspan><tspan x="164.37" y="629">anden</tspan><tspan class="cls-80" x="244.08" y="629">e</tspan><tspan x="258.75" y="629">, da </tspan><tspan class="cls-68" x="309.06" y="629">h</tspan><tspan class="cls-83" x="325.32" y="629">v</tspan><tspan x="339.45" y="629">er en</tspan><tspan class="cls-40" x="402.33" y="629">k</tspan><tspan x="416.42" y="629">elt </tspan><tspan class="cls-40" x="0" y="666">k</tspan><tspan x="14.1" y="666">os</tspan><tspan class="cls-73" x="42.45" y="666">t</tspan><tspan x="52.2" y="666">er dig et li</tspan><tspan class="cls-71" x="175.89" y="666">v</tspan><tspan x="189.15" y="666">.</tspan><tspan class="cls-99" x="0" y="703">M</tspan><tspan x="24.3" y="703">ed </tspan><tspan class="cls-101" x="62.61" y="703">k</tspan><tspan x="76.8" y="703">un 3 liv har du b</tspan><tspan class="cls-88" x="277.13" y="703">r</tspan><tspan x="286.88" y="703">ug </tspan><tspan class="cls-68" x="326.54" y="703">f</tspan><tspan x="334.91" y="703">or hu</tspan><tspan class="cls-93" x="400.73" y="703">r</tspan><tspan x="411.26" y="703">tige </tspan><tspan class="cls-83" x="0" y="740">r</tspan><tspan x="9.51" y="740">eflekser </tspan><tspan class="cls-40" x="112.41" y="740">o</tspan><tspan x="128.91" y="740">g p</tspan><tspan class="cls-75" x="169.11" y="740">r</tspan><tspan x="178.77" y="740">cise </tspan><tspan class="cls-97" x="255.69" y="740">k</tspan><tspan x="270.27" y="740">lik </tspan><tspan class="cls-67" x="304.8" y="740">f</tspan><tspan x="313.17" y="740">or </tspan><tspan class="cls-77" x="345.81" y="740">a</tspan><tspan x="360.15" y="740">t </tspan><tspan class="cls-97" x="376.43" y="740">k</tspan><tspan x="391.01" y="740">la</tspan><tspan class="cls-83" x="412.55" y="740">r</tspan><tspan x="422.06" y="740">e </tspan></text>
      <g>
        <path class="cls-10" d="M1060.88,596.98c-16.7,49.01-39.94,87.9-58.67,101.22-4.62,3.29-8.96,5.02-12.88,4.96-4.46-.88-8.71-4.4-12.59-10.1-5.72-8.36-10.69-21.41-14.48-37.69-3.8,16.36-8.78,29.45-14.51,37.83-3.88,5.7-8.13,9.23-12.59,10.1-3.92.06-8.26-1.67-12.88-4.96-18.73-13.32-41.97-52.21-58.67-101.22-17.73-51.99-22.75-99.67-14.19-120.25,6.37-22.93,27.08-39.73,51.65-39.73,15.62,0,29.67,6.78,39.48,17.62.01.01.02.02.02.04.98,1.46,2.1,2.82,3.33,4.04,4.68,4.68,11.1,7.56,18.18,7.56,7.61,0,14.46-3.34,19.21-8.64.05-.06.08-.11.13-.16.01-.01.02-.02.04-.04.4-.46.78-.92,1.14-1.4.01-.02.04-.04.05-.06,9.84-11.7,24.45-19.1,40.76-19.1,24.57,0,45.28,16.8,51.65,39.73,8.56,20.58,3.54,68.25-14.19,120.25Z"/>
        <g class="cls-21">
          <path class="cls-11" d="M1060.28,472.24c-13.4.17-22.03,8.95-22.2,22.58.17-13.63-8.26-22.21-21.66-22.05,13.4-.16,22.03-8.93,22.18-22.57-.16,13.63,8.27,22.2,21.67,22.03Z"/>
          <path class="cls-2" d="M1060.28,472.24c-13.4.17-22.03,8.95-22.2,22.58.17-13.63-8.26-22.21-21.66-22.05,13.4-.16,22.03-8.93,22.18-22.57-.16,13.63,8.27,22.2,21.67,22.03Z"/>
        </g>
        <g class="cls-21">
          <path class="cls-11" d="M1071.97,504.05c-8.82.11-14.5,5.88-14.61,14.86.1-8.98-5.44-14.61-14.27-14.5,8.82-.12,14.5-5.9,14.61-14.88-.1,8.98,5.44,14.62,14.27,14.51Z"/>
          <path class="cls-2" d="M1071.97,504.05c-8.82.11-14.5,5.88-14.61,14.86.1-8.98-5.44-14.61-14.27-14.5,8.82-.12,14.5-5.9,14.61-14.88-.1,8.98,5.44,14.62,14.27,14.51Z"/>
        </g>
      </g>
      <text class="cls-61" transform="translate(874.58 567.78)"><tspan class="cls-84" x="0" y="0">St</tspan><tspan class="cls-103" x="71.09" y="0">a</tspan><tspan x="110.64" y="0">rt</tspan></text>
    </g>
  </g>
</svg>