<?xml version="1.0" encoding="UTF-8"?>
<svg xmlns="http://www.w3.org/2000/svg" xmlns:xlink="http://www.w3.org/1999/xlink" viewBox="0 0 595.28 841.89">
  <defs>
    <style>
      .cls-1 {
        fill: #4f5441;
      }

      .cls-2 {
        fill: #bad4d4;
        opacity: .75;
      }
    </style>
  </defs>
  <g id="Lag_2" data-name="Lag 2">
    <g>
      <path class="cls-1" d="M609.4,799.13c-3.31-1.42-8.25-2.26-14.05-2.67-.78-1.91-1.62-3.74-2.47-5.64-2.28-3.15-4.49-6.5-6.65-10,3.49-1.74,6.33-3.67,8.22-5.81-3.16-1.37-7.58-1.83-12.67-1.72-.36-.63-.72-1.27-1.08-1.9,2.1.34,4.01.72,5.68,1.13-2.06-2.57-5.12-4.86-8.86-6.88-1.38-2.52-2.74-5.07-4.1-7.62.24-.02.49-.05.73-.08-.35-.19-.71-.39-1.08-.58-1.94-3.64-3.88-7.28-5.83-10.87-3.69-6.8-7.41-14.51-11.08-21.19-1.53-2.79-4.68-8.43-6.36-10.83,2.92-11.06-1.44-28.8-5.85-38.89-2.25-5.16-4.13-10.69-7.46-15.23-2.29-3.13-7.36-9.28-11.08-10.48,2.62,6.4,5.18,13.05,7.07,19.72,1.35,4.77,2.52,7.72,3.63,11.49,2.77,9.39,9.64,24.17,12.88,33.87.81,3.21,1.59,4.16,3.35,7.72.35.72.71,1.43,1.07,2.14-8.67-11.74-20.51-27.55-28.47-37.34-3.38-4.15-6.37-7.96-10.04-13.63-5.43-8.38-11.54-14.82-17.07-22.17-.63,4.34,3.17,14.16,4.77,19.04,2.25,6.88,5.6,13.02,9.75,20.07,8.74,14.84,26.44,33.67,42.5,36.91,2.6,5.18,5.23,10.33,7.89,15.45-11.22-9.76-33.05-22.98-43.47-31.86-4.07-3.47-7.05-6.52-12.31-10.76-7.77-6.27-15.59-10.49-23.13-15.75.07,4.55,7.24,12.53,10.46,16.6,4.49,5.68,9.37,10.63,15.51,16.03,12.98,11.42,37.22,28.83,53.55,26.93,1.91,3.66,3.84,7.31,5.79,10.94-16.85-8.94-42.28-21.81-55.39-31.01-5.98-4.2-10.4-6.23-16.77-11.08-9.99-7.59-19.76-12.81-29.41-19.22,1.46,4.71,9.64,15.22,13.79,19.97,5.85,6.69,12.54,11.9,20.36,18.53,15.97,13.53,48.95,26.26,68.99,25.72,1.01,1.87,2.03,3.74,3.04,5.6-17.51-7.85-45.5-11.14-60.62-11.37-9.18-.14-16.73-.59-24.66.59-5.62.83-17.39,3.33-21.23,5.87,10.24,1.47,19.83,3.9,31.01,4.72,7.13.52,11.27,1.86,17.75,2.61,13.33,1.54,43.12,2.14,61.68,4.73.46.82.92,1.64,1.38,2.46-16.02.92-37.3,6.61-47.96,8.17-5.29.78-10.17.89-16.92,1.05-9.98.23-18.67,2.06-27.83,2.91,2.99,3.43,13.62,4.89,18.71,5.92,7.09,1.44,14.04,2.88,22.2,2.22,14.79-1.19,40.99-4.84,56.71-11.81,2.19,3.66,4.43,7.21,6.73,10.57.39.57,1.51,2.13,2.82,3.9-12.56-.69-28.63.39-41.18,1.66-5.67.57-10.5,1.49-16.98.91-9.95-.89-18.91.51-28.08,1.2,2.93,3.48,13.73,6.34,18.8,7.47,7.07,1.57,13.98,2.76,22.15,2.62,19.14-.32,50.81.69,61.14-11.08Z"/>
      <path class="cls-1" d="M603.63,826.61c2.92-2.56,9.03-7.67,10.1-11.42-6.3,2.83-10.36,1.46-16.48,4.7-3.49,1.85-9.83,5.67-14.22,6.98-9.84,2.95-25.11,10.79-34.72,13.91,10.96,1.7,29.92-3.77,40.21-6.26,6.94-1.68,11.97-5.16,15.12-7.91Z"/>
      <path class="cls-1" d="M607.69,833.95c-2.05,1.88-5.65,5.72-8.49,7.14-6.36,3.17-15.38,11.16-21.54,14.48,8.39,1.16,20.71-4.75,27.52-7.51,4.59-1.86,7.33-5.33,8.89-8.05,1.45-2.52,4.54-7.58,4.34-11.15-3.83,2.91-7.13,1.79-10.72,5.09Z"/>
    </g>
    <g>
      <path class="cls-1" d="M25.7,543.6c.99-3.46,1.19-8.47.86-14.28,1.79-1.02,3.5-2.08,5.28-3.17,2.83-2.66,5.88-5.28,9.07-7.87,2.17,3.24,4.45,5.81,6.81,7.41.96-3.31.85-7.75.09-12.79.58-.44,1.16-.88,1.75-1.31-.07,2.12-.2,4.07-.39,5.77,2.29-2.37,4.16-5.69,5.7-9.67,2.33-1.69,4.68-3.37,7.03-5.04.05.24.11.48.17.71.14-.37.29-.76.44-1.14,3.36-2.39,6.73-4.78,10.04-7.17,6.27-4.53,13.45-9.2,19.61-13.69,2.57-1.87,7.76-5.72,9.93-7.69,11.35,1.49,28.38-5.1,37.83-10.76,4.83-2.89,10.08-5.46,14.16-9.34,2.81-2.67,8.27-8.49,8.98-12.32-6.01,3.41-12.29,6.8-18.66,9.53-4.56,1.95-7.34,3.48-10.93,5.07-8.96,3.94-22.74,12.64-31.96,17.1-3.08,1.21-3.93,2.11-7.23,4.31-.66.44-1.32.89-1.99,1.33,10.54-10.1,24.71-23.86,33.4-33,3.69-3.88,7.09-7.33,12.24-11.7,7.62-6.45,13.23-13.34,19.82-19.76-4.39-.08-13.64,4.95-18.27,7.16-6.53,3.11-12.2,7.21-18.66,12.23-13.6,10.56-30.02,30.51-31.19,46.86-4.81,3.23-9.58,6.5-14.32,9.79,8.25-12.37,18.58-35.71,26.06-47.17,2.92-4.48,5.56-7.82,9.1-13.58,5.23-8.51,8.41-16.8,12.67-24.95-4.51.65-11.5,8.78-15.14,12.49-5.06,5.17-9.35,10.65-13.92,17.43-9.67,14.33-23.85,40.6-19.88,56.54-3.39,2.36-6.76,4.74-10.11,7.13,6.72-17.85,16.24-44.72,23.69-58.89,3.4-6.46,4.86-11.11,8.85-18.05,6.25-10.88,10.18-21.24,15.31-31.62-4.49,2.05-13.87,11.5-18.05,16.22-5.89,6.66-10.2,13.95-15.78,22.56-11.39,17.56-19.81,51.9-16.71,71.71-1.73,1.24-3.45,2.49-5.17,3.73,5.55-18.36,5.25-46.55,3.54-61.57-1.04-9.12-1.55-16.67-3.73-24.38-1.54-5.46-5.52-16.83-8.53-20.31-.15,10.34-1.34,20.16-.73,31.36.39,7.14-.41,11.42-.32,17.94.18,13.42,3.37,43.04,3.18,61.78-.76.56-1.51,1.12-2.27,1.69-2.95-15.78-11.31-36.16-14.22-46.52-1.45-5.15-2.18-9.97-3.2-16.65-1.5-9.87-4.42-18.26-6.44-27.24-3.02,3.41-3.11,14.13-3.49,19.31-.52,7.22-1.06,14.3.63,22.3,3.06,14.52,10.02,40.03,18.94,54.75-3.35,2.64-6.59,5.31-9.63,8.03-.51.46-1.92,1.77-3.51,3.29-.92-12.55-4.04-28.35-6.9-40.63-1.29-5.55-2.82-10.22-3.07-16.73-.38-9.98-2.92-18.69-4.77-27.7-3.08,3.35-4.54,14.43-5.01,19.6-.65,7.21-.95,14.21.23,22.31,2.75,18.94,5.8,50.48,18.79,59.23Z"/>
      <path class="cls-1" d="M-2.29,541.38c2.91,2.57,8.76,7.98,12.62,8.56-3.61-5.89-2.77-10.09-6.77-15.75-2.28-3.23-6.87-9.03-8.74-13.22-4.18-9.39-13.91-23.53-18.22-32.67-.29,11.09,7.55,29.19,11.33,39.08,2.55,6.67,6.64,11.22,9.78,13.99Z"/>
    </g>
    <g>
      <path class="cls-1" d="M547.96,10.95c-.47,3.57.07,8.55,1.25,14.25-1.62,1.27-3.16,2.57-4.75,3.91-2.41,3.05-5.04,6.09-7.82,9.12-2.63-2.89-5.26-5.1-7.82-6.33-.46,3.41.3,7.79,1.79,12.66-.51.52-1.02,1.04-1.54,1.56-.24-2.11-.4-4.05-.46-5.77-1.91,2.68-3.28,6.24-4.21,10.4-2.05,2.01-4.13,4.02-6.21,6.02-.09-.23-.18-.46-.27-.68-.09.39-.18.79-.27,1.19-2.97,2.86-5.95,5.71-8.87,8.57-5.54,5.4-11.95,11.08-17.38,16.42-2.26,2.23-6.84,6.8-8.69,9.06-11.44.2-27.32,9.22-35.83,16.21-4.36,3.57-9.16,6.88-12.63,11.32-2.39,3.06-6.93,9.61-7.07,13.51,5.44-4.26,11.15-8.53,17.05-12.17,4.22-2.6,6.75-4.52,10.07-6.62,8.28-5.22,20.64-15.85,29.09-21.61,2.87-1.65,3.57-2.67,6.51-5.33.59-.54,1.18-1.07,1.77-1.61-8.94,11.54-20.93,27.23-28.19,37.56-3.08,4.38-5.93,8.29-10.39,13.37-6.59,7.51-11.12,15.14-16.69,22.46,4.35-.57,12.76-6.9,17.02-9.77,6.01-4.04,11.01-8.93,16.66-14.84,11.9-12.45,25.21-34.6,23.96-50.94,4.28-3.91,8.52-7.84,12.72-11.79-6.34,13.45-13.12,38.05-18.84,50.49-2.23,4.86-4.35,8.56-7.01,14.77-3.92,9.18-5.85,17.85-8.86,26.55,4.36-1.31,10.09-10.38,13.13-14.58,4.24-5.86,7.68-11.91,11.21-19.29,7.46-15.59,17.62-43.66,11.35-58.85,3.01-2.84,5.99-5.68,8.95-8.54-4.02,18.65-9.49,46.62-14.77,61.74-2.41,6.89-3.17,11.7-6.1,19.15-4.59,11.68-6.95,22.5-10.49,33.53,4.14-2.69,12.03-13.42,15.47-18.7,4.85-7.45,8.04-15.3,12.29-24.63,8.68-19.05,11.96-54.25,5.98-73.39,1.53-1.48,3.05-2.97,4.56-4.45-2.79,18.98,1.65,46.82,5.55,61.43,2.37,8.87,3.98,16.26,7.27,23.57,2.33,5.18,7.94,15.83,11.43,18.83-1.37-10.25-1.64-20.14-3.89-31.12-1.44-7.01-1.28-11.35-2.32-17.79-2.15-13.25-9.67-42.07-12.23-60.64.67-.67,1.33-1.33,1.99-2,5.24,15.17,16.5,34.1,20.91,43.93,2.19,4.88,3.62,9.54,5.61,16,2.94,9.55,7.06,17.41,10.37,25.99,2.49-3.82,1-14.44.61-19.62-.55-7.22-1.05-14.3-3.9-21.97-5.17-13.91-15.8-38.12-26.79-51.37,2.92-3.1,5.74-6.22,8.34-9.36.44-.53,1.64-2.03,2.99-3.77,2.75,12.28,8.17,27.45,12.8,39.18,2.09,5.3,4.29,9.7,5.5,16.1,1.85,9.81,5.64,18.06,8.8,26.7,2.56-3.77,2.37-14.94,2.07-20.13-.42-7.23-1.15-14.2-3.5-22.03-5.51-18.33-13.16-49.08-27.29-55.82Z"/>
      <path class="cls-1" d="M575.97,9.03c-3.25-2.11-9.84-6.6-13.74-6.61,4.44,5.3,4.22,9.57,9.01,14.58,2.73,2.86,8.13,7.92,10.59,11.79,5.52,8.67,17.22,21.23,22.83,29.63-1.34-11.01-11.76-27.76-16.96-36.99-3.5-6.22-8.22-10.12-11.73-12.4Z"/>
      <path class="cls-1" d="M581.92,3.13c2.37,1.46,7.04,3.88,9.18,6.22,4.78,5.26,14.92,11.77,19.79,16.79-1.17-8.39-10.21-18.63-14.71-24.44-3.04-3.91-7.12-5.61-10.16-6.37-2.82-.71-8.52-2.31-11.9-1.14,3.85,2.89,3.66,6.37,7.81,8.93Z"/>
    </g>
    <g>
      <path class="cls-1" d="M138.56,839.51c-1.54-3.26-4.69-7.15-8.77-11.3.68-1.95,1.26-3.87,1.88-5.86.37-3.87.94-7.85,1.63-11.9,3.77,1.01,7.18,1.44,10,1.08-1.46-3.12-4.47-6.39-8.36-9.67.15-.71.3-1.43.45-2.14,1.35,1.64,2.53,3.19,3.51,4.6.16-3.29-.62-7.03-2.09-11.02.64-2.8,1.3-5.61,1.96-8.43.2.14.4.29.59.42-.14-.37-.28-.76-.42-1.15.95-4.01,1.91-8.03,2.82-12.01,1.73-7.54,4.04-15.78,5.71-23.22.7-3.1,2.06-9.42,2.39-12.32,9.51-6.36,17.97-22.55,21.34-33.03,1.73-5.36,3.97-10.75,4.48-16.36.35-3.86.62-11.83-1.37-15.19-2.27,6.53-4.75,13.21-7.74,19.47-2.14,4.47-3.22,7.46-4.88,11.02-4.13,8.87-8.76,24.5-12.75,33.93-1.52,2.94-1.56,4.18-2.59,8.01-.21.77-.41,1.54-.62,2.31,1.26-14.55,2.84-34.23,3.35-46.84.22-5.35.5-10.18,1.49-16.87,1.47-9.88,1.15-18.75,1.86-27.92-3.35,2.84-6.99,12.72-9.02,17.43-2.86,6.65-4.42,13.47-5.96,21.5-3.26,16.91-2.44,42.74,7.46,55.8-1.48,5.6-2.92,11.21-4.31,16.81-1.96-14.74-9.58-39.1-11.52-52.65-.76-5.3-.98-9.55-2.11-16.21-1.68-9.85-4.75-18.18-6.93-27.11-2.96,3.46-2.86,14.19-3.14,19.37-.39,7.23,0,14.17,1.03,22.29,2.18,17.15,8.84,46.24,22.34,55.62-.99,4.01-1.95,8.02-2.9,12.03-6.72-17.85-17.28-44.33-21.03-59.9-1.71-7.1-3.67-11.55-5.25-19.4-2.47-12.3-6.35-22.68-9.34-33.87-2.02,4.5-2.84,17.79-2.87,24.1-.04,8.89,1.53,17.22,3.01,27.36,3.02,20.71,19.34,52.07,34.73,64.92-.48,2.07-.96,4.15-1.42,6.22-7.94-17.47-26.75-38.46-37.94-48.62-6.79-6.17-12.16-11.51-18.88-15.87-4.76-3.09-15.25-9-19.81-9.64,6.7,7.87,12.29,16.04,20.13,24.05,5,5.11,7.22,8.85,11.59,13.7,8.98,9.97,30.92,30.13,43.13,44.35-.2.92-.4,1.84-.59,2.76-12.62-9.91-32.35-19.72-41.37-25.6-4.48-2.92-8.21-6.06-13.38-10.41-7.64-6.43-15.37-10.81-22.8-16.23-.02,4.55,6.98,12.68,10.11,16.82,4.37,5.77,8.63,11.45,15.18,16.35,11.88,8.89,33.94,23.48,50.34,28.66-.78,4.19-1.45,8.34-1.95,12.39-.08.68-.28,2.59-.47,4.79-8.97-8.83-21.73-18.65-31.98-25.99-4.63-3.32-8.86-5.83-13.34-10.55-6.87-7.25-14.52-12.12-21.86-17.68-.11,4.55,6.1,13.84,9.16,18.04,4.26,5.85,8.66,11.31,14.88,16.62,14.56,12.42,37.65,34.13,53.18,32.14Z"/>
      <path class="cls-1" d="M116.05,856.3c3.88.01,11.85.22,15.13-1.88-6.6-2.05-8.73-5.76-15.47-7.38-3.84-.92-11.12-2.25-15.29-4.17-9.33-4.3-25.97-8.52-35.24-12.54,7.09,8.53,24.93,16.97,34.29,21.91,6.31,3.33,12.39,4.05,16.57,4.07Z"/>
    </g>
    <g>
      <path class="cls-1" d="M650.01,461.96c-3.31-1.42-8.25-2.26-14.05-2.67-.78-1.91-1.62-3.74-2.47-5.64-2.28-3.15-4.49-6.5-6.65-10,3.49-1.74,6.33-3.67,8.22-5.81-3.16-1.37-7.58-1.83-12.67-1.72-.36-.63-.72-1.27-1.08-1.9,2.1.34,4.01.72,5.68,1.13-2.06-2.57-5.12-4.86-8.86-6.88-1.38-2.52-2.74-5.07-4.1-7.62.24-.02.49-.05.73-.08-.35-.19-.71-.39-1.08-.58-1.94-3.64-3.88-7.28-5.83-10.87-3.69-6.8-7.41-14.51-11.08-21.19-1.53-2.79-4.68-8.43-6.36-10.83,2.92-11.06-1.44-28.8-5.85-38.89-2.25-5.16-4.13-10.69-7.46-15.23-2.29-3.13-7.36-9.28-11.08-10.48,2.62,6.4,5.18,13.05,7.07,19.72,1.35,4.77,2.52,7.72,3.63,11.49,2.77,9.39,9.64,24.17,12.88,33.87.81,3.21,1.59,4.16,3.35,7.72.35.72.71,1.43,1.07,2.14-8.67-11.74-20.51-27.55-28.47-37.34-3.38-4.15-6.37-7.96-10.04-13.63-5.43-8.38-11.54-14.82-17.07-22.17-.63,4.34,3.17,14.16,4.77,19.04,2.25,6.88,5.6,13.02,9.75,20.07,8.74,14.84,26.44,33.67,42.5,36.91,2.6,5.18,5.23,10.33,7.89,15.45-11.22-9.76-33.05-22.98-43.47-31.86-4.07-3.47-7.05-6.52-12.31-10.76-7.77-6.27-15.59-10.49-23.13-15.75.07,4.55,7.24,12.53,10.46,16.6,4.49,5.68,9.37,10.63,15.51,16.03,12.98,11.42,37.22,28.83,53.55,26.93,1.91,3.66,3.84,7.31,5.79,10.94-16.85-8.94-42.28-21.81-55.39-31.01-5.98-4.2-10.4-6.23-16.77-11.08-9.99-7.59-19.76-12.81-29.41-19.22,1.46,4.71,9.64,15.22,13.79,19.97,5.85,6.69,12.54,11.9,20.36,18.53,15.97,13.53,48.95,26.26,68.99,25.72,1.01,1.87,2.03,3.74,3.04,5.6-17.51-7.85-45.5-11.14-60.62-11.37-9.18-.14-16.73-.59-24.66.59-5.62.83-17.39,3.33-21.23,5.87,10.24,1.47,19.83,3.9,31.01,4.72,7.13.52,11.27,1.86,17.75,2.61,13.33,1.54,43.12,2.14,61.68,4.73.46.82.92,1.64,1.38,2.46-16.02.92-37.3,6.61-47.96,8.17-5.29.78-10.17.89-16.92,1.05-9.98.23-18.67,2.06-27.83,2.91,2.99,3.43,13.62,4.89,18.71,5.92,7.09,1.44,14.04,2.88,22.2,2.22,14.79-1.19,40.99-4.84,56.71-11.81,2.19,3.66,4.43,7.21,6.73,10.57.39.57,1.51,2.13,2.82,3.9-12.56-.69-28.63.39-41.18,1.66-5.67.57-10.5,1.49-16.98.91-9.95-.89-18.91.51-28.08,1.2,2.93,3.48,13.73,6.34,18.8,7.47,7.07,1.57,13.98,2.76,22.15,2.62,19.14-.32,50.81.69,61.14-11.08Z"/>
      <path class="cls-1" d="M644.24,489.44c2.92-2.56,9.03-7.67,10.1-11.42-6.3,2.83-10.36,1.46-16.48,4.7-3.49,1.85-9.83,5.67-14.22,6.98-9.84,2.95-25.11,10.79-34.72,13.91,10.96,1.7,29.92-3.77,40.21-6.26,6.94-1.68,11.97-5.16,15.12-7.91Z"/>
    </g>
    <g>
      <path class="cls-1" d="M185.8,29.88c2.74,2.34,7.21,4.59,12.63,6.7.18,2.05.44,4.05.69,6.11,1.25,3.68,2.37,7.54,3.39,11.52-3.85.63-7.14,1.64-9.57,3.12,2.61,2.24,6.7,3.99,11.6,5.39.16.71.31,1.42.47,2.14-1.9-.95-3.62-1.87-5.09-2.75,1.2,3.06,3.45,6.15,6.43,9.19.57,2.82,1.12,5.65,1.67,8.49-.24-.05-.48-.1-.72-.14.28.28.57.58.86.87.78,4.05,1.56,8.1,2.36,12.11,1.52,7.58,2.79,16.05,4.32,23.52.64,3.11,1.99,9.44,2.88,12.22-6.06,9.71-7.13,27.94-5.9,38.88.63,5.6.79,11.43,2.62,16.75,1.26,3.67,4.29,11.04,7.49,13.29-.61-6.88-1.09-14-.93-20.93.12-4.96-.12-8.12-.07-12.05.13-9.78-2.07-25.94-2.3-36.17.17-3.31-.29-4.45-.93-8.37-.13-.79-.26-1.57-.39-2.36,4.82,13.78,11.46,32.38,16.17,44.08,2,4.96,3.73,9.49,5.56,15.99,2.71,9.61,6.65,17.57,9.76,26.23,1.89-3.96,1.15-14.47,1.07-19.6-.12-7.24-1.5-14.09-3.38-22.05-3.97-16.76-15.31-39.97-29.7-47.82-.95-5.72-1.94-11.42-2.97-17.09,7.84,12.64,24.79,31.72,32.11,43.28,2.86,4.52,4.81,8.31,8.58,13.91,5.57,8.29,11.79,14.62,17.45,21.88,1.28-4.37-3.22-14.11-5.09-18.95-2.61-6.75-5.82-12.92-10.09-19.9-9.02-14.74-27.05-38.54-43.2-41.54-.74-4.07-1.51-8.12-2.3-12.16,13.46,13.52,33.95,33.33,43.76,45.99,4.47,5.77,8.09,9.03,12.75,15.54,7.3,10.2,15.1,18.08,22.42,27.05,0-4.94-4.71-17.39-7.27-23.15-3.61-8.12-8.46-15.07-13.98-23.72-11.26-17.65-39.01-39.55-58.32-44.95-.41-2.09-.83-4.17-1.25-6.25,14.41,12.67,40.18,24.09,54.56,28.77,8.73,2.84,15.81,5.51,23.73,6.72,5.61.86,17.6,1.95,22.02.66-9.34-4.43-17.79-9.58-28.23-13.67-6.66-2.61-10.22-5.11-16.19-7.73-12.28-5.41-40.56-14.78-57.54-22.74-.2-.92-.39-1.84-.59-2.76,15.58,3.86,37.59,4.71,48.23,6.36,5.29.82,9.98,2.15,16.48,4,9.61,2.73,18.45,3.55,27.45,5.44-1.85-4.16-11.57-8.7-16.13-11.19-6.35-3.47-12.57-6.9-20.55-8.68-14.48-3.23-40.59-7.48-57.67-5.47-1.01-4.14-2.1-8.2-3.31-12.09-.2-.66-.81-2.48-1.54-4.56,11.8,4.37,27.47,8.08,39.83,10.58,5.59,1.13,10.47,1.68,16.49,4.15,9.24,3.79,18.22,5.1,27.19,7.15-1.77-4.2-11.25-10.12-15.76-12.69-6.29-3.58-12.54-6.76-20.39-9.05-18.38-5.35-48.34-15.66-61.69-7.47Z"/>
      <path class="cls-1" d="M199.43,5.33c-3.54,1.58-10.89,4.66-13.03,7.93,6.86-.84,10.33,1.66,17.14.38,3.89-.73,11.07-2.51,15.65-2.47,10.28.09,27.18-2.89,37.28-3.03-9.97-4.86-29.69-5.24-40.26-5.9-7.12-.45-12.96,1.39-16.78,3.09Z"/>
    </g>
    <path class="cls-1" d="M-83.18,122.86c3.6-.04,8.45-1.28,13.93-3.25,1.48,1.43,2.99,2.77,4.54,4.15,3.36,1.95,6.74,4.13,10.13,6.45-2.49,3.01-4.3,5.92-5.16,8.64,3.44-.03,7.67-1.39,12.28-3.56.59.43,1.17.87,1.76,1.3-2.06.54-3.95.97-5.65,1.27,2.92,1.52,6.64,2.37,10.89,2.7,2.28,1.75,4.56,3.52,6.84,5.3-.21.12-.43.24-.63.36.4.03.81.06,1.22.09,3.25,2.54,6.5,5.09,9.73,7.58,6.13,4.72,12.65,10.27,18.71,14.89,2.53,1.93,7.7,5.81,10.2,7.32,1.81,11.3,12.98,25.74,21.1,33.19,4.15,3.81,8.11,8.1,12.99,10.91,3.36,1.93,10.49,5.51,14.37,5.1-4.98-4.79-10.02-9.84-14.45-15.17-3.17-3.81-5.43-6.04-7.97-9.04-6.33-7.46-18.6-18.19-25.5-25.75-2.04-2.61-3.14-3.16-6.19-5.7-.61-.51-1.23-1.02-1.84-1.53,12.69,7.22,29.91,16.88,41.16,22.61,4.77,2.43,9.05,4.7,14.7,8.4,8.36,5.46,16.56,8.88,24.59,13.36-1.18-4.23-8.63-11.66-12.07-15.48-4.84-5.38-10.39-9.64-17.04-14.4-14-10.03-37.81-20.07-53.81-16.54-4.47-3.69-8.96-7.33-13.47-10.93,14.21,4.38,39.52,7.63,52.65,11.53,5.13,1.53,9.08,3.1,15.61,4.85,9.65,2.59,18.5,3.28,27.53,5.03-1.91-4.14-11.7-8.52-16.29-10.95-6.4-3.37-12.87-5.92-20.68-8.37-16.49-5.18-45.71-11.29-59.87-2.94-3.23-2.58-6.47-5.13-9.72-7.66,19.03,1.35,47.49,2.82,63.2,5.92,7.17,1.41,12.03,1.49,19.82,3.33,12.21,2.89,23.26,3.71,34.67,5.66-3.25-3.72-14.98-10.02-20.69-12.68-8.06-3.75-16.28-5.8-26.12-8.7-20.08-5.91-55.39-4.19-73.5,4.43-1.68-1.3-3.37-2.6-5.05-3.89,19.18.09,46.12-8.24,60.03-14.16,8.44-3.59,15.54-6.24,22.31-10.52,4.8-3.04,14.55-10.09,17.03-13.97-9.95,2.8-19.71,4.46-30.26,8.24-6.73,2.41-11.06,2.87-17.29,4.81-12.81,3.99-40.29,15.5-58.31,20.66-.75-.57-1.51-1.13-2.26-1.69,14.28-7.33,31.43-21.15,40.54-26.89,4.53-2.86,8.93-4.93,15.05-7.81,9.04-4.25,16.24-9.45,24.27-13.94-4.13-1.92-14.43,1.04-19.51,2.16-7.07,1.56-14.01,3.06-21.2,6.96-13.04,7.08-35.51,21.02-47.07,33.76-3.48-2.46-6.97-4.8-10.44-6.94-.59-.36-2.24-1.34-4.15-2.43,11.77-4.46,26.02-11.96,36.98-18.2,4.95-2.82,9-5.62,15.16-7.71,9.46-3.21,17.08-8.13,25.19-12.47-4.09-2-15.13-.24-20.22.79-7.09,1.43-13.9,3.14-21.32,6.58-17.37,8.04-46.73,19.95-51.42,34.89Z"/>
    <g>
      <path class="cls-1" d="M342.94,737.31c-1.65-.71-4.12-1.13-7.01-1.33-.39-.95-.81-1.87-1.23-2.81-1.14-1.57-2.24-3.25-3.32-4.99,1.74-.87,3.16-1.83,4.1-2.9-1.58-.68-3.78-.92-6.32-.86-.18-.32-.36-.63-.54-.95,1.05.17,2,.36,2.83.56-1.03-1.28-2.55-2.42-4.42-3.43-.69-1.26-1.37-2.53-2.05-3.8.12-.01.24-.02.36-.04-.17-.09-.36-.19-.54-.29-.97-1.82-1.94-3.63-2.91-5.43-1.84-3.39-3.7-7.24-5.53-10.58-.76-1.39-2.34-4.21-3.17-5.4,1.46-5.52-.72-14.37-2.92-19.41-1.13-2.58-2.06-5.34-3.72-7.6-1.14-1.56-3.68-4.63-5.53-5.23,1.31,3.19,2.58,6.52,3.53,9.84.68,2.38,1.26,3.86,1.81,5.74,1.38,4.68,4.81,12.06,6.43,16.91.4,1.6.8,2.08,1.67,3.85.18.36.36.71.53,1.07-4.33-5.86-10.24-13.75-14.21-18.64-1.68-2.07-3.18-3.98-5.01-6.81-2.71-4.18-5.76-7.4-8.52-11.07-.32,2.17,1.58,7.07,2.38,9.5,1.12,3.43,2.79,6.5,4.87,10.02,4.36,7.41,13.2,16.8,21.22,18.42,1.3,2.59,2.61,5.16,3.94,7.71-5.6-4.87-16.5-11.47-21.7-15.9-2.03-1.73-3.52-3.25-6.14-5.37-3.88-3.13-7.78-5.23-11.55-7.86.04,2.27,3.62,6.25,5.22,8.29,2.24,2.83,4.68,5.31,7.74,8,6.48,5.7,18.58,14.39,26.73,13.44.95,1.83,1.92,3.65,2.89,5.46-8.41-4.46-21.11-10.89-27.65-15.48-2.98-2.09-5.19-3.11-8.37-5.53-4.99-3.79-9.87-6.39-14.68-9.59.73,2.35,4.81,7.6,6.88,9.97,2.92,3.34,6.26,5.94,10.16,9.25,7.97,6.76,24.43,13.11,34.44,12.84.5.93,1.01,1.87,1.52,2.8-8.74-3.92-22.71-5.56-30.26-5.67-4.58-.07-8.35-.29-12.31.29-2.8.42-8.68,1.66-10.6,2.93,5.11.73,9.9,1.95,15.48,2.36,3.56.26,5.63.93,8.86,1.3,6.65.77,21.52,1.07,30.79,2.36.23.41.46.82.69,1.23-8,.46-18.62,3.3-23.94,4.08-2.64.39-5.07.45-8.45.52-4.98.11-9.32,1.03-13.89,1.45,1.49,1.71,6.8,2.44,9.34,2.96,3.54.72,7.01,1.44,11.08,1.11,7.38-.59,20.46-2.42,28.31-5.89,1.09,1.83,2.21,3.6,3.36,5.28.19.28.75,1.06,1.41,1.95-6.27-.35-14.29.2-20.56.83-2.83.29-5.24.74-8.48.45-4.97-.45-9.44.26-14.02.6,1.46,1.74,6.86,3.17,9.39,3.73,3.53.78,6.98,1.38,11.06,1.31,9.55-.16,25.36.34,30.52-5.53Z"/>
      <path class="cls-1" d="M340.06,751.03c1.46-1.28,4.51-3.83,5.04-5.7-3.15,1.41-5.17.73-8.23,2.35-1.74.92-4.91,2.83-7.1,3.49-4.91,1.47-12.53,5.39-17.33,6.94,5.47.85,14.93-1.88,20.07-3.12,3.46-.84,5.98-2.57,7.55-3.95Z"/>
      <path class="cls-1" d="M342.08,754.69c-1.02.94-2.82,2.86-4.24,3.56-3.18,1.58-7.68,5.57-10.75,7.23,4.19.58,10.34-2.37,13.74-3.75,2.29-.93,3.66-2.66,4.44-4.02.72-1.26,2.27-3.78,2.16-5.56-1.91,1.45-3.56.89-5.35,2.54Z"/>
    </g>
    <g>
      <path class="cls-1" d="M437.79,589.22c-.02-1.8-.63-4.22-1.61-6.95.71-.74,1.38-1.49,2.08-2.26.98-1.68,2.07-3.36,3.23-5.05,1.5,1.25,2.95,2.15,4.31,2.58-.01-1.72-.69-3.83-1.77-6.13.22-.29.43-.58.65-.88.27,1.03.48,1.97.63,2.82.76-1.46,1.19-3.31,1.36-5.43.88-1.14,1.76-2.27,2.65-3.41.06.11.12.21.18.32.02-.2.03-.4.05-.61,1.27-1.62,2.54-3.24,3.79-4.85,2.36-3.06,5.14-6.31,7.45-9.33.96-1.26,2.91-3.84,3.66-5.08,5.64-.89,12.86-6.46,16.58-10.51,1.9-2.07,4.05-4.04,5.45-6.47.97-1.68,2.76-5.23,2.56-7.17-2.39,2.48-4.92,4.99-7.58,7.2-1.91,1.58-3.02,2.71-4.52,3.97-3.73,3.16-9.1,9.27-12.88,12.71-1.3,1.02-1.58,1.57-2.85,3.09-.26.31-.51.61-.76.92,3.62-6.33,8.45-14.92,11.32-20.53,1.22-2.38,2.36-4.51,4.2-7.33,2.73-4.17,4.44-8.26,6.69-12.26-2.11.58-5.83,4.3-7.73,6.01-2.69,2.41-4.82,5.18-7.2,8.49-5.02,6.98-10.05,18.86-8.3,26.85-1.84,2.23-3.67,4.47-5.47,6.72,2.2-7.09,3.84-19.72,5.8-26.27.77-2.56,1.56-4.53,2.43-7.79,1.3-4.81,1.65-9.23,2.53-13.74-2.07.95-4.26,5.83-5.48,8.12-1.69,3.19-2.97,6.42-4.2,10.31-2.6,8.23-5.67,22.81-1.51,29.88-1.29,1.61-2.56,3.23-3.83,4.85.69-9.5,1.44-23.7,3.01-31.54.71-3.58.75-6,1.68-9.89,1.45-6.09,1.87-11.61,2.85-17.3-1.86,1.62-5.01,7.47-6.34,10.32-1.88,4.02-2.91,8.12-4.36,13.03-2.96,10.02-2.13,27.64,2.15,36.69-.65.84-1.3,1.68-1.95,2.52.06-9.58-4.08-23.03-7.02-29.98-1.79-4.22-3.1-7.76-5.23-11.14-1.51-2.4-5.03-7.27-6.96-8.51,1.39,4.97,2.21,9.84,4.09,15.11,1.2,3.36,1.42,5.52,2.39,8.63,1.98,6.4,7.71,20.12,10.27,29.12-.28.38-.57.75-.85,1.13-3.65-7.13-10.53-15.71-13.39-20.26-1.42-2.26-2.46-4.46-3.89-7.52-2.12-4.51-4.7-8.11-6.94-12.13-.96,2.06.51,7.21,1.06,9.74.77,3.53,1.52,6.99,3.46,10.59,3.52,6.52,10.47,17.74,16.82,23.52-1.23,1.74-2.4,3.47-3.47,5.21-.18.29-.67,1.12-1.21,2.07-2.21-5.88-5.95-13-9.05-18.47-1.4-2.47-2.8-4.5-3.84-7.57-1.6-4.72-4.04-8.53-6.21-12.58-1,2.04-.13,7.55.38,10.09.71,3.54,1.56,6.94,3.27,10.65,4,8.68,9.92,23.34,17.38,25.69Z"/>
      <path class="cls-1" d="M424.08,592.12c1.75.82,5.32,2.58,7.25,2.31-2.56-2.31-2.75-4.44-5.47-6.58-1.55-1.22-4.57-3.35-6.05-5.09-3.33-3.9-9.99-9.3-13.35-13.06,1.43,5.35,7.75,12.9,10.96,17.1,2.16,2.83,4.77,4.43,6.66,5.31Z"/>
      <path class="cls-1" d="M421.55,595.45c-1.27-.56-3.75-1.43-4.97-2.44-2.73-2.27-8.2-4.78-10.95-6.92,1.16,4.07,6.34,8.5,8.97,11.05,1.77,1.72,3.91,2.28,5.47,2.44,1.44.15,4.37.55,5.96-.26-2.1-1.16-2.25-2.89-4.48-3.87Z"/>
    </g>
    <g>
      <path class="cls-1" d="M138.38,319.3c-.02-1.8-.63-4.22-1.61-6.95.71-.74,1.38-1.49,2.08-2.26.98-1.68,2.07-3.36,3.23-5.05,1.5,1.25,2.95,2.15,4.31,2.58-.01-1.72-.69-3.83-1.77-6.13.22-.29.43-.58.65-.88.27,1.03.48,1.97.63,2.82.76-1.46,1.19-3.31,1.36-5.43.88-1.14,1.76-2.27,2.65-3.41.06.11.12.21.18.32.02-.2.03-.4.05-.61,1.27-1.62,2.54-3.24,3.79-4.85,2.36-3.06,5.14-6.31,7.45-9.33.96-1.26,2.91-3.84,3.66-5.08,5.64-.89,12.86-6.46,16.58-10.51,1.9-2.07,4.05-4.04,5.45-6.47.97-1.68,2.76-5.23,2.56-7.17-2.39,2.48-4.92,4.99-7.58,7.2-1.91,1.58-3.02,2.71-4.52,3.97-3.73,3.16-9.1,9.27-12.88,12.71-1.3,1.02-1.58,1.57-2.85,3.09-.26.31-.51.61-.76.92,3.62-6.33,8.45-14.92,11.32-20.53,1.22-2.38,2.36-4.51,4.2-7.33,2.73-4.17,4.44-8.26,6.69-12.26-2.11.58-5.83,4.3-7.73,6.01-2.69,2.41-4.82,5.18-7.2,8.49-5.02,6.98-10.05,18.86-8.3,26.85-1.84,2.23-3.67,4.47-5.47,6.72,2.2-7.09,3.84-19.72,5.8-26.27.77-2.56,1.56-4.53,2.43-7.79,1.3-4.81,1.65-9.23,2.53-13.74-2.07.95-4.26,5.83-5.48,8.12-1.69,3.19-2.97,6.42-4.2,10.31-2.6,8.23-5.67,22.81-1.51,29.88-1.29,1.61-2.56,3.23-3.83,4.85.69-9.5,1.44-23.7,3.01-31.54.71-3.58.75-6,1.68-9.89,1.45-6.09,1.87-11.61,2.85-17.3-1.86,1.62-5.01,7.47-6.34,10.32-1.88,4.02-2.91,8.12-4.36,13.03-2.96,10.02-2.13,27.64,2.15,36.69-.65.84-1.3,1.68-1.95,2.52.06-9.58-4.08-23.03-7.02-29.98-1.79-4.22-3.1-7.76-5.23-11.14-1.51-2.4-5.03-7.27-6.96-8.51,1.39,4.97,2.21,9.84,4.09,15.11,1.2,3.36,1.42,5.52,2.39,8.63,1.98,6.4,7.71,20.12,10.27,29.12-.28.38-.57.75-.85,1.13-3.65-7.13-10.53-15.71-13.39-20.26-1.42-2.26-2.46-4.46-3.89-7.52-2.12-4.51-4.7-8.11-6.94-12.13-.96,2.06.51,7.21,1.06,9.74.77,3.53,1.52,6.99,3.46,10.59,3.52,6.52,10.47,17.74,16.82,23.52-1.23,1.74-2.4,3.47-3.47,5.21-.18.29-.67,1.12-1.21,2.07-2.21-5.88-5.95-13-9.05-18.47-1.4-2.47-2.8-4.5-3.84-7.57-1.6-4.72-4.04-8.53-6.21-12.58-1,2.04-.13,7.55.38,10.09.71,3.54,1.56,6.94,3.27,10.65,4,8.68,9.92,23.34,17.38,25.69Z"/>
      <path class="cls-1" d="M124.67,322.2c1.75.82,5.32,2.58,7.25,2.31-2.56-2.31-2.75-4.44-5.47-6.58-1.55-1.22-4.57-3.35-6.05-5.09-3.33-3.9-9.99-9.3-13.35-13.06,1.43,5.35,7.75,12.9,10.96,17.1,2.16,2.83,4.77,4.43,6.66,5.31Z"/>
      <path class="cls-1" d="M122.13,325.53c-1.27-.56-3.75-1.43-4.97-2.44-2.73-2.27-8.2-4.78-10.95-6.92,1.16,4.07,6.34,8.5,8.97,11.05,1.77,1.72,3.91,2.28,5.47,2.44,1.44.15,4.37.55,5.96-.26-2.1-1.16-2.25-2.89-4.48-3.87Z"/>
    </g>
    <g>
      <path class="cls-1" d="M485.8,215.06c-1.03,1.47-1.95,3.8-2.74,6.59-1.01.19-1.99.41-3.01.63-1.77.79-3.64,1.53-5.57,2.22-.49-1.89-1.15-3.47-2-4.61-.99,1.4-1.67,3.51-2.14,6.01-.35.11-.69.22-1.04.33.38-.99.76-1.88,1.13-2.66-1.47.74-2.9,2-4.27,3.63-1.37.41-2.76.82-4.14,1.23.01-.12.03-.24.04-.36-.13.15-.26.31-.39.47-1.98.58-3.95,1.15-5.91,1.74-3.7,1.11-7.85,2.14-11.49,3.25-1.52.46-4.6,1.43-5.94,2-5.11-2.56-14.22-2.24-19.6-1.12-2.75.57-5.65.93-8.2,2.09-1.76.8-5.29,2.65-6.25,4.34,3.39-.62,6.91-1.2,10.36-1.44,2.47-.17,4.03-.44,5.99-.6,4.87-.39,12.79-2.24,17.87-2.83,1.65-.07,2.2-.35,4.11-.85.39-.1.77-.2,1.16-.3-6.62,3.04-15.56,7.21-21.15,10.09-2.37,1.22-4.54,2.3-7.69,3.51-4.65,1.8-8.42,4.13-12.58,6.08,2.06.75,7.24-.1,9.79-.38,3.59-.4,6.93-1.4,10.8-2.71,8.14-2.75,19.15-9.47,22.38-16.99,2.8-.74,5.58-1.5,8.36-2.27-5.91,4.48-14.61,13.8-20.01,17.98-2.11,1.63-3.9,2.78-6.51,4.91-3.86,3.16-6.72,6.54-10.06,9.69,2.23.43,6.86-2.26,9.18-3.41,3.23-1.61,6.15-3.49,9.42-5.94,6.91-5.17,17.89-15.24,18.63-23.41,1.99-.56,3.96-1.13,5.94-1.71-6.09,7.32-14.98,18.43-20.81,23.89-2.66,2.49-4.11,4.44-7.13,7.06-4.73,4.11-8.28,8.35-12.4,12.4,2.45-.23,8.42-3.15,11.17-4.69,3.87-2.18,7.09-4.91,11.13-8.05,8.24-6.42,17.84-21.23,19.62-31.08,1.02-.3,2.04-.61,3.05-.91-5.62,7.75-10.1,21.09-11.75,28.46-1,4.47-2,8.12-2.23,12.11-.17,2.83-.15,8.84.7,10.97,1.77-4.85,3.93-9.29,5.48-14.67.99-3.43,2.06-5.32,3.09-8.41,2.11-6.36,5.46-20.85,8.62-29.65.45-.14.9-.28,1.34-.42-1.19,7.92-.59,18.9-.91,24.27-.16,2.67-.6,5.06-1.22,8.37-.91,4.9-.9,9.33-1.42,13.9,1.98-1.11,3.78-6.16,4.81-8.54,1.43-3.32,2.84-6.57,3.36-10.62.93-7.35,1.83-20.52.03-28.92,2.01-.7,3.98-1.43,5.86-2.21.32-.13,1.19-.52,2.19-.98-1.62,6.07-2.73,14.03-3.4,20.29-.3,2.83-.34,5.28-1.29,8.39-1.45,4.77-1.68,9.29-2.28,13.84,2-1.08,4.5-6.06,5.57-8.42,1.49-3.29,2.78-6.55,3.55-10.56,1.8-9.38,5.53-24.75.84-31.01Z"/>
      <path class="cls-1" d="M498.64,220.69c-.95-1.69-2.83-5.2-4.55-6.1.74,3.37-.35,5.21.61,8.54.55,1.9,1.76,5.38,1.96,7.66.44,5.11,2.71,13.37,3.24,18.39,1.95-5.18,1.22-15,1.05-20.28-.11-3.56-1.29-6.38-2.32-8.2Z"/>
      <path class="cls-1" d="M502.63,219.46c.71,1.19,2.22,3.34,2.62,4.88.9,3.43,3.88,8.66,4.87,12,1.42-3.98-.21-10.6-.86-14.21-.44-2.43-1.85-4.13-3.02-5.17-1.08-.96-3.24-2.99-5-3.26,1.03,2.17.15,3.67,1.39,5.76Z"/>
    </g>
    <g>
      <path class="cls-1" d="M13.69,709.98c-.02-1.8-.63-4.22-1.61-6.95.71-.74,1.38-1.49,2.08-2.26.98-1.68,2.07-3.36,3.23-5.05,1.5,1.25,2.95,2.15,4.31,2.58-.01-1.72-.69-3.83-1.77-6.13.22-.29.43-.58.65-.88.27,1.03.48,1.97.63,2.82.76-1.46,1.19-3.31,1.36-5.43.88-1.14,1.76-2.27,2.65-3.41.06.11.12.21.18.32.02-.2.03-.4.05-.61,1.27-1.62,2.54-3.24,3.79-4.85,2.36-3.06,5.14-6.31,7.45-9.33.96-1.26,2.91-3.84,3.66-5.08,5.64-.89,12.86-6.46,16.58-10.51,1.9-2.07,4.05-4.04,5.45-6.47.97-1.68,2.76-5.23,2.56-7.17-2.39,2.48-4.92,4.99-7.58,7.2-1.91,1.58-3.02,2.71-4.52,3.97-3.73,3.16-9.1,9.27-12.88,12.71-1.3,1.02-1.58,1.57-2.85,3.09-.26.31-.51.61-.76.92,3.62-6.33,8.45-14.92,11.32-20.53,1.22-2.38,2.36-4.51,4.2-7.33,2.73-4.17,4.44-8.26,6.69-12.26-2.11.58-5.83,4.3-7.73,6.01-2.69,2.41-4.82,5.18-7.2,8.49-5.02,6.98-10.05,18.86-8.3,26.85-1.84,2.23-3.67,4.47-5.47,6.72,2.2-7.09,3.84-19.72,5.8-26.27.77-2.56,1.56-4.53,2.43-7.79,1.3-4.81,1.65-9.23,2.53-13.74-2.07.95-4.26,5.83-5.48,8.12-1.69,3.19-2.97,6.42-4.2,10.31-2.6,8.23-5.67,22.81-1.51,29.88-1.29,1.61-2.56,3.23-3.83,4.85.69-9.5,1.44-23.7,3.01-31.54.71-3.58.75-6,1.68-9.89,1.45-6.09,1.87-11.61,2.85-17.3-1.86,1.62-5.01,7.47-6.34,10.32-1.88,4.02-2.91,8.12-4.36,13.03-2.96,10.02-2.13,27.64,2.15,36.69-.65.84-1.3,1.68-1.95,2.52.06-9.58-4.08-23.03-7.02-29.98-1.79-4.22-3.1-7.76-5.23-11.14-1.51-2.4-5.03-7.27-6.96-8.51,1.39,4.97,2.21,9.84,4.09,15.11,1.2,3.36,1.42,5.52,2.39,8.63,1.98,6.4,7.71,20.12,10.27,29.12-.28.38-.57.75-.85,1.13-3.65-7.13-10.53-15.71-13.39-20.26-1.42-2.26-2.46-4.46-3.89-7.52-2.12-4.51-4.7-8.11-6.94-12.13-.96,2.06.51,7.21,1.06,9.74.77,3.53,1.52,6.99,3.46,10.59,3.52,6.52,10.47,17.74,16.82,23.52-1.23,1.74-2.4,3.47-3.47,5.21-.18.29-.67,1.12-1.21,2.07-2.21-5.88-5.95-13-9.05-18.47-1.4-2.47-2.8-4.5-3.84-7.57-1.6-4.72-4.04-8.53-6.21-12.58-1,2.04-.13,7.55.38,10.09.71,3.54,1.56,6.94,3.27,10.65,4,8.68,9.92,23.34,17.38,25.69Z"/>
      <path class="cls-1" d="M-.03,712.88c1.75.82,5.32,2.58,7.25,2.31-2.56-2.31-2.75-4.44-5.47-6.58-1.55-1.22-4.57-3.35-6.05-5.09-3.33-3.9-9.99-9.3-13.35-13.06,1.43,5.35,7.75,12.9,10.96,17.1,2.16,2.83,4.77,4.43,6.66,5.31Z"/>
      <path class="cls-1" d="M-2.56,716.21c-1.27-.56-3.75-1.43-4.97-2.44-2.73-2.27-8.2-4.78-10.95-6.92,1.16,4.07,6.34,8.5,8.97,11.05,1.77,1.72,3.91,2.28,5.47,2.44,1.44.15,4.37.55,5.96-.26-2.1-1.16-2.25-2.89-4.48-3.87Z"/>
    </g>
    <g>
      <path class="cls-1" d="M221.1,511.8c-.73,1.65-1.17,4.1-1.4,7-.96.38-1.88.79-2.83,1.2-1.58,1.12-3.27,2.21-5.03,3.27-.85-1.75-1.8-3.18-2.86-4.13-.7,1.57-.95,3.77-.92,6.32-.32.18-.64.35-.96.53.18-1.04.38-2,.59-2.83-1.29,1.01-2.45,2.53-3.48,4.39-1.27.67-2.54,1.34-3.82,2.01-.01-.12-.02-.24-.03-.36-.1.17-.2.35-.29.53-1.83.95-3.65,1.9-5.46,2.86-3.41,1.81-7.28,3.62-10.63,5.42-1.4.75-4.23,2.3-5.44,3.12-5.51-1.51-14.38.57-19.44,2.72-2.59,1.1-5.36,2.01-7.64,3.64-1.57,1.13-4.67,3.63-5.29,5.48,3.21-1.27,6.54-2.52,9.88-3.43,2.39-.65,3.87-1.22,5.75-1.75,4.7-1.33,12.11-4.69,16.97-6.26,1.61-.39,2.09-.78,3.87-1.64.36-.17.72-.35,1.07-.52-5.91,4.27-13.85,10.1-18.78,14.02-2.09,1.66-4.01,3.14-6.86,4.94-4.21,2.67-7.46,5.69-11.15,8.41,2.16.34,7.08-1.51,9.53-2.28,3.44-1.09,6.53-2.73,10.07-4.76,7.45-4.29,16.94-13.03,18.64-21.03,2.6-1.27,5.18-2.56,7.75-3.86-4.93,5.55-11.64,16.38-16.12,21.53-1.75,2.01-3.29,3.49-5.43,6.09-3.17,3.85-5.31,7.73-7.98,11.47,2.27-.01,6.29-3.55,8.34-5.14,2.86-2.21,5.35-4.63,8.08-7.66,5.76-6.42,14.58-18.43,13.71-26.59,1.84-.94,3.67-1.88,5.49-2.83-4.55,8.37-11.1,20.99-15.76,27.49-2.12,2.96-3.16,5.16-5.61,8.31-3.84,4.95-6.49,9.8-9.74,14.58,2.36-.71,7.65-4.73,10.04-6.78,3.37-2.89,6-6.2,9.35-10.07,6.84-7.9,13.35-24.3,13.18-34.31.94-.5,1.88-.99,2.81-1.49-4.01,8.7-5.79,22.66-5.98,30.2-.11,4.58-.38,8.35.17,12.31.39,2.81,1.58,8.7,2.82,10.63.79-5.1,2.05-9.88,2.51-15.45.3-3.56.99-5.62,1.39-8.85.83-6.65,1.29-21.51,2.67-30.77.41-.23.83-.45,1.24-.68.38,8,3.11,18.65,3.84,23.98.36,2.65.39,5.08.44,8.45.06,4.98.93,9.33,1.31,13.91,1.73-1.48,2.51-6.77,3.05-9.31.75-3.53,1.51-7,1.22-11.07-.52-7.39-2.21-20.48-5.61-28.37,1.84-1.07,3.62-2.17,5.31-3.31.29-.19,1.07-.74,1.96-1.39-.41,6.27.05,14.29.62,20.56.26,2.83.69,5.25.37,8.48-.5,4.96.16,9.44.46,14.02,1.75-1.45,3.24-6.82,3.82-9.35.82-3.52,1.45-6.96,1.42-11.05-.06-9.55.6-25.36-5.22-30.58Z"/>
      <path class="cls-1" d="M234.79,514.82c-1.26-1.47-3.78-4.55-5.65-5.1,1.38,3.16.68,5.18,2.26,8.25.91,1.75,2.78,4.94,3.41,7.13,1.42,4.93,5.26,12.59,6.77,17.4.91-5.46-1.73-14.95-2.92-20.1-.8-3.47-2.51-6-3.87-7.59Z"/>
      <path class="cls-1" d="M238.47,512.84c.93,1.03,2.83,2.85,3.52,4.27,1.55,3.19,5.49,7.74,7.12,10.82.62-4.18-2.27-10.36-3.61-13.77-.9-2.3-2.62-3.69-3.97-4.48-1.25-.73-3.76-2.3-5.54-2.22,1.44,1.93.86,3.57,2.49,5.38Z"/>
    </g>
  </g>
  <g id="Lag_3" data-name="Lag 3">
    <rect class="cls-2" width="595.28" height="841.89"/>
  </g>
  <g id="Lag_1" data-name="Lag 1">
    <image width="163" height="195" transform="translate(185.8 248.98) scale(1.37 1.35)" xlink:href="../logo 2.png"/>
  </g>
</svg>